<?xml version="1.0" standalone="no"?><!DOCTYPE svg PUBLIC "-//W3C//DTD SVG 1.1//EN" "http://www.w3.org/Graphics/SVG/1.1/DTD/svg11.dtd"><svg t="1577675690914" class="icon" viewBox="0 0 1024 1024" version="1.1" xmlns="http://www.w3.org/2000/svg" p-id="10964" xmlns:xlink="http://www.w3.org/1999/xlink" width="200" height="200"><defs><style type="text/css"></style></defs><path d="M488.986 60.243c-6.307-5.402-14.118-7.95-21.979-7.198-6.625 0.484-16.121 3.726-27.068 16.516l-231.39 270.248L59.633 210.722c-22.157-19.21-42.529-7.538-50.2 1.312-9.853 11.36-14.02 31.02 6.641 48.932L182.273 405.04c3.266 2.831 6.554 4.767 9.825 6.325 11.443 9.702 31.03 13.647 48.748-7.048l250.523-292.589c17.783-20.772 7.976-42.612-2.383-51.485zM411.22 549.487H59.559c-31.927 0-57.811 25.88-57.811 57.804V958.95c0 31.926 25.884 57.81 57.81 57.81h351.657c31.926 0 57.81-25.879 57.81-57.81V607.29c0-31.925-25.879-57.804-57.805-57.804z m5.887 370.393c0 24.834-20.134 44.96-44.96 44.96H98.633c-24.834 0-44.96-20.128-44.96-44.96V646.366c0-24.833 20.132-44.96 44.96-44.96h273.512c24.832 0 44.96 20.132 44.96 44.96V919.88z m548.566-916H614.02c-31.927 0-57.806 25.884-57.806 57.81v351.658c0 31.925 25.88 57.81 57.806 57.81h351.656c31.926 0 57.81-25.885 57.81-57.81V61.69c0-31.927-25.88-57.811-57.812-57.811z m5.892 370.392c0 24.833-20.125 44.96-44.96 44.96H653.092c-24.832 0-44.96-20.132-44.96-44.96V100.763c0-24.832 20.133-44.96 44.96-44.96h273.514c24.834 0 44.96 20.133 44.96 44.96v273.508z m-5.892 178.032H614.02c-31.927 0-57.806 25.878-57.806 57.81V961.77c0 31.926 25.88 57.804 57.806 57.804h351.656c31.926 0 57.81-25.88 57.81-57.804V610.113c0-31.932-25.88-57.81-57.812-57.81z m5.892 370.39c0 24.834-20.125 44.961-44.96 44.961H653.092c-24.832 0-44.96-20.132-44.96-44.96V649.18c0-24.832 20.133-44.959 44.96-44.959h273.514c24.834 0 44.96 20.132 44.96 44.96v273.512z" p-id="10965"></path></svg>