<?xml version="1.0" standalone="no"?><!DOCTYPE svg PUBLIC "-//W3C//DTD SVG 1.1//EN" "http://www.w3.org/Graphics/SVG/1.1/DTD/svg11.dtd"><svg t="1573721109346" class="icon" viewBox="0 0 1024 1024" version="1.1" xmlns="http://www.w3.org/2000/svg" p-id="7902" xmlns:xlink="http://www.w3.org/1999/xlink" width="200" height="200"><defs><style type="text/css"></style></defs><path d="M193.186247 250.619996l-3.316199-70.910219h-150.569559l-3.316199 70.910219zM186.553848 108.799559l-3.598429-77.18983h-136.740302l-3.598429 77.18983zM32.668091 321.600772l-32.668091 698.871356h229.170537l-32.668091-698.871356zM1023.576655 708.67884c-4.304003-18.203817-54.11755-32.526976-115.07917-32.526976-60.961621 0-110.775167 14.393716-115.07917 32.526976h-0.423345v311.793288h231.00503v-311.793288h-0.423345zM693.438435 596.421967V450.650314h-370.497072v180.203679c0 69.710742-4.092331 139.421484-12.276993 208.567767l-21.378902 181.120926h449.027493l-23.283953-147.817819c-14.323159-91.301316-21.590574-183.731551-21.590573-276.3029zM682.149246 45.721215c-77.542617 0-140.338731 62.866671-140.338731 140.338731 0 18.979949 3.810101 37.113209 10.654172 53.623648-3.457314-0.493902-7.055743-0.846689-10.654172-0.846689-40.288293 0-72.885827 32.668091-72.885827 72.885826s32.668091 72.885827 72.885827 72.885827c40.288293 0 72.885827-32.668091 72.885826-72.885827 0-0.917247-0.070557-1.763936-0.141115-2.610625 20.03831 11.077517 43.110591 17.357128 67.59402 17.357128 77.542617 0 140.338731-62.866671 140.33873-140.33873 0-77.542617-62.796114-140.409288-140.33873-140.409289z" fill="" p-id="7903"></path><path d="M922.397299 856.849445h-27.799628V659.50031c0-41.134982-33.51478-74.649762-74.649762-74.649762H113.385792v-27.799628h706.562117c56.445945 0 102.44939 45.932888 102.44939 102.44939v197.349135z" fill="" p-id="7904"></path></svg>
