<?xml version="1.0" standalone="no"?><!DOCTYPE svg PUBLIC "-//W3C//DTD SVG 1.1//EN" "http://www.w3.org/Graphics/SVG/1.1/DTD/svg11.dtd"><svg t="1573458924470" class="icon" viewBox="0 0 1024 1024" version="1.1" xmlns="http://www.w3.org/2000/svg" p-id="6326" xmlns:xlink="http://www.w3.org/1999/xlink" width="200" height="200"><defs><style type="text/css"></style></defs><path d="M512 0C350.6176 0 197.8368 36.0448 60.6208 99.9424c-9.8304 4.5056-15.9744 14.336-15.9744 24.9856v773.7344c0 10.6496 6.144 20.48 15.9744 24.9856C197.8368 987.9552 350.6176 1024 512 1024c161.3824 0 314.1632-36.0448 451.3792-99.9424 9.8304-4.5056 15.9744-14.336 15.9744-24.9856V125.3376c0-10.6496-6.144-20.48-15.9744-24.9856C826.1632 36.0448 673.3824 0 512 0z m0 122.0608c27.8528 0 50.7904 22.528 50.7904 50.7904 0 27.8528-22.528 50.7904-50.7904 50.7904-27.8528 0-50.7904-22.528-50.7904-50.7904s22.9376-50.7904 50.7904-50.7904z m0 799.1296c-27.8528 0-50.7904-22.528-50.7904-50.7904s22.528-50.7904 50.7904-50.7904c27.8528 0 50.7904 22.528 50.7904 50.7904s-22.9376 50.7904-50.7904 50.7904z m393.216-72.0896c-4.9152 8.6016-15.9744 11.0592-24.576 6.144-109.3632-65.536-235.1104-100.352-363.3152-100.352-132.7104 0-262.144 36.864-374.3744 106.9056-2.8672 2.048-6.144 2.8672-9.4208 2.8672-6.144 0-11.8784-2.8672-15.1552-8.192-5.3248-8.192-2.8672-19.2512 5.7344-24.576 117.5552-73.728 253.5424-112.64 393.216-112.64 134.7584 0 266.6496 36.4544 381.7472 105.2672 8.6016 4.9152 11.4688 15.9744 6.144 24.576z m-6.144-609.0752c-115.0976 68.8128-246.9888 105.2672-381.7472 105.2672-139.6736 0-275.2512-38.912-393.216-112.64-8.192-5.3248-11.0592-16.384-5.7344-24.576 5.3248-8.192 16.384-11.0592 24.576-5.7344C255.5904 272.384 385.024 309.6576 517.7344 309.6576c128.2048 0 253.952-34.816 363.3152-100.352 8.6016-4.9152 19.2512-2.4576 24.576 6.144 4.9152 8.192 2.048 19.2512-6.5536 24.576z" fill="" p-id="6327"></path></svg>