<?xml version="1.0" standalone="no"?><!DOCTYPE svg PUBLIC "-//W3C//DTD SVG 1.1//EN" "http://www.w3.org/Graphics/SVG/1.1/DTD/svg11.dtd"><svg t="1573721296895" class="icon" viewBox="0 0 1024 1024" version="1.1" xmlns="http://www.w3.org/2000/svg" p-id="8021" xmlns:xlink="http://www.w3.org/1999/xlink" width="200" height="200"><defs><style type="text/css"></style></defs><path d="M621.32874 901.512299l-586.543926-209.767243c-22.79005-8.114105-34.784814-33.444222-26.600152-56.234273l113.950252-318.637359c8.114105-22.79005 33.444222-34.784814 56.234272-26.600152L764.913112 500.040515c22.79005 8.114105 34.784814 33.444222 26.600152 56.234273l-113.950252 318.63736c-8.114105 22.79005-33.444222 34.714256-56.234272 26.600151zM568.481224 339.592917l-136.52863-48.825743c-11.571419-4.162888-24.483429 1.975608-28.575759 13.547027-4.162888 11.571419 1.975608 24.483429 13.547026 28.57576l136.52863 48.825742c11.571419 4.162888 24.483429-1.975608 28.57576-13.547027 4.162888-11.500861-1.975608-24.412871-13.547027-28.575759zM756.163991 807.600358l119.665403 140.973748c15.452077 18.203817 44.874526 12.841452 52.918074-9.666368l88.479019-247.515469c8.043547-22.507821-11.289189-45.297871-34.784814-40.993868l-181.897058 33.161993-44.380624 124.039964z" fill="" p-id="8022"></path><path d="M513.09364 339.592917h-40.782195c-1.128919 0-1.975608-0.917247-1.975608-1.975608V21.308344c0-1.128919 0.917247-1.975608 1.975608-1.975608h40.782195c1.128919 0 1.975608 0.917247 1.975608 1.975608v316.308965c0 1.128919-0.917247 1.975608-1.975608 1.975608z" fill="" p-id="8023"></path></svg>
