<?xml version="1.0" standalone="no"?><!DOCTYPE svg PUBLIC "-//W3C//DTD SVG 1.1//EN" "http://www.w3.org/Graphics/SVG/1.1/DTD/svg11.dtd"><svg t="1571967808228" class="icon" viewBox="0 0 1024 1024" version="1.1" xmlns="http://www.w3.org/2000/svg" p-id="5192" xmlns:xlink="http://www.w3.org/1999/xlink" width="200" height="200"><defs><style type="text/css"></style></defs><path d="M509.952 490.496s0-0.512 0.512-0.512h-0.512v0.512z" p-id="5193" fill=""></path><path d="M915.968 104.96H108.544C57.344 104.96 15.36 147.456 15.36 198.656v621.056c0 51.712 41.984 93.184 93.184 93.184h806.912c51.712 0 93.184-41.984 93.184-93.184V198.144c0.512-51.2-41.472-93.184-92.672-93.184z m15.36 619.52l-195.072-260.096s-11.264-20.992-51.712-20.992c-45.056 0-58.368 19.968-58.368 19.968L455.68 727.04s-9.216 17.92-32.256 17.92c-24.064 0-35.328-17.92-35.328-17.92l-90.112-102.4s-23.04-30.72-53.248-30.72c-29.696 0-54.784 33.792-54.784 33.792l-98.304 122.88V213.504c0-17.408 14.336-31.232 31.232-31.232h776.704c17.408 0 31.232 14.336 31.232 31.232v510.976h0.512z m-465.92-339.968c0 60.928-49.152 110.08-110.08 110.08S245.76 445.44 245.76 384.512s49.152-110.08 110.08-110.08c60.416 0 109.568 49.152 109.568 110.08z" p-id="5194" fill=""></path></svg>