<?xml version="1.0" standalone="no"?><!DOCTYPE svg PUBLIC "-//W3C//DTD SVG 1.1//EN" "http://www.w3.org/Graphics/SVG/1.1/DTD/svg11.dtd"><svg t="1571971345254" class="icon" viewBox="0 0 1024 1024" version="1.1" xmlns="http://www.w3.org/2000/svg" p-id="6062" xmlns:xlink="http://www.w3.org/1999/xlink" width="200" height="200"><defs><style type="text/css"></style></defs><path d="M414.016 157.696a1.464 1.464 0 1 0 187.392 0 1.464 1.464 0 1 0-187.392 0zM570.624 292.864h-121.92c-41.152 0-78.144 14.976-104.448 38.912V573.44h91.648l19.712 283.84H567.68l19.072-283.84h92.992V336.32c-26.496-26.56-65.472-43.456-109.12-43.456z" fill="" p-id="6063"></path><path d="M654.272 685.376v49.408c103.872 15.36 175.232 47.232 175.232 84.032 0 52.032-142.144 94.08-317.44 94.08s-317.504-42.048-317.504-94.08c0-36.928 71.872-68.864 176.448-84.288v-49.344C197.376 704 72.32 756.672 72.32 818.816 72.192 896.768 269.184 960 512 960s439.744-63.232 439.744-141.12c0-62.016-124.48-114.496-297.472-133.504z" fill="" p-id="6064"></path></svg>