<?xml version="1.0" standalone="no"?><!DOCTYPE svg PUBLIC "-//W3C//DTD SVG 1.1//EN" "http://www.w3.org/Graphics/SVG/1.1/DTD/svg11.dtd"><svg t="1567929732910" class="icon" viewBox="0 0 1024 1024" version="1.1" xmlns="http://www.w3.org/2000/svg" p-id="4588" xmlns:xlink="http://www.w3.org/1999/xlink" width="200" height="200"><defs><style type="text/css"></style></defs><path d="M270.968923 57.464783M659.966495 920.934646l0 1.675152-1.769296-0.854461-1.769296 0.854461 0-1.675152L368.775506 784.575002 368.775506 104.903212l289.812595 136.992047L947.585121 104.903212l0 679.671791L659.966495 920.934646zM646.966413 367.653451c-78.69327 0-142.516878 64.735373-142.516878 144.613632 0 79.853699 142.516878 241.017262 142.516878 241.017262s142.512784-161.163563 142.512784-241.017262C789.479197 432.388824 725.689359 367.653451 646.966413 367.653451zM575.705416 500.214583c0-39.935548 31.895431-72.297606 71.26202-72.297606 39.359426 0 71.255881 32.362059 71.255881 72.297606 0 39.919175-31.896454 72.307839-71.255881 72.307839C607.600847 572.522422 575.705416 540.14092 575.705416 500.214583zM76.413855 239.413741 367.595634 101.391225l0 679.682024L76.413855 919.086555 76.413855 239.413741zM122.0001 842.60465l202.402803-111.375623L324.402903 182.826955 122.0001 294.192346 122.0001 842.60465z" p-id="4589"></path></svg>