<?xml version="1.0" standalone="no"?><!DOCTYPE svg PUBLIC "-//W3C//DTD SVG 1.1//EN" "http://www.w3.org/Graphics/SVG/1.1/DTD/svg11.dtd"><svg t="1577519851512" class="icon" viewBox="0 0 1024 1024" version="1.1" xmlns="http://www.w3.org/2000/svg" p-id="9951" xmlns:xlink="http://www.w3.org/1999/xlink" width="200" height="200"><defs><style type="text/css"></style></defs><path d="M927.6 260.1H320.1c-17.7 0-32-14.3-32-32s14.3-32 32-32h607.5c17.7 0 32 14.3 32 32s-14.3 32-32 32z" p-id="9952"></path><path d="M293.5 356.2H97.1c-17.7 0-32-14.3-32-32V132c0-17.7 14.3-32 32-32h196.4c17.7 0 32 14.3 32 32v192.3c0 17.6-14.3 31.9-32 31.9z m-164.4-64h132.4V164H129.1v128.2zM923.8 832.7H316.2c-17.7 0-32-14.3-32-32s14.3-32 32-32h607.5c17.7 0 32 14.3 32 32s-14.3 32-31.9 32z" p-id="9953"></path><path d="M289.7 928.8H93.2c-17.7 0-32-14.3-32-32V704.6c0-17.7 14.3-32 32-32h196.4c17.7 0 32 14.3 32 32v192.3c0.1 17.6-14.2 31.9-31.9 31.9z m-164.5-64h132.4V736.6H125.2v128.2z" p-id="9954"></path><path d="M703.7 561.9H96.1c-17.7 0-32-14.3-32-32s14.3-32 32-32h607.5c17.7 0 32 14.3 32 32s-14.3 32-31.9 32z" p-id="9955"></path><path d="M926.7 658H730.2c-17.7 0-32-14.3-32-32V433.8c0-17.7 14.3-32 32-32h196.4c17.7 0 32 14.3 32 32V626c0.1 17.7-14.3 32-31.9 32z m-164.5-64h132.4V465.8H762.2V594z" p-id="9956"></path></svg>