<?xml version="1.0" standalone="no"?><!DOCTYPE svg PUBLIC "-//W3C//DTD SVG 1.1//EN" "http://www.w3.org/Graphics/SVG/1.1/DTD/svg11.dtd"><svg t="1571294737073" class="icon" viewBox="0 0 1024 1024" version="1.1" xmlns="http://www.w3.org/2000/svg" p-id="7710" xmlns:xlink="http://www.w3.org/1999/xlink" width="200" height="200"><defs><style type="text/css"></style></defs><path d="M282.88 495.36L512 311.04l229.12 191.147A42.667 42.667 0 0 0 768 512a42.667 42.667 0 0 0 32.853-15.36 42.667 42.667 0 0 0-5.546-60.16l-256-213.333a42.667 42.667 0 0 0-54.187 0l-256 206.08a42.667 42.667 0 0 0-6.4 60.16 42.667 42.667 0 0 0 60.16 5.973z" p-id="7711" fill=""></path><path d="M539.307 521.813a42.667 42.667 0 0 0-54.187 0l-256 206.08a42.667 42.667 0 0 0-6.4 60.16 42.667 42.667 0 0 0 60.16 6.4L512 609.707l229.12 191.146a42.667 42.667 0 0 0 26.88 9.814 42.667 42.667 0 0 0 32.853-15.36 42.667 42.667 0 0 0-5.546-60.16z" p-id="7712" fill=""></path></svg>