<?xml version="1.0" standalone="no"?><!DOCTYPE svg PUBLIC "-//W3C//DTD SVG 1.1//EN" "http://www.w3.org/Graphics/SVG/1.1/DTD/svg11.dtd"><svg t="1573721396406" class="icon" viewBox="0 0 1024 1024" version="1.1" xmlns="http://www.w3.org/2000/svg" p-id="8178" xmlns:xlink="http://www.w3.org/1999/xlink" width="200" height="200"><defs><style type="text/css"></style></defs><path d="M512 42.496c63.488 0 124.928 12.288 182.784 36.864 27.648 11.776 54.784 26.112 79.872 43.52 25.088 16.896 48.128 36.352 69.632 57.344 20.992 20.992 40.448 44.544 57.344 69.632 16.896 25.088 31.744 51.712 43.52 79.872 24.576 57.856 36.864 119.296 36.864 182.784 0 63.488-12.288 124.928-36.864 182.784-11.776 27.648-26.112 54.784-43.52 79.872-16.896 25.088-36.352 48.128-57.344 69.632-20.992 20.992-44.544 40.448-69.632 57.344-25.088 16.896-51.712 31.744-79.872 43.52-57.856 24.576-119.296 36.864-182.784 36.864s-124.928-12.8-182.784-36.864c-27.648-11.776-54.784-26.112-79.872-43.52-25.088-16.896-48.128-36.352-69.632-57.344-20.992-20.992-40.448-44.544-57.344-69.632-16.896-25.088-31.744-51.712-43.52-79.872-24.576-57.856-36.864-119.296-36.864-182.784 0-63.488 12.288-124.928 36.864-182.784 11.776-27.648 26.112-54.784 43.52-79.872 16.896-25.088 36.352-48.128 57.344-69.632 20.992-20.992 44.544-40.448 69.632-57.344 25.088-16.896 51.712-31.744 79.872-43.52 57.856-24.576 119.296-36.864 182.784-36.864m0-42.496c-282.624 0-512 229.376-512 512s229.376 512 512 512S1024 794.624 1024 512 794.624 0 512 0z" fill="" p-id="8179"></path><path d="M796.672 521.216c-74.24-74.24-173.056-115.2-277.504-115.2-105.472 0-204.288 40.96-277.504 115.2l-66.56-66.048c91.136-92.16 213.504-142.848 344.064-142.848 130.048 0 251.904 50.688 344.064 142.848l-66.56 66.048z" fill="" p-id="8180"></path><path d="M669.184 648.704c-39.936-39.936-93.184-61.952-150.016-61.952s-110.08 22.016-150.016 61.952l-66.56-66.56c57.856-57.856 134.656-89.6 216.576-89.6s158.72 31.744 216.576 89.6l-66.56 66.56zM543.744 774.144c-6.656-6.656-15.36-10.24-24.576-10.24-9.728 0-17.92 3.584-24.064 9.728l-68.096-65.024c23.552-24.576 56.832-38.912 91.648-38.912 34.304 0 66.56 13.312 91.136 37.888l-66.048 66.56z" fill="" p-id="8181"></path></svg>
