<?xml version="1.0" standalone="no"?><!DOCTYPE svg PUBLIC "-//W3C//DTD SVG 1.1//EN" "http://www.w3.org/Graphics/SVG/1.1/DTD/svg11.dtd"><svg t="1576915787994" class="icon" viewBox="0 0 1024 1024" version="1.1" xmlns="http://www.w3.org/2000/svg" p-id="5661" xmlns:xlink="http://www.w3.org/1999/xlink" width="200" height="200"><defs><style type="text/css"></style></defs><path d="M894.1990413 813.64928061h25.64018884c41.37622583 0 74.90957183 33.48307015 74.90957036 75.41232014 0 41.62760073-33.98581846 75.41232014-74.90957036 75.41232014H114.43565096C73.10969952 964.47392089 39.52607911 930.99085075 39.52607911 889.06160075c0-41.62760073 33.98581846-75.41232014 74.90957185-75.41232014H140.07583979V159.8244649C140.07583979 104.42154752 185.42378066 59.52607911 241.07807294 59.52607911h401.29409343C698.17728328 59.52607911 743.37440099 104.47182192 743.37440099 159.72391466v276.46156566a50.27487962 50.27487962 0 0 0 50.22460522 50.67707914h50.37542985c27.75173381 0 50.22460522 22.37232116 50.22460524 50.22460522V813.64928061zM240.62559901 210.30044501v50.37542987c0 27.95283284 22.4728714 50.22460522 50.22460523 50.22460522h50.37542987a50.07378058 50.07378058 0 0 0 50.22460521-50.22460522V210.30044501A50.07378058 50.07378058 0 0 0 341.22563411 160.07583979h-50.37542987a50.07378058 50.07378058 0 0 0-50.22460523 50.22460522z m0 251.37439953v50.37542984c0 27.95283284 22.4728714 50.22460522 50.22460523 50.22460524h50.37542987a50.07378058 50.07378058 0 0 0 50.22460521-50.22460524v-50.37542984a50.07378058 50.07378058 0 0 0-50.22460521-50.22460522h-50.37542987a50.07378058 50.07378058 0 0 0-50.22460523 50.22460522z m0 251.37440099v50.37542984c0 27.95283284 22.4728714 50.22460522 50.22460523 50.22460524h50.37542987a50.07378058 50.07378058 0 0 0 50.22460521-50.22460524v-50.37542984a50.07378058 50.07378058 0 0 0-50.22460521-50.22460522h-50.37542987a50.07378058 50.07378058 0 0 0-50.22460523 50.22460522z m251.37440099-502.74880052v50.37542987c0 27.95283284 22.4728714 50.22460522 50.22460522 50.22460522h50.37542987a50.07378058 50.07378058 0 0 0 50.22460522-50.22460522V210.30044501A50.07378058 50.07378058 0 0 0 592.60003509 160.07583979h-50.37542987a50.07378058 50.07378058 0 0 0-50.22460522 50.22460522z m0 251.37439953v50.37542984c0 27.95283284 22.4728714 50.22460522 50.22460522 50.22460524h50.37542987a50.07378058 50.07378058 0 0 0 50.22460522-50.22460524v-50.37542984a50.07378058 50.07378058 0 0 0-50.22460522-50.22460522h-50.37542987a50.07378058 50.07378058 0 0 0-50.22460522 50.22460522z m0 251.37440099v50.37542984c0 27.95283284 22.4728714 50.22460522 50.22460522 50.22460524h50.37542987a50.07378058 50.07378058 0 0 0 50.22460522-50.22460524v-50.37542984a50.07378058 50.07378058 0 0 0-50.22460522-50.22460522h-50.37542987a50.07378058 50.07378058 0 0 0-50.22460522 50.22460522z" p-id="5662"></path></svg>