<?xml version="1.0" standalone="no"?><!DOCTYPE svg PUBLIC "-//W3C//DTD SVG 1.1//EN" "http://www.w3.org/Graphics/SVG/1.1/DTD/svg11.dtd"><svg t="1573721407335" class="icon" viewBox="0 0 1024 1024" version="1.1" xmlns="http://www.w3.org/2000/svg" p-id="8336" xmlns:xlink="http://www.w3.org/1999/xlink" width="200" height="200"><defs><style type="text/css"></style></defs><path d="M174.547058 477.14703H403.984015v53.126086h-229.436957zM764.225438 216.384732h-315.511093c-24.552294 0-44.659777 20.107482-44.659777 44.659777v216.102521h192.044095l-91.083367-91.083367 44.730329-44.73033 162.270911 162.270911-0.141105 0.141105 0.141105 0.141105-162.270911 162.270911-44.730329-44.730329L596.098663 530.343668H403.984015v253.001516c0 24.552294 20.107482 44.659777 44.659777 44.659777h315.511093c24.552294 0 44.659777-20.107482 44.659777-44.659777V261.044509c0.070553-24.552294-20.03693-44.659777-44.589224-44.659777z" fill="#515151" p-id="8337"></path><path d="M512 42.331542c63.42676 0 124.948601 12.417252 182.801709 36.898994 27.797713 11.782279 54.678242 26.316109 79.794956 43.319278 24.905057 16.791512 48.257958 36.122916 69.564834 57.359239 21.236324 21.236324 40.567728 44.659777 57.35924 69.564834 16.932617 25.116715 31.536999 51.926691 43.319278 79.794957 24.481742 57.853107 36.898994 119.374948 36.898994 182.801709s-12.417252 124.948601-36.898994 182.801708c-11.782279 27.797713-26.316109 54.678242-43.319278 79.794957-16.791512 24.905057-36.122916 48.257958-57.35924 69.564834-21.236324 21.236324-44.659777 40.567728-69.564834 57.359239-25.116715 16.932617-51.926691 31.536999-79.794956 43.319278-57.853107 24.481742-119.374948 36.898994-182.801709 36.898994S387.051399 969.180653 329.198291 944.698911c-27.797713-11.782279-54.678242-26.316109-79.794956-43.319278-24.905057-16.791512-48.257958-36.122916-69.564834-57.359239-21.236324-21.236324-40.567728-44.659777-57.35924-69.564834-16.932617-25.116715-31.536999-51.926691-43.319278-79.794956-24.481742-57.853107-36.898994-119.374948-36.898994-182.801709s12.417252-124.948601 36.898994-182.801709c11.782279-27.797713 26.316109-54.678242 43.319278-79.794956 16.791512-24.905057 36.122916-48.257958 57.35924-69.564834 21.236324-21.236324 44.659777-40.567728 69.564834-57.35924 25.116715-16.932617 51.926691-31.536999 79.794956-43.319278 57.853107-24.270084 119.374948-36.687336 182.801709-36.687336m0-42.331542c-282.7747 0-512 229.2253-512 512s229.2253 512 512 512 512-229.2253 512-512-229.295852-512-512-512z" fill="#515151" p-id="8338"></path></svg>