<?xml version="1.0" standalone="no"?><!DOCTYPE svg PUBLIC "-//W3C//DTD SVG 1.1//EN" "http://www.w3.org/Graphics/SVG/1.1/DTD/svg11.dtd"><svg class="icon" width="200px" height="200.00px" viewBox="0 0 1024 1024" version="1.1" xmlns="http://www.w3.org/2000/svg"><path d="M512 370.036364m-370.036364 0a370.036364 370.036364 0 1 0 740.072728 0 370.036364 370.036364 0 1 0-740.072728 0Z" fill="#00569E" /><path d="M167.563636 801.745455h690.036364V1024H167.563636z" fill="#00569E" /><path d="M307.2 863.418182c-2.327273 8.145455-5.818182 17.454545-10.472727 25.6v84.945454h-12.8v-64c-3.490909 4.654545-6.981818 8.145455-10.472728 12.8l-4.654545-15.127272c11.636364-13.963636 20.945455-30.254545 26.763636-48.872728l11.636364 4.654546z m4.654545 0H372.363636v41.890909h-23.272727v9.309091h33.745455v12.8h-23.272728c5.818182 10.472727 13.963636 19.781818 25.6 27.927273l-8.145454 11.636363c-10.472727-10.472727-19.781818-23.272727-26.763637-39.563636H349.090909v45.381818h-12.8v-45.381818h-1.163636c-6.981818 16.290909-16.290909 30.254545-27.927273 39.563636l-6.981818-11.636363c10.472727-6.981818 18.618182-16.290909 24.436363-27.927273H302.545455v-12.8h32.581818v-9.309091h-23.272728v-41.890909z m47.709091 30.254545v-17.454545h-34.909091v17.454545h34.909091zM397.963636 971.636364l-2.327272-11.636364c3.490909 0 5.818182 1.163636 9.309091 1.163636 2.327273 0 3.490909-1.163636 3.490909-4.654545V930.909091c-5.818182 2.327273-10.472727 3.490909-12.8 4.654545l-3.490909-12.8c4.654545-1.163636 10.472727-2.327273 16.290909-4.654545v-24.436364h-13.963637v-12.8h13.963637v-22.109091h12.8v22.109091h11.636363v12.8h-11.636363v19.781818c4.654545-2.327273 8.145455-3.490909 11.636363-5.818181v12.8c-4.654545 2.327273-8.145455 3.490909-11.636363 4.654545v32.581818c0 8.145455-4.654545 12.8-12.8 12.8h-10.472728z m38.4-54.690909h43.054546v-6.981819h12.8v6.981819h15.127273v11.636363h-15.127273v30.254546c0 8.145455-4.654545 12.8-12.8 12.8h-16.290909l-3.490909-12.8c4.654545 0 10.472727 1.163636 15.127272 1.163636 3.490909 0 4.654545-1.163636 4.654546-4.654545v-26.763637h-43.054546v-11.636363z m27.927273-58.181819H477.090909v11.636364h23.272727v11.636364h-23.272727v10.472727h27.927273v11.636364h-68.654546v-11.636364h26.763637v-10.472727H442.181818v-11.636364h22.109091v-11.636364zM449.163636 930.909091c6.981818 6.981818 11.636364 12.8 15.127273 18.618182l-10.472727 6.981818c-3.490909-5.818182-8.145455-11.636364-15.127273-18.618182l10.472727-6.981818zM518.981818 904.145455h33.745455c2.327273-5.818182 5.818182-11.636364 9.309091-18.618182l12.8 3.490909-8.145455 15.127273H628.363636v12.8h-23.272727c-4.654545 11.636364-10.472727 20.945455-15.127273 27.927272 12.8 4.654545 24.436364 11.636364 37.236364 17.454546l-9.309091 11.636363c-12.8-8.145455-25.6-13.963636-37.236364-19.781818-13.963636 11.636364-31.418182 18.618182-54.690909 18.618182l-6.981818-11.636364c19.781818 0 36.072727-4.654545 48.872727-12.8-11.636364-4.654545-22.109091-8.145455-32.581818-11.636363 4.654545-6.981818 8.145455-13.963636 11.636364-19.781818h-26.763636v-12.8z m108.218182-33.745455v27.927273h-12.8v-16.290909h-80.290909v16.290909h-12.8v-27.927273h45.381818c-1.163636-3.490909-3.490909-5.818182-4.654545-9.309091l13.963636-2.327273c1.163636 2.327273 3.490909 6.981818 4.654545 11.636364h46.545455z m-66.327273 45.381818c-3.490909 5.818182-5.818182 10.472727-9.309091 15.127273 6.981818 2.327273 15.127273 4.654545 24.436364 8.145454 5.818182-5.818182 10.472727-13.963636 13.963636-23.272727h-29.090909zM662.109091 858.763636H674.909091v6.981819h17.454545v10.472727H674.909091v4.654545h15.127273v10.472728H674.909091v5.818181h19.781818v10.472728h-53.527273v-10.472728h20.945455v-5.818181h-16.290909v-10.472728h16.290909v-4.654545h-18.618182v-10.472727h18.618182v-6.981819z m-5.818182 95.418182v18.618182h-12.8v-60.509091h46.545455v47.709091c0 8.145455-3.490909 11.636364-10.472728 11.636364h-5.818181l-3.49091-11.636364h5.818182c1.163636 0 2.327273-1.163636 2.327273-3.490909V954.181818h-22.109091z m22.109091-25.6v-5.818182h-22.109091v5.818182h22.109091z m-22.109091 9.309091v5.818182h22.109091v-5.818182h-22.109091z m93.090909 5.818182h-22.109091v16.290909c0 8.145455-4.654545 12.8-12.8 12.8h-11.636363l-2.327273-11.636364c3.490909 0 6.981818 1.163636 10.472727 1.163637 3.490909 0 4.654545-1.163636 4.654546-4.654546v-12.8H698.181818V930.909091h17.454546v-10.472727h-19.781819v-11.636364h19.781819v-10.472727H698.181818v-9.309091l-6.981818-8.145455c8.145455-5.818182 15.127273-12.8 22.109091-23.272727l11.636364 2.327273-3.49091 5.818182h23.272728v9.30909c-2.327273 4.654545-5.818182 9.309091-8.145455 12.8h12.8v22.109091h4.654546v11.636364h-4.654546v22.109091z m-34.909091-68.654546c-3.490909 4.654545-6.981818 8.145455-10.472727 10.472728H721.454545c2.327273-2.327273 5.818182-5.818182 9.309091-10.472728h-16.290909z m12.8 23.272728v10.472727h10.472728v-10.472727h-10.472728z m0 22.109091v10.472727h10.472728v-10.472727h-10.472728z" fill="#FFFFFF" /><path d="M499.2 239.709091c0-6.981818 2.327273-13.963636 5.818182-20.945455-54.690909-1.163636-117.527273-4.654545-192-12.8 27.927273 27.927273 97.745455 86.109091 186.181818 95.418182v-61.672727zM580.654545 218.763636c3.490909 5.818182 5.818182 12.8 5.818182 20.945455v54.690909c94.254545-23.272727 158.254545-90.763636 158.254546-90.763636s-52.363636 12.8-164.072728 15.127272zM514.327273 136.145455l-55.854546-32.581819-160.581818 88.436364s3.490909 3.490909 8.145455 9.309091c38.4-4.654545 122.181818-11.636364 214.109091-9.309091 126.836364 3.490909 222.254545 11.636364 222.254545 11.636364L573.672727 103.563636l-59.345454 32.581819z" fill="#FFFFFF" /><path d="M577.163636 381.672727v-139.636363c0-18.618182-15.127273-33.745455-33.745454-33.745455s-33.745455 15.127273-33.745455 33.745455v138.472727h67.490909zM599.272727 491.054545c11.636364 0 22.109091-10.472727 22.109091-22.10909v-54.69091c0-11.636364-10.472727-22.109091-22.109091-22.10909H500.363636l-39.563636 34.90909h95.418182c17.454545 0 32.581818 13.963636 32.581818 32.581819V488.727273c3.490909 1.163636 6.981818 2.327273 10.472727 2.327272z" fill="#FFFFFF" /><path d="M514.327273 468.945455c17.454545 0 32.581818 13.963636 32.581818 32.581818v31.418182c3.490909 1.163636 5.818182 2.327273 9.309091 2.327272 11.636364 0 22.109091-10.472727 22.109091-22.109091v-54.690909c0-11.636364-10.472727-22.109091-22.109091-22.109091h-107.054546l-34.909091 30.254546c-1.163636 1.163636-1.163636 2.327273-2.327272 2.327273h102.4z" fill="#FFFFFF" /><path d="M638.836364 325.818182c-18.618182 0-33.745455 15.127273-33.745455 33.745454v22.109091c15.127273 2.327273 25.6 16.290909 25.6 31.418182v54.690909c0 17.454545-13.963636 32.581818-32.581818 32.581818-3.490909 0-6.981818-1.163636-10.472727-1.163636v13.963636c0 17.454545-13.963636 32.581818-32.581819 32.581819-3.490909 0-6.981818-1.163636-9.30909-1.163637v12.8c0 17.454545-13.963636 32.581818-32.581819 32.581818-17.454545 0-32.581818-13.963636-32.581818-32.581818v-31.418182h10.472727v31.418182c0 11.636364 10.472727 22.109091 22.109091 22.109091 11.636364 0 22.109091-10.472727 22.109091-22.109091v-54.690909c0-11.636364-10.472727-22.109091-22.109091-22.109091h-108.218181c-2.327273 5.818182-4.654545 11.636364-4.654546 17.454546v94.254545c0 54.690909 44.218182 98.909091 98.909091 98.909091 4.654545 0 9.309091-1.163636 12.8-4.654545l150.109091-136.145455c5.818182-4.654545 9.309091-12.8 9.309091-19.781818V359.563636c1.163636-18.618182-13.963636-33.745455-32.581818-33.745454z" fill="#FFFFFF" /></svg>