<?xml version="1.0" standalone="no"?><!DOCTYPE svg PUBLIC "-//W3C//DTD SVG 1.1//EN" "http://www.w3.org/Graphics/SVG/1.1/DTD/svg11.dtd"><svg class="icon" width="200px" height="200.00px" viewBox="0 0 1024 1024" version="1.1" xmlns="http://www.w3.org/2000/svg"><path d="M512 370.036364m-370.036364 0a370.036364 370.036364 0 1 0 740.072728 0 370.036364 370.036364 0 1 0-740.072728 0Z" fill="#00569E" /><path d="M167.563636 801.745455h690.036364V1024H167.563636z" fill="#00569E" /><path d="M240.872727 898.327273c-2.327273 19.781818-6.981818 37.236364-11.636363 52.363636l-9.309091-8.145454c4.654545-15.127273 8.145455-30.254545 10.472727-47.709091l10.472727 3.490909z m53.527273-30.254546c-9.309091 37.236364-20.945455 65.163636-38.4 83.781818 0 2.327273 1.163636 3.490909 4.654545 3.49091h15.127273c2.327273 0 3.490909-1.163636 4.654546-3.49091 1.163636-2.327273 2.327273-10.472727 2.327272-23.272727l9.309091 3.490909c-1.163636 17.454545-2.327273 26.763636-4.654545 30.254546-2.327273 3.490909-5.818182 4.654545-10.472727 4.654545H256c-5.818182 0-9.309091-2.327273-10.472727-6.981818-4.654545 4.654545-10.472727 8.145455-16.290909 11.636364l-5.818182-10.472728c6.981818-4.654545 13.963636-9.309091 20.945454-16.290909V884.363636h11.636364v48.872728c12.8-17.454545 22.109091-41.890909 29.090909-70.981819l9.309091 5.818182z m-38.4-9.309091c8.145455 8.145455 13.963636 15.127273 18.618182 22.109091l-6.981818 9.309091c-4.654545-6.981818-10.472727-15.127273-18.618182-23.272727l6.981818-8.145455z m41.890909 38.4c5.818182 13.963636 10.472727 30.254545 13.963636 46.545455l-9.30909 5.818182c-4.654545-18.618182-9.309091-33.745455-15.127273-47.709091l10.472727-4.654546zM356.072727 937.890909c-8.145455 13.963636-18.618182 24.436364-31.418182 33.745455l-4.654545-12.8c11.636364-8.145455 22.109091-17.454545 29.090909-30.254546l6.981818 9.309091z m-2.327272-69.818182c-8.145455 9.309091-17.454545 17.454545-27.927273 24.436364l-4.654546-11.636364c10.472727-5.818182 19.781818-12.8 25.6-22.109091l6.981819 9.309091z m1.163636 33.745455c-8.145455 10.472727-17.454545 19.781818-29.090909 26.763636l-4.654546-11.636363c10.472727-5.818182 19.781818-13.963636 26.763637-23.272728l6.981818 8.145455z m22.109091 0h10.472727v22.109091c0 13.963636-3.490909 24.436364-8.145454 31.418182-4.654545 6.981818-12.8 12.8-24.436364 17.454545l-5.818182-11.636364c10.472727-3.490909 18.618182-8.145455 22.109091-13.963636 3.490909-5.818182 5.818182-13.963636 6.981818-23.272727v-22.109091z m-20.945455-39.563637h52.363637v12.8h-20.945455c0 4.654545-1.163636 6.981818-1.163636 9.309091h19.781818v60.509091H395.636364V896h-26.763637v48.872727h-10.472727V884.363636h17.454545c0-4.654545 1.163636-6.981818 1.163637-9.309091h-20.945455v-12.8z m36.072728 81.454546c6.981818 6.981818 12.8 12.8 17.454545 19.781818l-8.145455 9.309091c-4.654545-6.981818-9.309091-12.8-17.454545-20.945455l8.145455-8.145454zM425.890909 904.145455h73.309091v11.636363h-15.127273v11.636364h20.945455v11.636363h-20.945455v20.945455c0 8.145455-3.490909 12.8-10.472727 12.8h-13.963636l-2.327273-11.636364c4.654545 0 8.145455 1.163636 12.8 1.163637 2.327273 0 3.490909-1.163636 3.490909-4.654546v-17.454545h-2.327273c-10.472727 13.963636-25.6 24.436364-47.709091 33.745454l-5.818181-11.636363c18.618182-5.818182 31.418182-12.8 40.727272-22.109091h-33.745454c2.327273-8.145455 4.654545-15.127273 5.818182-20.945455l10.472727 1.163637c0 2.327273-1.163636 4.654545-2.327273 8.145454h34.909091v-11.636363h-47.709091v-12.8z m40.727273-46.545455c1.163636 4.654545 2.327273 6.981818 2.327273 9.309091h37.236363v19.781818h-10.472727v-8.145454H430.545455v9.30909h-10.472728v-20.945454h37.236364c-1.163636-2.327273-2.327273-4.654545-2.327273-6.981818l11.636364-2.327273z m-6.981818 31.418182c-8.145455 5.818182-18.618182 10.472727-30.254546 13.963636l-3.490909-10.472727c10.472727-3.490909 19.781818-6.981818 27.927273-12.8l5.818182 9.309091z m11.636363-9.309091c10.472727 3.490909 20.945455 8.145455 29.090909 12.8l-4.654545 9.309091c-9.309091-5.818182-18.618182-10.472727-29.090909-12.8l4.654545-9.309091zM556.218182 878.545455H523.636364v-12.8h76.8v12.8h-33.745455v76.8h37.236364v12.8h-86.109091v-12.8h38.4v-76.8zM624.872727 908.8c-2.327273 4.654545-5.818182 8.145455-8.145454 11.636364l-3.490909-13.963637c10.472727-13.963636 17.454545-30.254545 22.109091-48.872727l9.30909 5.818182c-2.327273 9.309091-5.818182 17.454545-9.30909 26.763636v82.618182h-10.472728v-64z m34.909091-20.945455c-4.654545 11.636364-9.309091 22.109091-15.127273 30.254546l-6.981818-11.636364c8.145455-11.636364 15.127273-27.927273 20.945455-48.872727l10.472727 3.490909-4.654545 13.963636h39.563636v12.8h-31.418182v16.29091h26.763637v12.8h-26.763637v17.454545h26.763637v12.8h-26.763637v27.927273h-10.472727v-86.109091h-2.327273zM728.436364 932.072727c-1.163636 16.290909-3.490909 30.254545-6.981819 41.890909l-8.145454-9.309091c3.490909-10.472727 5.818182-24.436364 5.818182-40.727272v-61.672728h31.418182v96.581819c0 8.145455-3.490909 12.8-9.309091 12.8H733.090909l-2.327273-11.636364h6.981819c2.327273 0 3.490909-2.327273 3.490909-6.981818v-23.272727h-12.8z m12.8-40.727272v-17.454546h-12.8v17.454546h12.8z m-12.8 11.636363v17.454546h12.8v-17.454546h-12.8z m38.4 60.509091v9.309091H756.363636v-110.545455h41.890909c0 16.290909-1.163636 26.763636-2.327272 32.581819s-4.654545 8.145455-11.636364 8.145454h-8.145454l-2.327273-10.472727h11.636363c1.163636 0 1.163636-1.163636 2.327273-3.490909 0-2.327273 1.163636-6.981818 1.163637-13.963637h-22.109091v33.745455h33.745454v10.472727c-1.163636 11.636364-4.654545 22.109091-8.145454 30.254546 3.490909 4.654545 8.145455 9.309091 13.963636 12.8l-4.654545 10.472727c-5.818182-4.654545-10.472727-9.309091-13.963637-13.963636-3.490909 5.818182-8.145455 10.472727-13.963636 13.963636l-6.981818-9.309091z m0-44.218182v43.054546c4.654545-3.490909 9.309091-6.981818 12.8-12.8-6.981818-8.145455-10.472727-18.618182-12.8-30.254546z m9.309091 0c2.327273 8.145455 4.654545 13.963636 8.145454 19.781818 2.327273-5.818182 4.654545-12.8 5.818182-19.781818h-13.963636z" fill="#FFFFFF" /><path d="M513.163636 110.545455c-30.254545 0-55.854545 24.436364-55.854545 55.854545 0 30.254545 24.436364 55.854545 55.854545 55.854545 30.254545 0 55.854545-24.436364 55.854546-55.854545-1.163636-31.418182-25.6-55.854545-55.854546-55.854545z m0 90.763636c-19.781818 0-36.072727-16.290909-36.072727-36.072727s16.290909-36.072727 36.072727-36.072728 36.072727 16.290909 36.072728 36.072728-16.290909 36.072727-36.072728 36.072727zM706.327273 467.781818l-2.327273 1.163637c-10.472727 5.818182-23.272727 1.163636-27.927273-9.309091l-95.418182-179.2c-5.818182-10.472727-1.163636-23.272727 9.309091-27.927273l2.327273-1.163636c10.472727-5.818182 23.272727-1.163636 27.927273 9.30909l95.418182 179.2c5.818182 10.472727 1.163636 23.272727-9.309091 27.927273zM345.6 393.309091l-2.327273-1.163636c-9.309091-5.818182-12.8-19.781818-5.818182-29.09091l68.654546-104.727272c5.818182-9.309091 19.781818-12.8 29.090909-5.818182l2.327273 1.163636c9.309091 5.818182 12.8 19.781818 5.818182 29.090909l-68.654546 104.727273c-5.818182 9.309091-19.781818 12.8-29.090909 5.818182z" fill="#FFFFFF" /><path d="M422.4 478.254545l-2.327273 1.163637c-9.309091 5.818182-23.272727 3.490909-29.090909-5.818182L337.454545 389.818182c-5.818182-9.309091-3.490909-23.272727 5.818182-29.090909l2.327273-1.163637c9.309091-5.818182 23.272727-3.490909 29.090909 5.818182l53.527273 83.781818c6.981818 10.472727 4.654545 23.272727-5.818182 29.090909zM449.163636 407.272727h134.981819v24.436364H449.163636zM449.163636 446.836364L389.818182 674.909091h76.8l34.909091-122.181818c2.327273-6.981818 11.636364-6.981818 13.963636 0L555.054545 674.909091h82.618182l-52.363636-228.072727H449.163636zM586.472727 306.036364v-76.8h-23.272727v32.581818h-20.945455v-19.781818h-17.454545v19.781818h-27.927273v-19.781818l-11.636363-1.163637v20.945455h-13.963637V232.727273h-19.781818v24.436363h-6.981818l2.327273 50.036364c-24.436364 39.563636 8.145455 84.945455 8.145454 84.945455h128c29.090909-41.890909 3.490909-86.109091 3.490909-86.109091zM558.545455 367.709091h-84.945455v-60.509091H558.545455v60.509091z" fill="#FFFFFF" /><path d="M486.4 316.509091v43.054545h59.345455v-43.054545h-59.345455z m46.545455 33.745454h-33.745455V325.818182h33.745455v24.436363z" fill="#FFFFFF" /></svg>