<?xml version="1.0" standalone="no"?><!DOCTYPE svg PUBLIC "-//W3C//DTD SVG 1.1//EN" "http://www.w3.org/Graphics/SVG/1.1/DTD/svg11.dtd"><svg class="icon" width="200px" height="200.00px" viewBox="0 0 1024 1024" version="1.1" xmlns="http://www.w3.org/2000/svg"><path d="M512 370.036364m-370.036364 0a370.036364 370.036364 0 1 0 740.072728 0 370.036364 370.036364 0 1 0-740.072728 0Z" fill="#00569E" /><path d="M167.563636 801.745455h690.036364V1024H167.563636z" fill="#00569E" /><path d="M231.563636 898.327273c-2.327273 19.781818-5.818182 37.236364-10.472727 52.363636l-8.145454-8.145454c4.654545-15.127273 8.145455-30.254545 9.30909-47.709091l9.309091 3.490909z m46.545455-30.254546c-8.145455 37.236364-18.618182 65.163636-33.745455 83.781818 0 2.327273 1.163636 3.490909 3.490909 3.49091h13.963637c2.327273 0 3.490909-1.163636 4.654545-3.49091 1.163636-2.327273 2.327273-10.472727 2.327273-23.272727l8.145455 3.490909c-1.163636 17.454545-2.327273 26.763636-4.654546 30.254546-2.327273 3.490909-4.654545 4.654545-9.309091 4.654545h-17.454545c-4.654545 0-8.145455-2.327273-9.309091-6.981818-4.654545 4.654545-9.309091 8.145455-13.963637 11.636364l-4.654545-10.472728c6.981818-4.654545 12.8-9.309091 18.618182-16.290909V884.363636h8.145454v48.872728c11.636364-17.454545 19.781818-41.890909 25.6-70.981819l8.145455 5.818182z m-33.745455-9.309091c6.981818 8.145455 12.8 15.127273 16.290909 22.109091l-5.818181 9.309091c-4.654545-6.981818-9.309091-15.127273-16.290909-23.272727l5.818181-8.145455z m37.236364 38.4c4.654545 13.963636 9.309091 30.254545 12.8 46.545455l-8.145455 4.654545c-3.490909-18.618182-8.145455-33.745455-12.8-47.709091l8.145455-3.490909zM332.8 937.890909c-8.145455 13.963636-16.290909 24.436364-27.927273 33.745455l-4.654545-12.8c10.472727-8.145455 19.781818-17.454545 25.6-30.254546l6.981818 9.309091z m-2.327273-69.818182c-6.981818 9.309091-15.127273 17.454545-24.436363 24.436364l-3.490909-11.636364c9.309091-5.818182 17.454545-12.8 23.272727-22.109091l4.654545 9.309091z m1.163637 33.745455c-6.981818 10.472727-15.127273 19.781818-25.6 26.763636l-3.490909-11.636363c9.309091-5.818182 17.454545-13.963636 23.272727-23.272728l5.818182 8.145455z m19.781818 0h9.309091v22.109091c0 13.963636-3.490909 24.436364-6.981818 31.418182-4.654545 6.981818-11.636364 12.8-22.109091 17.454545l-4.654546-11.636364c9.309091-3.490909 16.290909-8.145455 19.781818-13.963636 3.490909-5.818182 5.818182-13.963636 5.818182-23.272727v-22.109091z m-18.618182-39.563637h45.381818v12.8H360.727273c0 4.654545-1.163636 6.981818-1.163637 9.309091h16.290909v60.509091h-9.30909V896h-23.272728v48.872727h-9.309091V884.363636H349.090909c0-4.654545 1.163636-6.981818 1.163636-9.309091h-18.618181v-12.8z m31.418182 81.454546c5.818182 6.981818 11.636364 12.8 15.127273 19.781818l-6.981819 9.309091c-3.490909-6.981818-8.145455-12.8-15.127272-20.945455l6.981818-8.145454zM390.981818 865.745455H407.272727v-6.981819h9.309091v6.981819H430.545455v10.472727h-13.963637v5.818182h18.618182v-23.272728h8.145455v23.272728h19.781818v10.472727h-19.781818c0 12.8 1.163636 23.272727 2.327272 31.418182 0 1.163636 0 3.490909 1.163637 5.818182 2.327273-9.309091 4.654545-19.781818 5.818181-31.418182l6.981819 4.654545c-2.327273 17.454545-5.818182 32.581818-9.309091 43.054546 0 1.163636 1.163636 2.327273 1.163636 3.490909 2.327273 5.818182 3.490909 8.145455 4.654546 8.145454 1.163636 0 2.327273-5.818182 3.490909-17.454545l6.981818 5.818182c-2.327273 16.290909-4.654545 25.6-9.309091 25.6-3.490909 0-6.981818-3.490909-10.472727-11.636364 0-1.163636-1.163636-2.327273-1.163637-3.490909-3.490909 5.818182-5.818182 10.472727-9.309091 13.963636l-4.654545-10.472727c3.490909-4.654545 6.981818-9.309091 10.472727-16.290909-1.163636-4.654545-2.327273-11.636364-3.490909-18.618182-1.163636-9.309091-2.327273-20.945455-3.490909-33.745454h-47.709091v-10.472728H407.272727v-5.818182h-16.290909v-9.30909z m1.163637 30.254545H430.545455v31.418182h-8.145455v3.490909h9.309091v9.309091h-9.309091v4.654545h11.636364v9.309091H418.909091c4.654545 2.327273 9.309091 5.818182 12.8 8.145455l-3.490909 8.145454c-4.654545-4.654545-9.309091-8.145455-13.963637-10.472727l3.49091-6.981818h-13.963637l3.490909 5.818182c-4.654545 4.654545-9.309091 8.145455-16.290909 11.636363l-3.490909-9.309091c5.818182-2.327273 10.472727-4.654545 13.963636-8.145454h-12.8v-9.309091h10.472728v-4.654546h-9.309091V930.909091h9.309091v-4.654546h-8.145455V896z m6.981818 11.636364h8.145454v-4.654546h-8.145454v4.654546z m8.145454 11.636363v-3.490909h-8.145454v3.490909h8.145454z m6.981818 11.636364v-4.654546H407.272727v4.654546h6.981818z m-6.981818 13.963636h6.981818v-4.654545H407.272727v4.654545z m6.981818-41.890909v4.654546h8.145455v-4.654546h-8.145455z m9.309091 16.290909v-3.490909h-8.145454v3.490909h8.145454z m27.927273-60.509091c3.490909 5.818182 6.981818 10.472727 9.309091 15.127273l-5.818182 5.818182c-2.327273-4.654545-4.654545-10.472727-9.309091-15.127273l5.818182-5.818182zM474.763636 862.254545h29.090909v10.472728c-2.327273 9.309091-4.654545 19.781818-8.145454 32.581818 4.654545 11.636364 8.145455 20.945455 8.145454 30.254545 0 5.818182-1.163636 10.472727-2.327272 12.8-2.327273 3.490909-6.981818 4.654545-13.963637 4.654546l-3.490909-12.8c2.327273 0 3.490909 1.163636 4.654546 1.163636 2.327273 0 3.490909-1.163636 4.654545-1.163636 1.163636-1.163636 1.163636-2.327273 1.163637-3.490909 0-8.145455-2.327273-17.454545-8.145455-27.927273 3.490909-12.8 6.981818-23.272727 8.145455-32.581818h-10.472728v97.745454h-9.309091v-111.709091z m29.090909 13.963637H523.636364c-1.163636-5.818182-2.327273-10.472727-3.490909-15.127273l9.30909-2.327273c1.163636 4.654545 2.327273 10.472727 3.49091 17.454546h17.454545v12.8H523.636364l-1.163637 18.618182H546.909091c0 29.090909-1.163636 46.545455-2.327273 53.527272-2.327273 8.145455-5.818182 11.636364-12.8 12.8-2.327273 0-3.490909 0-6.981818-1.163636l-3.490909-11.636364h8.145454c3.490909 0 4.654545-2.327273 5.818182-8.145454 0-3.490909 1.163636-15.127273 1.163637-32.581818h-16.290909c-1.163636 9.309091-2.327273 17.454545-4.654546 25.6-3.490909 10.472727-8.145455 19.781818-13.963636 29.090909l-6.981818-9.309091c6.981818-10.472727 11.636364-20.945455 13.963636-29.090909 2.327273-9.309091 3.490909-18.618182 3.490909-30.254546v-16.290909h-10.472727v-13.963636zM558.545455 928.581818h11.636363c1.163636-5.818182 1.163636-12.8 1.163637-19.781818h54.690909v19.781818h11.636363v9.309091h-11.636363v9.309091h9.309091v10.472727h-9.309091c0 5.818182-1.163636 9.309091-3.490909 11.636364-1.163636 2.327273-5.818182 3.490909-11.636364 3.490909H605.090909l-2.327273-10.472727c3.490909 0 6.981818 1.163636 9.309091 1.163636 3.490909 0 4.654545-1.163636 5.818182-3.490909v-1.163636h-52.363636c1.163636-6.981818 2.327273-12.8 3.490909-19.781819H558.545455v-10.472727z m4.654545-62.836363H593.454545v-6.981819h9.309091v6.981819h31.418182v10.472727h-31.418182v4.654545h26.763637v9.309091h-26.763637v5.818182h34.909091v9.309091h-77.963636V896H593.454545v-4.654545h-26.763636v-9.309091H593.454545v-4.654546h-30.254545v-11.636363z m13.963636 73.30909c-1.163636 4.654545-1.163636 6.981818-2.327272 9.309091H593.454545c-1.163636-4.654545-3.490909-6.981818-3.490909-9.309091h-12.8z m18.618182-10.472727c-1.163636-3.490909-3.490909-6.981818-4.654545-9.309091h-11.636364c0 2.327273 0 5.818182-1.163636 9.309091h17.454545z m3.490909 10.472727c1.163636 2.327273 2.327273 5.818182 3.490909 9.309091H616.727273v-9.309091h-17.454546z m18.618182-10.472727V919.272727h-17.454545c1.163636 3.490909 2.327273 6.981818 3.490909 9.309091h13.963636zM645.818182 862.254545h77.963636v12.8h-33.745454c-1.163636 4.654545-1.163636 8.145455-2.327273 11.636364h32.581818v86.109091h-8.145454v-4.654545h-52.363637v4.654545H651.636364v-86.109091h27.927272c1.163636-3.490909 2.327273-6.981818 2.327273-11.636364h-34.909091v-12.8z m12.8 94.254546h9.309091v-58.181818h-9.309091v58.181818z m17.454545-46.545455h17.454546v-11.636363h-17.454546v11.636363z m0 23.272728h17.454546v-11.636364h-17.454546v11.636364z m0 23.272727h17.454546v-12.8h-17.454546v12.8z m25.6 0h9.309091v-58.181818h-9.309091v58.181818zM798.254545 862.254545v75.636364h11.636364v11.636364h-19.781818c6.981818 3.490909 12.8 6.981818 18.618182 11.636363l-4.654546 11.636364c-8.145455-6.981818-16.290909-12.8-25.6-17.454545l3.490909-5.818182h-22.109091l4.654546 5.818182c-6.981818 6.981818-15.127273 12.8-24.436364 18.618181l-6.981818-10.472727c8.145455-3.490909 15.127273-8.145455 19.781818-12.8h-20.945454v-11.636364h11.636363v-75.636363h54.690909z m-45.381818 19.781819h36.072728v-8.145455h-36.072728v8.145455z m0 18.618181h36.072728v-8.145454h-36.072728v8.145454z m0 18.618182h36.072728v-8.145454h-36.072728v8.145454z m0 18.618182h36.072728v-8.145454h-36.072728v8.145454z" fill="#FFFFFF" /><path d="M512 445.672727c-57.018182 0-102.4 46.545455-102.4 102.4 0 57.018182 46.545455 102.4 102.4 102.4s102.4-46.545455 102.4-102.4c0-55.854545-45.381818-102.4-102.4-102.4z m73.309091 59.345455c5.818182-2.327273 13.963636 0 16.290909 6.981818 2.327273 5.818182 0 13.963636-6.981818 16.290909-5.818182 2.327273-13.963636 0-16.290909-6.981818-2.327273-5.818182 0-13.963636 6.981818-16.290909z m-22.109091-24.436364c4.654545-4.654545 12.8-4.654545 17.454545 0 4.654545 4.654545 4.654545 12.8 0 17.454546-4.654545 4.654545-12.8 4.654545-17.454545 0-5.818182-4.654545-5.818182-12.8 0-17.454546z m0 68.654546c0 6.981818-5.818182 12.8-12.8 12.8-6.981818 0-12.8-5.818182-12.8-12.8 0-6.981818 5.818182-12.8 12.8-12.8 6.981818 0 12.8 5.818182 12.8 12.8zM532.945455 465.454545c2.327273-5.818182 10.472727-9.309091 16.290909-6.981818 5.818182 2.327273 9.309091 10.472727 6.981818 16.290909-2.327273 5.818182-10.472727 9.309091-16.290909 6.981819-6.981818-2.327273-10.472727-9.309091-6.981818-16.29091z m-2.327273 46.545455c4.654545-4.654545 12.8-4.654545 17.454545 0 4.654545 4.654545 4.654545 12.8 0 17.454545s-12.8 4.654545-17.454545 0c-4.654545-3.490909-4.654545-11.636364 0-17.454545zM512 451.490909c6.981818 0 12.8 5.818182 12.8 12.8 0 6.981818-5.818182 12.8-12.8 12.8-6.981818 0-12.8-5.818182-12.8-12.8 0-6.981818 5.818182-12.8 12.8-12.8z m-37.236364 8.145455c5.818182-2.327273 13.963636 0 16.290909 6.981818 2.327273 5.818182 0 13.963636-6.981818 16.290909-5.818182 2.327273-13.963636 0-16.290909-6.981818-2.327273-6.981818 1.163636-13.963636 6.981818-16.290909z m-1.163636 76.8c6.981818 0 12.8 5.818182 12.8 12.8 0 6.981818-5.818182 12.8-12.8 12.8s-12.8-5.818182-12.8-12.8c0-6.981818 5.818182-12.8 12.8-12.8z m-30.254545-55.854546c4.654545-4.654545 12.8-4.654545 17.454545 0 4.654545 4.654545 4.654545 12.8 0 17.454546-4.654545 4.654545-12.8 4.654545-17.454545 0-4.654545-4.654545-4.654545-12.8 0-17.454546zM422.4 512c2.327273-5.818182 10.472727-9.309091 16.290909-6.981818 5.818182 2.327273 9.309091 10.472727 6.981818 16.290909-2.327273 5.818182-10.472727 9.309091-16.290909 6.981818-6.981818-2.327273-9.309091-10.472727-6.981818-16.290909z m-6.981818 37.236364c0-6.981818 5.818182-12.8 12.8-12.8 6.981818 0 12.8 5.818182 12.8 12.8 0 6.981818-5.818182 12.8-12.8 12.8-6.981818-1.163636-12.8-6.981818-12.8-12.8z m23.272727 43.054545c-5.818182 2.327273-13.963636 0-16.290909-6.981818-2.327273-5.818182 0-13.963636 6.981818-16.290909 5.818182-2.327273 13.963636 0 16.290909 6.981818 2.327273 6.981818 0 13.963636-6.981818 16.290909z m22.109091 24.436364c-4.654545 4.654545-12.8 4.654545-17.454545 0-4.654545-4.654545-4.654545-12.8 0-17.454546 4.654545-4.654545 12.8-4.654545 17.454545 0 5.818182 4.654545 5.818182 12.8 0 17.454546z m30.254545 15.127272c-2.327273 5.818182-10.472727 9.309091-16.290909 6.981819-5.818182-2.327273-9.309091-10.472727-6.981818-16.290909 2.327273-5.818182 10.472727-9.309091 16.290909-6.981819 6.981818 2.327273 10.472727 9.309091 6.981818 16.290909z m2.327273-46.545454c-4.654545 4.654545-12.8 4.654545-17.454545 0-4.654545-4.654545-4.654545-12.8 0-17.454546 4.654545-4.654545 12.8-4.654545 17.454545 0 4.654545 4.654545 4.654545 11.636364 0 17.454546z m0-54.690909c-4.654545 4.654545-12.8 4.654545-17.454545 0s-4.654545-12.8 0-17.454546c4.654545-4.654545 12.8-4.654545 17.454545 0 4.654545 4.654545 4.654545 12.8 0 17.454546z m18.618182 115.2c-6.981818 0-12.8-5.818182-12.8-12.8 0-6.981818 5.818182-12.8 12.8-12.8 6.981818 0 12.8 5.818182 12.8 12.8 0 6.981818-5.818182 12.8-12.8 12.8z m0-46.545455c-6.981818 0-12.8-5.818182-12.8-12.8s5.818182-12.8 12.8-12.8c6.981818 0 12.8 5.818182 12.8 12.8s-5.818182 12.8-12.8 12.8z m-9.309091-50.036363c0-5.818182 4.654545-9.309091 9.309091-9.309091 5.818182 0 9.309091 4.654545 9.309091 9.309091 0 5.818182-4.654545 9.309091-9.309091 9.309091-5.818182 0-9.309091-4.654545-9.309091-9.309091z m9.309091-26.763637c-6.981818 0-12.8-5.818182-12.8-12.8s5.818182-12.8 12.8-12.8c6.981818 0 12.8 5.818182 12.8 12.8s-5.818182 12.8-12.8 12.8z m18.618182 44.218182c4.654545-4.654545 12.8-4.654545 17.454545 0 4.654545 4.654545 4.654545 12.8 0 17.454546-4.654545 4.654545-12.8 4.654545-17.454545 0s-4.654545-11.636364 0-17.454546z m18.618182 70.981818c-5.818182 2.327273-13.963636 0-16.290909-6.981818-2.327273-5.818182 0-13.963636 6.981818-16.290909 5.818182-2.327273 13.963636 0 16.290909 6.981818 2.327273 6.981818-1.163636 13.963636-6.981818 16.290909z m31.418181-20.945454c-4.654545 4.654545-12.8 4.654545-17.454545 0-4.654545-4.654545-4.654545-12.8 0-17.454546 4.654545-4.654545 12.8-4.654545 17.454545 0 4.654545 4.654545 4.654545 12.8 0 17.454546z m20.945455-31.418182c-2.327273 5.818182-10.472727 9.309091-16.290909 6.981818-5.818182-2.327273-9.309091-10.472727-6.981818-16.290909 2.327273-5.818182 10.472727-9.309091 16.290909-6.981818 5.818182 3.490909 9.309091 10.472727 6.981818 16.290909z m-5.818182-24.436364c-6.981818 0-12.8-5.818182-12.8-12.8 0-6.981818 5.818182-12.8 12.8-12.8s12.8 5.818182 12.8 12.8c0 6.981818-5.818182 12.8-12.8 12.8zM439.854545 310.690909c-18.618182 0-33.745455 15.127273-33.745454 33.745455s15.127273 33.745455 33.745454 33.745454 33.745455-15.127273 33.745455-33.745454-15.127273-33.745455-33.745455-33.745455z m0 54.690909c-11.636364 0-20.945455-9.309091-20.945454-20.945454s9.309091-20.945455 20.945454-20.945455 20.945455 9.309091 20.945455 20.945455-9.309091 20.945455-20.945455 20.945454z" fill="#FFFFFF" /><path d="M439.854545 344.436364m-12.8 0a12.8 12.8 0 1 0 25.6 0 12.8 12.8 0 1 0-25.6 0Z" fill="#FFFFFF" /><path d="M577.163636 310.690909c-18.618182 0-33.745455 15.127273-33.745454 33.745455 0 18.618182 15.127273 33.745455 33.745454 33.745454s33.745455-15.127273 33.745455-33.745454c0-18.618182-15.127273-33.745455-33.745455-33.745455z m0 54.690909c-11.636364 0-20.945455-9.309091-20.945454-20.945454s9.309091-20.945455 20.945454-20.945455 20.945455 9.309091 20.945455 20.945455-9.309091 20.945455-20.945455 20.945454z" fill="#FFFFFF" /><path d="M577.163636 344.436364m-12.8 0a12.8 12.8 0 1 0 25.6 0 12.8 12.8 0 1 0-25.6 0Z" fill="#FFFFFF" /><path d="M683.054545 310.690909s13.963636-34.909091 13.963637-47.709091 12.8-44.218182-41.890909-79.127273c0 0-34.909091-67.490909-57.018182-65.163636-22.109091 1.163636-24.436364-5.818182-74.472727 10.472727-50.036364 16.290909-60.509091-29.090909-145.454546 54.690909 0 0-81.454545 0-38.4 138.472728 0 0-38.4-10.472727 3.490909 93.090909 0 0 10.472727 32.581818 30.254546 30.254545 0 0 3.490909 34.909091 29.090909 60.509091 15.127273-45.381818 58.181818-79.127273 109.381818-79.127273 50.036364 0 91.927273 31.418182 108.218182 74.472728 8.145455-11.636364 16.290909-27.927273 20.945454-48.872728 0 0 32.581818-10.472727 50.036364-77.963636 17.454545-66.327273 8.145455-66.327273-8.145455-64z m-243.2 79.127273c-25.6 0-45.381818-19.781818-45.381818-45.381818s19.781818-45.381818 45.381818-45.381819 45.381818 19.781818 45.381819 45.381819c0 24.436364-19.781818 45.381818-45.381819 45.381818z m137.309091 0c-25.6 0-45.381818-19.781818-45.381818-45.381818s19.781818-45.381818 45.381818-45.381819 45.381818 19.781818 45.381819 45.381819c0 24.436364-19.781818 45.381818-45.381819 45.381818z m65.163637-43.054546s37.236364-64-130.327273-74.472727c-167.563636-10.472727-133.818182 91.927273-133.818182 91.927273-40.727273-79.127273 12.8-147.781818 50.036364-147.781818 37.236364 0 43.054545-25.6 43.054545-25.6 18.618182 65.163636 147.781818-11.636364 181.527273 38.4 34.909091 50.036364-10.472727 117.527273-10.472727 117.527272z" fill="#FFFFFF" /></svg>