<?xml version="1.0" standalone="no"?><!DOCTYPE svg PUBLIC "-//W3C//DTD SVG 1.1//EN" "http://www.w3.org/Graphics/SVG/1.1/DTD/svg11.dtd"><svg class="icon" width="200px" height="200.00px" viewBox="0 0 1024 1024" version="1.1" xmlns="http://www.w3.org/2000/svg"><path d="M512 370.036364m-370.036364 0a370.036364 370.036364 0 1 0 740.072728 0 370.036364 370.036364 0 1 0-740.072728 0Z" fill="#00569E" /><path d="M167.563636 801.745455h690.036364V1024H167.563636z" fill="#00569E" /><path d="M240.872727 898.327273c-2.327273 19.781818-6.981818 37.236364-11.636363 52.363636l-9.309091-8.145454c4.654545-15.127273 8.145455-30.254545 10.472727-47.709091l10.472727 3.490909z m53.527273-30.254546c-9.309091 37.236364-20.945455 65.163636-38.4 83.781818 0 2.327273 1.163636 3.490909 4.654545 3.49091h15.127273c2.327273 0 3.490909-1.163636 4.654546-3.49091 1.163636-2.327273 2.327273-10.472727 2.327272-23.272727l9.309091 3.490909c-1.163636 17.454545-2.327273 26.763636-4.654545 30.254546-2.327273 3.490909-5.818182 4.654545-10.472727 4.654545H256c-5.818182 0-9.309091-2.327273-10.472727-6.981818-4.654545 4.654545-10.472727 8.145455-16.290909 11.636364l-5.818182-10.472728c6.981818-4.654545 13.963636-9.309091 20.945454-16.290909V884.363636h11.636364v48.872728c12.8-17.454545 22.109091-41.890909 29.090909-70.981819l9.309091 5.818182z m-38.4-9.309091c8.145455 8.145455 13.963636 15.127273 18.618182 22.109091l-6.981818 9.309091c-4.654545-6.981818-10.472727-15.127273-18.618182-23.272727l6.981818-8.145455z m41.890909 38.4c5.818182 13.963636 10.472727 30.254545 13.963636 46.545455l-9.30909 5.818182c-4.654545-18.618182-9.309091-33.745455-15.127273-47.709091l10.472727-4.654546zM356.072727 937.890909c-8.145455 12.8-18.618182 24.436364-31.418182 33.745455l-4.654545-12.8c11.636364-8.145455 22.109091-17.454545 30.254545-30.254546l5.818182 9.309091z m-2.327272-69.818182c-8.145455 9.309091-17.454545 17.454545-27.927273 24.436364l-4.654546-11.636364c10.472727-5.818182 19.781818-12.8 25.6-22.109091l6.981819 9.309091z m1.163636 33.745455c-8.145455 10.472727-17.454545 19.781818-29.090909 26.763636l-4.654546-11.636363c10.472727-5.818182 19.781818-13.963636 26.763637-23.272728l6.981818 8.145455z m22.109091 0h10.472727v22.109091c0 13.963636-3.490909 24.436364-8.145454 31.418182-4.654545 6.981818-12.8 12.8-24.436364 17.454545l-5.818182-11.636364c10.472727-3.490909 18.618182-8.145455 22.109091-13.963636 3.490909-5.818182 5.818182-13.963636 6.981818-23.272727v-22.109091z m-20.945455-39.563637h52.363637v12.8h-20.945455c0 4.654545-1.163636 6.981818-1.163636 9.309091h19.781818v60.509091H395.636364V896h-26.763637v48.872727h-10.472727V884.363636h17.454545c0-4.654545 1.163636-6.981818 1.163637-9.309091h-20.945455v-12.8z m36.072728 81.454546c6.981818 6.981818 12.8 12.8 17.454545 19.781818l-8.145455 9.309091c-4.654545-6.981818-9.309091-12.8-17.454545-20.945455l8.145455-8.145454zM449.163636 943.709091c-6.981818 10.472727-15.127273 18.618182-24.436363 25.6l-6.981818-10.472727c9.309091-6.981818 17.454545-15.127273 24.436363-23.272728l6.981818 8.145455z m-1.163636 29.090909l-2.327273-12.8c3.490909 0 6.981818 1.163636 10.472728 1.163636 2.327273 0 2.327273-1.163636 2.327272-3.490909V930.909091c-11.636364 1.163636-20.945455 1.163636-30.254545 2.327273l-2.327273-11.636364c3.490909 0 5.818182-1.163636 9.309091-2.327273 6.981818-3.490909 13.963636-9.309091 22.109091-16.290909-5.818182 0-13.963636 1.163636-24.436364 2.327273l-2.327272-11.636364c2.327273 0 4.654545-1.163636 6.981818-2.327272 3.490909-2.327273 8.145455-6.981818 12.8-13.963637h-24.436364l-3.490909-11.636363c27.927273 0 52.363636-2.327273 72.145455-6.981819l4.654545 10.472728c-10.472727 2.327273-23.272727 4.654545-37.236364 5.818181-4.654545 6.981818-9.309091 12.8-15.127272 17.454546 4.654545 0 11.636364-1.163636 19.781818-1.163636 3.490909-3.490909 8.145455-8.145455 12.8-13.963637l9.309091 5.818182c-15.127273 16.290909-29.090909 29.090909-39.563637 37.236364 13.963636-1.163636 24.436364-2.327273 33.745455-3.490909-1.163636-2.327273-3.490909-5.818182-6.981818-10.472728l8.145454-5.818182c8.145455 11.636364 15.127273 22.109091 18.618182 31.418182l-8.145454 6.981818-5.818182-11.636363c-5.818182 1.163636-11.636364 1.163636-20.945455 2.327273v30.254545c0 8.145455-3.490909 12.8-9.309091 12.8h-10.472727z m33.745455-37.236364c9.309091 9.309091 17.454545 17.454545 24.436363 26.763637l-6.981818 9.309091c-5.818182-8.145455-13.963636-17.454545-24.436364-26.763637l6.981819-9.309091zM517.818182 904.145455h26.763636c2.327273-5.818182 4.654545-11.636364 8.145455-18.618182l10.472727 3.490909-5.818182 15.127273H605.090909v12.8h-18.618182c-3.490909 11.636364-8.145455 20.945455-12.8 27.927272 9.309091 4.654545 19.781818 11.636364 29.090909 17.454546l-6.981818 11.636363c-10.472727-6.981818-19.781818-13.963636-30.254545-19.781818-11.636364 11.636364-25.6 18.618182-43.054546 18.618182l-5.818182-11.636364c16.290909 0 29.090909-4.654545 38.4-12.8-9.309091-4.654545-17.454545-8.145455-26.763636-11.636363 3.490909-6.981818 6.981818-13.963636 9.309091-19.781818h-22.109091v-12.8z m86.109091-33.745455v27.927273H593.454545v-16.290909h-64v16.290909h-10.472727v-27.927273h36.072727c-1.163636-3.490909-2.327273-5.818182-3.490909-9.309091l11.636364-2.327273c1.163636 2.327273 2.327273 6.981818 3.490909 11.636364h37.236364z m-52.363637 45.381818c-2.327273 5.818182-4.654545 10.472727-6.981818 15.127273 5.818182 2.327273 12.8 4.654545 19.781818 8.145454 4.654545-5.818182 8.145455-13.963636 11.636364-23.272727h-24.436364zM663.272727 858.763636c12.8 16.290909 26.763636 27.927273 43.054546 37.236364l-4.654546 11.636364c-4.654545-2.327273-9.309091-5.818182-13.963636-9.309091v11.636363h-22.109091v17.454546h27.927273v12.8h-27.927273v18.618182h36.072727v12.8h-82.618182v-12.8h36.072728v-18.618182h-27.927273v-12.8h27.927273v-17.454546h-22.109091v-11.636363c-4.654545 3.490909-9.309091 6.981818-13.963637 9.309091l-4.654545-11.636364c17.454545-10.472727 31.418182-23.272727 43.054545-37.236364h5.818182z m22.109091 38.4c-9.309091-6.981818-18.618182-16.290909-25.6-26.763636-6.981818 9.309091-16.290909 18.618182-25.6 26.763636h51.2zM714.472727 870.4h13.963637v-11.636364h9.309091v11.636364h15.127272v-11.636364h10.472728v11.636364H779.636364v-11.636364h9.309091v11.636364H802.909091v11.636364h-13.963636v11.636363H779.636364v-11.636363h-16.290909v11.636363h-10.472728v-11.636363h-15.127272v11.636363h-9.309091v-11.636363h-13.963637v-11.636364z m86.109091 30.254545v24.436364h-10.472727v-12.8h-26.763636v9.309091h25.6v29.090909c0 9.309091-3.490909 12.8-9.309091 12.8h-9.309091l-2.327273-11.636364 8.145455 1.163637c1.163636 0 2.327273-1.163636 2.327272-4.654546v-15.127272h-15.127272v38.4h-10.472728v-38.4h-15.127272v30.254545h-10.472728v-43.054545h24.436364v-9.309091h-26.763636v13.963636h-10.472728v-25.6h86.109091z" fill="#FFFFFF" /><path d="M491.054545 197.818182c-33.745455 0-61.672727-27.927273-61.672727-61.672727s27.927273-61.672727 61.672727-61.672728 61.672727 27.927273 61.672728 61.672728-27.927273 61.672727-61.672728 61.672727z m0-109.381818c-25.6 0-46.545455 20.945455-46.545454 46.545454s20.945455 46.545455 46.545454 46.545455 46.545455-20.945455 46.545455-46.545455-20.945455-46.545455-46.545455-46.545454zM686.545455 456.145455c-3.490909 0-6.981818 0-10.472728-1.163637-9.309091-2.327273-16.290909-8.145455-19.781818-16.290909l-57.018182-107.054545-2.327272 19.781818c0 3.490909-4.654545 6.981818-8.145455 6.981818-3.490909 0-6.981818-3.490909-6.981818-8.145455l4.654545-44.218181c0-3.490909 2.327273-5.818182 5.818182-6.981819s5.818182 1.163636 8.145455 3.49091l68.654545 128c2.327273 4.654545 6.981818 8.145455 11.636364 9.30909 4.654545 1.163636 10.472727 1.163636 15.127272-1.163636 9.309091-4.654545 12.8-17.454545 8.145455-26.763636l-93.090909-174.545455c-4.654545-9.309091-17.454545-12.8-26.763636-8.145454-3.490909 2.327273-8.145455 0-10.472728-3.490909-2.327273-3.490909 0-8.145455 3.490909-10.472728 16.290909-9.309091 37.236364-2.327273 46.545455 13.963637l93.090909 174.545454c9.309091 16.290909 2.327273 37.236364-13.963636 46.545455-5.818182 4.654545-11.636364 5.818182-16.290909 5.818182zM388.654545 463.127273c-6.981818 0-15.127273-2.327273-20.945454-6.981818l-66.327273-51.2c-2.327273-1.163636-3.490909-2.327273-5.818182-3.49091-9.309091-6.981818-13.963636-17.454545-12.8-29.090909 0-6.981818 2.327273-13.963636 6.981819-19.781818 1.163636-1.163636 2.327273-3.490909 4.654545-4.654545l88.436364-115.2c11.636364-15.127273 32.581818-17.454545 47.709091-5.818182 3.490909 2.327273 3.490909 6.981818 1.163636 10.472727-2.327273 3.490909-6.981818 3.490909-10.472727 1.163637-8.145455-6.981818-20.945455-4.654545-27.927273 3.490909l-89.6 116.363636-1.163636 1.163636-2.327273 2.327273c-2.327273 3.490909-3.490909 6.981818-3.490909 11.636364 0 6.981818 2.327273 12.8 6.981818 17.454545 1.163636 1.163636 2.327273 1.163636 3.490909 2.327273 0 0 1.163636 0 1.163636 1.163636l67.490909 51.2c8.145455 6.981818 20.945455 4.654545 27.927273-3.490909 6.981818-8.145455 4.654545-20.945455-3.490909-27.927273l-50.036364-38.4c-1.163636-1.163636-2.327273-3.490909-2.327272-4.654545 0-2.327273 0-3.490909 1.163636-5.818182l53.527273-69.818182c2.327273-2.327273 4.654545-3.490909 6.981818-2.327272 2.327273 1.163636 4.654545 2.327273 5.818182 5.818181l11.636363 57.018182c1.163636 3.490909-1.163636 8.145455-5.818181 8.145455-3.490909 1.163636-8.145455-1.163636-8.145455-5.818182l-8.145454-40.727273-39.563637 51.2 44.218182 33.745455c15.127273 11.636364 17.454545 32.581818 5.818182 47.709091-5.818182 8.145455-16.290909 12.8-26.763637 12.8zM510.836364 463.127273l-70.981819-50.036364-4.654545 52.363636 66.327273 55.854546h26.763636l58.181818-59.345455-13.963636-55.854545zM392.145455 694.690909h-1.163637c-3.490909-1.163636-6.981818-4.654545-5.818182-8.145454l32.581819-188.509091c1.163636-3.490909 4.654545-6.981818 8.145454-5.818182 3.490909 1.163636 6.981818 4.654545 5.818182 8.145454l-32.581818 188.509091c-1.163636 3.490909-3.490909 5.818182-6.981818 5.818182zM463.127273 713.309091h-1.163637c-3.490909-1.163636-6.981818-4.654545-5.818181-8.145455l27.927272-160.581818c1.163636-3.490909 4.654545-6.981818 8.145455-5.818182 3.490909 1.163636 6.981818 4.654545 5.818182 8.145455l-27.927273 160.581818c0 3.490909-3.490909 5.818182-6.981818 5.818182zM601.6 708.654545c-3.490909 0-5.818182-2.327273-6.981818-4.654545l-55.854546-154.763636c-1.163636-3.490909 1.163636-8.145455 4.654546-9.309091 3.490909-1.163636 8.145455 1.163636 9.309091 4.654545L608.581818 698.181818c1.163636 3.490909-1.163636 8.145455-4.654545 9.309091-1.163636 1.163636-1.163636 1.163636-2.327273 1.163636zM676.072727 680.727273c-2.327273 0-5.818182-1.163636-6.981818-4.654546l-74.472727-186.181818c-1.163636-3.490909 0-8.145455 3.490909-9.309091 3.490909-1.163636 8.145455 0 9.309091 3.490909l74.472727 186.181818c1.163636 3.490909 0 8.145455-3.490909 9.309091 0 1.163636-1.163636 1.163636-2.327273 1.163637z" fill="#FFFFFF" /><path d="M631.854545 54.690909s24.436364 137.309091-58.181818 168.727273h-24.436363l-6.981819 80.290909h-84.945454l-19.781818-76.8-20.945455 1.163636L453.818182 374.690909h-17.454546l4.654546 31.418182 39.563636-1.163636-13.963636-65.163637 69.818182-2.327273-5.818182 66.327273 40.727273-1.163636 1.163636-30.254546h-16.290909L570.181818 229.236364l38.4 2.327272s82.618182-25.6 38.4-182.690909l-15.127273 5.818182z" fill="#FFFFFF" /><path d="M484.072727 364.218182l40.727273-2.327273-4.654545 41.890909h-30.254546zM588.194909 213.096727l0.546909 15.127273-176.744727 6.376727-0.546909-15.115636z" fill="#FFFFFF" /></svg>