<?xml version="1.0" standalone="no"?><!DOCTYPE svg PUBLIC "-//W3C//DTD SVG 1.1//EN" "http://www.w3.org/Graphics/SVG/1.1/DTD/svg11.dtd"><svg class="icon" width="200px" height="200.00px" viewBox="0 0 1024 1024" version="1.1" xmlns="http://www.w3.org/2000/svg"><path d="M512 370.036364m-370.036364 0a370.036364 370.036364 0 1 0 740.072728 0 370.036364 370.036364 0 1 0-740.072728 0Z" fill="#00569E" /><path d="M167.563636 801.745455h690.036364V1024H167.563636z" fill="#00569E" /><path d="M231.563636 898.327273c-2.327273 19.781818-5.818182 37.236364-10.472727 52.363636l-8.145454-8.145454c4.654545-15.127273 8.145455-30.254545 9.30909-47.709091l9.309091 3.490909z m46.545455-30.254546c-8.145455 37.236364-18.618182 65.163636-33.745455 83.781818 0 2.327273 1.163636 3.490909 3.490909 3.49091h13.963637c2.327273 0 3.490909-1.163636 4.654545-3.49091 1.163636-2.327273 2.327273-10.472727 2.327273-23.272727l8.145455 3.490909c-1.163636 17.454545-2.327273 26.763636-4.654546 30.254546-2.327273 3.490909-4.654545 4.654545-9.309091 4.654545h-17.454545c-4.654545 0-8.145455-2.327273-9.309091-6.981818-4.654545 4.654545-9.309091 8.145455-13.963637 11.636364l-4.654545-10.472728c6.981818-4.654545 12.8-9.309091 18.618182-16.290909V884.363636h8.145454v48.872728c11.636364-17.454545 19.781818-41.890909 25.6-70.981819l8.145455 5.818182z m-33.745455-9.309091c6.981818 8.145455 12.8 15.127273 16.290909 22.109091l-5.818181 9.309091c-4.654545-6.981818-9.309091-15.127273-16.290909-23.272727l5.818181-8.145455z m37.236364 38.4c4.654545 13.963636 9.309091 30.254545 12.8 46.545455l-8.145455 4.654545c-3.490909-18.618182-8.145455-33.745455-12.8-47.709091l8.145455-3.490909zM332.8 937.890909c-8.145455 12.8-16.290909 24.436364-27.927273 33.745455l-4.654545-12.8c10.472727-8.145455 19.781818-17.454545 25.6-30.254546l6.981818 9.309091z m-2.327273-69.818182c-6.981818 9.309091-15.127273 17.454545-24.436363 24.436364l-3.490909-11.636364c9.309091-5.818182 17.454545-12.8 23.272727-22.109091l4.654545 9.309091z m1.163637 33.745455c-6.981818 10.472727-15.127273 19.781818-25.6 26.763636l-3.490909-11.636363c9.309091-5.818182 17.454545-13.963636 23.272727-23.272728l5.818182 8.145455z m19.781818 0h9.309091v22.109091c0 13.963636-3.490909 24.436364-6.981818 31.418182-4.654545 6.981818-11.636364 12.8-22.109091 17.454545l-4.654546-11.636364c9.309091-3.490909 16.290909-8.145455 19.781818-13.963636 3.490909-5.818182 5.818182-13.963636 5.818182-23.272727v-22.109091z m-18.618182-39.563637h45.381818v12.8H360.727273c0 4.654545-1.163636 6.981818-1.163637 9.309091h16.290909v60.509091h-9.30909V896h-23.272728v48.872727h-9.309091V884.363636H349.090909c0-4.654545 1.163636-6.981818 1.163636-9.309091h-18.618181v-12.8z m31.418182 81.454546c5.818182 6.981818 11.636364 12.8 15.127273 19.781818l-6.981819 9.309091c-3.490909-6.981818-8.145455-12.8-15.127272-20.945455l6.981818-8.145454zM390.981818 865.745455H407.272727v-6.981819h9.309091v6.981819H430.545455v10.472727h-13.963637v5.818182h18.618182v-23.272728h8.145455v23.272728h19.781818v10.472727h-19.781818c0 12.8 1.163636 23.272727 2.327272 31.418182 0 1.163636 0 3.490909 1.163637 5.818182 2.327273-9.309091 4.654545-19.781818 5.818181-31.418182l6.981819 4.654545c-2.327273 17.454545-5.818182 32.581818-9.309091 43.054546 0 1.163636 1.163636 2.327273 1.163636 3.490909 2.327273 5.818182 3.490909 8.145455 4.654546 8.145454 1.163636 0 2.327273-5.818182 3.490909-17.454545l6.981818 5.818182c-2.327273 16.290909-4.654545 25.6-9.309091 25.6-3.490909 0-6.981818-3.490909-10.472727-11.636364 0-1.163636-1.163636-2.327273-1.163637-3.490909-3.490909 5.818182-5.818182 10.472727-9.309091 13.963636l-4.654545-10.472727c3.490909-4.654545 6.981818-9.309091 10.472727-16.290909-1.163636-4.654545-2.327273-11.636364-3.490909-18.618182-1.163636-9.309091-2.327273-20.945455-3.490909-33.745454h-47.709091v-10.472728H407.272727v-5.818182h-16.290909v-9.30909z m1.163637 30.254545H430.545455v31.418182h-8.145455v3.490909h9.309091v9.309091h-9.309091v4.654545h11.636364v9.309091H418.909091c4.654545 2.327273 9.309091 5.818182 12.8 8.145455l-3.490909 8.145454c-4.654545-4.654545-9.309091-8.145455-13.963637-10.472727l3.49091-6.981818h-13.963637l3.490909 5.818182c-4.654545 4.654545-9.309091 8.145455-16.290909 11.636363l-3.490909-9.309091c5.818182-2.327273 10.472727-4.654545 13.963636-8.145454h-12.8v-9.309091h10.472728v-4.654546h-9.309091V930.909091h9.309091v-4.654546h-8.145455V896z m6.981818 11.636364h8.145454v-4.654546h-8.145454v4.654546z m8.145454 11.636363v-3.490909h-8.145454v3.490909h8.145454z m6.981818 11.636364v-4.654546H407.272727v4.654546h6.981818z m-6.981818 13.963636h6.981818v-4.654545H407.272727v4.654545z m6.981818-41.890909v4.654546h8.145455v-4.654546h-8.145455z m9.309091 16.290909v-3.490909h-8.145454v3.490909h8.145454z m27.927273-60.509091c3.490909 5.818182 6.981818 10.472727 9.309091 15.127273l-5.818182 5.818182c-2.327273-4.654545-4.654545-10.472727-9.309091-15.127273l5.818182-5.818182zM474.763636 862.254545h29.090909v10.472728c-2.327273 9.309091-4.654545 19.781818-8.145454 32.581818 4.654545 11.636364 8.145455 20.945455 8.145454 30.254545 0 5.818182-1.163636 10.472727-2.327272 12.8-2.327273 3.490909-6.981818 4.654545-13.963637 4.654546l-3.490909-12.8c2.327273 0 3.490909 1.163636 4.654546 1.163636 2.327273 0 3.490909-1.163636 4.654545-1.163636 1.163636-1.163636 1.163636-2.327273 1.163637-3.490909 0-8.145455-2.327273-17.454545-8.145455-27.927273 3.490909-12.8 6.981818-23.272727 8.145455-32.581818h-10.472728v97.745454h-9.309091v-111.709091z m29.090909 13.963637H523.636364c-1.163636-5.818182-2.327273-10.472727-3.490909-15.127273l9.30909-2.327273c1.163636 4.654545 2.327273 10.472727 3.49091 17.454546h17.454545v12.8H523.636364l-1.163637 18.618182H546.909091c0 29.090909-1.163636 46.545455-2.327273 53.527272-2.327273 8.145455-5.818182 11.636364-12.8 12.8-2.327273 0-3.490909 0-6.981818-1.163636l-3.490909-11.636364h8.145454c3.490909 0 4.654545-2.327273 5.818182-8.145454 0-3.490909 1.163636-15.127273 1.163637-32.581818h-16.290909c-1.163636 9.309091-2.327273 17.454545-4.654546 25.6-3.490909 10.472727-8.145455 19.781818-13.963636 29.090909l-6.981818-9.309091c6.981818-10.472727 11.636364-20.945455 13.963636-29.090909 2.327273-9.309091 3.490909-18.618182 3.490909-30.254546v-16.290909h-10.472727v-13.963636zM560.872727 971.636364l-2.327272-11.636364c2.327273 0 4.654545 1.163636 6.981818 1.163636 2.327273 0 2.327273-1.163636 2.327272-4.654545V930.909091c-3.490909 2.327273-6.981818 3.490909-9.30909 4.654545l-2.327273-12.8c4.654545-1.163636 8.145455-2.327273 11.636363-4.654545v-24.436364h-10.472727v-12.8h10.472727v-22.109091h9.309091v22.109091h8.145455v12.8h-8.145455v19.781818c2.327273-1.163636 5.818182-3.490909 9.309091-5.818181v12.8c-3.490909 2.327273-5.818182 3.490909-9.309091 5.818181v32.581819c0 8.145455-3.490909 12.8-9.309091 12.8h-6.981818z m38.4-54.690909c0 22.109091-3.490909 40.727273-10.472727 55.854545l-6.981818-8.145455c5.818182-12.8 9.309091-30.254545 9.309091-51.2V872.727273h18.618182c-1.163636-4.654545-2.327273-8.145455-3.49091-12.8l9.309091-2.327273c1.163636 4.654545 2.327273 9.309091 3.490909 15.127273h18.618182v44.218182h-38.4z m27.927273-31.418182h-27.927273v19.781818h27.927273v-19.781818zM673.745455 864.581818v100.072727h-8.145455v-8.145454h-9.309091v10.472727h-8.145454v-103.563636h25.6z m-17.454546 26.763637h9.309091v-15.127273h-9.309091v15.127273z m0 26.763636h9.309091v-15.127273h-9.309091v15.127273z m0 26.763636h9.309091v-15.127272h-9.309091v15.127272z m32.581818-26.763636V954.181818c4.654545-2.327273 8.145455-3.490909 11.636364-5.818182l2.327273 11.636364c-5.818182 3.490909-13.963636 6.981818-23.272728 10.472727l-2.327272-10.472727c1.163636-1.163636 2.327273-2.327273 2.327272-4.654545v-93.09091h38.4v55.854546h-15.127272c1.163636 5.818182 2.327273 11.636364 4.654545 16.290909 3.490909-3.490909 6.981818-6.981818 10.472727-12.8l5.818182 8.145455c-3.490909 5.818182-6.981818 10.472727-11.636363 13.963636 3.490909 5.818182 8.145455 11.636364 12.8 16.290909l-4.654546 11.636364c-13.963636-12.8-22.109091-31.418182-24.436364-53.527273h-6.981818z m20.945455-32.581818v-11.636364h-20.945455v11.636364H709.818182z m-20.945455 10.472727v11.636364H709.818182v-11.636364h-20.945455zM749.381818 861.090909l-2.327273 10.472727h12.8v11.636364H744.727273c-1.163636 4.654545-2.327273 9.309091-3.490909 12.8h18.618181v11.636364h-8.145454v11.636363h10.472727v11.636364h-10.472727v23.272727c2.327273-1.163636 4.654545-3.490909 6.981818-5.818182l1.163636 10.472728c-4.654545 4.654545-10.472727 8.145455-16.290909 10.472727l-3.490909-10.472727c2.327273-1.163636 2.327273-2.327273 2.327273-4.654546v-23.272727H733.090909v-11.636364h9.309091v-11.636363h-3.490909v-6.981819l-1.163636 4.654546-6.981819-6.981818c4.654545-12.8 8.145455-25.6 10.472728-40.727273l8.145454 3.490909z m17.454546 41.890909h37.236363v41.890909h-8.145454v11.636364c0 3.490909 1.163636 4.654545 3.490909 4.654545h2.327273c1.163636 0 2.327273 0 2.327272-1.163636 1.163636-1.163636 1.163636-4.654545 1.163637-11.636364l6.981818 3.490909c-1.163636 9.309091-1.163636 15.127273-3.490909 17.454546-1.163636 1.163636-3.490909 2.327273-6.981818 2.327273h-5.818182c-5.818182 0-9.309091-4.654545-9.309091-12.8v-15.127273h-4.654546c-1.163636 6.981818-2.327273 12.8-5.818181 16.290909-3.490909 4.654545-8.145455 9.309091-15.127273 12.8l-3.490909-10.472727c5.818182-2.327273 9.309091-4.654545 11.636363-9.309091 1.163636-2.327273 2.327273-5.818182 3.490909-9.309091h-6.981818v-40.727273z m-2.327273-36.072727H779.636364c-1.163636-2.327273-1.163636-5.818182-2.327273-6.981818l9.309091-2.327273c0 1.163636 1.163636 4.654545 2.327273 9.309091h17.454545v10.472727h-5.818182c-1.163636 3.490909-1.163636 6.981818-2.327273 9.309091h11.636364v10.472727h-46.545454v-10.472727h11.636363l-2.327273-9.309091h-6.981818v-10.472727z m10.472727 52.363636h20.945455v-5.818182h-20.945455v5.818182z m20.945455 15.127273v-5.818182h-20.945455v5.818182h20.945455z m-6.981818-46.545455c1.163636-3.490909 1.163636-5.818182 2.327272-9.30909h-11.636363l2.327272 9.30909h6.981819z" fill="#FFFFFF" /><path d="M615.563636 215.272727s-40.727273 3.490909-16.290909 24.436364c0 0-147.781818 23.272727-205.963636-12.8 0 0-60.509091 29.090909-34.909091 86.109091 0 0 3.490909 20.945455-9.309091 15.127273s-46.545455-100.072727 16.290909-173.381819 161.745455-72.145455 226.909091-40.727272 167.563636 95.418182 79.127273 214.109091c0 0-15.127273-4.654545 1.163636-57.018182 16.290909-52.363636-57.018182-55.854545-57.018182-55.854546zM354.909091 350.254545s-16.290909-8.145455-29.090909-6.981818l5.818182-15.127272s19.781818 0 29.090909 10.472727l-5.818182 11.636363zM669.090909 350.254545s16.290909-8.145455 29.090909-6.981818l-5.818182-15.127272s-19.781818 0-29.090909 10.472727l5.818182 11.636363zM516.654545 609.745455c-20.945455 0-55.854545-1.163636-65.163636-5.818182-9.309091-4.654545-59.345455-52.363636-64-69.818182-2.327273-10.472727-12.8-47.709091-17.454545-62.836364-17.454545-2.327273-33.745455-11.636364-47.709091-27.927272-15.127273-18.618182-23.272727-41.890909-23.272728-67.49091 0-15.127273 6.981818-22.109091 11.636364-25.6 16.290909-9.309091 39.563636 2.327273 43.054546 3.49091 4.654545 2.327273 5.818182 8.145455 3.490909 12.8-2.327273 4.654545-8.145455 6.981818-12.8 3.490909-6.981818-3.490909-19.781818-6.981818-24.436364-4.654546-2.327273 1.163636-3.490909 5.818182-3.490909 9.309091 0 20.945455 6.981818 40.727273 18.618182 55.854546 11.636364 13.963636 25.6 20.945455 39.563636 20.945454 4.654545 0 8.145455 2.327273 9.309091 6.981818 1.163636 2.327273 16.290909 57.018182 19.781818 70.981818 2.327273 9.309091 45.381818 52.363636 54.690909 58.181819 4.654545 2.327273 32.581818 3.490909 55.854546 3.490909 4.654545 0 9.309091 4.654545 9.309091 9.309091 2.327273 5.818182-1.163636 9.309091-6.981819 9.309091z" fill="#FFFFFF" /><path d="M508.509091 609.745455c20.945455 0 55.854545-1.163636 65.163636-5.818182 9.309091-4.654545 59.345455-52.363636 64-69.818182 2.327273-10.472727 12.8-47.709091 17.454546-62.836364 17.454545-2.327273 33.745455-11.636364 47.709091-27.927272 15.127273-18.618182 23.272727-41.890909 23.272727-67.49091 0-15.127273-6.981818-22.109091-11.636364-25.6-16.290909-9.309091-39.563636 2.327273-43.054545 3.49091-4.654545 2.327273-5.818182 8.145455-3.490909 12.8 2.327273 4.654545 8.145455 6.981818 12.8 3.490909 6.981818-3.490909 19.781818-6.981818 24.436363-4.654546 2.327273 1.163636 3.490909 5.818182 3.490909 9.309091 0 20.945455-6.981818 40.727273-18.618181 55.854546-11.636364 13.963636-25.6 20.945455-39.563637 20.945454-4.654545 0-8.145455 2.327273-9.309091 6.981818-1.163636 2.327273-16.290909 57.018182-19.781818 70.981818-2.327273 9.309091-45.381818 52.363636-54.690909 58.181819-4.654545 2.327273-32.581818 3.490909-55.854545 3.490909-4.654545 0-9.309091 4.654545-9.309091 9.309091-3.490909 5.818182 1.163636 9.309091 6.981818 9.309091zM466.618182 351.418182s-2.327273-8.145455-32.581818-5.818182c-36.072727 2.327273-41.890909 6.981818-38.4 36.072727 3.490909 26.763636 15.127273 25.6 41.890909 23.272728 22.109091-2.327273 32.581818-5.818182 32.581818-30.254546 0-13.963636-3.490909-23.272727-3.490909-23.272727z" fill="#FFFFFF" /><path d="M418.909091 316.509091c-60.509091 9.309091-54.690909 25.6-51.2 69.818182 2.327273 43.054545 8.145455 48.872727 69.818182 44.218182 61.672727-4.654545 60.509091-24.436364 62.836363-64 0 0-1.163636-8.145455 15.127273-6.981819v-27.927272H500.363636c-2.327273 0-20.945455-24.436364-81.454545-15.127273z m20.945454 97.745454c-37.236364 4.654545-52.363636 5.818182-55.854545-30.254545-4.654545-39.563636 3.490909-44.218182 51.2-48.872727 40.727273-3.490909 43.054545 8.145455 43.054545 8.145454s4.654545 12.8 5.818182 31.418182c-1.163636 32.581818-15.127273 36.072727-44.218182 39.563636z" fill="#FFFFFF" /><path d="M609.745455 316.509091c-60.509091-9.309091-80.290909 15.127273-80.29091 15.127273h-15.127272v27.927272c16.290909-1.163636 15.127273 6.981818 15.127272 6.981819 2.327273 38.4 1.163636 59.345455 62.836364 64 61.672727 4.654545 66.327273-1.163636 69.818182-44.218182 2.327273-44.218182 8.145455-61.672727-52.363636-69.818182z m36.072727 67.490909c-4.654545 36.072727-19.781818 34.909091-55.854546 30.254545-29.090909-3.490909-44.218182-8.145455-43.054545-39.563636 0-18.618182 5.818182-31.418182 5.818182-31.418182s2.327273-10.472727 43.054545-8.145454c46.545455 4.654545 53.527273 9.309091 50.036364 48.872727z" fill="#FFFFFF" /><path d="M562.036364 351.418182s2.327273-8.145455 32.581818-5.818182c36.072727 2.327273 41.890909 6.981818 38.4 36.072727-3.490909 26.763636-15.127273 25.6-41.890909 23.272728-22.109091-2.327273-32.581818-5.818182-32.581818-30.254546 0-13.963636 3.490909-23.272727 3.490909-23.272727z" fill="#FFFFFF" /></svg>