<?xml version="1.0" standalone="no"?><!DOCTYPE svg PUBLIC "-//W3C//DTD SVG 1.1//EN" "http://www.w3.org/Graphics/SVG/1.1/DTD/svg11.dtd"><svg class="icon" width="200px" height="200.00px" viewBox="0 0 1024 1024" version="1.1" xmlns="http://www.w3.org/2000/svg"><path d="M512 370.036364m-370.036364 0a370.036364 370.036364 0 1 0 740.072728 0 370.036364 370.036364 0 1 0-740.072728 0Z" fill="#00569E" /><path d="M167.563636 801.745455h690.036364V1024H167.563636z" fill="#00569E" /><path d="M231.563636 898.327273c-2.327273 19.781818-5.818182 37.236364-10.472727 52.363636l-8.145454-8.145454c4.654545-15.127273 8.145455-30.254545 9.30909-47.709091l9.309091 3.490909z m46.545455-30.254546c-8.145455 37.236364-18.618182 65.163636-33.745455 83.781818 0 2.327273 1.163636 3.490909 3.490909 3.49091h13.963637c2.327273 0 3.490909-1.163636 4.654545-3.49091 1.163636-2.327273 2.327273-10.472727 2.327273-23.272727l8.145455 3.490909c-1.163636 17.454545-2.327273 26.763636-4.654546 30.254546-2.327273 3.490909-4.654545 4.654545-9.309091 4.654545h-17.454545c-4.654545 0-8.145455-2.327273-9.309091-6.981818-4.654545 4.654545-9.309091 8.145455-13.963637 11.636364l-4.654545-10.472728c6.981818-4.654545 12.8-9.309091 18.618182-16.290909V884.363636h8.145454v48.872728c11.636364-17.454545 19.781818-41.890909 25.6-70.981819l8.145455 5.818182z m-33.745455-9.309091c6.981818 8.145455 12.8 15.127273 16.290909 22.109091l-5.818181 9.309091c-4.654545-6.981818-9.309091-15.127273-16.290909-23.272727l5.818181-8.145455z m37.236364 38.4c4.654545 13.963636 9.309091 30.254545 12.8 46.545455l-8.145455 4.654545c-3.490909-18.618182-8.145455-33.745455-12.8-47.709091l8.145455-3.490909zM332.8 937.890909c-8.145455 12.8-16.290909 24.436364-27.927273 33.745455l-4.654545-12.8c10.472727-8.145455 19.781818-17.454545 25.6-30.254546l6.981818 9.309091z m-2.327273-69.818182c-6.981818 9.309091-15.127273 17.454545-24.436363 24.436364l-3.490909-11.636364c9.309091-5.818182 17.454545-12.8 23.272727-22.109091l4.654545 9.309091z m1.163637 33.745455c-6.981818 10.472727-15.127273 19.781818-25.6 26.763636l-3.490909-11.636363c9.309091-5.818182 17.454545-13.963636 23.272727-23.272728l5.818182 8.145455z m19.781818 0h9.309091v22.109091c0 13.963636-3.490909 24.436364-6.981818 31.418182-4.654545 6.981818-11.636364 12.8-22.109091 17.454545l-4.654546-11.636364c9.309091-3.490909 16.290909-8.145455 19.781818-13.963636 3.490909-5.818182 5.818182-13.963636 5.818182-23.272727v-22.109091z m-18.618182-39.563637h45.381818v12.8H360.727273c0 4.654545-1.163636 6.981818-1.163637 9.309091h16.290909v60.509091h-9.30909V896h-23.272728v48.872727h-9.309091V884.363636H349.090909c0-4.654545 1.163636-6.981818 1.163636-9.309091h-18.618181v-12.8z m31.418182 81.454546c5.818182 6.981818 11.636364 12.8 15.127273 19.781818l-6.981819 9.309091c-3.490909-6.981818-8.145455-12.8-15.127272-20.945455l6.981818-8.145454zM390.981818 865.745455H407.272727v-6.981819h9.309091v6.981819H430.545455v10.472727h-13.963637v5.818182h18.618182v-23.272728h8.145455v23.272728h19.781818v10.472727h-19.781818c0 12.8 1.163636 23.272727 2.327272 31.418182 0 1.163636 0 3.490909 1.163637 5.818182 2.327273-9.309091 4.654545-19.781818 5.818181-31.418182l6.981819 4.654545c-2.327273 17.454545-5.818182 32.581818-9.309091 43.054546 0 1.163636 1.163636 2.327273 1.163636 3.490909 2.327273 5.818182 3.490909 8.145455 4.654546 8.145454 1.163636 0 2.327273-5.818182 3.490909-17.454545l6.981818 5.818182c-2.327273 16.290909-4.654545 25.6-9.309091 25.6-3.490909 0-6.981818-3.490909-10.472727-11.636364 0-1.163636-1.163636-2.327273-1.163637-3.490909-3.490909 5.818182-5.818182 10.472727-9.309091 13.963636l-4.654545-10.472727c3.490909-4.654545 6.981818-9.309091 10.472727-16.290909-1.163636-4.654545-2.327273-11.636364-3.490909-18.618182-1.163636-9.309091-2.327273-20.945455-3.490909-33.745454h-47.709091v-10.472728H407.272727v-5.818182h-16.290909v-9.30909z m1.163637 30.254545H430.545455v31.418182h-8.145455v3.490909h9.309091v9.309091h-9.309091v4.654545h11.636364v9.309091H418.909091c4.654545 2.327273 9.309091 5.818182 12.8 8.145455l-3.490909 8.145454c-4.654545-4.654545-9.309091-8.145455-13.963637-10.472727l3.49091-6.981818h-13.963637l3.490909 5.818182c-4.654545 4.654545-9.309091 8.145455-16.290909 11.636363l-3.490909-9.309091c5.818182-2.327273 10.472727-4.654545 13.963636-8.145454h-12.8v-9.309091h10.472728v-4.654546h-9.309091V930.909091h9.309091v-4.654546h-8.145455V896z m6.981818 11.636364h8.145454v-4.654546h-8.145454v4.654546z m8.145454 11.636363v-3.490909h-8.145454v3.490909h8.145454z m6.981818 11.636364v-4.654546H407.272727v4.654546h6.981818z m-6.981818 13.963636h6.981818v-4.654545H407.272727v4.654545z m6.981818-41.890909v4.654546h8.145455v-4.654546h-8.145455z m9.309091 16.290909v-3.490909h-8.145454v3.490909h8.145454z m27.927273-60.509091c3.490909 5.818182 6.981818 10.472727 9.309091 15.127273l-5.818182 5.818182c-2.327273-4.654545-4.654545-10.472727-9.309091-15.127273l5.818182-5.818182zM474.763636 862.254545h29.090909v10.472728c-2.327273 9.309091-4.654545 19.781818-8.145454 32.581818 4.654545 11.636364 8.145455 20.945455 8.145454 30.254545 0 5.818182-1.163636 10.472727-2.327272 12.8-2.327273 3.490909-6.981818 4.654545-13.963637 4.654546l-3.490909-12.8c2.327273 0 3.490909 1.163636 4.654546 1.163636 2.327273 0 3.490909-1.163636 4.654545-1.163636 1.163636-1.163636 1.163636-2.327273 1.163637-3.490909 0-8.145455-2.327273-17.454545-8.145455-27.927273 3.490909-12.8 6.981818-23.272727 8.145455-32.581818h-10.472728v97.745454h-9.309091v-111.709091z m29.090909 13.963637H523.636364c-1.163636-5.818182-2.327273-10.472727-3.490909-15.127273l9.30909-2.327273c1.163636 4.654545 2.327273 10.472727 3.49091 17.454546h17.454545v12.8H523.636364l-1.163637 18.618182H546.909091c0 29.090909-1.163636 46.545455-2.327273 53.527272-2.327273 8.145455-5.818182 11.636364-12.8 12.8-2.327273 0-3.490909 0-6.981818-1.163636l-3.490909-11.636364h8.145454c3.490909 0 4.654545-2.327273 5.818182-8.145454 0-3.490909 1.163636-15.127273 1.163637-32.581818h-16.290909c-1.163636 9.309091-2.327273 17.454545-4.654546 25.6-3.490909 10.472727-8.145455 19.781818-13.963636 29.090909l-6.981818-9.309091c6.981818-10.472727 11.636364-20.945455 13.963636-29.090909 2.327273-9.309091 3.490909-18.618182 3.490909-30.254546v-16.290909h-10.472727v-13.963636zM566.690909 927.418182H593.454545v-12.8h9.309091v12.8h26.763637v11.636363h-26.763637v17.454546h33.745455v12.8h-76.8v-12.8H593.454545v-17.454546h-26.763636v-11.636363z m18.618182-53.527273c-4.654545 13.963636-10.472727 25.6-17.454546 36.072727l-6.981818-8.145454c6.981818-9.309091 12.8-20.945455 17.454546-33.745455l6.981818 5.818182z m8.145454-15.127273h9.309091v51.2H593.454545v-51.2z m25.6 9.309091c8.145455 13.963636 12.8 24.436364 17.454546 34.909091l-8.145455 5.818182c-4.654545-10.472727-9.309091-22.109091-17.454545-34.909091l8.145454-5.818182zM716.8 872.727273v98.909091h-9.309091v-6.981819h-46.545454v6.981819H651.636364V872.727273h65.163636z m-55.854545 79.127272h46.545454v-66.327272h-46.545454v66.327272zM737.745455 861.090909h66.327272v26.763636h-32.581818v3.49091h30.254546v9.30909h-30.254546v4.654546h27.927273v38.4h-24.436364v5.818182h33.745455v10.472727h-33.745455v13.963636h-9.309091v-13.963636h-33.745454v-10.472727h33.745454v-5.818182h-23.272727v-38.4h19.781818v-17.454546h-24.436363V861.090909z m19.781818 17.454546v-6.981819h-10.472728v6.981819h10.472728z m-6.981818 40.727272H791.272727v-4.654545h-39.563636v4.654545z m40.727272 15.127273v-4.654545h-39.563636v4.654545H791.272727z m-15.127272-55.854545v-6.981819h-10.472728v6.981819h10.472728z m18.618181 0v-6.981819h-10.472727v6.981819h10.472727z" fill="#FFFFFF" /><path d="M411.927273 607.418182l13.963636-121.018182-52.363636 8.145455v-83.781819l-61.672728-2.327272L353.745455 279.272727c1.163636-10.472727 6.981818-80.290909 59.345454-128 37.236364-33.745455 89.6-48.872727 154.763636-44.218182 105.890909 6.981818 147.781818 68.654545 165.236364 119.854546 19.781818 59.345455 11.636364 124.509091 2.327273 132.654545-1.163636 1.163636-4.654545 2.327273-8.145455 5.818182-25.6 13.963636-101.236364 58.181818-94.254545 187.345455v8.145454l-221.090909 46.545455z m34.909091-141.963637l-13.963637 118.69091 180.363637-39.563637c-2.327273-88.436364 32.581818-154.763636 104.727272-196.654545 2.327273-1.163636 3.490909-2.327273 4.654546-2.327273 4.654545-11.636364 12.8-84.945455-20.945455-144.290909-26.763636-46.545455-72.145455-72.145455-134.981818-76.8-59.345455-3.490909-107.054545 9.309091-140.8 39.563636-51.2 46.545455-53.527273 116.363636-53.527273 116.363637v2.327272l-34.909091 107.054546 54.69091 2.327273v80.290909l54.690909-6.981819z" fill="#FFFFFF" /><path d="M346.763636 280.436364s-45.381818 9.309091-38.4 98.909091c8.145455 108.218182 48.872727 153.6 125.672728 118.690909 72.145455-33.745455 68.654545-102.4 60.509091-137.309091-3.490909-15.127273-3.490909-101.236364-147.781819-80.290909z" fill="#FFFFFF" /><path d="M636.509091 458.472727l-208.290909-41.890909v-73.309091l264.145454-172.218182 8.145455 11.636364-257.163636 168.727273v52.363636l195.490909 39.563637z" fill="#FFFFFF" /><path d="M560.872727 418.909091c-5.818182 0-11.636364-2.327273-16.290909-8.145455l10.472727-9.309091c3.490909 3.490909 5.818182 3.490909 8.145455 3.49091 12.8-3.490909 30.254545-31.418182 37.236364-61.672728 4.654545-19.781818 3.490909-36.072727-2.327273-41.890909-5.818182-4.654545-10.472727-6.981818-16.290909-5.818182-13.963636 2.327273-24.436364 18.618182-24.436364 18.618182l-11.636363-8.145454c1.163636-1.163636 15.127273-22.109091 34.90909-24.436364 10.472727-1.163636 19.781818 2.327273 27.927273 9.309091 15.127273 12.8 10.472727 40.727273 6.981818 55.854545-6.981818 31.418182-26.763636 67.490909-47.709091 72.145455-3.490909-1.163636-5.818182 0-6.981818 0z" fill="#FFFFFF" /></svg>