<?xml version="1.0" standalone="no"?><!DOCTYPE svg PUBLIC "-//W3C//DTD SVG 1.1//EN" "http://www.w3.org/Graphics/SVG/1.1/DTD/svg11.dtd"><svg class="icon" width="200px" height="200.00px" viewBox="0 0 1024 1024" version="1.1" xmlns="http://www.w3.org/2000/svg"><path d="M102.516331 648.252201L458.48793 30.536779c23.266118-40.715706 82.594717-40.715706 105.860835 0l357.134904 617.715422c23.266118 40.715706-5.816529 91.901164-53.51207 91.901165H154.865095c-46.532235 0-75.614882-51.185459-52.348764-91.901165z" fill="#FFF500" /><path d="M130.435672 649.415507L475.937518 50.312979c16.286282-27.919341 55.838682-27.919341 70.961658 0l345.501846 597.939222c16.286282 27.919341-3.489918 61.655212-36.062482 61.655212H166.498154c-31.409259 1.163306-51.185459-33.73587-36.062482-60.491906z"  /><path d="M186.274354 651.742119L512 88.702073 837.725646 651.742119z" fill="#FFF500" /><path d="M193.254189 783.195683H860.991764V1024H193.254189z"  /><path d="M207.21386 797.155354h640.981539v214.048281H207.21386z" fill="#FFFFFF" /><path d="M275.848907 880.913377h44.205623v-40.715706h15.122976v40.715706h44.205624v80.268106h-13.959671v-4.653224h-89.574552V942.568588h89.574552v-18.612894h-82.594717v-12.796364h82.594717v-17.449588h-89.574552v-12.796365z m12.796364-33.735871c6.979835 8.143141 11.633059 16.286282 16.286283 23.266118l-11.633059 8.143141c-3.489918-6.979835-9.306447-15.122976-16.286283-23.266117l11.633059-8.143142z m90.737859 4.653224c-3.489918 9.306447-9.306447 17.449588-15.122977 25.592729l-12.796364-6.979835c6.979835-9.306447 11.633059-17.449588 15.122976-25.592729l12.796365 6.979835zM425.915365 883.239989c-3.489918 24.429423-8.143141 45.368929-15.122976 62.818517l-11.633059-8.143141c6.979835-18.612894 11.633059-37.225788 13.95967-58.165294l12.796365 3.489918z m23.266118 75.614882c-10.469753 0-16.286282-5.816529-16.286283-16.286283v-75.614882h13.959671v72.124965c0 3.489918 2.326612 5.816529 6.979835 5.816529h23.266118c2.326612 0 4.653224-1.163306 4.653223-3.489917 1.163306-2.326612 2.326612-11.633059 2.326612-25.59273l12.796365 4.653224c-1.163306 18.612894-3.489918 30.245953-5.81653 33.73587-2.326612 3.489918-6.979835 4.653224-12.796364 4.653224h-29.082647z m6.979835-119.820506c11.633059 13.959671 20.939506 25.592729 26.756035 36.062482l-11.633059 8.143142c-6.979835-11.633059-16.286282-23.266118-26.756035-37.225788l11.633059-6.979836z m46.532235 37.225788c8.143141 17.449588 13.959671 37.225788 19.7762 58.165294l-12.796365 5.81653c-5.816529-22.102812-12.796365-41.879012-20.939506-59.3286l13.959671-4.653224zM586.451576 839.034365h13.959671v23.266118h47.695541v65.145129h-13.959671V919.302471h-33.73587v44.205623h-13.959671V919.302471h-33.73587v6.979835h-13.959671V861.137177h47.695541v-22.102812z m-32.572564 66.308435h33.73587v-30.245953h-33.73587v30.245953z m47.695541 0h33.73587v-30.245953h-33.73587v30.245953zM666.719682 914.649247h16.286282c1.163306-5.816529 2.326612-13.959671 2.326612-20.939505h84.921329v20.939505h17.449588v10.469753h-17.449588v10.469753h13.959671v10.469753h-15.122977c-1.163306 5.816529-2.326612 10.469753-4.653223 11.633059-2.326612 2.326612-8.143141 3.489918-17.449588 3.489918h-9.306447l-4.653224-11.633059c5.816529 0 10.469753 1.163306 13.959671 1.163306 4.653224 0 8.143141-1.163306 8.143141-4.653224v-1.163306H674.862823c2.326612-6.979835 4.653224-13.959671 5.816529-20.939506h-15.122976v-9.306447z m5.816529-67.471741h46.532235v-8.143141H733.028117v8.143141h48.858847v10.469753H733.028117v4.653224h41.879012v10.469753H733.028117v5.816529h53.51207v10.469753H667.882988v-10.469753h52.348764V872.770236h-40.715705v-10.469753h40.715705v-4.653224h-46.532235v-10.469753z m23.266118 77.941494c-1.163306 4.653224-2.326612 8.143141-3.489918 10.469753H721.395058c-2.326612-4.653224-4.653224-8.143141-5.816529-10.469753h-19.7762z m27.919341-10.469753c-2.326612-4.653224-4.653224-8.143141-6.979835-10.469753H698.128941c0 2.326612-1.163306 5.816529-1.163306 10.469753h26.756035z m5.816529 10.469753c2.326612 3.489918 3.489918 6.979835 5.81653 10.469753h22.102811v-10.469753h-27.919341z m27.919341-10.469753v-10.469753h-26.756035c2.326612 4.653224 4.653224 8.143141 5.81653 10.469753h20.939505z"  /><path d="M399.15933 442.34706c12.796365 15.122976 31.409259 26.756035 55.838682 33.735871v5.816529c0 6.979835 2.326612 12.796365 6.979835 17.449589 4.653224 4.653224 10.469753 6.979835 17.449588 8.143141 6.979835 0 11.633059-1.163306 15.122977-3.489918 5.816529 3.489918 11.633059 5.816529 17.449588 5.816529s11.633059-2.326612 16.286282-5.816529c3.489918 2.326612 8.143141 3.489918 15.122977 3.489918 6.979835-1.163306 12.796365-3.489918 17.449588-8.143141 4.653224-4.653224 6.979835-10.469753 6.979835-16.286283V477.246237c25.592729-6.979835 46.532235-18.612894 60.491906-33.735871 13.959671-15.122976 20.939506-32.572565 20.939506-53.51207 0-4.653224 0-9.306447-1.163306-13.959671-4.653224-30.245953-18.612894-55.838682-43.042318-76.778188-24.429423-20.939506-54.675376-32.572565-90.737858-32.572564-36.062482 0-66.308435 10.469753-90.737859 31.409258-23.266118 19.7762-37.225788 45.368929-41.879011 76.778189-1.163306 4.653224-1.163306 10.469753-1.163306 13.95967-1.163306 19.7762 5.816529 38.389094 18.612894 53.51207z m143.086623-86.084635c6.979835-6.979835 16.286282-11.633059 25.592729-11.633058 10.469753 0 18.612894 3.489918 26.756035 11.633058 6.979835 6.979835 10.469753 16.286282 10.469753 26.756036s-3.489918 19.7762-10.469753 26.756035c-6.979835 6.979835-16.286282 11.633059-26.756035 11.633059-10.469753 0-18.612894-3.489918-25.592729-11.633059-6.979835-6.979835-10.469753-16.286282-10.469753-26.756035-1.163306-10.469753 3.489918-19.7762 10.469753-26.756036z m-38.389094 75.614883c3.489918-4.653224 6.979835-6.979835 10.469753-6.979836 3.489918 0 6.979835 2.326612 9.306447 6.979836 3.489918 4.653224 4.653224 9.306447 4.653223 13.95967 0 6.979835-4.653224 10.469753-13.95967 10.469753-5.816529 0-10.469753-1.163306-13.959671-4.653223-1.163306-2.326612-2.326612-4.653224-2.326612-6.979836 0-3.489918 2.326612-8.143141 5.81653-12.796364zM430.568588 356.262425c6.979835-6.979835 16.286282-11.633059 25.59273-11.633058 10.469753 0 18.612894 3.489918 25.592729 11.633058 6.979835 6.979835 10.469753 16.286282 10.469753 26.756036s-3.489918 19.7762-10.469753 26.756035c-6.979835 6.979835-16.286282 11.633059-25.592729 11.633059-10.469753 0-18.612894-3.489918-25.59273-11.633059-6.979835-6.979835-10.469753-16.286282-10.469752-26.756035 0-10.469753 3.489918-19.7762 10.469752-26.756036zM613.207611 614.516331l1.163306-1.163306c-34.899176-26.756035-24.429423-43.042318 23.266118-37.225788l1.163306-1.163306c-65.145129-13.959671-161.699517-51.185459-221.028117-83.758024l-1.163306 1.163306c38.389094 27.919341 29.082647 45.368929-20.939506 39.5524v1.163306c65.145129 13.959671 159.372905 48.858847 217.538199 81.431412z"  /><path d="M607.391082 628.476001c19.7762 4.653224 13.959671-17.449588 19.7762-27.919341 5.816529-11.633059 27.919341-19.7762 23.266118-36.062482-4.653224-15.122976-13.959671-3.489918-22.102812 0-9.306447 3.489918-18.612894 1.163306-36.062482-2.326612-12.796365-2.326612-25.592729 29.082647-11.633059 36.062482 23.266118 10.469753 16.286282 27.919341 26.756035 30.245953zM422.425447 478.409543c-19.7762-4.653224-12.796365 16.286282-18.612894 26.756035-5.816529 11.633059-26.756035 19.7762-22.102811 34.899176 4.653224 13.959671 12.796365 3.489918 22.102811 0 9.306447-3.489918 17.449588-1.163306 34.899177 2.326612 11.633059 2.326612 24.429423-29.082647 11.633058-34.899176-25.592729-10.469753-18.612894-26.756035-27.919341-29.082647z m209.395059 57.001988l-1.163306-1.163306c-45.368929 2.326612-50.022153-15.122976-10.469753-41.879012v-1.163306c-58.165294 31.409259-154.719682 66.308435-222.191423 80.268106v1.163306c48.858847-4.653224 55.838682 13.959671 15.122976 41.879012v1.163305c57.001988-31.409259 151.229764-65.145129 218.701506-80.268105z"  /><path d="M636.473729 549.371201c17.449588-9.306447-3.489918-20.939506-6.979835-32.572564-4.653224-11.633059 4.653224-32.572565-10.469753-40.715706-13.959671-8.143141-12.796365 5.816529-16.286282 13.959671-3.489918 9.306447-12.796365 12.796365-27.919342 20.939505-10.469753 5.816529 3.489918 37.225788 18.612895 33.735871 26.756035-6.979835 34.899176 10.469753 43.042317 4.653223z m-245.45754 10.469753c-17.449588 9.306447 3.489918 19.7762 6.979835 31.409259 4.653224 11.633059-4.653224 31.409259 10.469753 39.5524 13.959671 6.979835 11.633059-5.816529 15.122976-13.959671 3.489918-8.143141 11.633059-11.633059 26.756035-20.939505 10.469753-5.816529-3.489918-36.062482-17.449588-32.572565-25.592729 8.143141-33.73587-8.143141-41.879011-3.489918z"  /></svg>