<?xml version="1.0" standalone="no"?><!DOCTYPE svg PUBLIC "-//W3C//DTD SVG 1.1//EN" "http://www.w3.org/Graphics/SVG/1.1/DTD/svg11.dtd"><svg class="icon" width="200px" height="200.00px" viewBox="0 0 1024 1024" version="1.1" xmlns="http://www.w3.org/2000/svg"><path d="M102.516331 648.252201L458.48793 30.536779c23.266118-40.715706 82.594717-40.715706 105.860835 0l357.134904 617.715422c23.266118 40.715706-5.816529 91.901164-53.51207 91.901165H154.865095c-46.532235 0-75.614882-51.185459-52.348764-91.901165z" fill="#FFF500" /><path d="M130.435672 649.415507L475.937518 50.312979c16.286282-27.919341 55.838682-27.919341 70.961658 0l345.501846 597.939222c16.286282 27.919341-3.489918 61.655212-36.062482 61.655212H166.498154c-31.409259 1.163306-51.185459-33.73587-36.062482-60.491906z"  /><path d="M186.274354 651.742119L512 88.702073 837.725646 651.742119z" fill="#FFF500" /><path d="M193.254189 783.195683H860.991764V1024H193.254189z"  /><path d="M207.21386 797.155354h640.981539v214.048281H207.21386z" fill="#FFFFFF" /><path d="M275.848907 880.913377h44.205623v-40.715706h15.122976v40.715706h44.205624v80.268106h-13.959671v-4.653224h-89.574552V942.568588h89.574552v-18.612894h-82.594717v-12.796364h82.594717v-17.449588h-89.574552v-12.796365z m12.796364-33.735871c6.979835 8.143141 11.633059 16.286282 16.286283 23.266118l-11.633059 8.143141c-3.489918-6.979835-9.306447-15.122976-16.286283-23.266117l11.633059-8.143142z m90.737859 4.653224c-3.489918 9.306447-9.306447 17.449588-15.122977 25.592729l-12.796364-6.979835c6.979835-9.306447 11.633059-17.449588 15.122976-25.592729l12.796365 6.979835zM425.915365 883.239989c-3.489918 24.429423-8.143141 45.368929-15.122976 62.818517l-11.633059-8.143141c6.979835-18.612894 11.633059-37.225788 13.95967-58.165294l12.796365 3.489918z m23.266118 75.614882c-10.469753 0-16.286282-5.816529-16.286283-16.286283v-75.614882h13.959671v72.124965c0 3.489918 2.326612 5.816529 6.979835 5.816529h23.266118c2.326612 0 4.653224-1.163306 4.653223-3.489917 1.163306-2.326612 2.326612-11.633059 2.326612-25.59273l12.796365 4.653224c-1.163306 18.612894-3.489918 30.245953-5.81653 33.73587-2.326612 3.489918-6.979835 4.653224-12.796364 4.653224h-29.082647z m6.979835-119.820506c11.633059 13.959671 20.939506 25.592729 26.756035 36.062482l-11.633059 8.143142c-6.979835-11.633059-16.286282-23.266118-26.756035-37.225788l11.633059-6.979836z m46.532235 37.225788c8.143141 17.449588 13.959671 37.225788 19.7762 58.165294l-12.796365 5.81653c-5.816529-22.102812-12.796365-41.879012-20.939506-59.3286l13.959671-4.653224zM586.451576 839.034365h13.959671v44.205624c4.653224 27.919341 22.102812 50.022153 54.675376 67.471741l-8.143141 11.633058c-26.756035-15.122976-44.205623-33.73587-53.51207-59.328599-6.979835 22.102812-24.429423 41.879012-52.348765 59.328599l-8.143141-11.633058c33.73587-18.612894 51.185459-40.715706 53.51207-67.471741v-44.205624z m-17.449588 26.756035c-3.489918 15.122976-8.143141 29.082647-13.95967 40.715706l-12.796365-4.653223c4.653224-10.469753 9.306447-23.266118 13.95967-39.5524l12.796365 3.489917z m79.1048 0c-6.979835 13.959671-13.959671 26.756035-22.102812 37.225789l-10.469753-8.143142c8.143141-9.306447 15.122976-22.102812 20.939506-36.062482l11.633059 6.979835zM735.354729 872.770236c0 8.143141 0 15.122976-1.163306 20.939506 4.653224 25.592729 22.102812 44.205623 53.51207 55.838682l-8.143141 11.633059c-26.756035-10.469753-43.042318-25.592729-51.185459-45.36893-9.306447 18.612894-26.756035 33.73587-52.348764 45.36893l-8.143141-11.633059c33.73587-15.122976 51.185459-36.062482 52.348764-61.655212v-13.95967h15.122977z m48.858847-20.939506v31.409259h-13.959671v-17.449589H686.495882v17.449589h-13.959671v-31.409259h47.695541c-1.163306-4.653224-2.326612-8.143141-3.489917-11.633059l13.95967-2.326612c2.326612 6.979835 3.489918 11.633059 3.489918 13.959671h50.022153z m-79.1048 38.389094c-5.816529 12.796365-12.796365 24.429423-19.7762 33.73587l-11.633059-8.143141c6.979835-9.306447 13.959671-19.7762 18.612894-31.409258l12.796365 5.816529z m70.961659 0c-4.653224 12.796365-10.469753 23.266118-16.286283 32.572565l-11.633059-8.143142c5.816529-8.143141 11.633059-18.612894 16.286283-30.245952l11.633059 5.816529z"  /><path d="M353.7904 427.224084s27.919341 22.102812 15.122977 70.961659C356.117012 547.04459 384.036353 604.046578 463.141153 593.576825c0 0-40.715706-26.756035-47.695541-58.165294 0 0 29.082647 24.429423 46.532235 15.122976 0 0-2.326612-31.409259-25.592729-39.5524 0 0 20.939506-3.489918 30.245953 11.633059s24.429423 4.653224 24.429423 4.653224-20.939506-26.756035-6.979835-48.858847c0 0 1.163306 18.612894 18.612894 22.102811 0 0-4.653224-30.245953 10.469753-48.858846 0 0-2.326612 20.939506 9.306447 30.245952 16.286282 11.633059 15.122976 17.449588 15.122976 29.082647 0 0 23.266118-16.286282 18.612894-36.062482 0 0 15.122976 30.245953-11.633058 61.655212 0 0 17.449588 3.489918 31.409258-13.959671 0 0 10.469753 39.5524-38.389094 63.981823 0 0 63.981823 18.612894 95.391082-38.389094 31.409259-57.001988 0-108.187447 0-108.187446s4.653224 18.612894-5.816529 16.286282 4.653224-25.592729-2.326612-47.695541c-5.816529-23.266118-25.592729-25.592729-22.102811-73.28827 0 0-16.286282 25.592729-24.429424-10.469753-8.143141-36.062482-25.592729-34.899176-34.899176-38.389094-13.959671-4.653224-6.979835-23.266118-6.979836-23.266118s-11.633059 4.653224-11.633058 19.7762c0 13.959671-31.409259 9.306447-4.653224-22.102812s23.266118-25.592729 23.266118-25.592729-65.145129-2.326612-70.961659 67.471741c0 0-18.612894-11.633059-27.919341-3.489918 0 0 41.879012 50.022153 12.796365 53.512071-13.959671 1.163306-4.653224-23.266118-20.939506-24.429424 0 0-25.592729 29.082647-1.163306 62.818518 6.979835 9.306447-9.306447 23.266118-13.959671-8.143141-4.653224-30.245953-30.245953-23.266118-30.245952-23.266118s18.612894 12.796365 11.633058 38.389094 1.163306 36.062482 1.163306 36.062482-22.102812-26.756035-50.022153-6.979835zM382.873047 605.209884h259.417211v17.449588H382.873047z"  /></svg>