<?xml version="1.0" standalone="no"?><!DOCTYPE svg PUBLIC "-//W3C//DTD SVG 1.1//EN" "http://www.w3.org/Graphics/SVG/1.1/DTD/svg11.dtd"><svg class="icon" width="200px" height="200.00px" viewBox="0 0 1024 1024" version="1.1" xmlns="http://www.w3.org/2000/svg"><path d="M108.33286 640.10906L459.651235 30.536779c23.266118-40.715706 81.431412-40.715706 104.69753 0L915.66714 640.10906c23.266118 40.715706-5.816529 90.737859-52.348765 90.737858H160.681625c-46.532235-1.163306-75.614882-51.185459-52.348765-90.737858z" fill="#FFF500" /><path d="M136.252201 640.10906L477.100824 50.312979c15.122976-26.756035 54.675376-26.756035 69.798352 0L887.747799 640.10906c15.122976 26.756035-3.489918 60.491906-34.899176 60.491906H171.151377c-31.409259 0-50.022153-33.73587-34.899176-60.491906z"  /><path d="M190.927577 642.435672L512 87.538767l321.072423 554.896905z" fill="#FFF500" /><path d="M158.355013 758.76626H895.89094V1024H158.355013z"  /><path d="M171.151377 772.72593h710.779893v237.314399H171.151377z" fill="#FFFFFF" /><path d="M223.500142 869.280318h34.899176v-40.715706h11.633059v40.715706h34.899177v79.1048h-11.633059v-4.653224h-70.961659V930.93553h70.961659v-17.449589h-65.145129v-12.796364h65.145129v-17.449588h-69.798353v-13.959671z m10.469753-33.73587c5.816529 8.143141 9.306447 16.286282 12.796365 22.102811l-9.306447 8.143141c-3.489918-6.979835-6.979835-15.122976-12.796365-23.266117l9.306447-6.979835z m70.961659 4.653223c-3.489918 9.306447-6.979835 17.449588-12.796365 25.592729l-10.469753-6.979835c4.653224-8.143141 9.306447-17.449588 12.796365-25.592729l10.469753 6.979835zM340.994036 870.443624c-2.326612 23.266118-6.979835 44.205623-11.633059 61.655212l-9.306447-6.979836c4.653224-18.612894 9.306447-37.225788 10.469753-57.001988l10.469753 2.326612z m18.612894 74.451576c-8.143141 0-12.796365-5.816529-12.796365-16.286282v-74.451576h11.633059v70.961658c0 3.489918 1.163306 5.816529 4.653223 5.81653h17.449589c2.326612 0 3.489918-1.163306 4.653223-3.489918 1.163306-2.326612 1.163306-11.633059 2.326612-25.592729l10.469753 4.653223c-1.163306 18.612894-2.326612 30.245953-4.653224 33.735871-2.326612 3.489918-5.816529 4.653224-9.306447 4.653223h-24.429423z m5.816529-117.493894c9.306447 13.959671 16.286282 25.592729 20.939506 34.899177l-9.306447 8.143141c-5.816529-11.633059-12.796365-23.266118-20.939506-36.062482l9.306447-6.979836z m37.225788 37.225789c5.816529 17.449588 11.633059 37.225788 16.286283 57.001988l-10.469753 5.816529c-4.653224-20.939506-10.469753-40.715706-16.286283-58.165294l10.469753-4.653223zM427.078671 851.83073H442.201647v-24.429424h10.469753v24.429424h11.633059v12.796365h-11.633059v4.653223c4.653224 5.816529 9.306447 11.633059 13.959671 18.612894l-6.979836 11.633059c-3.489918-8.143141-5.816529-13.959671-8.143141-16.286282v65.145129H442.201647v-59.3286c-3.489918 10.469753-6.979835 20.939506-11.633059 30.245953l-4.653223-15.122977c6.979835-11.633059 12.796365-24.429423 16.286282-39.552399h-13.95967v-12.796365z m31.409259 88.411247c4.653224-8.143141 6.979835-16.286282 9.306447-25.59273 1.163306-8.143141 2.326612-18.612894 2.326611-33.73587v-50.022153h37.225788V930.93553c0 1.163306 0 2.326612 1.163306 2.326611h3.489918c1.163306 0 1.163306 0 2.326612-1.163305 0 0 0-1.163306 1.163306-2.326612 0-2.326612 1.163306-9.306447 1.163306-23.266118l10.469752 3.489918c0 9.306447 0 16.286282-1.163305 22.102812 0 4.653224-1.163306 8.143141-3.489918 10.469752-2.326612 2.326612-4.653224 2.326612-8.143141 2.326612h-4.653224c-8.143141 0-11.633059-4.653224-11.633059-12.796364v-88.411247h-15.122976v37.225788c0 15.122976-1.163306 27.919341-2.326612 38.389094-2.326612 10.469753-4.653224 20.939506-10.469753 30.245953l-11.633058-9.306447zM564.348765 889.056518l-3.489918 5.816529c-1.163306-3.489918-3.489918-6.979835-5.816529-10.469752v63.981823h-10.469753v-58.165294c-2.326612 10.469753-5.816529 19.7762-10.469753 27.919341l-4.653224-15.122976c6.979835-11.633059 11.633059-24.429423 15.122977-38.389094h-11.633059v-12.796365h12.796364v-24.429424h10.469753v24.429424h9.306447v12.796365h-9.306447v5.816529c3.489918 4.653224 8.143141 9.306447 11.633059 13.959671l-2.326612 3.489917h4.653224v-22.102812h9.306447v22.102812h5.816529v-22.102812h9.306447v22.102812h4.653224v12.796365h-4.653224v27.919341h-9.306447v-27.919341h-5.816529c-1.163306 17.449588-4.653224 31.409259-10.469753 40.715706l-8.143141-8.143142c4.653224-6.979835 8.143141-17.449588 9.306447-31.409258h-4.653224v-12.796365z m2.326611-41.879012h32.572565v-19.7762h10.469753v19.7762h8.143141c-2.326612-5.816529-3.489918-10.469753-5.816529-15.122976l8.143141-4.653224c2.326612 4.653224 4.653224 9.306447 5.816529 13.959671l-6.979835 4.653224h8.143141V861.137177h-16.286282c0 15.122976 1.163306 29.082647 1.163306 39.5524 3.489918-9.306447 5.816529-19.7762 8.143141-30.245953l8.143141 4.653223c-3.489918 18.612894-8.143141 33.73587-13.959671 46.532236 1.163306 8.143141 2.326612 12.796365 4.653224 13.95967 1.163306 0 2.326612-5.816529 3.489918-18.612894l8.143141 8.143141c-3.489918 16.286282-6.979835 24.429423-11.633059 24.429424-3.489918 0-6.979835-3.489918-9.306447-10.469753-1.163306-2.326612-1.163306-4.653224-2.326612-5.81653-4.653224 5.816529-8.143141 11.633059-13.95967 16.286283l-5.81653-10.469753c5.816529-5.816529 11.633059-12.796365 16.286282-20.939506-1.163306-3.489918-1.163306-8.143141-1.163305-12.796365-1.163306-11.633059-2.326612-26.756035-2.326612-45.368929h-32.572565v-12.796365zM669.046294 832.05453c-2.326612 9.306447-5.816529 19.7762-10.469753 29.082647v88.411247h-11.633059v-68.635047c-2.326612 3.489918-5.816529 8.143141-9.306447 12.796365l-3.489918-15.122977c10.469753-15.122976 18.612894-32.572565 23.266118-53.51207l11.633059 6.979835z m24.429423-4.653224l-3.489918 13.959671h41.879012v12.796365h-47.695541c-3.489918 8.143141-8.143141 13.959671-13.95967 19.7762l-6.979836-11.633059c9.306447-10.469753 16.286282-23.266118 18.612894-37.225788l11.633059 2.326611z m-3.489918 33.735871h11.633059v17.449588h29.082647c0 31.409259 0 50.022153-1.163306 57.001988-1.163306 8.143141-5.816529 12.796365-13.95967 12.796365-2.326612 0-6.979835 0-13.959671-1.163306l-2.326611-11.633059h15.122976c3.489918 0 4.653224-2.326612 5.816529-6.979835 0-3.489918 1.163306-16.286282 1.163306-38.389094h-18.612894c-2.326612 26.756035-11.633059 45.368929-26.756035 59.3286l-9.306447-9.306447c13.959671-10.469753 22.102812-26.756035 24.429423-48.858847h-17.449588v-13.959671h18.612894V861.137177zM795.846634 827.401306c0 10.469753 0 19.7762-1.163305 29.082647 5.816529 34.899176 20.939506 60.491906 45.368929 79.1048l-6.979835 11.633059c-19.7762-16.286282-33.73587-38.389094-41.879012-66.308435-6.979835 26.756035-20.939506 48.858847-43.042318 66.308435l-6.979835-12.796365c27.919341-20.939506 43.042318-50.022153 43.042318-88.411246v-20.939506h11.633058z"  /><path d="M500.366941 452.816813l-10.469753 4.653224c-4.653224 2.326612-10.469753 0-13.95967-3.489918l-11.633059-10.469753c-3.489918-3.489918-5.816529-9.306447-3.489918-13.95967l4.653224-10.469753c1.163306-2.326612 1.163306-3.489918 0-5.816529s-2.326612-3.489918-4.653224-3.489918l-18.612894-6.979835c-2.326612-1.163306-3.489918-1.163306-5.816529 0s-3.489918 2.326612-3.489918 4.653223l-4.653223 10.469753c-1.163306 4.653224-6.979835 8.143141-11.633059 6.979835h-15.122977c-4.653224 0-10.469753-2.326612-11.633058-6.979835l-4.653224-10.469753c-1.163306-2.326612-2.326612-3.489918-4.653223-3.489918-2.326612-1.163306-3.489918-1.163306-5.81653 0l-17.449588 8.143142c-2.326612 1.163306-3.489918 2.326612-3.489918 4.653223-1.163306 2.326612-1.163306 3.489918 0 5.81653l4.653224 10.469752c2.326612 4.653224 0 10.469753-3.489918 13.959671l-10.469753 11.633059c-3.489918 3.489918-9.306447 5.816529-13.95967 3.489917l-10.469753-4.653223c-2.326612-1.163306-3.489918-1.163306-5.816529 0s-3.489918 2.326612-3.489918 4.653223l-8.143141 16.286283c-1.163306 2.326612-1.163306 3.489918 0 5.816529s2.326612 3.489918 4.653223 3.489918l10.469753 4.653223c4.653224 2.326612 8.143141 6.979835 6.979835 11.633059v15.122977c0 4.653224-2.326612 10.469753-6.979835 11.633058l-10.469753 4.653224c-2.326612 1.163306-3.489918 2.326612-3.489917 4.653223-1.163306 2.326612-1.163306 3.489918 0 5.81653l8.143141 17.449588c1.163306 2.326612 2.326612 3.489918 4.653223 3.489918 2.326612 1.163306 3.489918 1.163306 5.81653 0l10.469753-4.653224c4.653224-2.326612 10.469753 0 13.95967 3.489918l11.633059 10.469753c3.489918 3.489918 5.816529 9.306447 3.489918 13.95967l-4.653224 10.469753c-1.163306 2.326612-1.163306 3.489918 0 5.816529s2.326612 3.489918 4.653224 3.489918l18.612894 6.979835c2.326612 1.163306 3.489918 1.163306 5.816529 0s3.489918-2.326612 3.489918-4.653223l4.653223-10.469753c1.163306-4.653224 6.979835-8.143141 11.633059-6.979835h16.286282c4.653224 0 10.469753 2.326612 11.633059 6.979835l4.653224 10.469753c1.163306 2.326612 2.326612 3.489918 4.653223 3.489917 2.326612 1.163306 3.489918 1.163306 5.81653 0l17.449588-8.143141c2.326612-1.163306 3.489918-2.326612 3.489917-4.653223 1.163306-2.326612 1.163306-3.489918 0-5.81653l-4.653223-10.469753c-2.326612-4.653224 0-10.469753 3.489917-13.95967l10.469753-11.633059c3.489918-3.489918 9.306447-5.816529 13.959671-3.489917l10.469753 4.653223c2.326612 1.163306 3.489918 1.163306 5.816529 0s3.489918-2.326612 3.489918-4.653223l6.979835-18.612895c1.163306-2.326612 1.163306-3.489918 0-5.816529s-2.326612-3.489918-4.653223-3.489918l-10.469753-4.653223c-4.653224-1.163306-8.143141-6.979835-6.979836-11.633059v-15.122976c0-4.653224 2.326612-10.469753 6.979836-11.633059l10.469753-4.653224c2.326612-1.163306 3.489918-2.326612 3.489917-4.653223 1.163306-2.326612 1.163306-3.489918 0-5.81653l-8.143141-17.449588c-1.163306-2.326612-2.326612-3.489918-4.653223-3.489917-1.163306 2.326612-3.489918 2.326612-5.81653 2.326611z m-72.124964 97.717694c-22.102812 9.306447-47.695541 0-57.001988-22.102811-9.306447-22.102812 0-47.695541 22.102811-57.001989 22.102812-9.306447 47.695541 0 57.001988 22.102812 10.469753 22.102812 0 47.695541-22.102811 57.001988z m151.229764-233.824481h-4.653224l-8.143141 3.489917c-3.489918 1.163306-8.143141 0-9.306447-2.326612l-8.143141-8.143141c-2.326612-2.326612-3.489918-6.979835-2.326612-9.306447l3.489918-8.143141v-4.653223c-1.163306-1.163306-1.163306-2.326612-3.489918-3.489918l-12.796364-4.653224h-4.653224c-1.163306 1.163306-2.326612 1.163306-3.489917 3.489918l-2.326612 8.143141c-1.163306 3.489918-4.653224 5.816529-8.143141 5.81653h-11.633059c-3.489918 0-6.979835-2.326612-9.306447-4.653224l-3.489918-8.143141c0-1.163306-1.163306-2.326612-3.489917-2.326612h-4.653224l-12.796365 5.81653c-1.163306 0-2.326612 1.163306-3.489917 3.489917v4.653224l3.489917 8.143141c1.163306 3.489918 0 8.143141-2.326611 9.306447l-8.143142 8.143141c-2.326612 2.326612-6.979835 3.489918-9.306447 2.326612l-8.143141-3.489918h-4.653223c-1.163306 1.163306-2.326612 1.163306-2.326612 3.489918l-4.653224 12.796365v4.653223c1.163306 1.163306 1.163306 2.326612 3.489918 2.326612l8.143141 3.489917c3.489918 1.163306 5.816529 4.653224 5.81653 8.143142v11.633058c0 3.489918-2.326612 6.979835-4.653224 9.306447l-8.143141 3.489918c-1.163306 0-2.326612 1.163306-2.326612 3.489918v4.653223l5.81653 12.796365c0 1.163306 1.163306 2.326612 3.489917 2.326612h4.653224l8.143141-3.489918c3.489918-1.163306 8.143141 0 9.306447 2.326612l8.143141 8.143141c2.326612 2.326612 3.489918 6.979835 2.326612 9.306447l-3.489918 8.143141v4.653224c1.163306 1.163306 1.163306 2.326612 3.489918 2.326611l12.796365 4.653224h4.653223c1.163306-1.163306 2.326612-1.163306 3.489918-3.489918l3.489917-8.143141c1.163306-3.489918 4.653224-5.816529 8.143141-5.816529h11.633059c3.489918 0 6.979835 2.326612 9.306447 4.653223l3.489918 8.143141c0 1.163306 1.163306 2.326612 3.489918 2.326612h4.653223l12.796365-5.816529c1.163306 0 2.326612-1.163306 3.489917-3.489918v-4.653223l-3.489917-8.143142c-1.163306-3.489918 0-8.143141 2.326612-9.306447l8.143141-8.143141c2.326612-2.326612 6.979835-3.489918 9.306447-2.326612l8.143141 3.489918h4.653223c1.163306-1.163306 2.326612-1.163306 2.326612-3.489918l4.653224-12.796364v-4.653224c-1.163306-1.163306-1.163306-2.326612-3.489918-2.326611l-8.143141-3.489918c-3.489918-1.163306-5.816529-4.653224-5.81653-8.143141v-11.633059c0-3.489918 2.326612-6.979835 4.653224-9.306447l8.143141-3.489918c1.163306 0 2.326612-1.163306 2.326612-3.489917v-4.653224l-8.143141-11.633059c0-1.163306-1.163306-2.326612-2.326612-2.326611z m-57.001988 70.961658c-16.286282 6.979835-34.899176 0-40.715706-16.286282-6.979835-16.286282 0-34.899176 16.286282-40.715706 16.286282-6.979835 34.899176 0 40.715706 16.286282 6.979835 15.122976 0 33.73587-16.286282 40.715706z"  /><path d="M746.987788 521.45186v90.737859l-67.471741-32.572565s-8.143141 6.979835-31.409259 0c-24.429423-6.979835-91.901164-25.592729-91.901165-25.592729s-15.122976-20.939506 9.306447-29.082647c0 0-23.266118-18.612894 5.81653-30.245953 0 0-9.306447-16.286282 11.633059-19.7762L500.366941 445.836978s-10.469753-12.796365 6.979835-16.286282l145.413235 38.389094 94.227777 53.51207z"  /></svg>