<?xml version="1.0" standalone="no"?><!DOCTYPE svg PUBLIC "-//W3C//DTD SVG 1.1//EN" "http://www.w3.org/Graphics/SVG/1.1/DTD/svg11.dtd"><svg class="icon" width="200px" height="200.00px" viewBox="0 0 1024 1024" version="1.1" xmlns="http://www.w3.org/2000/svg"><path d="M102.516331 648.252201L458.48793 30.536779c23.266118-40.715706 82.594717-40.715706 105.860835 0l357.134904 617.715422c23.266118 40.715706-5.816529 91.901164-53.51207 91.901165H154.865095c-46.532235 0-75.614882-51.185459-52.348764-91.901165z" fill="#FFF500" /><path d="M130.435672 649.415507L475.937518 50.312979c16.286282-27.919341 55.838682-27.919341 70.961658 0l345.501846 597.939222c16.286282 27.919341-3.489918 61.655212-36.062482 61.655212H166.498154c-31.409259 1.163306-51.185459-33.73587-36.062482-60.491906z"  /><path d="M186.274354 651.742119L512 88.702073 837.725646 651.742119z" fill="#FFF500" /><path d="M193.254189 783.195683H860.991764V1024H193.254189z"  /><path d="M207.21386 797.155354h640.981539v214.048281H207.21386z" fill="#FFFFFF" /><path d="M275.848907 880.913377h44.205623v-40.715706h15.122976v40.715706h44.205624v80.268106h-13.959671v-4.653224h-89.574552V942.568588h89.574552v-17.449588h-82.594717v-12.796364h82.594717v-17.449589h-89.574552v-13.95967z m12.796364-33.735871c6.979835 8.143141 11.633059 16.286282 16.286283 23.266118l-11.633059 8.143141c-3.489918-6.979835-9.306447-15.122976-16.286283-23.266117l11.633059-8.143142z m90.737859 4.653224c-3.489918 9.306447-9.306447 17.449588-15.122977 25.592729l-12.796364-6.979835c6.979835-9.306447 11.633059-17.449588 15.122976-25.592729l12.796365 6.979835zM425.915365 883.239989c-3.489918 24.429423-8.143141 45.368929-15.122976 62.818517l-11.633059-8.143141c6.979835-18.612894 11.633059-37.225788 13.95967-58.165294l12.796365 3.489918z m23.266118 75.614882c-10.469753 0-16.286282-5.816529-16.286283-16.286283v-75.614882h13.959671v72.124965c0 3.489918 2.326612 5.816529 6.979835 5.816529h23.266118c2.326612 0 4.653224-1.163306 4.653223-3.489917 1.163306-2.326612 2.326612-11.633059 2.326612-25.59273l12.796365 4.653224c-1.163306 18.612894-3.489918 30.245953-5.81653 33.73587-2.326612 3.489918-6.979835 4.653224-12.796364 4.653224h-29.082647z m6.979835-119.820506c11.633059 13.959671 20.939506 25.592729 26.756035 36.062482l-11.633059 8.143142c-6.979835-11.633059-16.286282-23.266118-26.756035-37.225788l11.633059-6.979836z m46.532235 37.225788c8.143141 17.449588 13.959671 37.225788 19.7762 58.165294l-12.796365 5.81653c-5.816529-22.102812-12.796365-41.879012-20.939506-59.3286l13.959671-4.653224zM585.28827 926.282306h-27.919341v10.469753h-13.95967v-80.268106h41.879011v-16.286282h13.959671v16.286282h43.042317v69.798353h-43.042317v12.796365c0 5.816529 2.326612 9.306447 8.143141 9.306447h29.082647c2.326612 0 4.653224-1.163306 5.816529-2.326612 1.163306-1.163306 1.163306-5.816529 2.326612-13.95967l12.796365 4.653223c-1.163306 11.633059-2.326612 18.612894-4.653224 20.939506-2.326612 2.326612-6.979835 3.489918-13.95967 3.489918H605.06447c-12.796365 0-18.612894-6.979835-18.612894-19.7762v-15.122977z m0-57.001988h-27.919341V884.403295h27.919341v-15.122977z m-29.082647 27.919341v15.122977h27.919341v-15.122977h-27.919341zM628.330588 884.403295v-15.122977h-29.082647V884.403295H628.330588z m-29.082647 29.082646H628.330588v-15.122976h-29.082647v15.122976zM708.598694 846.014201h11.633058v34.899176h-11.633058v-9.306447c-9.306447 18.612894-16.286282 32.572565-23.266118 41.879011 6.979835-2.326612 13.959671-4.653224 20.939506-8.143141v12.796365c-12.796365 5.816529-25.592729 9.306447-37.225788 11.633059l-3.489918-12.796365c2.326612-1.163306 4.653224-2.326612 5.816529-3.489918 3.489918-4.653224 8.143141-11.633059 13.959671-22.102811l-17.449588 3.489917-3.489918-12.796364c2.326612-1.163306 4.653224-2.326612 5.81653-4.653224 5.816529-11.633059 9.306447-24.429423 13.95967-37.225788l12.796365 4.653224c-5.816529 15.122976-10.469753 27.919341-16.286283 37.225788 5.816529-1.163306 9.306447-1.163306 11.633059-2.326612 1.163306-1.163306 1.163306-3.489918 3.489918-5.816529l3.489918-6.979836 11.633058 4.653224v-25.592729z m0 97.717693c-11.633059 4.653224-24.429423 9.306447-39.5524 12.796365l-1.163306-13.959671c15.122976-2.326612 29.082647-6.979835 40.715706-11.633058v12.796364z m27.919341-38.389094h12.796364v6.979836c0 5.816529-1.163306 10.469753-2.326611 16.286282h11.633058v16.286282c0 2.326612 1.163306 3.489918 3.489918 3.489918h10.469753c1.163306 0 2.326612 0 3.489918-1.163306 1.163306-1.163306 1.163306-5.816529 1.163305-11.633059l11.633059 3.489918c-1.163306 10.469753-2.326612 16.286282-4.653223 18.612894-2.326612 2.326612-5.816529 2.326612-10.469753 2.326612h-16.286283c-8.143141 0-11.633059-4.653224-11.633058-12.796365V930.93553c-2.326612 5.816529-4.653224 10.469753-6.979836 13.95967-5.816529 8.143141-16.286282 13.959671-30.245952 17.449588l-6.979836-11.633058c13.959671-3.489918 23.266118-9.306447 27.919341-15.122977 4.653224-5.816529 6.979835-15.122976 8.143142-24.429423v-5.81653z m38.389094-16.286282v44.205623h-12.796365v-32.572564h-36.062482v33.73587h-12.796365v-45.368929h61.655212z m-47.695541-50.022153h11.633058v46.532235h-11.633058v-46.532235z m31.409258 24.429424c-3.489918 8.143141-6.979835 15.122976-11.633058 20.939506l-8.143142-10.469753c6.979835-9.306447 11.633059-22.102812 13.959671-37.225789l12.796365 1.163306c-1.163306 4.653224-2.326612 9.306447-2.326612 11.633059h23.266117v12.796365h-27.919341z m6.979836 3.489917c6.979835 3.489918 12.796365 6.979835 18.612894 10.469753l-6.979836 10.469753c-5.816529-4.653224-12.796365-9.306447-18.612894-11.633059l6.979836-9.306447z"  /><path d="M564.348765 285.300767m-26.756036 0a26.756035 26.756035 0 1 0 53.512071 0 26.756035 26.756035 0 1 0-53.512071 0Z"  /><path d="M650.4334 385.345072l-39.5524-2.326611-5.81653-24.429424-3.489917-12.796364c-1.163306-6.979835-5.816529-11.633059-12.796365-13.959671l-58.165294-24.429423-29.082647-12.796365-6.979835-43.042318c-1.163306-8.143141-9.306447-13.959671-17.449588-11.633058-8.143141 1.163306-13.959671 9.306447-11.633059 17.449588l8.143141 47.695541c0 1.163306 1.163306 1.163306 1.163306 2.326612 1.163306 4.653224 3.489918 9.306447 8.143141 11.633058l34.899176 16.286283-23.266117 47.695541-39.5524-4.653224c-4.653224-1.163306-9.306447 1.163306-11.633059 4.653224-1.163306 1.163306-2.326612 1.163306-3.489917 2.326611l-36.062483 46.532236c-4.653224 6.979835-3.489918 16.286282 2.326612 20.939505 6.979835 4.653224 16.286282 3.489918 20.939506-2.326611l31.409259-41.879012 68.635046 15.122976-23.266117 50.022153c-1.163306 2.326612-1.163306 4.653224-1.163306 6.979836v4.653223l12.796365 52.348765c2.326612 8.143141 10.469753 12.796365 17.449588 11.633058 8.143141-2.326612 12.796365-10.469753 11.633059-17.449588l-11.633059-48.858847 22.102812-50.022153V430.714002l20.939505-50.022153 5.81653 22.102812c1.163306 6.979835 6.979835 10.469753 13.95967 11.633058h1.163306l48.858847 3.489918c8.143141 0 15.122976-5.816529 16.286282-13.959671 2.326612-10.469753-3.489918-17.449588-11.633058-18.612894zM780.723658 604.046578v-18.612894h6.979835l-5.816529-8.143142H243.276342l-4.653224 8.143142h5.81653v18.612894h-11.633059l-4.653223 9.306447H802.82647l-4.653224-9.306447h-17.449588z m-500.221528 0h-23.266118v-18.612894h23.266118v18.612894z m37.225788 0h-23.266117v-18.612894h23.266117v18.612894z m38.389094 0h-23.266117v-18.612894h23.266117v18.612894z m37.225788 0h-23.266117v-18.612894h23.266117v18.612894z m37.225788 0h-23.266117v-18.612894h23.266117v18.612894z m37.225789 0h-23.266118v-18.612894h23.266118v18.612894z m37.225788 0h-23.266118v-18.612894h23.266118v18.612894z m37.225788 0h-23.266118v-18.612894h23.266118v18.612894z m37.225788 0h-23.266118v-18.612894h23.266118v18.612894z m37.225788 0h-23.266117v-18.612894h23.266117v18.612894z m38.389094 0h-23.266117v-18.612894h23.266117v18.612894z m37.225788 0h-23.266117v-18.612894h23.266117v18.612894z m37.225788 0h-23.266117v-18.612894h23.266117v18.612894z m37.225789 0h-23.266118v-18.612894h23.266118v18.612894zM397.996024 519.125249H280.50213l5.816529-15.122977h118.6572z"  /><path d="M501.530247 519.125249h-54.675376l9.306447-15.122977h39.5524zM729.538199 519.125249H557.368929l-5.816529-15.122977h167.516046z"  /><path d="M434.058506 472.593013h30.245953l-34.899176 51.185459h34.899176l-24.429423 24.429423h18.612894l-37.225789 47.695542 8.143142-30.245953h-23.266118l23.266118-29.082647h-26.756036zM280.50213 534.248225l9.306447-8.143141 27.919341 47.695541zM328.197671 619.169554l-10.469753 12.796365 10.469753 4.653223zM317.727918 531.921613l10.469753-5.816529 15.122977 43.042317zM389.852883 619.169554l12.796364 17.449588 16.286283-9.306447zM609.717694 542.391366L585.28827 558.677648l39.5524-8.143141z"  /></svg>