<?xml version="1.0" standalone="no"?><!DOCTYPE svg PUBLIC "-//W3C//DTD SVG 1.1//EN" "http://www.w3.org/Graphics/SVG/1.1/DTD/svg11.dtd"><svg class="icon" width="200px" height="200.00px" viewBox="0 0 1024 1024" version="1.1" xmlns="http://www.w3.org/2000/svg"><path d="M102.516331 648.252201L458.48793 30.536779c23.266118-40.715706 82.594717-40.715706 105.860835 0l357.134904 617.715422c23.266118 40.715706-5.816529 91.901164-53.51207 91.901165H154.865095c-46.532235 0-75.614882-51.185459-52.348764-91.901165z" fill="#FFF500" /><path d="M130.435672 649.415507L475.937518 50.312979c16.286282-27.919341 55.838682-27.919341 70.961658 0l345.501846 597.939222c16.286282 27.919341-3.489918 61.655212-36.062482 61.655212H166.498154c-31.409259 1.163306-51.185459-33.73587-36.062482-60.491906z"  /><path d="M186.274354 651.742119L512 88.702073 837.725646 651.742119z" fill="#FFF500" /><path d="M193.254189 783.195683H860.991764V1024H193.254189z"  /><path d="M207.21386 797.155354h640.981539v214.048281H207.21386z" fill="#FFFFFF" /><path d="M275.848907 880.913377h44.205623v-40.715706h15.122976v40.715706h44.205624v80.268106h-13.959671v-4.653224h-89.574552V942.568588h89.574552v-18.612894h-82.594717v-12.796364h82.594717v-17.449588h-89.574552v-12.796365z m12.796364-33.735871c6.979835 8.143141 11.633059 16.286282 16.286283 23.266118l-11.633059 8.143141c-3.489918-6.979835-9.306447-15.122976-16.286283-23.266117l11.633059-8.143142z m90.737859 4.653224c-3.489918 9.306447-9.306447 17.449588-15.122977 25.592729l-12.796364-6.979835c6.979835-9.306447 11.633059-17.449588 15.122976-25.592729l12.796365 6.979835zM425.915365 883.239989c-3.489918 24.429423-8.143141 45.368929-15.122976 62.818517l-11.633059-8.143141c6.979835-18.612894 11.633059-37.225788 13.95967-58.165294l12.796365 3.489918z m23.266118 75.614882c-10.469753 0-16.286282-5.816529-16.286283-16.286283v-75.614882h13.959671v72.124965c0 3.489918 2.326612 5.816529 6.979835 5.816529h23.266118c2.326612 0 4.653224-1.163306 4.653223-3.489917 1.163306-2.326612 2.326612-11.633059 2.326612-25.59273l12.796365 4.653224c-1.163306 18.612894-3.489918 30.245953-5.81653 33.73587-2.326612 3.489918-6.979835 4.653224-12.796364 4.653224h-29.082647z m6.979835-119.820506c11.633059 13.959671 20.939506 25.592729 26.756035 36.062482l-11.633059 8.143142c-6.979835-11.633059-16.286282-23.266118-26.756035-37.225788l11.633059-6.979836z m46.532235 37.225788c8.143141 17.449588 13.959671 37.225788 19.7762 58.165294l-12.796365 5.81653c-5.816529-22.102812-12.796365-41.879012-20.939506-59.3286l13.959671-4.653224zM549.225788 932.098836c-1.163306 12.796365-4.653224 23.266118-8.143141 31.409258l-10.469753-9.306447c4.653224-9.306447 8.143141-19.7762 8.143141-33.73587v-39.5524l-6.979835-8.143141c8.143141-8.143141 13.959671-18.612894 19.7762-32.572565l12.796365 3.489918-2.326612 6.979835h23.266117v9.306447c-2.326612 4.653224-4.653224 9.306447-6.979835 12.796365h13.959671v80.268105c0 8.143141-3.489918 11.633059-11.633059 11.633059h-5.81653l-3.489917-11.633059h5.816529c2.326612 0 3.489918-1.163306 3.489918-4.653223v-13.959671H570.165294v27.919341h-11.633059v-27.919341h-9.306447z m13.959671-62.818518c2.326612-3.489918 4.653224-6.979835 5.816529-10.469753h-13.95967l-6.979836 10.469753h15.122977z m-4.653224 12.796365h-9.306447v12.796364h9.306447v-12.796364z m-8.143141 24.429423v13.959671h8.143141v-13.959671h-8.143141z m29.082647-11.633059v-12.796364H570.165294v12.796364h9.306447z m0 25.59273v-13.959671H570.165294v13.959671h9.306447z m17.449588-59.3286h20.939506v-22.102812h12.796365V861.137177H651.596705v57.001988h-20.939505V942.568588c4.653224-1.163306 6.979835-1.163306 9.306447-2.326611-1.163306-3.489918-2.326612-8.143141-4.653224-13.959671l11.633059-3.489917c3.489918 9.306447 6.979835 22.102812 9.306447 34.899176l-11.633059 3.489918c-1.163306-3.489918-1.163306-5.816529-2.326612-9.306447-13.959671 3.489918-29.082647 5.816529-44.205623 8.143141l-3.489918-12.796365c6.979835-1.163306 15.122976-1.163306 23.266118-2.326612v-26.756035h-20.939506V861.137177z m20.939506 44.205623v-31.409258h-8.143141v31.409258h8.143141z m20.939506 0v-31.409258h-8.143141v31.409258h8.143141zM717.905141 926.282306h-27.919342v10.469753h-13.95967v-80.268106h41.879012v-16.286282h13.95967v16.286282h43.042318v69.798353h-43.042318v12.796365c0 5.816529 2.326612 9.306447 8.143141 9.306447h29.082647c2.326612 0 4.653224-1.163306 5.81653-2.326612 1.163306-1.163306 1.163306-5.816529 2.326611-13.95967l12.796365 4.653223c-1.163306 11.633059-2.326612 18.612894-4.653223 20.939506-2.326612 2.326612-6.979835 3.489918-13.959671 3.489918h-33.73587c-12.796365 0-18.612894-6.979835-18.612895-19.7762v-15.122977z m0-57.001988h-27.919342V884.403295h27.919342v-15.122977z m-27.919342 27.919341v15.122977h27.919342v-15.122977h-27.919342z m72.124965-12.796364v-15.122977H733.028117V884.403295h29.082647z m-30.245953 29.082646h29.082647v-15.122976h-29.082647v15.122976zM478.26413 242.258449h83.758023l-70.961659 139.596706 107.024141-38.389094-73.28827 179.149105 30.245953 4.653224-76.778188 80.268105-29.082647-101.207611 32.572564 6.979835 41.879012-100.044305L389.852883 465.613178z"  /></svg>