<?xml version="1.0" standalone="no"?><!DOCTYPE svg PUBLIC "-//W3C//DTD SVG 1.1//EN" "http://www.w3.org/Graphics/SVG/1.1/DTD/svg11.dtd"><svg class="icon" width="200px" height="200.00px" viewBox="0 0 1024 1024" version="1.1" xmlns="http://www.w3.org/2000/svg"><path d="M102.516331 648.252201L458.48793 30.536779c23.266118-40.715706 82.594717-40.715706 105.860835 0l357.134904 617.715422c23.266118 40.715706-5.816529 91.901164-53.51207 91.901165H154.865095c-46.532235 0-75.614882-51.185459-52.348764-91.901165z" fill="#FFF500" /><path d="M130.435672 649.415507L475.937518 50.312979c16.286282-27.919341 55.838682-27.919341 70.961658 0l345.501846 597.939222c16.286282 27.919341-3.489918 61.655212-36.062482 61.655212H166.498154c-31.409259 1.163306-51.185459-33.73587-36.062482-60.491906z"  /><path d="M186.274354 651.742119L512 88.702073 837.725646 651.742119z" fill="#FFF500" /><path d="M193.254189 783.195683H860.991764V1024H193.254189z"  /><path d="M207.21386 797.155354h640.981539v214.048281H207.21386z" fill="#FFFFFF" /><path d="M275.848907 880.913377h44.205623v-40.715706h15.122976v40.715706h44.205624v80.268106h-13.959671v-4.653224h-89.574552V942.568588h89.574552v-17.449588h-82.594717v-12.796364h82.594717v-17.449589h-89.574552v-13.95967z m12.796364-33.735871c6.979835 8.143141 11.633059 16.286282 16.286283 23.266118l-11.633059 8.143141c-3.489918-6.979835-9.306447-15.122976-16.286283-23.266117l11.633059-8.143142z m90.737859 4.653224c-3.489918 9.306447-9.306447 17.449588-15.122977 25.592729l-12.796364-6.979835c6.979835-9.306447 11.633059-17.449588 15.122976-25.592729l12.796365 6.979835zM425.915365 883.239989c-3.489918 24.429423-8.143141 45.368929-15.122976 62.818517l-11.633059-8.143141c6.979835-18.612894 11.633059-37.225788 13.95967-58.165294l12.796365 3.489918z m23.266118 75.614882c-10.469753 0-16.286282-5.816529-16.286283-16.286283v-75.614882h13.959671v72.124965c0 3.489918 2.326612 5.816529 6.979835 5.816529h23.266118c2.326612 0 4.653224-1.163306 4.653223-3.489917 1.163306-2.326612 2.326612-11.633059 2.326612-25.59273l12.796365 4.653224c-1.163306 18.612894-3.489918 30.245953-5.81653 33.73587-2.326612 3.489918-6.979835 4.653224-12.796364 4.653224h-29.082647z m6.979835-119.820506c11.633059 13.959671 20.939506 25.592729 26.756035 36.062482l-11.633059 8.143142c-6.979835-11.633059-16.286282-23.266118-26.756035-37.225788l11.633059-6.979836z m46.532235 37.225788c8.143141 17.449588 13.959671 37.225788 19.7762 58.165294l-12.796365 5.81653c-5.816529-22.102812-12.796365-41.879012-20.939506-59.3286l13.959671-4.653224zM574.818517 843.687589c-3.489918 10.469753-8.143141 19.7762-12.796364 29.082647v89.574552H546.899176v-69.798352c-3.489918 3.489918-6.979835 8.143141-11.633058 12.796364l-4.653224-15.122976c13.959671-15.122976 23.266118-32.572565 30.245953-53.512071l13.95967 6.979836z m30.245953-3.489918c-1.163306 4.653224-2.326612 9.306447-4.653223 13.959671h53.51207v13.95967H593.431412c-4.653224 8.143141-10.469753 13.959671-17.449589 19.7762l-9.306447-11.633059c11.633059-10.469753 19.7762-23.266118 24.429424-38.389094l13.95967 2.326612z m-4.653223 32.572565h13.95967v17.449588H651.596705c0 31.409259-1.163306 51.185459-2.326611 58.165294-1.163306 8.143141-6.979835 12.796365-18.612894 12.796365-3.489918 0-9.306447 0-17.449589-1.163306l-3.489917-11.633059H628.330588c4.653224 0 6.979835-2.326612 6.979835-6.979835 1.163306-3.489918 1.163306-16.286282 1.163306-38.389094h-23.266118c-3.489918 26.756035-13.959671 46.532235-33.73587 59.328599l-11.633059-9.306447c17.449588-10.469753 27.919341-27.919341 31.409259-50.022152h-23.266118v-13.959671h23.266118V872.770236zM778.397046 851.83073c-12.796365 3.489918-25.592729 5.816529-40.715705 6.979835v17.449588h40.715705v13.959671h-40.715705V907.669412h51.185458v13.959671h-51.185458v26.756035c0 9.306447-4.653224 13.959671-15.122977 13.95967h-20.939506l-3.489917-13.95967c6.979835 0 12.796365 1.163306 18.612894 1.163306 3.489918 0 5.816529-1.163306 5.816529-4.653224v-23.266117h-55.838682V907.669412h55.838682v-17.449588h-44.205623v-13.959671h44.205623v-16.286282c-13.959671 1.163306-29.082647 1.163306-43.042317 1.163306l-4.653224-12.796365c37.225788 0 69.798353-3.489918 95.391082-9.306447l8.143141 12.796365z"  /><path d="M350.300483 393.488214L322.381142 442.34706l165.189435 50.022153zM431.731894 486.552684l-29.082647-17.449588-18.612894 9.306447c-18.612894 10.469753-4.653224 31.409259 11.633059 23.266117l36.062482-15.122976z"  /><path d="M610.881 287.627379l-23.266118 24.429423c-12.796365 13.959671-36.062482 2.326612-52.348764 6.979835-15.122976 2.326612-30.245953 8.143141-43.042318 17.449589-2.326612 1.163306-3.489918 2.326612-5.816529 3.489917l-6.979836 3.489918-2.326611 1.163306-11.633059 5.816529c-5.816529 1.163306-10.469753 4.653224-16.286282 5.816529-2.326612 1.163306-5.816529 2.326612-8.143142 4.653224-9.306447 5.816529-16.286282 12.796365-26.756035 17.449588-1.163306 0-13.959671 4.653224-12.796365 5.81653 0 1.163306-2.326612 4.653224-2.326611 5.816529 0 1.163306 0 3.489918 1.163306 4.653223 2.326612 6.979835 11.633059 11.633059 18.612894 12.796365 10.469753 0 20.939506-5.816529 30.245953-9.306447 6.979835-3.489918 13.959671-5.816529 20.939505-8.143141h1.163306c3.489918-1.163306 5.816529-1.163306 9.306447 1.163306v1.163306s1.163306 15.122976-20.939506 30.245953L431.731894 442.34706l25.59273 18.612895 19.7762-13.959671c3.489918-3.489918 9.306447-1.163306 4.653223 2.326612-2.326612 2.326612-9.306447 8.143141-16.286282 16.286282l25.592729 18.612894c6.979835-5.816529 11.633059-11.633059 13.959671-13.95967 1.163306-1.163306 3.489918-2.326612 5.816529-2.326612 1.163306 2.326612 0 4.653224-1.163306 6.979835-1.163306 1.163306-1.163306 2.326612-2.326612 2.326612 0 0-51.185459 67.471741-57.001988 75.614882-10.469753 13.959671 8.143141 29.082647 20.939506 13.959671 9.306447-11.633059 65.145129-77.941494 65.145129-77.941494 1.163306-1.163306 4.653224-3.489918 6.979836-3.489918 1.163306 0 2.326612 1.163306 2.326611 2.326612v2.326612l-43.042317 65.145129c-10.469753 17.449588 9.306447 30.245953 19.7762 13.95967 8.143141-11.633059 58.165294-80.268106 73.28827-96.554388 18.612894-20.939506 46.532235-50.022153 50.022153-80.268105 1.163306-8.143141 2.326612-11.633059 5.816529-20.939506l8.143142-8.143141-48.858847-75.614882z"  /><path d="M445.691565 485.389378L395.669412 535.411531c-12.796365 16.286282 8.143141 33.73587 23.266118 18.612894 1.163306-1.163306 38.389094-36.062482 61.655211-58.165294l-34.899176-10.469753zM506.183471 616.842942c0 9.306447-8.143141 17.449588-17.449589 17.449589s-17.449588-8.143141-17.449588-17.449589 15.122976-33.73587 15.122977-33.73587 19.7762 24.429423 19.7762 33.73587zM457.324624 609.863107c0 5.816529-4.653224 10.469753-10.469753 10.469753s-10.469753-4.653224-10.469753-10.469753 9.306447-20.939506 9.306447-20.939506 11.633059 15.122976 11.633059 20.939506z"  /></svg>