<?xml version="1.0" standalone="no"?><!DOCTYPE svg PUBLIC "-//W3C//DTD SVG 1.1//EN" "http://www.w3.org/Graphics/SVG/1.1/DTD/svg11.dtd"><svg class="icon" width="200px" height="200.00px" viewBox="0 0 1024 1024" version="1.1" xmlns="http://www.w3.org/2000/svg"><path d="M102.516331 648.252201L458.48793 30.536779c23.266118-40.715706 82.594717-40.715706 105.860835 0l357.134904 617.715422c23.266118 40.715706-5.816529 91.901164-53.51207 91.901165H154.865095c-46.532235 0-75.614882-51.185459-52.348764-91.901165z" fill="#FFF500" /><path d="M130.435672 649.415507L475.937518 50.312979c16.286282-27.919341 55.838682-27.919341 70.961658 0l345.501846 597.939222c16.286282 27.919341-3.489918 61.655212-36.062482 61.655212H166.498154c-31.409259 1.163306-51.185459-33.73587-36.062482-60.491906z"  /><path d="M186.274354 651.742119L512 88.702073 837.725646 651.742119z" fill="#FFF500" /><path d="M193.254189 783.195683H860.991764V1024H193.254189z"  /><path d="M207.21386 797.155354h640.981539v214.048281H207.21386z" fill="#FFFFFF" /><path d="M275.848907 880.913377h44.205623v-40.715706h15.122976v40.715706h44.205624v80.268106h-13.959671v-4.653224h-89.574552V942.568588h89.574552v-17.449588h-82.594717v-12.796364h82.594717v-17.449589h-89.574552v-13.95967z m12.796364-33.735871c6.979835 8.143141 11.633059 16.286282 16.286283 23.266118l-11.633059 8.143141c-3.489918-6.979835-9.306447-15.122976-16.286283-23.266117l11.633059-8.143142z m90.737859 4.653224c-3.489918 9.306447-9.306447 17.449588-15.122977 25.592729l-12.796364-6.979835c6.979835-9.306447 11.633059-17.449588 15.122976-25.592729l12.796365 6.979835zM425.915365 883.239989c-3.489918 24.429423-8.143141 45.368929-15.122976 62.818517l-11.633059-8.143141c6.979835-18.612894 11.633059-37.225788 13.95967-58.165294l12.796365 3.489918z m23.266118 75.614882c-10.469753 0-16.286282-5.816529-16.286283-16.286283v-75.614882h13.959671v72.124965c0 3.489918 2.326612 5.816529 6.979835 5.816529h23.266118c2.326612 0 4.653224-1.163306 4.653223-3.489917 1.163306-2.326612 2.326612-11.633059 2.326612-25.59273l12.796365 4.653224c-1.163306 18.612894-3.489918 30.245953-5.81653 33.73587-2.326612 3.489918-6.979835 4.653224-12.796364 4.653224h-29.082647z m6.979835-119.820506c11.633059 13.959671 20.939506 25.592729 26.756035 36.062482l-11.633059 8.143142c-6.979835-11.633059-16.286282-23.266118-26.756035-37.225788l11.633059-6.979836z m46.532235 37.225788c8.143141 17.449588 13.959671 37.225788 19.7762 58.165294l-12.796365 5.81653c-5.816529-22.102812-12.796365-41.879012-20.939506-59.3286l13.959671-4.653224zM544.572565 873.933542c8.143141 6.979835 15.122976 12.796365 22.102811 19.7762l-9.306447 9.306447c-4.653224-5.816529-12.796365-12.796365-22.102811-19.7762l9.306447-9.306447z m20.939505 43.042317c-5.816529 16.286282-11.633059 31.409259-18.612894 45.368929l-11.633058-5.816529c6.979835-15.122976 12.796365-29.082647 18.612894-44.205623l11.633058 4.653223z m-19.7762-75.614882c9.306447 6.979835 17.449588 13.959671 24.429424 19.7762l-9.306447 9.306447c-5.816529-5.816529-13.959671-12.796365-24.429424-20.939506l9.306447-8.143141z m97.717694 37.225788h9.306447v24.429424h-11.633058v47.695541c0 8.143141-4.653224 12.796365-12.796365 12.796364h-12.796365l-3.489917-12.796364h11.633058c2.326612 0 3.489918-1.163306 3.489918-3.489918v-5.816529h-34.899176v20.939505h-12.796365v-59.328599h-11.633059v-24.429424h9.306447v-34.899176h66.308435v34.899176z m-4.653223 16.286282v-4.653223h-58.165294v4.653223h58.165294zM616.697529 878.586765h13.959671v-23.266117h-40.715706v6.979835H616.697529v16.286282z m-26.756035-6.979835v6.979835H605.06447v-6.979835h-15.122976z m2.326612 41.879011h34.899176v-6.979835h-34.899176v6.979835z m0 17.449589h34.899176v-6.979836h-34.899176v6.979836zM671.372905 843.687589h44.205624v45.368929h-12.796365v17.449588h13.959671V919.302471h-13.959671v18.612894l12.796365-4.653224v13.959671c-13.959671 4.653224-29.082647 9.306447-46.532235 12.796365l-3.489918-12.796365 5.816529-1.163306v-45.368929h12.796365v43.042317l6.979835-1.163306v-52.348764h-18.612894v-46.532235z m30.245953 32.572564v-19.7762h-17.449588v19.7762h17.449588z m33.735871-1.163306c-2.326612 6.979835-3.489918 12.796365-6.979836 18.612895l-11.633058-6.979836c5.816529-11.633059 9.306447-25.592729 11.633058-39.5524l11.633059 2.326612c-1.163306 8.143141-2.326612 12.796365-2.326611 11.633059h8.143141v-22.102812h12.796364V861.137177h19.7762v12.796365h-19.7762c0 8.143141-1.163306 16.286282-1.163306 22.102811h26.756036v13.959671h-23.266118c3.489918 17.449588 12.796365 30.245953 26.756035 40.715706l-8.143141 12.796364c-13.959671-10.469753-23.266118-24.429423-29.082647-41.879011-1.163306 2.326612-2.326612 5.816529-3.489917 9.306447-5.816529 13.959671-16.286282 24.429423-29.082647 32.572564l-6.979836-11.633058c12.796365-8.143141 22.102812-18.612894 26.756036-30.245953 1.163306-4.653224 2.326612-8.143141 3.489917-10.469753h-24.429423v-13.959671h26.756035c1.163306-8.143141 1.163306-15.122976 1.163306-22.102812h-9.306447z"  /><path d="M523.633059 294.607214m-39.5524 0a39.5524 39.5524 0 1 0 79.1048 0 39.5524 39.5524 0 1 0-79.1048 0Z"  /><path d="M678.352741 466.776484l-70.961659-98.881c0-1.163306-1.163306-1.163306-2.326612-2.326612l-8.143141-10.469752c-13.959671-18.612894-41.879012-17.449588-53.51207 2.326611-11.633059 18.612894-25.592729 46.532235-37.225788 83.758024L453.834706 396.978131c-4.653224-3.489918-9.306447-4.653224-15.122976-3.489917-3.489918 0-6.979835 0-9.306447 1.163305l-83.758024 33.735871c-9.306447 3.489918-13.959671 15.122976-10.469753 24.429423 3.489918 9.306447 15.122976 13.959671 24.429424 10.469753l76.778188-31.409258 62.818517 51.185458s1.163306 0 1.163306 1.163306l-83.758023 4.653224c-5.816529 0-10.469753 2.326612-13.959671 6.979835-1.163306 1.163306-3.489918 2.326612-4.653223 3.489918L343.320648 570.310707c-6.979835 8.143141-4.653224 19.7762 3.489917 26.756035 8.143141 6.979835 19.7762 4.653224 26.756035-3.489917l48.858847-61.655212 129.126953-5.816529c6.979835 0 12.796365-4.653224 16.286282-10.469753 1.163306-1.163306 1.163306-3.489918 1.163306-5.81653l29.082647-90.737858 50.022153 69.798353c5.816529 8.143141 18.612894 10.469753 26.756035 4.653223 8.143141-6.979835 9.306447-18.612894 3.489918-26.756035zM432.8952 633.129225h367.604658l-60.491906-94.227777c-11.633059-18.612894-36.062482-25.592729-55.838682-16.286282l-251.27407 110.514059zM327.034365 566.82079c-37.225788-4.653224-57.001988-22.102812-58.165294-23.266118l8.143141-8.143141s17.449588 16.286282 51.185459 19.7762l-1.163306 11.633059zM307.258165 621.496166c-44.205623 0-63.981823-15.122976-65.145129-16.286282l6.979835-9.306447s22.102812 17.449588 75.614882 12.796364l1.163306 11.633059c-6.979835 1.163306-12.796365 1.163306-18.612894 1.163306z"  /><path d="M414.282306 574.963931h-2.326612l1.163306-11.633059s23.266118 1.163306 52.348765-17.449588l5.816529 10.469753c-26.756035 17.449588-50.022153 18.612894-57.001988 18.612894z"  /><path d="M381.709742 619.169554l-1.163306-11.633059s46.532235-5.816529 101.207611-43.042317l6.979835 9.306447c-58.165294 38.389094-104.697529 45.368929-107.02414 45.368929z"  /></svg>