<?xml version="1.0" standalone="no"?><!DOCTYPE svg PUBLIC "-//W3C//DTD SVG 1.1//EN" "http://www.w3.org/Graphics/SVG/1.1/DTD/svg11.dtd"><svg class="icon" width="200px" height="200.00px" viewBox="0 0 1024 1024" version="1.1" xmlns="http://www.w3.org/2000/svg"><path d="M102.516331 648.252201L458.48793 30.536779c23.266118-40.715706 82.594717-40.715706 105.860835 0l357.134904 617.715422c23.266118 40.715706-5.816529 91.901164-53.51207 91.901165H154.865095c-46.532235 0-75.614882-51.185459-52.348764-91.901165z" fill="#FFF500" /><path d="M130.435672 649.415507L475.937518 50.312979c16.286282-27.919341 55.838682-27.919341 70.961658 0l345.501846 597.939222c16.286282 27.919341-3.489918 61.655212-36.062482 61.655212H166.498154c-31.409259 1.163306-51.185459-33.73587-36.062482-60.491906z"  /><path d="M186.274354 651.742119L512 88.702073 837.725646 651.742119z" fill="#FFF500" /><path d="M193.254189 783.195683H860.991764V1024H193.254189z"  /><path d="M207.21386 797.155354h640.981539v214.048281H207.21386z" fill="#FFFFFF" /><path d="M275.848907 880.913377h44.205623v-40.715706h15.122976v40.715706h44.205624v80.268106h-13.959671v-4.653224h-89.574552V942.568588h89.574552v-17.449588h-82.594717v-12.796364h82.594717v-17.449589h-89.574552v-13.95967z m12.796364-33.735871c6.979835 8.143141 11.633059 16.286282 16.286283 23.266118l-11.633059 8.143141c-3.489918-6.979835-9.306447-15.122976-16.286283-23.266117l11.633059-8.143142z m90.737859 4.653224c-3.489918 9.306447-9.306447 17.449588-15.122977 25.592729l-12.796364-6.979835c6.979835-9.306447 11.633059-17.449588 15.122976-25.592729l12.796365 6.979835zM425.915365 883.239989c-3.489918 24.429423-8.143141 45.368929-15.122976 62.818517l-11.633059-8.143141c6.979835-18.612894 11.633059-37.225788 13.95967-58.165294l12.796365 3.489918z m23.266118 75.614882c-10.469753 0-16.286282-5.816529-16.286283-16.286283v-75.614882h13.959671v72.124965c0 3.489918 2.326612 5.816529 6.979835 5.816529h23.266118c2.326612 0 4.653224-1.163306 4.653223-3.489917 1.163306-2.326612 2.326612-11.633059 2.326612-25.59273l12.796365 4.653224c-1.163306 18.612894-3.489918 30.245953-5.81653 33.73587-2.326612 3.489918-6.979835 4.653224-12.796364 4.653224h-29.082647z m6.979835-119.820506c11.633059 13.959671 20.939506 25.592729 26.756035 36.062482l-11.633059 8.143142c-6.979835-11.633059-16.286282-23.266118-26.756035-37.225788l11.633059-6.979836z m46.532235 37.225788c8.143141 17.449588 13.959671 37.225788 19.7762 58.165294l-12.796365 5.81653c-5.816529-22.102812-12.796365-41.879012-20.939506-59.3286l13.959671-4.653224zM542.245953 871.60693c8.143141 6.979835 13.959671 12.796365 19.7762 19.7762l-10.469753 9.306447c-4.653224-5.816529-11.633059-12.796365-19.7762-19.7762l10.469753-9.306447z m24.429423 43.042317c-5.816529 16.286282-11.633059 32.572565-18.612894 47.695541l-13.95967-5.816529c6.979835-15.122976 13.959671-30.245953 19.7762-46.532235l12.796364 4.653223z m-22.102811-74.451576c8.143141 6.979835 15.122976 12.796365 20.939505 19.7762l-9.306447 10.469753c-4.653224-5.816529-11.633059-12.796365-20.939505-19.7762l9.306447-10.469753z m69.798352 31.409259h12.796365v-31.409259h13.959671v31.409259h15.122976v13.95967h-15.122976V930.93553h-40.715706v-45.36893h-12.796365v59.3286H651.596705v13.959671h-77.941493v-73.288271h-9.306447v-13.95967h9.306447v-27.919341h13.95967v27.919341h12.796365v-31.409259h13.95967v31.409259z m12.796365 45.368929V884.403295h-12.796365v32.572564h12.796365zM674.862823 871.60693c6.979835 5.816529 13.959671 11.633059 18.612894 17.449588l-9.306447 9.306447c-4.653224-5.816529-10.469753-11.633059-18.612894-18.612894l9.306447-8.143141z m22.102812 43.042317c-4.653224 16.286282-10.469753 32.572565-16.286283 47.695541l-12.796364-5.816529c6.979835-15.122976 12.796365-30.245953 17.449588-46.532235l11.633059 4.653223z m-17.449588-74.451576c8.143141 5.816529 13.959671 11.633059 19.7762 17.449588l-9.306448 9.306447c-4.653224-5.816529-11.633059-11.633059-19.776199-18.612894l9.306447-8.143141z m36.062482 54.675376c0 26.756035-4.653224 50.022153-15.122977 68.635047l-10.469753-9.306447c8.143141-15.122976 12.796365-34.899176 12.796365-59.3286v-52.348764h80.268106v32.572564h-67.471741v6.979836h70.961658v11.633059H756.294235v8.143141h27.919341v46.532235c0 8.143141-3.489918 12.796365-10.469753 12.796365h-9.306447l-2.326612-11.633059h8.143141c2.326612 0 3.489918-1.163306 3.489918-4.653224V942.568588l-5.81653 5.81653c-2.326612-3.489918-5.816529-5.816529-9.306447-9.306447v22.102812h-11.633058v-16.286283l-5.81653 5.81653c-2.326612-3.489918-5.816529-6.979835-9.306447-10.469753v18.612894h-11.633059v-57.001988H744.661176v-8.143141h-29.082647z m53.51207-40.715705h-54.675376v9.306447h54.675376v-9.306447zM744.661176 913.485941h-15.122977v6.979836l5.81653-5.81653c3.489918 2.326612 6.979835 5.816529 9.306447 9.306447v-10.469753z m-15.122977 25.59273l5.81653-5.81653 9.306447 9.306447v-16.286282l-4.653224 4.653224c-2.326612-3.489918-5.816529-6.979835-10.469753-10.469753v18.612894z m41.879012-25.59273H756.294235v8.143142l5.816529-5.81653c3.489918 2.326612 6.979835 5.816529 9.306447 8.143141v-10.469753z m0 13.959671l-4.653223 4.653224c-2.326612-3.489918-5.816529-5.816529-10.469753-9.306447v15.122976l5.816529-5.816529c3.489918 3.489918 6.979835 5.816529 9.306447 9.306447v-13.959671z"  /><path d="M311.911389 476.082931H418.93553V512.145413h-107.024141zM420.098836 547.04459h19.7762v36.062482h-19.7762zM420.098836 601.719966h19.7762v36.062482h-19.7762zM461.977847 373.712014h107.024141v18.612894h-107.024141zM439.875036 308.566884h150.066458v18.612894H439.875036z"  /><path d="M492.2238 391.161602h46.532235v18.612894h-46.532235zM509.673388 323.689861h10.469753v59.3286h-10.469753zM600.411247 476.082931h111.677364V512.145413h-111.677364zM438.71173 457.470037v70.961659s27.919341-4.653224 44.205623 13.95967 43.042318 15.122976 67.471741-16.286282c0 0 5.816529-13.959671 31.409259 19.7762v-76.778188s-20.939506 11.633059-30.245953-15.122977-57.001988-39.5524-69.798353 5.81653c0-1.163306-10.469753 17.449588-43.042317-2.326612zM603.901164 403.957966s26.756035-38.389094 41.879012-30.245952c15.122976 8.143141 44.205623 43.042318 36.062482 55.838682-8.143141 12.796365 2.326612 31.409259 8.143141 22.102812 5.816529-8.143141 15.122976-32.572565 0-51.185459-15.122976-18.612894-33.73587-53.51207-53.51207-41.879012s-61.655212 38.389094-32.572565 45.368929z"  /></svg>