<?xml version="1.0" standalone="no"?><!DOCTYPE svg PUBLIC "-//W3C//DTD SVG 1.1//EN" "http://www.w3.org/Graphics/SVG/1.1/DTD/svg11.dtd"><svg class="icon" width="200px" height="200.00px" viewBox="0 0 1024 1024" version="1.1" xmlns="http://www.w3.org/2000/svg"><path d="M102.516331 648.252201L458.48793 30.536779c23.266118-40.715706 82.594717-40.715706 105.860835 0l357.134904 617.715422c23.266118 40.715706-5.816529 91.901164-53.51207 91.901165H154.865095c-46.532235 0-75.614882-51.185459-52.348764-91.901165z" fill="#FFF500" /><path d="M130.435672 649.415507L475.937518 50.312979c16.286282-27.919341 55.838682-27.919341 70.961658 0l345.501846 597.939222c16.286282 27.919341-3.489918 61.655212-36.062482 61.655212H166.498154c-31.409259 1.163306-51.185459-33.73587-36.062482-60.491906z"  /><path d="M186.274354 651.742119L512 88.702073 837.725646 651.742119z" fill="#FFF500" /><path d="M193.254189 783.195683H860.991764V1024H193.254189z"  /><path d="M207.21386 797.155354h640.981539v214.048281H207.21386z" fill="#FFFFFF" /><path d="M275.848907 880.913377h44.205623v-40.715706h15.122976v40.715706h44.205624v80.268106h-13.959671v-4.653224h-89.574552V942.568588h89.574552v-17.449588h-82.594717v-12.796364h82.594717v-17.449589h-89.574552v-13.95967z m12.796364-33.735871c6.979835 8.143141 11.633059 16.286282 16.286283 23.266118l-11.633059 8.143141c-3.489918-6.979835-9.306447-15.122976-16.286283-23.266117l11.633059-8.143142z m90.737859 4.653224c-3.489918 9.306447-9.306447 17.449588-15.122977 25.592729l-12.796364-6.979835c6.979835-9.306447 11.633059-17.449588 15.122976-25.592729l12.796365 6.979835zM425.915365 883.239989c-3.489918 24.429423-8.143141 45.368929-15.122976 62.818517l-11.633059-8.143141c6.979835-18.612894 11.633059-37.225788 13.95967-58.165294l12.796365 3.489918z m23.266118 75.614882c-10.469753 0-16.286282-5.816529-16.286283-16.286283v-75.614882h13.959671v72.124965c0 3.489918 2.326612 5.816529 6.979835 5.816529h23.266118c2.326612 0 4.653224-1.163306 4.653223-3.489917 1.163306-2.326612 2.326612-11.633059 2.326612-25.59273l12.796365 4.653224c-1.163306 18.612894-3.489918 30.245953-5.81653 33.73587-2.326612 3.489918-6.979835 4.653224-12.796364 4.653224h-29.082647z m6.979835-119.820506c11.633059 13.959671 20.939506 25.592729 26.756035 36.062482l-11.633059 8.143142c-6.979835-11.633059-16.286282-23.266118-26.756035-37.225788l11.633059-6.979836z m46.532235 37.225788c8.143141 17.449588 13.959671 37.225788 19.7762 58.165294l-12.796365 5.81653c-5.816529-22.102812-12.796365-41.879012-20.939506-59.3286l13.959671-4.653224zM545.73587 865.7904c0 12.796365-1.163306 25.592729-3.489917 38.389094l-10.469753-2.326611c2.326612-11.633059 3.489918-24.429423 3.489918-36.062483h10.469752z m4.653224-25.592729h12.796365v30.245953c3.489918-3.489918 5.816529-8.143141 9.306447-12.796365l6.979835 9.306447c-4.653224 5.816529-9.306447 11.633059-16.286282 17.449589v2.326611c0 9.306447-1.163306 17.449588-1.163306 25.59273 5.816529 6.979835 11.633059 13.959671 16.286282 22.102811l-8.143141 13.959671c-3.489918-8.143141-8.143141-13.959671-11.633059-19.7762-3.489918 15.122976-9.306447 26.756035-16.286282 34.899176l-9.306447-9.306447c11.633059-13.959671 17.449588-36.062482 17.449588-65.145129v-48.858847z m32.572565 2.326612h65.145129v37.225788h-12.796365v4.653224H651.596705v9.306447h-16.286282v5.816529h18.612894v10.469753h-17.449588c4.653224 4.653224 10.469753 9.306447 19.7762 12.796365l-8.143141 9.306447-10.469753-6.979836c-3.489918 2.326612-6.979835 5.816529-10.469753 8.143141l-5.816529-8.143141c3.489918-2.326612 5.816529-4.653224 9.306447-6.979835-2.326612-2.326612-4.653224-4.653224-5.81653-8.143141H605.06447c-2.326612 3.489918-4.653224 5.816529-8.143141 9.306447 3.489918 2.326612 5.816529 4.653224 8.143141 6.979835l-8.143141 8.143141c-2.326612-2.326612-5.816529-4.653224-9.306447-8.143141-2.326612 1.163306-5.816529 3.489918-8.143141 4.653224l-6.979835-11.633059c8.143141-2.326612 13.959671-5.816529 18.612894-9.306447h-18.612894v-10.469753h22.102811v-5.816529h-16.286282V884.403295h16.286282v-4.653224H581.798353v-37.225788z m23.266117 102.370917c-6.979835 4.653224-16.286282 9.306447-26.756035 12.796365l-4.653224-11.633059c10.469753-2.326612 19.7762-6.979835 27.919342-10.469753l3.489917 9.306447z m-11.633059-88.411247h41.879012v-4.653223h-41.879012v4.653223z m41.879012 13.959671v-4.653224h-41.879012v4.653224h41.879012z m-36.062482 91.901164l-2.326612-11.633058c3.489918 0 5.816529 1.163306 8.143141 1.163306 2.326612 0 3.489918-1.163306 3.489918-3.489918v-32.572565h12.796365v36.062483c0 6.979835-3.489918 11.633059-11.633059 11.633058h-10.469753z m23.266117-77.941493v-4.653224h-16.286282v4.653224h16.286282z m-16.286282 16.286282h16.286282v-5.81653h-16.286282v5.81653z m20.939506 36.062482c9.306447 3.489918 17.449588 8.143141 25.592729 12.796365l-6.979835 10.469753c-8.143141-5.816529-16.286282-10.469753-24.429423-13.959671l5.816529-9.306447zM681.842658 865.7904c0 13.959671-2.326612 27.919341-4.653223 41.879012l-11.633059-3.489918c2.326612-12.796365 3.489918-25.592729 4.653224-39.552399l11.633058 1.163305z m36.062483 1.163306c-4.653224 5.816529-10.469753 12.796365-18.612894 18.612894v2.326612c0 6.979835 0 15.122976-1.163306 22.102812 8.143141 8.143141 17.449588 16.286282 25.592729 25.592729l-8.143141 12.796365c-8.143141-10.469753-13.959671-18.612894-19.7762-24.429424-3.489918 16.286282-10.469753 29.082647-19.7762 39.5524l-9.306447-9.306447c13.959671-13.959671 19.7762-34.899176 20.939506-65.145129v-47.695541h12.796364v30.245953c3.489918-4.653224 8.143141-9.306447 10.469753-13.959671l6.979836 9.306447z m15.122976 2.326612c-3.489918 11.633059-6.979835 22.102812-11.633059 32.572565l-11.633059-8.143141c8.143141-17.449588 13.959671-36.062482 17.449589-54.675377l12.796364 2.326612c0 1.163306-1.163306 3.489918-1.163306 6.979835-1.163306 3.489918-1.163306 5.816529-1.163305 6.979836H791.193411v12.796364h-38.389094v19.7762h33.73587v12.796365h-33.73587V919.302471h37.225788v12.796365h-37.225788v29.082647h-13.959671v-93.064471H733.028117z"  /><path d="M363.096847 561.00426c-18.612894-29.082647 3.489918-17.449588-20.939505-10.469753-23.266118 6.979835-11.633059-5.816529-9.306447-23.266117 1.163306-5.816529 0-11.633059-1.163306-16.286283-19.7762 6.979835-33.73587 25.592729-33.735871 47.695541 0 27.919341 22.102812 50.022153 50.022153 50.022153 17.449588 0 32.572565-8.143141 41.879012-22.102812-8.143141-2.326612-16.286282-10.469753-26.756036-25.592729zM394.506106 488.879296l10.469753 3.489917 219.864811-162.862823-24.429423-44.205623zM679.516047 426.060778L651.596705 377.201931 424.752059 498.185743l-3.489918 15.122976zM730.701505 516.798637l-27.919341-50.022153-261.743823 63.981823-2.326611 6.979836zM753.967623 558.677648l-317.582505 13.959671L791.193411 623.822778zM575.981823 242.258449l-9.306447-16.286282-13.95967 4.653224 1.163306-11.633059 3.489917-9.306447-10.469753-18.612894-161.699517 295.479693zM427.078671 309.73019l-52.348765 182.639023h-6.979835l-23.266118-48.858847 24.429424 23.266118s-10.469753-31.409259-5.81653-34.899176c4.653224-3.489918 11.633059-12.796365 12.796365-15.122977s-1.163306-23.266118-1.163306-23.266117l52.348765-83.758024zM478.26413 229.462085s-20.939506 19.7762-15.122977 32.572564 23.266118 20.939506 24.429424 11.633059c2.326612-9.306447 11.633059-40.715706 16.286282-52.348765 4.653224-11.633059 5.816529-19.7762 5.816529-19.776199l-31.409258 27.919341zM457.324624 313.220108s-19.7762 33.73587-18.612894 37.225788c1.163306 2.326612 2.326612 9.306447 6.979835 4.653224 4.653224-5.816529 18.612894-40.715706 18.612894-40.715706h-6.979835zM421.262141 373.712014c0-2.326612 5.816529-8.143141 5.81653-8.143142h5.816529v17.449589l-13.95967 5.816529 2.326611-15.122976zM330.524283 458.633343l17.449588 12.796364 2.326612 24.429424s-6.979835 18.612894-8.143141 15.122976c-1.163306-3.489918-6.979835-8.143141-8.143141-18.612894s-3.489918-33.73587-3.489918-33.73587zM365.423459 509.818801l8.143141 12.796365-4.653223 8.143141s10.469753 4.653224 12.796365 0c2.326612-4.653224 12.796365-20.939506 12.796364-20.939506h-29.082647zM389.852883 537.738143s-8.143141 6.979835 0 5.816529 15.122976-10.469753 15.122976-10.469753 19.7762 33.73587 12.796365 33.735871c-6.979835 0-31.409259 6.979835-32.572565-3.489918-1.163306-10.469753-8.143141-18.612894-5.816529-20.939506s13.959671-10.469753 10.469753-4.653223z"  /><path d="M445.691565 510.982107l18.612894 10.469753-9.306447 20.939506-16.286282 2.326612zM493.387106 377.201931s-20.939506 1.163306-22.102812 11.633059c-1.163306 10.469753 0 13.959671 3.489918 16.286282s15.122976 0 15.122976 0 0-26.756035 3.489918-27.919341zM545.73587 285.300767c0 3.489918 0 6.979835-3.489917 11.633059s-10.469753 11.633059-6.979835 16.286282 12.796365 9.306447 16.286282 4.653223c3.489918-4.653224 3.489918-13.959671 4.653223-17.449588 1.163306-4.653224 10.469753-8.143141 12.796365-8.143141s-23.266118-6.979835-23.266118-6.979835zM624.84067 470.266402c-1.163306 0-19.7762-1.163306-20.939506 10.469753-1.163306 11.633059 13.959671-1.163306 26.756036 0 12.796365 1.163306 17.449588 3.489918 22.102811-4.653224 4.653224-8.143141 11.633059-27.919341 0-22.102812-11.633059 3.489918-23.266118 16.286282-27.919341 16.286283zM550.389094 541.22806c-3.489918 0-17.449588 1.163306-10.469753 4.653224 5.816529 3.489918 15.122976 2.326612 24.429424 0 10.469753-2.326612 20.939506 2.326612 23.266117 2.326611 2.326612-1.163306-16.286282-8.143141-16.286282-9.306447 0-1.163306-16.286282-1.163306-20.939506 0-5.816529 0 0 2.326612 0 2.326612zM624.84067 556.351037l-48.858847 2.326611 182.639023 8.143142-19.7762-22.102812zM423.588753 591.250213c1.163306 0 51.185459 41.879012 51.185459 41.879012h41.879012l-65.14513-30.245953 136.106788 30.245953h86.084635l-250.110764-41.879012z"  /></svg>