<?xml version="1.0" standalone="no"?><!DOCTYPE svg PUBLIC "-//W3C//DTD SVG 1.1//EN" "http://www.w3.org/Graphics/SVG/1.1/DTD/svg11.dtd"><svg class="icon" width="200px" height="200.00px" viewBox="0 0 1024 1024" version="1.1" xmlns="http://www.w3.org/2000/svg"><path d="M102.516331 648.252201L458.48793 30.536779c23.266118-40.715706 82.594717-40.715706 105.860835 0l357.134904 617.715422c23.266118 40.715706-5.816529 91.901164-53.51207 91.901165H154.865095c-46.532235 0-75.614882-51.185459-52.348764-91.901165z" fill="#FFF500" /><path d="M130.435672 649.415507L475.937518 50.312979c16.286282-27.919341 55.838682-27.919341 70.961658 0l345.501846 597.939222c16.286282 27.919341-3.489918 61.655212-36.062482 61.655212H166.498154c-31.409259 1.163306-51.185459-33.73587-36.062482-60.491906z"  /><path d="M186.274354 651.742119L512 88.702073 837.725646 651.742119z" fill="#FFF500" /><path d="M193.254189 783.195683H860.991764V1024H193.254189z"  /><path d="M207.21386 797.155354h640.981539v214.048281H207.21386z" fill="#FFFFFF" /><path d="M275.848907 880.913377h44.205623v-40.715706h15.122976v40.715706h44.205624v80.268106h-13.959671v-4.653224h-89.574552V942.568588h89.574552v-18.612894h-82.594717v-12.796364h82.594717v-17.449588h-89.574552v-12.796365z m12.796364-33.735871c6.979835 8.143141 11.633059 16.286282 16.286283 23.266118l-11.633059 8.143141c-3.489918-6.979835-9.306447-15.122976-16.286283-23.266117l11.633059-8.143142z m90.737859 4.653224c-3.489918 9.306447-9.306447 17.449588-15.122977 25.592729l-12.796364-6.979835c6.979835-9.306447 11.633059-17.449588 15.122976-25.592729l12.796365 6.979835zM425.915365 883.239989c-3.489918 24.429423-8.143141 45.368929-15.122976 62.818517l-11.633059-8.143141c6.979835-18.612894 11.633059-37.225788 13.95967-58.165294l12.796365 3.489918z m23.266118 75.614882c-10.469753 0-16.286282-5.816529-16.286283-16.286283v-75.614882h13.959671v72.124965c0 3.489918 2.326612 5.816529 6.979835 5.816529h23.266118c2.326612 0 4.653224-1.163306 4.653223-3.489917 1.163306-2.326612 2.326612-11.633059 2.326612-25.59273l12.796365 4.653224c-1.163306 18.612894-3.489918 30.245953-5.81653 33.73587-2.326612 3.489918-6.979835 4.653224-12.796364 4.653224h-29.082647z m6.979835-119.820506c11.633059 13.959671 20.939506 25.592729 26.756035 36.062482l-11.633059 8.143142c-6.979835-11.633059-16.286282-23.266118-26.756035-37.225788l11.633059-6.979836z m46.532235 37.225788c8.143141 17.449588 13.959671 37.225788 19.7762 58.165294l-12.796365 5.81653c-5.816529-22.102812-12.796365-41.879012-20.939506-59.3286l13.959671-4.653224zM564.348765 876.260153h13.95967v17.449589h16.286282V907.669412h-16.286282v12.796365c6.979835-1.163306 12.796365-2.326612 18.612894-3.489918V930.93553c-6.979835 1.163306-12.796365 2.326612-18.612894 3.489917v27.919341h-13.95967v-25.592729c-9.306447 1.163306-19.7762 2.326612-29.082647 3.489918l-2.326612-13.959671 31.409259-3.489917V907.669412h-25.59273l-3.489917-12.796365c3.489918-6.979835 6.979835-15.122976 10.469752-25.592729h-12.796364v-13.95967h16.286282l3.489918-16.286283 13.95967 3.489918-3.489917 13.95967h33.73587v13.959671h-37.225788c-3.489918 9.306447-5.816529 17.449588-9.306447 24.429423h12.796365v-18.612894z m57.001988 84.92133c-11.633059 0-17.449588-5.816529-17.449589-18.612895v-101.207611h13.959671v98.881c0 4.653224 2.326612 6.979835 6.979835 6.979835h8.143141c3.489918 0 5.816529-1.163306 6.979836-3.489918 1.163306-2.326612 2.326612-9.306447 2.326611-20.939505l12.796365 4.653223c-1.163306 15.122976-2.326612 24.429423-5.816529 27.919341-2.326612 3.489918-8.143141 4.653224-15.122977 4.653224h-12.796364zM684.16927 919.302471c-1.163306 17.449588-3.489918 31.409259-8.143141 43.042317l-10.469753-9.306447c4.653224-11.633059 5.816529-25.592729 6.979835-43.042317v-66.308435h34.899177v105.860835c0 8.143141-3.489918 12.796365-11.633059 12.796364H686.495882l-3.489918-12.796364h8.143141c2.326612 0 3.489918-1.163306 3.489918-4.653224V919.302471h-10.469753z m9.306447-44.205624v-19.776199h-9.306447v19.776199h9.306447z m-9.306447 12.796365v18.612894h9.306447v-18.612894h-9.306447z m26.756035-29.082647h11.633059v-19.7762h12.796365v19.7762h11.633059v12.796365h-11.633059v18.612894h13.95967v12.796365H733.028117c-3.489918 10.469753-5.816529 20.939506-9.306447 31.409258 3.489918-1.163306 8.143141-2.326612 11.633059-3.489917l-2.326612-12.796365 11.633059-3.489918c3.489918 11.633059 5.816529 23.266118 8.143141 33.735871l-11.633059 4.653223-1.163306-9.306447c-5.816529 2.326612-15.122976 3.489918-26.756035 5.81653l-3.489918-12.796365c1.163306 0 2.326612-1.163306 3.489918-3.489918 2.326612-9.306447 5.816529-19.7762 9.306447-30.245952h-11.633059v-12.796365h13.959671v-18.612894h-11.633059v-12.796365z m58.165294 89.574553l-3.489917-12.796365v26.756035h-12.796365V844.850895h32.572565v89.574552c0 9.306447-3.489918 12.796365-10.469753 12.796365h-5.81653z m-3.489917-13.959671l4.653223 1.163306c2.326612 0 2.326612-1.163306 2.326612-3.489917v-74.451577h-8.143141v76.778188z"  /><path d="M508.510082 278.320932l3.489918 100.044305s-19.7762 40.715706-51.185459 51.185459c-31.409259 10.469753-50.022153 48.858847-115.167282 50.022153l-22.102811-3.489918-2.326612 1.163306s-4.653224-1.163306-5.81653 1.163306c-1.163306 2.326612-9.306447 48.858847 44.205624 41.879011 0 0 17.449588 1.163306 32.572564 9.306447 29.082647 15.122976 53.51207-20.939506 100.044306-13.95967 46.532235 6.979835 112.84067 38.389094 127.963647-9.306447s-26.756035-47.695541-13.959671-146.576541c12.796365-97.717694 11.633059-81.431412 11.633059-81.431411h-109.350753z"  /><path d="M385.199659 421.407555l-12.796364 162.862823-18.612895 13.95967H418.93553l-20.939506-13.95967zM486.407271 527.26839l-15.122977 57.001988-18.612894 13.95967h66.308435L499.203635 581.943766zM560.858847 541.22806l-15.122977 43.042318-18.612894 13.95967H593.431412L573.655212 581.943766zM662.066458 524.941778l-13.95967 59.3286-18.612894 13.95967h65.145129L676.026129 581.943766z"  /></svg>