<?xml version="1.0" standalone="no"?><!DOCTYPE svg PUBLIC "-//W3C//DTD SVG 1.1//EN" "http://www.w3.org/Graphics/SVG/1.1/DTD/svg11.dtd"><svg class="icon" width="200px" height="200.00px" viewBox="0 0 1024 1024" version="1.1" xmlns="http://www.w3.org/2000/svg"><path d="M102.516331 648.252201L458.48793 30.536779c23.266118-40.715706 82.594717-40.715706 105.860835 0l357.134904 617.715422c23.266118 40.715706-5.816529 91.901164-53.51207 91.901165H154.865095c-46.532235 0-75.614882-51.185459-52.348764-91.901165z" fill="#FFF500" /><path d="M130.435672 649.415507L475.937518 50.312979c16.286282-27.919341 55.838682-27.919341 70.961658 0l345.501846 597.939222c16.286282 27.919341-3.489918 61.655212-36.062482 61.655212H166.498154c-31.409259 1.163306-51.185459-33.73587-36.062482-60.491906z"  /><path d="M186.274354 651.742119L512 88.702073 837.725646 651.742119z" fill="#FFF500" /><path d="M193.254189 783.195683H860.991764V1024H193.254189z"  /><path d="M207.21386 797.155354h640.981539v214.048281H207.21386z" fill="#FFFFFF" /><path d="M275.848907 880.913377h44.205623v-40.715706h15.122976v40.715706h44.205624v80.268106h-13.959671v-4.653224h-89.574552V942.568588h89.574552v-18.612894h-82.594717v-12.796364h82.594717v-17.449588h-89.574552v-12.796365z m12.796364-33.735871c6.979835 8.143141 11.633059 16.286282 16.286283 23.266118l-11.633059 8.143141c-3.489918-6.979835-9.306447-15.122976-16.286283-23.266117l11.633059-8.143142z m90.737859 4.653224c-3.489918 9.306447-9.306447 17.449588-15.122977 25.592729l-12.796364-6.979835c6.979835-9.306447 11.633059-17.449588 15.122976-25.592729l12.796365 6.979835zM425.915365 883.239989c-3.489918 24.429423-8.143141 45.368929-15.122976 62.818517l-11.633059-8.143141c6.979835-18.612894 11.633059-37.225788 13.95967-58.165294l12.796365 3.489918z m23.266118 75.614882c-10.469753 0-16.286282-5.816529-16.286283-16.286283v-75.614882h13.959671v72.124965c0 3.489918 2.326612 5.816529 6.979835 5.816529h23.266118c2.326612 0 4.653224-1.163306 4.653223-3.489917 1.163306-2.326612 2.326612-11.633059 2.326612-25.59273l12.796365 4.653224c-1.163306 18.612894-3.489918 30.245953-5.81653 33.73587-2.326612 3.489918-6.979835 4.653224-12.796364 4.653224h-29.082647z m6.979835-119.820506c11.633059 13.959671 20.939506 25.592729 26.756035 36.062482l-11.633059 8.143142c-6.979835-11.633059-16.286282-23.266118-26.756035-37.225788l11.633059-6.979836z m46.532235 37.225788c8.143141 17.449588 13.959671 37.225788 19.7762 58.165294l-12.796365 5.81653c-5.816529-22.102812-12.796365-41.879012-20.939506-59.3286l13.959671-4.653224zM570.165294 884.403295c-3.489918 2.326612-5.816529 4.653224-9.306447 5.816529l-3.489918-12.796365c9.306447-5.816529 17.449588-11.633059 22.102812-19.7762h-23.266118v32.572565c0 29.082647-4.653224 52.348765-11.633058 69.798353l-10.469753-9.306447c5.816529-15.122976 9.306447-34.899176 9.306447-60.491906v-45.368929h47.695541c-1.163306-2.326612-2.326612-4.653224-4.653224-5.81653l13.959671-2.326612c1.163306 2.326612 2.326612 4.653224 4.653223 8.143142h48.858847v12.796364h-69.798353l8.143142 3.489918c-2.326612 3.489918-4.653224 8.143141-8.143142 10.469753v30.245953H570.165294V884.403295z m58.165294 77.941493l-2.326612-9.306447-4.653223 6.979836c-4.653224-4.653224-10.469753-8.143141-15.122977-10.469753-4.653224 4.653224-11.633059 9.306447-20.939506 10.469753l-6.979835-10.469753c13.959671-2.326612 20.939506-8.143141 24.429424-17.449588l11.633058 2.326611c-1.163306 2.326612-1.163306 4.653224-2.326611 6.979836 5.816529 2.326612 10.469753 5.816529 16.286282 8.143141h5.816529c1.163306 0 2.326612-1.163306 2.326612-3.489918v-31.409259h-24.429423v1.163306c8.143141 3.489918 15.122976 6.979835 22.102811 10.469753l-6.979835 10.469753c-6.979835-4.653224-12.796365-9.306447-19.7762-12.796365-4.653224 5.816529-12.796365 9.306447-23.266118 11.633059l-6.979835-10.469753c11.633059-1.163306 18.612894-4.653224 20.939506-10.469753h-22.102812v45.36893h-12.796364v-57.001988h36.062482v-5.81653h12.796365v5.81653h36.062482v45.368929c0 8.143141-3.489918 11.633059-11.633059 11.633059H628.330588z m-38.389094-95.391082h36.062482v-6.979835H639.963647v6.979835h11.633058v11.633059h-11.633058v12.796365c0 6.979835-4.653224 11.633059-12.796365 11.633059h-9.306447l-2.326612-11.633059h8.143141c2.326612 0 3.489918-1.163306 3.489918-3.489918v-10.469753h-27.919341c6.979835 2.326612 11.633059 5.816529 17.449588 9.306447l-5.816529 9.306447c-5.816529-4.653224-11.633059-8.143141-18.612894-10.469753l5.816529-8.143141h-6.979835v-10.469753zM686.495882 872.770236c-3.489918 10.469753-8.143141 19.7762-13.959671 26.756035l-9.306447-10.469753c8.143141-12.796365 13.959671-29.082647 16.286283-48.858847l13.95967 2.326612c-1.163306 6.979835-2.326612 12.796365-3.489918 18.612894h23.266118v10.469753c-3.489918 8.143141-6.979835 15.122976-10.469753 19.7762l-10.469753-8.143141c2.326612-2.326612 3.489918-5.816529 5.81653-10.469753h-11.633059z m-3.489918 16.286282h12.796365V942.568588c4.653224-3.489918 10.469753-6.979835 15.122976-11.633058l2.326612 12.796364c-8.143141 6.979835-17.449588 11.633059-29.082647 16.286283l-5.816529-11.633059c2.326612-1.163306 3.489918-3.489918 3.489917-6.979835v-52.348765z m37.225788-27.919341H744.661176v-22.102812h13.95967V861.137177h24.429424v57.001988h-24.429424v23.266118l12.796365-2.326612c-1.163306-3.489918-3.489918-8.143141-4.653223-12.796365l11.633058-3.489917c4.653224 10.469753 9.306447 22.102812 13.959671 37.225788l-12.796365 3.489917-3.489917-11.633058c-17.449588 3.489918-37.225788 5.816529-57.001989 8.143141l-3.489917-12.796365c9.306447-1.163306 19.7762-1.163306 31.409259-3.489918v-25.592729h-24.429424V861.137177z m24.429424 44.205623v-31.409258h-11.633059v31.409258h11.633059z m24.429423 0v-31.409258h-11.633059v31.409258h11.633059z"  /><path d="M560.858847 267.851179l-147.739847 27.919341c-9.306447 2.326612-16.286282 11.633059-13.95967 20.939506 2.326612 9.306447 11.633059 16.286282 20.939506 13.95967L567.838682 302.750355l-6.979835-34.899176z m-115.167282 26.756035l111.677364-20.939506 3.489918 20.939506h-115.167282z" fill="#1E1918" /><path d="M386.362965 571.474013c9.306447-1.163306 94.227776-13.959671 94.227776-13.95967h3.489918c2.326612 0 4.653224-2.326612 5.816529-4.653224-1.163306-2.326612-3.489918-2.326612-5.816529-2.326612-15.122976 0-103.534223-1.163306-105.860835-1.163306-20.939506 1.163306-24.429423-26.756035-3.489918-29.082647 0 0 95.391082-1.163306 108.187447-1.163305 5.816529 0 3.489918-5.816529-1.163306-4.653224l-81.431411-13.959671c-17.449588-1.163306-19.7762-26.756035 2.326611-25.592729l84.92133 8.143141c26.756035 3.489918 36.062482-6.979835 36.062482-6.979835v-1.163306c0-3.489918-2.326612-5.816529-5.81653-6.979835h-1.163305c-6.979835-2.326612-13.959671-5.816529-20.939506-8.143141-9.306447-3.489918-20.939506-6.979835-27.919341-13.959671-4.653224-5.816529-8.143141-15.122976-4.653224-22.102812 0-1.163306 1.163306-2.326612 2.326612-3.489917 1.163306-1.163306 5.816529-1.163306 5.816529-2.326612s11.633059 4.653224 12.796365 5.816529c10.469753 4.653224 20.939506 4.653224 31.409259 5.81653 3.489918 0 5.816529 1.163306 8.143141 2.326612 4.653224 2.326612 11.633059 3.489918 16.286282 6.979835l12.796365 4.653223h1.163306c2.326612 0 4.653224 1.163306 6.979835 2.326612 2.326612 0 4.653224 1.163306 6.979835 1.163306 15.122976 3.489918 29.082647 9.306447 43.042318 18.612894 15.122976 8.143141 23.266118 31.409259 41.879011 31.409259h24.429424v89.574552h-23.266118c-8.143141 3.489918-12.796365 5.816529-18.612894 10.469753-23.266118 18.612894-63.981823 20.939506-91.901164 22.102812-22.102812 1.163306-105.860835 15.122976-119.820506 17.449588-18.612894 3.489918-24.429423-19.7762-4.653223-24.429423l76.778188-16.286282 2.326611-1.163306c1.163306-1.163306 1.163306-2.326612 0-2.326612-2.326612-2.326612-5.816529-2.326612-8.143141-2.326612 0 0-86.084635 8.143141-101.207611 9.306447-17.449588-1.163306-19.7762-24.429423-2.326612-27.919341zM587.614882 379.528543c0 10.469753-9.306447 19.7762-19.7762 19.7762-10.469753 0-19.7762-9.306447-19.7762-19.7762 0-10.469753 19.7762-38.389094 19.7762-38.389094s19.7762 27.919341 19.7762 38.389094z"  /></svg>