<?xml version="1.0" standalone="no"?><!DOCTYPE svg PUBLIC "-//W3C//DTD SVG 1.1//EN" "http://www.w3.org/Graphics/SVG/1.1/DTD/svg11.dtd"><svg t="1577678402641" class="icon" viewBox="0 0 1024 1024" version="1.1" xmlns="http://www.w3.org/2000/svg" p-id="7558" xmlns:xlink="http://www.w3.org/1999/xlink" width="200" height="200"><defs><style type="text/css"></style></defs><path d="M512 370.036364m-370.036364 0a370.036364 370.036364 0 1 0 740.072728 0 370.036364 370.036364 0 1 0-740.072728 0Z" fill="#00569E" p-id="7559"></path><path d="M167.563636 801.745455h690.036364V1024H167.563636z" fill="#00569E" p-id="7560"></path><path d="M240.872727 898.327273c-2.327273 19.781818-6.981818 37.236364-11.636363 52.363636l-9.309091-8.145454c4.654545-15.127273 8.145455-30.254545 10.472727-47.709091l10.472727 3.490909z m53.527273-30.254546c-9.309091 37.236364-20.945455 65.163636-38.4 83.781818 0 2.327273 1.163636 3.490909 4.654545 3.49091h15.127273c2.327273 0 3.490909-1.163636 4.654546-3.49091 1.163636-2.327273 2.327273-10.472727 2.327272-23.272727l9.309091 3.490909c-1.163636 17.454545-2.327273 26.763636-4.654545 30.254546-2.327273 3.490909-5.818182 4.654545-10.472727 4.654545H256c-5.818182 0-9.309091-2.327273-10.472727-6.981818-4.654545 4.654545-10.472727 8.145455-16.290909 11.636364l-5.818182-10.472728c6.981818-4.654545 13.963636-9.309091 20.945454-16.290909V884.363636h11.636364v48.872728c12.8-17.454545 22.109091-41.890909 29.090909-70.981819l9.309091 5.818182z m-38.4-9.309091c8.145455 8.145455 13.963636 15.127273 18.618182 22.109091l-6.981818 9.309091c-4.654545-6.981818-10.472727-15.127273-18.618182-23.272727l6.981818-8.145455z m41.890909 38.4c5.818182 13.963636 10.472727 30.254545 13.963636 46.545455l-9.30909 5.818182c-4.654545-18.618182-9.309091-33.745455-15.127273-47.709091l10.472727-4.654546zM356.072727 937.890909c-8.145455 12.8-18.618182 24.436364-31.418182 33.745455l-4.654545-12.8c11.636364-8.145455 22.109091-17.454545 30.254545-30.254546l5.818182 9.309091z m-2.327272-69.818182c-8.145455 9.309091-17.454545 17.454545-27.927273 24.436364l-4.654546-11.636364c10.472727-5.818182 19.781818-12.8 25.6-22.109091l6.981819 9.309091z m1.163636 33.745455c-8.145455 10.472727-17.454545 19.781818-29.090909 26.763636l-4.654546-11.636363c10.472727-5.818182 19.781818-13.963636 26.763637-23.272728l6.981818 8.145455z m22.109091 0h10.472727v22.109091c0 13.963636-3.490909 24.436364-8.145454 31.418182-4.654545 6.981818-12.8 12.8-24.436364 17.454545l-5.818182-11.636364c10.472727-3.490909 18.618182-8.145455 22.109091-13.963636 3.490909-5.818182 5.818182-13.963636 6.981818-23.272727v-22.109091z m-20.945455-39.563637h52.363637v12.8h-20.945455c0 4.654545-1.163636 6.981818-1.163636 9.309091h19.781818v60.509091H395.636364V896h-26.763637v48.872727h-10.472727V884.363636h17.454545c0-4.654545 1.163636-6.981818 1.163637-9.309091h-20.945455v-12.8z m36.072728 81.454546c6.981818 6.981818 12.8 12.8 17.454545 19.781818l-8.145455 9.309091c-4.654545-6.981818-9.309091-12.8-17.454545-20.945455l8.145455-8.145454zM423.563636 865.745455H442.181818v-6.981819h10.472727v6.981819h16.29091v10.472727h-16.29091v5.818182h20.945455v-23.272728h9.309091v23.272728h23.272727v10.472727h-23.272727c1.163636 12.8 1.163636 23.272727 2.327273 31.418182 0 1.163636 0 3.490909 1.163636 5.818182 2.327273-9.309091 4.654545-19.781818 6.981818-31.418182l8.145455 4.654545c-2.327273 17.454545-6.981818 32.581818-10.472728 43.054546 0 1.163636 1.163636 2.327273 1.163637 3.490909 2.327273 5.818182 3.490909 8.145455 4.654545 8.145454 1.163636 0 2.327273-5.818182 3.490909-17.454545l8.145455 5.818182c-2.327273 16.290909-5.818182 25.6-10.472727 25.6-3.490909 0-6.981818-3.490909-11.636364-11.636364 0-1.163636-1.163636-2.327273-1.163636-3.490909-3.490909 5.818182-6.981818 10.472727-10.472728 13.963636l-5.818181-10.472727c4.654545-4.654545 8.145455-9.309091 11.636363-16.290909-1.163636-4.654545-2.327273-11.636364-3.490909-18.618182-1.163636-9.309091-2.327273-20.945455-3.490909-33.745454H418.909091v-10.472728h23.272727v-5.818182h-18.618182v-9.30909z m0 30.254545h44.218182v31.418182h-9.309091v3.490909h10.472728v9.309091h-10.472728v4.654545h12.8v9.309091h-16.290909c5.818182 2.327273 10.472727 5.818182 13.963637 8.145455l-3.49091 9.309091c-4.654545-4.654545-10.472727-8.145455-16.290909-10.472728l3.490909-6.981818h-16.290909l4.654546 5.818182c-4.654545 4.654545-10.472727 8.145455-18.618182 11.636364l-3.490909-9.309091c5.818182-2.327273 11.636364-4.654545 15.127273-8.145455h-13.963637v-9.309091h12.8v-4.654545h-10.472727V930.909091h10.472727v-4.654546h-9.309091V896z m9.309091 11.636364h9.309091v-4.654546h-9.309091v4.654546z m9.309091 11.636363v-3.490909h-9.309091v3.490909h9.309091z m8.145455 11.636364v-4.654546H442.181818v4.654546h8.145455z m-8.145455 13.963636h8.145455v-4.654545H442.181818v4.654545z m8.145455-41.890909v4.654546h9.309091v-4.654546h-9.309091z m9.309091 16.290909v-3.490909h-9.309091v3.490909h9.309091z m32.581818-60.509091c4.654545 5.818182 8.145455 10.472727 10.472727 15.127273l-6.981818 5.818182c-2.327273-4.654545-5.818182-10.472727-10.472727-15.127273l6.981818-5.818182zM518.981818 862.254545h32.581818v10.472728c-2.327273 9.309091-5.818182 19.781818-9.309091 32.581818 5.818182 11.636364 9.309091 20.945455 9.309091 30.254545 0 5.818182-1.163636 10.472727-3.490909 12.8-3.490909 3.490909-8.145455 4.654545-15.127272 4.654546l-3.49091-12.8c2.327273 0 4.654545 1.163636 5.818182 1.163636 2.327273 0 4.654545-1.163636 4.654546-1.163636 1.163636-1.163636 1.163636-2.327273 1.163636-3.490909 0-8.145455-3.490909-17.454545-9.309091-27.927273 4.654545-12.8 8.145455-23.272727 10.472727-32.581818h-12.8v97.745454h-10.472727v-111.709091z m32.581818 13.963637h23.272728c-1.163636-5.818182-3.490909-10.472727-4.654546-15.127273l10.472727-2.327273c1.163636 4.654545 2.327273 10.472727 4.654546 17.454546H605.090909v12.8h-31.418182l-1.163636 18.618182h27.927273c0 29.090909-1.163636 46.545455-3.490909 53.527272-2.327273 8.145455-6.981818 11.636364-13.963637 12.8-2.327273 0-4.654545 0-6.981818-1.163636l-3.490909-11.636364h9.309091c3.490909 0 5.818182-2.327273 6.981818-8.145454 0-3.490909 1.163636-15.127273 1.163636-32.581818h-18.618181c-1.163636 9.309091-3.490909 17.454545-5.818182 25.6-3.490909 10.472727-9.309091 19.781818-16.290909 29.090909l-8.145455-9.309091c8.145455-10.472727 13.963636-20.945455 16.290909-29.090909 2.327273-9.309091 3.490909-18.618182 4.654546-30.254546v-16.290909h-12.8v-13.963636zM616.727273 971.636364l-2.327273-12.8c3.490909 0 5.818182 1.163636 8.145455 1.163636 2.327273 0 3.490909-1.163636 3.490909-4.654545V930.909091c-4.654545 2.327273-8.145455 3.490909-10.472728 4.654545l-2.327272-12.8c4.654545-1.163636 9.309091-2.327273 12.8-4.654545v-24.436364h-11.636364v-12.8h11.636364v-22.109091h10.472727v22.109091h9.309091v12.8h-9.309091v19.781818c2.327273-1.163636 5.818182-3.490909 10.472727-5.818181v12.8c-3.490909 2.327273-6.981818 3.490909-10.472727 5.818181v32.581819c0 8.145455-3.490909 12.8-10.472727 12.8H616.727273z m45.381818-54.690909c0 22.109091-4.654545 40.727273-12.8 55.854545l-8.145455-9.309091c6.981818-12.8 10.472727-30.254545 10.472728-51.2V872.727273h20.945454c-1.163636-4.654545-2.327273-8.145455-4.654545-12.8l10.472727-2.327273c1.163636 4.654545 2.327273 9.309091 3.490909 15.127273h20.945455v44.218182h-40.727273z m31.418182-31.418182h-31.418182v19.781818h31.418182v-19.781818zM737.745455 950.690909v22.109091h-9.309091v-84.945455h-3.490909v64h-8.145455v-75.636363h12.8v-18.618182h9.309091v18.618182h12.8v60.509091c0 9.309091-2.327273 12.8-8.145455 12.8h-5.818181z m0-62.836364v52.363637h1.163636c1.163636 0 2.327273-2.327273 2.327273-5.818182v-46.545455h-3.490909z m64-25.6v41.89091H791.272727v-30.254546h-27.927272v30.254546h-9.309091v-41.89091h47.709091z m-3.49091 46.545455v65.163636h-9.30909v-4.654545h-23.272728v4.654545H756.363636v-64h41.890909z m-32.581818-30.254545h23.272728v10.472727h-23.272728v-10.472727z m0 15.127272h23.272728v10.472728h-23.272728v-10.472728z m0 32.581818h23.272728V919.272727h-23.272728v6.981818z m0 16.29091h23.272728v-5.818182h-23.272728v5.818182z m0 15.127272h23.272728v-5.818182h-23.272728v5.818182z" fill="#FFFFFF" p-id="7561"></path><path d="M457.309091 643.490909l4.654545-19.781818c5.818182-27.927273 9.309091-58.181818 6.981819-68.654546-12.8 0-48.872727 9.309091-79.127273 18.618182l-6.981818 2.327273-5.818182-5.818182c-1.163636-1.163636-23.272727-26.763636-23.272727-62.836363 0-12.8-1.163636-19.781818-2.327273-23.272728-32.581818 1.163636-41.890909-4.654545-46.545455-10.472727-3.490909-3.490909-4.654545-8.145455-4.654545-12.8v-3.490909l2.327273-2.327273c26.763636-29.090909 44.218182-60.509091 40.727272-67.490909-18.618182-27.927273-11.636364-68.654545-8.145454-81.454545 29.090909-132.654545 161.745455-137.309091 162.909091-137.309091h1.163636l133.818182 26.763636v395.636364l-175.709091 52.363636z m11.636364-112.872727c13.963636 0 16.290909 4.654545 18.618181 6.981818 9.309091 12.8 5.818182 44.218182 1.163637 70.981818l119.854545-34.909091V216.436364l-110.545454-22.109091c-12.8 1.163636-114.036364 9.309091-138.472728 117.527272-4.654545 19.781818-4.654545 46.545455 4.654546 62.836364 13.963636 22.109091-11.636364 60.509091-32.581818 84.945455 5.818182 0 12.8 1.163636 24.436363 0h3.490909l3.490909 2.327272c6.981818 3.490909 13.963636 15.127273 13.963637 47.709091 0 17.454545 6.981818 31.418182 11.636363 39.563637 44.218182-15.127273 67.490909-18.618182 80.29091-18.618182z" fill="#FFFFFF" p-id="7562"></path><path d="M493.381818 139.636364s-89.6 11.636364-118.690909 69.818181c0 0 12.8 32.581818 37.236364 59.345455s212.945455 257.163636 231.563636 265.309091c17.454545 8.145455 60.509091 24.436364 76.8-55.854546s-5.818182-176.872727-23.272727-205.963636S666.763636 107.054545 493.381818 139.636364z" fill="#FFFFFF" p-id="7563"></path><path d="M529.454545 475.927273h-4.654545l3.490909-24.436364c5.818182 0 24.436364 0 27.927273-25.6l24.436363 2.327273c-2.327273 16.290909-8.145455 29.090909-18.618181 37.236363-11.636364 8.145455-25.6 10.472727-32.581819 10.472728z" fill="#FFFFFF" p-id="7564"></path></svg>