<?xml version="1.0" standalone="no"?><!DOCTYPE svg PUBLIC "-//W3C//DTD SVG 1.1//EN" "http://www.w3.org/Graphics/SVG/1.1/DTD/svg11.dtd"><svg t="1577678480712" class="icon" viewBox="0 0 1024 1024" version="1.1" xmlns="http://www.w3.org/2000/svg" p-id="9100" xmlns:xlink="http://www.w3.org/1999/xlink" width="200" height="200"><defs><style type="text/css"></style></defs><path d="M102.516331 648.252201L458.48793 30.536779c23.266118-40.715706 82.594717-40.715706 105.860835 0l357.134904 617.715422c23.266118 40.715706-5.816529 91.901164-53.51207 91.901165H154.865095c-46.532235 0-75.614882-51.185459-52.348764-91.901165z" fill="#FFF500" p-id="9101"></path><path d="M130.435672 649.415507L475.937518 50.312979c16.286282-27.919341 55.838682-27.919341 70.961658 0l345.501846 597.939222c16.286282 27.919341-3.489918 61.655212-36.062482 61.655212H166.498154c-31.409259 1.163306-51.185459-33.73587-36.062482-60.491906z" p-id="9102"></path><path d="M186.274354 651.742119L512 88.702073 837.725646 651.742119z" fill="#FFF500" p-id="9103"></path><path d="M193.254189 783.195683H860.991764V1024H193.254189z" p-id="9104"></path><path d="M207.21386 797.155354h640.981539v214.048281H207.21386z" fill="#FFFFFF" p-id="9105"></path><path d="M275.848907 880.913377h44.205623v-40.715706h15.122976v40.715706h44.205624v80.268106h-13.959671v-4.653224h-89.574552V942.568588h89.574552v-17.449588h-82.594717v-12.796364h82.594717v-17.449589h-89.574552v-13.95967z m12.796364-33.735871c6.979835 8.143141 11.633059 16.286282 16.286283 23.266118l-11.633059 8.143141c-3.489918-6.979835-9.306447-15.122976-16.286283-23.266117l11.633059-8.143142z m90.737859 4.653224c-3.489918 9.306447-9.306447 17.449588-15.122977 25.592729l-12.796364-6.979835c6.979835-9.306447 11.633059-17.449588 15.122976-25.592729l12.796365 6.979835zM425.915365 883.239989c-3.489918 24.429423-8.143141 45.368929-15.122976 62.818517l-11.633059-8.143141c6.979835-18.612894 11.633059-37.225788 13.95967-58.165294l12.796365 3.489918z m23.266118 75.614882c-10.469753 0-16.286282-5.816529-16.286283-16.286283v-75.614882h13.959671v72.124965c0 3.489918 2.326612 5.816529 6.979835 5.816529h23.266118c2.326612 0 4.653224-1.163306 4.653223-3.489917 1.163306-2.326612 2.326612-11.633059 2.326612-25.59273l12.796365 4.653224c-1.163306 18.612894-3.489918 30.245953-5.81653 33.73587-2.326612 3.489918-6.979835 4.653224-12.796364 4.653224h-29.082647z m6.979835-119.820506c11.633059 13.959671 20.939506 25.592729 26.756035 36.062482l-11.633059 8.143142c-6.979835-11.633059-16.286282-23.266118-26.756035-37.225788l11.633059-6.979836z m46.532235 37.225788c8.143141 17.449588 13.959671 37.225788 19.7762 58.165294l-12.796365 5.81653c-5.816529-22.102812-12.796365-41.879012-20.939506-59.3286l13.959671-4.653224zM579.471741 884.403295v72.124964h-12.796365v-5.816529h-9.306447v8.143141h-12.796364v-48.858847c-2.326612 2.326612-3.489918 5.816529-5.81653 9.306447l-8.143141-12.796365c9.306447-13.959671 15.122976-30.245953 18.612894-47.695541H535.266118v-12.796364h45.368929v12.796364h-17.449588c-1.163306 9.306447-3.489918 17.449588-6.979836 26.756035h23.266118z m-22.102812 53.51207h9.306447v-40.715706h-9.306447v40.715706z m36.062483-52.348765c2.326612 11.633059 4.653224 26.756035 5.816529 44.205624l-10.469753 1.163306c-2.326612-17.449588-4.653224-32.572565-6.979835-44.205624l11.633059-1.163306z m8.143141-9.306447h-17.449589v-12.796364h15.122977c-3.489918-6.979835-5.816529-12.796365-9.306447-18.612894l11.633059-5.81653c3.489918 5.816529 6.979835 12.796365 10.469753 20.939506l-8.143142 3.489918h20.939506l10.469753-24.429424 12.796365 4.653224c-2.326612 6.979835-5.816529 13.959671-9.306447 20.939506H651.596705v12.796364h-17.449588v68.635047h20.939506v13.959671h-72.124964v-13.959671h18.612894v-69.798353z m19.7762 0h-6.979836v68.635047h6.979836v-68.635047z m33.73587 10.469753c-2.326612 17.449588-5.816529 32.572565-8.143141 45.36893l-10.469753-3.489918c3.489918-11.633059 5.816529-26.756035 8.143141-44.205623l10.469753 2.326611zM670.2096 899.526271h58.165293c1.163306-6.979835 2.326612-12.796365 2.326612-20.939506v-39.5524H744.661176v39.5524c0 6.979835-1.163306 13.959671-2.326612 20.939506h44.205623v13.95967h-47.695541c-2.326612 8.143141-6.979835 13.959671-10.469753 19.7762-10.469753 12.796365-26.756035 22.102812-50.022152 29.082647l-8.143141-11.633058c23.266118-6.979835 39.5524-16.286282 47.695541-26.756036 2.326612-3.489918 4.653224-6.979835 5.816529-10.469753h-53.51207v-13.95967z m11.633058-32.572565c10.469753 4.653224 20.939506 10.469753 30.245953 16.286283l-8.143141 11.633058c-10.469753-8.143141-19.7762-13.959671-30.245953-17.449588l8.143141-10.469753z m15.122977-20.939505c9.306447 4.653224 18.612894 9.306447 25.592729 15.122976l-8.143141 11.633059c-8.143141-6.979835-16.286282-11.633059-25.592729-16.286283l8.143141-10.469752z m54.675376 75.614882c13.959671 10.469753 25.592729 20.939506 36.062482 30.245953l-10.469753 10.469752C767.927293 953.038341 756.294235 942.568588 741.171258 930.93553l10.469753-9.306447z" p-id="9106"></path><path d="M674.862823 572.637319c-2.326612-1.163306-3.489918-3.489918-4.653223-5.816529-1.163306-2.326612 0-8.143141 0-9.306447l-3.489918-13.959671c-2.326612-9.306447-4.653224-17.449588-6.979835-26.756035-2.326612-9.306447-6.979835-17.449588-12.796365-25.59273-5.816529-8.143141-10.469753-16.286282-17.449588-24.429423-12.796365-15.122976-27.919341-25.592729-48.858847-29.082647-8.143141-1.163306-17.449588-3.489918-25.592729-3.489918 0 0 1.163306 0 1.163305-1.163306 4.653224-2.326612 11.633059-4.653224 15.122977-9.306447l2.326612-3.489917s-20.939506 3.489918-26.756036 3.489917c-9.306447 1.163306-19.7762 1.163306-29.082647 2.326612-8.143141 0-17.449588 0-25.592729-1.163306 1.163306 0 1.163306-1.163306 2.326612-1.163306 4.653224-2.326612 10.469753-3.489918 15.122976-5.816529v-1.163306h-2.326612c-9.306447-3.489918-19.7762-2.326612-29.082646-2.326612-10.469753 0-18.612894 5.816529-26.756036 10.469753-8.143141 4.653224-12.796365 12.796365-18.612894 19.7762-2.326612 4.653224-6.979835 11.633059-6.979835 17.449588-4.653224-5.816529-4.653224-12.796365-6.979835-19.7762 0-1.163306-1.163306-1.163306-1.163306 0-1.163306 8.143141-1.163306 15.122976 3.489917 22.102812-3.489918-1.163306-6.979835-2.326612-9.306447-4.653223-5.816529-2.326612-17.449588-5.816529-22.102811-1.163306-1.163306 1.163306 0 2.326612 1.163306 1.163306 5.816529-2.326612 16.286282 3.489918 22.102811 5.816529 1.163306 0 2.326612 1.163306 3.489918 1.163306-4.653224 1.163306-9.306447 2.326612-15.122977 4.653223-2.326612 1.163306-5.816529 2.326612-8.143141 4.653224-2.326612 3.489918-6.979835 5.816529-10.469753 8.143141-3.489918 2.326612-5.816529 4.653224-8.143141 8.143141-1.163306 1.163306-2.326612 2.326612-3.489917 4.653224-1.163306 2.326612-2.326612 5.816529-4.653224 8.143141-3.489918 6.979835-4.653224 12.796365-4.653223 19.7762 1.163306 0 8.143141-8.143141 11.633058-10.469753l-3.489917 13.959671c-1.163306 12.796365-1.163306 23.266118 1.163306 36.062482 2.326612 11.633059 6.979835 23.266118 13.95967 33.73587 2.326612 2.326612 3.489918 5.816529 4.653224 9.306447 1.163306 2.326612 3.489918 5.816529 4.653223 8.143141 1.163306 1.163306 2.326612 3.489918 3.489918 4.653224 0 0 1.163306 1.163306 2.326612 1.163306 0 1.163306 1.163306 1.163306 1.163305 2.326612s1.163306 2.326612 1.163306 3.489917c2.326612 3.489918 4.653224 6.979835 6.979836 9.306447 0-6.979835 0-13.959671-1.163306-19.7762 0-1.163306-1.163306-2.326612-1.163306-4.653223v-20.939506-5.816529c0-6.979835 1.163306-12.796365 3.489918-18.612894 0-1.163306 1.163306-2.326612 1.163305-3.489918 0-1.163306 0-1.163306 1.163306-2.326612 3.489918-9.306447 8.143141-19.7762 15.122977-26.756035v-1.163306c2.326612-2.326612 4.653224-5.816529 6.979835-8.143141l2.326612-2.326612c6.979835 6.979835 16.286282 13.959671 24.429423 19.7762 6.979835 5.816529 16.286282 8.143141 25.59273 11.633059 6.979835 2.326612 12.796365 4.653224 19.776199 3.489918h1.163306c1.163306 0-16.286282-3.489918-18.612894-12.796365 4.653224 2.326612 8.143141 3.489918 12.796365 3.489917 9.306447 2.326612 19.7762 1.163306 29.082647 0 9.306447 0 19.7762-1.163306 27.919341-4.653223v-1.163306c-3.489918 0-39.5524 3.489918-52.348765-1.163306-2.326612 0-8.143141-2.326612-10.469752-3.489917 4.653224 0 13.959671 2.326612 18.612894 1.163305 4.653224-1.163306 11.633059-2.326612 17.449588-2.326611 4.653224 0 9.306447-2.326612 15.122976-3.489918 12.796365-2.326612 25.592729-5.816529 39.5524-5.816529 12.796365 0 22.102812 8.143141 30.245953 16.286282 8.143141 8.143141 15.122976 16.286282 17.449588 27.919341 2.326612 11.633059 2.326612 23.266118 2.326612 34.899176v3.489918c1.163306 8.143141 2.326612 16.286282 1.163306 24.429424 1.163306-1.163306 3.489918-2.326612 4.653223-4.653224 2.326612-3.489918 5.816529-6.979835 8.143141-10.469753 2.326612-2.326612 4.653224-6.979835 5.81653-9.306447 1.163306-3.489918 2.326612-9.306447 4.653223-12.796365 3.489918-5.816529 3.489918-15.122976 4.653224-22.102811 1.163306-3.489918 1.163306-6.979835 1.163306-10.469753l6.979835 3.489917c-1.163306 4.653224 1.163306 4.653224 0 4.653224z m-258.253905-27.919341l-3.489918 3.489917c1.163306-2.326612 2.326612-3.489918 3.489918-3.489917 0-1.163306 0-1.163306 0 0zM565.51207 323.689861H396.832718L407.302471 291.117296h133.780176zM401.485941 323.689861h79.1048v31.409259h-79.1048zM425.915365 355.09912h26.756035v46.532235h-26.756035z" p-id="9107"></path><path d="M409.629083 401.631355h132.61687V430.714002H409.629083zM612.044306 373.712014H663.229764v20.939505h-51.185458zM595.036774 404.597785l50.010519 10.935075-4.478727 20.474183-50.01052-10.958341zM583.322283 344.164044l45.671389-23.103254 9.457677 18.682692-45.671389 23.103255z" p-id="9108"></path></svg>