<?xml version="1.0" standalone="no"?><!DOCTYPE svg PUBLIC "-//W3C//DTD SVG 1.1//EN" "http://www.w3.org/Graphics/SVG/1.1/DTD/svg11.dtd"><svg t="1577681369347" class="icon" viewBox="0 0 1024 1024" version="1.1" xmlns="http://www.w3.org/2000/svg" p-id="11839" xmlns:xlink="http://www.w3.org/1999/xlink" width="200" height="200"><defs><style type="text/css"></style></defs><path d="M512 373.527273m-373.527273 0a373.527273 373.527273 0 1 0 747.054546 0 373.527273 373.527273 0 1 0-747.054546 0Z" fill="#FF090B" p-id="11840"></path><path d="M512 373.527273m-310.690909 0a310.690909 310.690909 0 1 0 621.381818 0 310.690909 310.690909 0 1 0-621.381818 0Z" fill="#FFFFFF" p-id="11841"></path><path d="M582.981818 264.145455c-3.490909-3.490909-6.981818-4.654545-10.472727-4.654546H465.454545c-4.654545 0-8.145455 1.163636-10.472727 4.654546-3.490909 3.490909-4.654545 6.981818-4.654545 10.472727v95.418182c0 8.145455 6.981818 15.127273 15.127272 15.127272 8.145455 0 15.127273-6.981818 15.127273-15.127272v-73.309091c0-1.163636 1.163636-3.490909 2.327273-4.654546 1.163636-1.163636 1.163636-1.163636 2.327273-1.163636v249.018182c0 8.145455 6.981818 15.127273 15.127272 15.127272 8.145455 0 15.127273-6.981818 15.127273-15.127272V396.8h4.654546v143.127273c0 8.145455 6.981818 15.127273 15.127272 15.127272 8.145455 0 15.127273-6.981818 15.127273-15.127272V290.909091c1.163636 0 1.163636 1.163636 2.327273 1.163636 1.163636 1.163636 2.327273 2.327273 2.327272 4.654546v73.309091c0 8.145455 6.981818 15.127273 15.127273 15.127272 8.145455 0 15.127273-6.981818 15.127273-15.127272v-95.418182c2.327273-3.490909 0-6.981818-2.327273-10.472727z m-64-16.29091c15.127273 0 27.927273-12.8 27.927273-27.927272 0-15.127273-12.8-27.927273-27.927273-27.927273s-26.763636 12.8-26.763636 27.927273c0 15.127273 11.636364 27.927273 26.763636 27.927272z" p-id="11842"></path><path d="M690.036364 559.709091h-22.109091V299.054545c0-83.781818-67.490909-151.272727-151.272728-151.272727s-151.272727 67.490909-151.272727 151.272727v260.654546h-22.109091V299.054545c0-95.418182 77.963636-173.381818 173.381818-173.381818s173.381818 77.963636 173.381819 173.381818v260.654546z" p-id="11843"></path><path d="M307.2 537.6h46.545455v22.109091h-46.545455zM673.745455 537.6h66.327272v22.109091h-66.327272z" p-id="11844"></path><path d="M285.405091 110.917818l488.750545 488.738909-35.374545 35.374546-488.750546-488.738909z" fill="#FF090B" p-id="11845"></path><path d="M201.309091 800.581818h621.381818V1024H201.309091z" fill="#FE0807" p-id="11846"></path><path d="M214.109091 812.218182h596.945454v198.981818H214.109091z" fill="#FFFFFF" p-id="11847"></path><path d="M313.018182 855.272727c-5.818182 6.981818-13.963636 13.963636-23.272727 18.618182h11.636363c1.163636 0 2.327273 0 3.490909-1.163636 1.163636-1.163636 1.163636-3.490909 1.163637-6.981818l6.981818 2.327272c-1.163636 5.818182-2.327273 9.309091-3.490909 10.472728-1.163636 1.163636-3.490909 1.163636-6.981818 1.163636h-16.29091c-2.327273 0-4.654545-1.163636-5.818181-2.327273-5.818182 2.327273-12.8 4.654545-18.618182 6.981818l-3.490909-6.981818c8.145455-2.327273 13.963636-4.654545 19.781818-6.981818v-13.963636h6.981818v10.472727c8.145455-4.654545 16.290909-10.472727 22.109091-17.454546l5.818182 5.818182z m11.636363-12.8v16.290909h-8.145454V849.454545H267.636364v9.309091h-8.145455v-16.290909h27.927273c-1.163636-1.163636-1.163636-3.490909-2.327273-4.654545l8.145455-1.163637c1.163636 2.327273 1.163636 3.490909 2.327272 5.818182h29.090909z m-46.545454 13.963637c-2.327273 6.981818-5.818182 12.8-10.472727 17.454545l-5.818182-3.490909c4.654545-4.654545 8.145455-10.472727 9.309091-15.127273l6.981818 1.163637z m11.636364 26.763636h8.145454V896h15.127273v-11.636364h8.145454v22.109091h-8.145454v-2.327272h-38.4v2.327272h-8.145455v-20.945454h8.145455v10.472727h15.127273v-12.8z m1.163636-32.581818c2.327273 3.490909 4.654545 5.818182 6.981818 8.145454l-5.818182 3.490909c-1.163636-2.327273-3.490909-5.818182-6.981818-8.145454l5.818182-3.490909z m24.436364 8.145454c4.654545 5.818182 9.309091 10.472727 11.636363 15.127273l-5.818182 4.654546c-2.327273-4.654545-5.818182-9.309091-10.472727-15.127273l4.654546-4.654546zM411.927273 849.454545h6.981818v57.018182h-8.145455V849.454545z m12.8-12.8c3.490909 3.490909 5.818182 8.145455 9.309091 12.8l-6.981819 3.49091c-2.327273-4.654545-5.818182-9.309091-9.30909-13.963637l6.981818-2.327273z m-1.163637 32.581819V861.090909h20.945455v-9.309091h8.145454v9.309091h9.309091v8.145455h-9.309091v24.436363c0 5.818182-2.327273 8.145455-6.981818 8.145455h-8.145454l-2.327273-6.981818h6.981818c1.163636 0 2.327273-1.163636 2.327273-3.490909v-13.963637c-4.654545 6.981818-11.636364 12.8-19.781818 17.454546l-4.654546-6.981819c10.472727-5.818182 18.618182-11.636364 22.109091-18.618181h-18.618182z m34.909091 36.072727l-2.327272-6.981818h6.981818c2.327273 0 2.327273-1.163636 2.327272-3.490909v-47.709091h-27.927272v-6.981818h34.909091v57.018181c0 5.818182-3.490909 8.145455-9.309091 8.145455h-4.654546zM593.454545 836.654545c1.163636 1.163636 1.163636 3.490909 2.327273 6.981819h27.927273v16.290909H616.727273v-9.309091h-48.872728v9.309091h-8.145454v-16.290909h27.927273c-1.163636-2.327273-2.327273-4.654545-3.490909-5.818182l9.30909-1.163637z m-26.763636 38.4h52.363636v6.981819h-22.10909v15.127272h27.927272v6.981819h-64v-6.981819h27.927273v-15.127272h-22.109091v-6.981819z m20.945455-15.127272c-5.818182 4.654545-12.8 9.309091-22.109091 12.8l-3.490909-6.981818c8.145455-3.490909 15.127273-6.981818 19.781818-11.636364l5.818182 5.818182z m11.636363-5.818182c8.145455 3.490909 15.127273 8.145455 20.945455 12.8l-3.490909 6.981818c-6.981818-5.818182-13.963636-10.472727-20.945455-12.8l3.490909-6.981818zM710.981818 849.454545h8.145455v57.018182h-8.145455V849.454545z m12.8-12.8c3.490909 3.490909 6.981818 8.145455 9.309091 12.8l-6.981818 3.49091c-2.327273-4.654545-5.818182-9.309091-9.309091-13.963637l6.981818-2.327273z m2.327273 20.945455H756.363636v36.072727h-30.254545v-36.072727z m6.981818 13.963636h16.290909v-8.145454H733.090909v8.145454z m16.290909 15.127273v-8.145454H733.090909v8.145454h16.290909z m8.145455 18.618182l-2.327273-6.981818h6.981818c2.327273 0 2.327273-1.163636 2.327273-3.490909v-47.709091h-27.927273v-6.981818h34.909091v57.018181c0 5.818182-3.490909 9.309091-9.309091 9.309091h-4.654545zM272.290909 932.072727h5.818182v46.545455h-5.818182v-11.636364h-13.963636v-4.654545h13.963636v-6.981818h-11.636364v-4.654546h11.636364v-5.818182h-12.8v-4.654545h12.8v-8.145455z m11.636364 0h5.818182v6.981818H302.545455v4.654546h-12.8v5.818182h11.636363v4.654545h-11.636363v6.981818H302.545455v4.654546h-13.963637v11.636363h-5.818182v-45.381818zM318.836364 977.454545l-1.163637-4.654545h3.490909c1.163636 0 1.163636 0 1.163637-1.163636v-10.472728l-4.654546 1.163637-1.163636-4.654546c1.163636 0 3.490909-1.163636 5.818182-1.163636v-10.472727h-4.654546v-4.654546h4.654546v-8.145454h4.654545v8.145454h4.654546v4.654546h-4.654546v8.145454c1.163636 0 2.327273-1.163636 3.490909-2.327273v4.654546c-1.163636 1.163636-2.327273 1.163636-3.490909 2.327273v13.963636c0 3.490909-1.163636 4.654545-4.654545 4.654545h-3.490909z m43.054545-30.254545v10.472727h-3.490909v2.327273c-1.163636 3.490909-3.490909 6.981818-6.981818 9.309091 3.490909 1.163636 6.981818 3.490909 11.636363 4.654545l-3.490909 4.654546c-4.654545-1.163636-9.309091-3.490909-12.8-5.818182-3.490909 2.327273-9.309091 4.654545-13.963636 5.818182l-2.327273-4.654546c4.654545-1.163636 9.309091-2.327273 12.8-4.654545-2.327273-2.327273-4.654545-5.818182-5.818182-9.309091h-2.327272v-2.327273h-2.327273v-10.472727h19.781818c1.163636-2.327273 3.490909-5.818182 4.654546-9.309091l4.654545 2.327273-3.490909 6.981818h3.490909z m0-10.472727c-6.981818 1.163636-16.290909 2.327273-27.927273 2.327272l-1.163636-4.654545c10.472727 0 19.781818 0 27.927273-1.163636l1.163636 3.490909z m-23.272727 2.327272c1.163636 2.327273 2.327273 4.654545 3.490909 5.818182l-4.654546 2.327273-3.490909-6.981818 4.654546-1.163637z m-2.327273 16.29091h19.781818v-3.49091h-19.781818v3.49091z m5.818182 4.654545c1.163636 2.327273 3.490909 4.654545 5.818182 5.818182 2.327273-2.327273 4.654545-3.490909 5.818182-5.818182h-11.636364z m4.654545-20.945455l3.490909 6.981819-4.654545 1.163636-3.490909-6.981818 4.654545-1.163637zM388.654545 978.618182H384v-23.272727c-1.163636 4.654545-3.490909 8.145455-5.818182 12.8l-2.327273-5.818182c3.490909-4.654545 6.981818-9.309091 8.145455-15.127273h-6.981818V942.545455h6.981818v-9.309091h4.654545v9.309091h6.981819v4.654545h-5.818182v2.327273l6.981818 6.981818-3.490909 4.654545c-1.163636-2.327273-3.490909-4.654545-4.654546-5.818181v23.272727z m9.309091-38.4H395.636364v-4.654546h23.272727v4.654546c-1.163636 9.309091-3.490909 16.290909-8.145455 23.272727 3.490909 4.654545 6.981818 8.145455 11.636364 11.636364l-3.490909 3.490909c-4.654545-3.490909-8.145455-6.981818-10.472727-11.636364-3.490909 4.654545-6.981818 8.145455-11.636364 11.636364l-3.490909-4.654546c4.654545-3.490909 9.309091-6.981818 12.8-11.636363-4.654545-6.981818-8.145455-13.963636-8.145455-22.109091z m4.654546 0c1.163636 6.981818 2.327273 12.8 5.818182 17.454545 3.490909-5.818182 4.654545-11.636364 5.818181-17.454545h-11.636363zM460.8 932.072727v11.636364c2.327273 12.8 10.472727 23.272727 20.945455 30.254545l-3.49091 4.654546c-9.309091-5.818182-16.290909-15.127273-19.781818-25.6-3.490909 10.472727-10.472727 18.618182-20.945454 25.6l-3.490909-4.654546c12.8-8.145455 19.781818-18.618182 20.945454-33.745454v-8.145455h5.818182zM520.145455 957.672727c-1.163636 6.981818-2.327273 12.8-4.654546 15.127273-2.327273 3.490909-8.145455 4.654545-18.618182 5.818182l-2.327272-4.654546c8.145455 0 12.8-2.327273 16.290909-4.654545 2.327273-2.327273 3.490909-6.981818 3.490909-12.8l5.818182 1.163636z m13.963636-6.981818v18.618182h-5.818182v-13.963636h-23.272727v15.127272H500.363636v-19.781818h33.745455z m-31.418182-17.454545h27.927273v13.963636h-27.927273v-13.963636z m23.272727 9.309091v-4.654546h-17.454545v4.654546h17.454545z m-4.654545 25.6c6.981818 1.163636 12.8 3.490909 17.454545 5.818181l-2.327272 4.654546-17.454546-6.981818 2.327273-3.490909zM555.054545 936.727273h8.145455v-3.490909h4.654545v3.490909h6.981819v4.654545h-6.981819l6.981819 3.490909-2.327273 4.654546c-1.163636-2.327273-2.327273-3.490909-3.490909-4.654546v6.981818h-4.654546v-6.981818c-2.327273 2.327273-3.490909 5.818182-5.818181 6.981818l-2.327273-4.654545c3.490909-2.327273 5.818182-4.654545 8.145454-6.981818h-6.981818v-3.490909z m12.8 32.581818c-2.327273 3.490909-5.818182 5.818182-9.30909 8.145454l-3.49091-4.654545c3.490909-2.327273 6.981818-4.654545 9.309091-8.145455l3.490909 4.654546z m-12.8-8.145455h41.89091v4.654546h-17.454546v8.145454c0 3.490909-1.163636 4.654545-4.654545 4.654546H570.181818l-1.163636-4.654546h3.490909c1.163636 0 1.163636 0 1.163636-1.163636V965.818182h-19.781818v-4.654546z m4.654546-8.145454H593.454545v4.654545h-33.745454v-4.654545z m17.454545-16.290909h6.981819v-3.490909h4.654545v3.490909h8.145455v4.654545h-6.981819c1.163636 2.327273 4.654545 4.654545 8.145455 6.981818l-3.490909 4.654546c-2.327273-2.327273-4.654545-5.818182-5.818182-8.145455v8.145455h-4.654545v-8.145455c-2.327273 3.490909-3.490909 5.818182-5.818182 8.145455l-2.327273-4.654546c3.490909-2.327273 5.818182-4.654545 6.981818-6.981818h-4.654545v-4.654545z m10.472728 30.254545l10.472727 6.981818-2.327273 4.654546c-3.490909-3.490909-6.981818-5.818182-10.472727-8.145455l2.327273-3.490909zM635.345455 933.236364h4.654545v15.127272h15.127273v4.654546H640v18.618182h17.454545v4.654545h-44.218181v-4.654545h8.145454v-30.254546h4.654546v30.254546h8.145454v-38.4zM684.218182 935.563636l4.654545-2.327272c4.654545 2.327273 8.145455 8.145455 10.472728 16.290909 4.654545 11.636364 10.472727 19.781818 18.618181 24.436363l-3.490909 3.490909c-8.145455-4.654545-13.963636-13.963636-19.781818-26.763636-3.490909 11.636364-10.472727 20.945455-19.781818 27.927273l-3.490909-4.654546c10.472727-6.981818 17.454545-16.290909 20.945454-29.090909-2.327273-4.654545-4.654545-6.981818-8.145454-9.309091zM743.563636 966.981818l-3.490909-4.654545c5.818182-3.490909 9.309091-8.145455 10.472728-13.963637 0-1.163636 1.163636-3.490909 1.163636-4.654545h-11.636364V977.454545h-4.654545v-38.4h18.618182v-6.981818h5.818181v6.981818h17.454546v32.581819c0 3.490909-2.327273 5.818182-5.818182 5.818181h-8.145454l-1.163637-4.654545h6.981818c1.163636 0 2.327273-1.163636 2.327273-2.327273v-25.6H756.363636c0 1.163636 0 3.490909-1.163636 4.654546l12.8 12.8-3.490909 3.490909c-2.327273-3.490909-5.818182-8.145455-10.472727-11.636364-2.327273 5.818182-5.818182 9.309091-10.472728 12.8z" fill="#FF090B" p-id="11848"></path></svg>