<?xml version="1.0" standalone="no"?><!DOCTYPE svg PUBLIC "-//W3C//DTD SVG 1.1//EN" "http://www.w3.org/Graphics/SVG/1.1/DTD/svg11.dtd"><svg t="1577678276756" class="icon" viewBox="0 0 1024 1024" version="1.1" xmlns="http://www.w3.org/2000/svg" p-id="6157" xmlns:xlink="http://www.w3.org/1999/xlink" width="200" height="200"><defs><style type="text/css"></style></defs><path d="M512 370.036364m-370.036364 0a370.036364 370.036364 0 1 0 740.072728 0 370.036364 370.036364 0 1 0-740.072728 0Z" fill="#00569E" p-id="6158"></path><path d="M167.563636 801.745455h690.036364V1024H167.563636z" fill="#00569E" p-id="6159"></path><path d="M231.563636 898.327273c-2.327273 19.781818-5.818182 37.236364-10.472727 52.363636l-8.145454-8.145454c4.654545-15.127273 8.145455-30.254545 9.30909-47.709091l9.309091 3.490909z m46.545455-30.254546c-8.145455 37.236364-18.618182 65.163636-33.745455 83.781818 0 2.327273 1.163636 3.490909 3.490909 3.49091h13.963637c2.327273 0 3.490909-1.163636 4.654545-3.49091 1.163636-2.327273 2.327273-10.472727 2.327273-23.272727l8.145455 3.490909c-1.163636 17.454545-2.327273 26.763636-4.654546 30.254546-2.327273 3.490909-4.654545 4.654545-9.309091 4.654545h-17.454545c-4.654545 0-8.145455-2.327273-9.309091-6.981818-4.654545 4.654545-9.309091 8.145455-13.963637 11.636364l-4.654545-10.472728c6.981818-4.654545 12.8-9.309091 18.618182-16.290909V884.363636h8.145454v48.872728c11.636364-17.454545 19.781818-41.890909 25.6-70.981819l8.145455 5.818182z m-33.745455-9.309091c6.981818 8.145455 12.8 15.127273 16.290909 22.109091l-5.818181 9.309091c-4.654545-6.981818-9.309091-15.127273-16.290909-23.272727l5.818181-8.145455z m37.236364 38.4c4.654545 13.963636 9.309091 30.254545 12.8 46.545455l-8.145455 4.654545c-3.490909-18.618182-8.145455-33.745455-12.8-47.709091l8.145455-3.490909zM332.8 937.890909c-8.145455 13.963636-16.290909 24.436364-27.927273 33.745455l-4.654545-12.8c10.472727-8.145455 19.781818-17.454545 25.6-30.254546l6.981818 9.309091z m-2.327273-69.818182c-6.981818 9.309091-15.127273 17.454545-24.436363 24.436364l-3.490909-11.636364c9.309091-5.818182 17.454545-12.8 23.272727-22.109091l4.654545 9.309091z m1.163637 33.745455c-6.981818 10.472727-15.127273 19.781818-25.6 26.763636l-3.490909-11.636363c9.309091-5.818182 17.454545-13.963636 23.272727-23.272728l5.818182 8.145455z m19.781818 0h9.309091v22.109091c0 13.963636-3.490909 24.436364-6.981818 31.418182-4.654545 6.981818-11.636364 12.8-22.109091 17.454545l-4.654546-11.636364c9.309091-3.490909 16.290909-8.145455 19.781818-13.963636 3.490909-5.818182 5.818182-13.963636 5.818182-23.272727v-22.109091z m-18.618182-39.563637h45.381818v12.8H360.727273c0 4.654545-1.163636 6.981818-1.163637 9.309091h16.290909v60.509091h-9.30909V896h-23.272728v48.872727h-9.309091V884.363636H349.090909c0-4.654545 1.163636-6.981818 1.163636-9.309091h-18.618181v-12.8z m31.418182 81.454546c5.818182 6.981818 11.636364 12.8 15.127273 19.781818l-6.981819 9.309091c-3.490909-6.981818-8.145455-12.8-15.127272-20.945455l6.981818-8.145454zM390.981818 865.745455H407.272727v-6.981819h9.309091v6.981819H430.545455v10.472727h-13.963637v5.818182h18.618182v-23.272728h8.145455v23.272728h19.781818v10.472727h-19.781818c0 12.8 1.163636 23.272727 2.327272 31.418182 0 1.163636 0 3.490909 1.163637 5.818182 2.327273-9.309091 4.654545-19.781818 5.818181-31.418182l6.981819 4.654545c-2.327273 17.454545-5.818182 32.581818-9.309091 43.054546 0 1.163636 1.163636 2.327273 1.163636 3.490909 2.327273 5.818182 3.490909 8.145455 4.654546 8.145454 1.163636 0 2.327273-5.818182 3.490909-17.454545l6.981818 5.818182c-2.327273 16.290909-4.654545 25.6-9.309091 25.6-3.490909 0-6.981818-3.490909-10.472727-11.636364 0-1.163636-1.163636-2.327273-1.163637-3.490909-3.490909 5.818182-5.818182 10.472727-9.309091 13.963636l-4.654545-10.472727c3.490909-4.654545 6.981818-9.309091 10.472727-16.290909-1.163636-4.654545-2.327273-11.636364-3.490909-18.618182-1.163636-9.309091-2.327273-20.945455-3.490909-33.745454h-47.709091v-10.472728H407.272727v-5.818182h-16.290909v-9.30909z m1.163637 30.254545H430.545455v31.418182h-8.145455v3.490909h9.309091v9.309091h-9.309091v4.654545h11.636364v9.309091H418.909091c4.654545 2.327273 9.309091 5.818182 12.8 8.145455l-3.490909 8.145454c-4.654545-4.654545-9.309091-8.145455-13.963637-10.472727l3.49091-6.981818h-13.963637l3.490909 5.818182c-4.654545 4.654545-9.309091 8.145455-16.290909 11.636363l-3.490909-9.309091c5.818182-2.327273 10.472727-4.654545 13.963636-8.145454h-12.8v-9.309091h10.472728v-4.654546h-9.309091V930.909091h9.309091v-4.654546h-8.145455V896z m6.981818 11.636364h8.145454v-4.654546h-8.145454v4.654546z m8.145454 11.636363v-3.490909h-8.145454v3.490909h8.145454z m6.981818 11.636364v-4.654546H407.272727v4.654546h6.981818z m-6.981818 13.963636h6.981818v-4.654545H407.272727v4.654545z m6.981818-41.890909v4.654546h8.145455v-4.654546h-8.145455z m9.309091 16.290909v-3.490909h-8.145454v3.490909h8.145454z m27.927273-60.509091c3.490909 5.818182 6.981818 10.472727 9.309091 15.127273l-5.818182 5.818182c-2.327273-4.654545-4.654545-10.472727-9.309091-15.127273l5.818182-5.818182zM474.763636 862.254545h29.090909v10.472728c-2.327273 9.309091-4.654545 19.781818-8.145454 32.581818 4.654545 11.636364 8.145455 20.945455 8.145454 30.254545 0 5.818182-1.163636 10.472727-2.327272 12.8-2.327273 3.490909-6.981818 4.654545-13.963637 4.654546l-3.490909-12.8c2.327273 0 3.490909 1.163636 4.654546 1.163636 2.327273 0 3.490909-1.163636 4.654545-1.163636 1.163636-1.163636 1.163636-2.327273 1.163637-3.490909 0-8.145455-2.327273-17.454545-8.145455-27.927273 3.490909-12.8 6.981818-23.272727 8.145455-32.581818h-10.472728v97.745454h-9.309091v-111.709091z m29.090909 13.963637H523.636364c-1.163636-5.818182-2.327273-10.472727-3.490909-15.127273l9.30909-2.327273c1.163636 4.654545 2.327273 10.472727 3.49091 17.454546h17.454545v12.8H523.636364l-1.163637 18.618182H546.909091c0 29.090909-1.163636 46.545455-2.327273 53.527272-2.327273 8.145455-5.818182 11.636364-12.8 12.8-2.327273 0-3.490909 0-6.981818-1.163636l-3.490909-11.636364h8.145454c3.490909 0 4.654545-2.327273 5.818182-8.145454 0-3.490909 1.163636-15.127273 1.163637-32.581818h-16.290909c-1.163636 9.309091-2.327273 17.454545-4.654546 25.6-3.490909 10.472727-8.145455 19.781818-13.963636 29.090909l-6.981818-9.309091c6.981818-10.472727 11.636364-20.945455 13.963636-29.090909 2.327273-9.309091 3.490909-18.618182 3.490909-30.254546v-16.290909h-10.472727v-13.963636zM560.872727 971.636364l-2.327272-11.636364c2.327273 0 4.654545 1.163636 6.981818 1.163636 2.327273 0 2.327273-1.163636 2.327272-4.654545V930.909091c-3.490909 2.327273-6.981818 3.490909-9.30909 4.654545l-2.327273-12.8c4.654545-1.163636 8.145455-2.327273 11.636363-4.654545v-24.436364h-10.472727v-12.8h10.472727v-22.109091h9.309091v22.109091h8.145455v12.8h-8.145455v19.781818c2.327273-1.163636 5.818182-3.490909 9.309091-5.818181v12.8c-3.490909 2.327273-5.818182 3.490909-9.309091 5.818181v32.581819c0 8.145455-3.490909 12.8-9.309091 12.8h-6.981818z m38.4-54.690909c0 22.109091-3.490909 40.727273-10.472727 55.854545l-6.981818-8.145455c5.818182-12.8 9.309091-30.254545 9.309091-51.2V872.727273h17.454545c-1.163636-4.654545-2.327273-8.145455-3.490909-12.8l9.309091-2.327273c1.163636 4.654545 2.327273 9.309091 3.490909 15.127273h17.454546v44.218182h-36.072728z m27.927273-31.418182h-27.927273v19.781818h27.927273v-19.781818zM716.8 870.4c-8.145455 2.327273-16.290909 4.654545-26.763636 6.981818v16.290909h26.763636v12.8h-26.763636v16.290909h32.581818v12.8h-32.581818v24.436364c0 8.145455-3.490909 12.8-9.309091 12.8h-12.8l-2.327273-12.8c4.654545 0 8.145455 1.163636 12.8 1.163636 2.327273 0 3.490909-1.163636 3.490909-3.490909v-20.945454h-36.072727v-12.8h36.072727V907.636364h-29.090909v-12.8h29.090909v-15.127273c-9.309091 1.163636-18.618182 1.163636-27.927273 1.163636l-2.327272-11.636363c24.436364 0 45.381818-2.327273 61.672727-8.145455l3.490909 9.309091zM786.618182 879.709091c5.818182 5.818182 13.963636 11.636364 24.436363 15.127273l-3.490909 11.636363c-5.818182-3.490909-11.636364-5.818182-15.127272-9.309091v3.490909h-34.909091v4.654546h39.563636v10.472727H756.363636v3.490909h39.563637v10.472728H756.363636v4.654545h51.2v11.636364h-15.127272c4.654545 6.981818 8.145455 13.963636 10.472727 23.272727l-8.145455 4.654545c-1.163636-3.490909-2.327273-6.981818-3.490909-8.145454-16.290909 3.490909-32.581818 5.818182-48.872727 5.818182l-2.327273-10.472728c3.490909 0 8.145455-5.818182 12.8-16.290909H733.090909v-11.636363h15.127273v-33.745455c-3.490909 2.327273-8.145455 4.654545-12.8 6.981818l-4.654546-11.636363c10.472727-4.654545 18.618182-9.309091 24.436364-16.290909h-20.945455v-11.636364h29.09091c1.163636-3.490909 2.327273-5.818182 3.490909-9.309091l8.145454 1.163636c0 2.327273-1.163636 4.654545-2.327273 6.981819h33.745455v11.636363h-19.781818z m-2.327273 67.490909l4.654546-2.327273h-24.436364c-2.327273 5.818182-5.818182 10.472727-8.145455 15.127273 10.472727-1.163636 20.945455-2.327273 31.418182-4.654545-1.163636-2.327273-2.327273-4.654545-3.490909-8.145455z m-1.163636-58.181818c-2.327273-3.490909-5.818182-6.981818-6.981818-10.472727H768l-6.981818 10.472727h22.109091z" fill="#FFFFFF" p-id="6160"></path><path d="M467.781818 253.672727c-10.472727 2.327273-17.454545 12.8-15.127273 23.272728l18.618182 80.290909-36.072727-116.363637c-3.490909-10.472727-13.963636-16.290909-24.436364-12.8-10.472727 3.490909-16.290909 13.963636-12.8 24.436364l34.909091 111.709091L384 243.2c-3.490909-10.472727-15.127273-15.127273-25.6-10.472727-10.472727 3.490909-15.127273 15.127273-10.472727 25.6L395.636364 379.345455 347.927273 279.272727c-4.654545-9.309091-16.290909-13.963636-25.6-9.309091-9.309091 4.654545-13.963636 16.290909-9.309091 25.6l57.018182 117.527273c0 1.163636 1.163636 1.163636 1.163636 1.163636l-1.163636 1.163637-36.072728-48.872727c-5.818182-8.145455-18.618182-10.472727-26.763636-3.49091-8.145455 5.818182-10.472727 18.618182-3.490909 26.763637l36.072727 48.872727 61.672727 84.945455 25.6 97.745454 147.781819-24.436363L518.981818 395.636364l-29.090909-128c-1.163636-10.472727-11.636364-16.290909-22.109091-13.963637z" fill="#FFFFFF" p-id="6161"></path><path d="M662.109091 548.072727h-1.163636l-144.29091-37.236363c-3.490909-1.163636-4.654545-3.490909-4.654545-6.981819l16.290909-97.745454-34.909091-160.581818c-1.163636-6.981818 0-13.963636 3.490909-19.781818s9.309091-9.309091 16.290909-11.636364c6.981818-1.163636 13.963636 0 19.781819 3.490909s9.309091 9.309091 11.636363 16.290909v1.163636l-2.327273-74.472727c0-6.981818 2.327273-12.8 6.981819-18.618182 4.654545-4.654545 10.472727-8.145455 17.454545-8.145454 9.309091 0 17.454545 4.654545 22.109091 11.636363v-6.981818c0-6.981818 3.490909-12.8 8.145455-17.454545 4.654545-4.654545 11.636364-6.981818 18.618181-6.981818 6.981818 0 12.8 3.490909 17.454546 8.145454 4.654545 4.654545 6.981818 11.636364 6.981818 18.618182v3.490909c4.654545-8.145455 13.963636-12.8 24.436364-11.636364 13.963636 1.163636 24.436364 13.963636 22.109091 27.927273l-2.327273 24.436364 3.490909-3.490909c5.818182-3.490909 12.8-4.654545 18.618182-3.490909 6.981818 1.163636 12.8 4.654545 16.290909 10.472727 3.490909 5.818182 4.654545 12.8 3.490909 19.781818l-25.6 128-32.581818 205.963636c0 1.163636-1.163636 3.490909-2.327273 4.654546-1.163636 0-2.327273 1.163636-3.490909 1.163636zM523.636364 499.2l132.654545 34.909091 31.418182-198.981818 25.6-129.163637c1.163636-3.490909 0-6.981818-2.327273-10.472727-2.327273-3.490909-4.654545-4.654545-8.145454-5.818182-3.490909-1.163636-6.981818 0-10.472728 2.327273-3.490909 2.327273-4.654545 4.654545-5.818181 8.145455l-16.29091 81.454545c-1.163636 3.490909-3.490909 5.818182-6.981818 4.654545-3.490909 0-5.818182-3.490909-4.654545-6.981818l13.963636-121.018182c1.163636-6.981818-4.654545-13.963636-11.636363-15.127272-8.145455-1.163636-13.963636 4.654545-15.127273 11.636363l-12.8 116.363637c0 2.327273-1.163636 3.490909-2.327273 4.654545-1.163636 1.163636-3.490909 1.163636-4.654545 1.163637-2.327273-1.163636-4.654545-3.490909-4.654546-5.818182l4.654546-131.490909c0-3.490909-1.163636-6.981818-3.490909-9.309091-2.327273-2.327273-5.818182-4.654545-9.309091-4.654546-3.490909 0-6.981818 1.163636-9.309091 3.490909-2.327273 2.327273-4.654545 5.818182-4.654546 9.309091L593.454545 269.963636c0 2.327273-1.163636 4.654545-3.490909 5.818182-2.327273 1.163636-4.654545 1.163636-5.818181 0-2.327273-1.163636-3.490909-3.490909-3.49091-4.654545l-3.490909-110.545455c0-6.981818-6.981818-13.963636-13.963636-12.8-3.490909 0-6.981818 1.163636-9.309091 4.654546s-3.490909 5.818182-3.490909 9.309091l5.818182 129.163636v1.163636c0 2.327273-1.163636 4.654545-3.490909 5.818182l-1.163637 1.163636c-1.163636 1.163636-3.490909 1.163636-5.818181 0s-3.490909-2.327273-3.49091-4.654545l-12.8-59.345455c-1.163636-3.490909-2.327273-5.818182-5.818181-8.145454-3.490909-2.327273-6.981818-2.327273-10.472728-1.163636-3.490909 1.163636-5.818182 2.327273-8.145454 5.818181-2.327273 3.490909-2.327273 6.981818-2.327273 10.472728l12.8 59.345454 22.109091 102.4v2.327273l-13.963636 93.090909z" fill="#FFFFFF" p-id="6162"></path></svg>