<?xml version="1.0" standalone="no"?><!DOCTYPE svg PUBLIC "-//W3C//DTD SVG 1.1//EN" "http://www.w3.org/Graphics/SVG/1.1/DTD/svg11.dtd"><svg t="1577678498348" class="icon" viewBox="0 0 1024 1024" version="1.1" xmlns="http://www.w3.org/2000/svg" p-id="9455" xmlns:xlink="http://www.w3.org/1999/xlink" width="200" height="200"><defs><style type="text/css"></style></defs><path d="M102.516331 648.252201L458.48793 30.536779c23.266118-40.715706 82.594717-40.715706 105.860835 0l357.134904 617.715422c23.266118 40.715706-5.816529 91.901164-53.51207 91.901165H154.865095c-46.532235 0-75.614882-51.185459-52.348764-91.901165z" fill="#FFF500" p-id="9456"></path><path d="M130.435672 649.415507L475.937518 50.312979c16.286282-27.919341 55.838682-27.919341 70.961658 0l345.501846 597.939222c16.286282 27.919341-3.489918 61.655212-36.062482 61.655212H166.498154c-31.409259 1.163306-51.185459-33.73587-36.062482-60.491906z" p-id="9457"></path><path d="M186.274354 651.742119L512 88.702073 837.725646 651.742119z" fill="#FFF500" p-id="9458"></path><path d="M193.254189 783.195683H860.991764V1024H193.254189z" p-id="9459"></path><path d="M207.21386 797.155354h640.981539v214.048281H207.21386z" fill="#FFFFFF" p-id="9460"></path><path d="M275.848907 880.913377h44.205623v-40.715706h15.122976v40.715706h44.205624v80.268106h-13.959671v-4.653224h-89.574552V942.568588h89.574552v-17.449588h-82.594717v-12.796364h82.594717v-17.449589h-89.574552v-13.95967z m12.796364-33.735871c6.979835 8.143141 11.633059 16.286282 16.286283 23.266118l-11.633059 8.143141c-3.489918-6.979835-9.306447-15.122976-16.286283-23.266117l11.633059-8.143142z m90.737859 4.653224c-3.489918 9.306447-9.306447 17.449588-15.122977 25.592729l-12.796364-6.979835c6.979835-9.306447 11.633059-17.449588 15.122976-25.592729l12.796365 6.979835zM425.915365 883.239989c-3.489918 24.429423-8.143141 45.368929-15.122976 62.818517l-11.633059-8.143141c6.979835-18.612894 11.633059-37.225788 13.95967-58.165294l12.796365 3.489918z m23.266118 75.614882c-10.469753 0-16.286282-5.816529-16.286283-16.286283v-75.614882h13.959671v72.124965c0 3.489918 2.326612 5.816529 6.979835 5.816529h23.266118c2.326612 0 4.653224-1.163306 4.653223-3.489917 1.163306-2.326612 2.326612-11.633059 2.326612-25.59273l12.796365 4.653224c-1.163306 18.612894-3.489918 30.245953-5.81653 33.73587-2.326612 3.489918-6.979835 4.653224-12.796364 4.653224h-29.082647z m6.979835-119.820506c11.633059 13.959671 20.939506 25.592729 26.756035 36.062482l-11.633059 8.143142c-6.979835-11.633059-16.286282-23.266118-26.756035-37.225788l11.633059-6.979836z m46.532235 37.225788c8.143141 17.449588 13.959671 37.225788 19.7762 58.165294l-12.796365 5.81653c-5.816529-22.102812-12.796365-41.879012-20.939506-59.3286l13.959671-4.653224zM542.245953 923.955694h44.205623v-10.469753h13.959671v10.469753h45.368929v12.796365h-45.368929v10.469753h52.348764v12.796365H534.102812v-12.796365h52.348764v-10.469753h-44.205623v-12.796365z m-3.489918-80.268105h40.715706v9.306447c-2.326612 5.816529-5.816529 11.633059-9.306447 17.449588 5.816529 5.816529 9.306447 11.633059 9.306447 16.286282 0 8.143141-3.489918 13.959671-9.306447 16.286283-3.489918 1.163306-6.979835 1.163306-12.796365 1.163305l-4.653223-11.633058c4.653224 0 8.143141 1.163306 10.469753 1.163306 3.489918 0 4.653224-2.326612 4.653223-5.81653s-3.489918-9.306447-10.469753-16.286282c3.489918-4.653224 6.979835-9.306447 9.306447-15.122977h-13.95967v61.655212h-12.796365v-74.451576z m81.431412-4.653224c0 8.143141 0 15.122976-1.163306 23.266118 6.979835 17.449588 18.612894 31.409259 34.899176 41.879011l-9.306447 10.469753c-12.796365-9.306447-23.266118-20.939506-30.245953-34.899176-4.653224 13.959671-15.122976 25.592729-31.409258 34.899176l-8.143142-10.469753c13.959671-8.143141 23.266118-17.449588 26.756036-27.919341 3.489918-9.306447 4.653224-22.102812 4.653223-36.062482h13.959671zM696.965635 925.119c-4.653224 12.796365-10.469753 24.429423-17.449588 36.062483l-13.959671-5.81653c6.979835-10.469753 12.796365-22.102812 18.612894-34.899176l12.796365 4.653223z m-19.7762-33.73587c8.143141 4.653224 15.122976 9.306447 22.102812 15.122976l-9.306448 9.306447c-4.653224-4.653224-12.796365-9.306447-22.102811-15.122976l9.306447-9.306447z m-8.143141-45.368929H698.128941v-6.979836h13.95967v6.979836h31.409259v-6.979836h13.95967v6.979836h29.082647v12.796364h-29.082647v8.143141h-13.95967v-8.143141h-31.409259v8.143141H698.128941v-8.143141h-29.082647v-12.796364z m12.796364 17.449588c8.143141 4.653224 15.122976 9.306447 20.939506 15.122976l-9.306447 9.306447c-5.816529-4.653224-12.796365-9.306447-22.102812-15.122976l10.469753-9.306447z m108.187447 50.022152l-8.143141 11.633059c-3.489918-1.163306-5.816529-1.163306-8.143141-2.326611v39.552399h-12.796365v-4.653223h-37.225788v4.653223h-12.796365v-38.389094c-1.163306 0-3.489918 1.163306-6.979835 2.326612l-8.143141-10.469753c13.959671-3.489918 25.592729-8.143141 36.062482-12.796364-3.489918-3.489918-8.143141-6.979835-10.469753-10.469753-4.653224 3.489918-9.306447 8.143141-15.122976 10.469753l-8.143141-9.306447c13.959671-8.143141 24.429423-17.449588 29.082647-30.245953l12.796364 2.326611c-1.163306 2.326612-2.326612 4.653224-3.489917 5.81653h37.225788v9.306447c-4.653224 8.143141-10.469753 15.122976-18.612894 20.939506 10.469753 5.816529 22.102812 9.306447 34.899176 11.633058z m-24.429423 6.979836c-8.143141-2.326612-15.122976-5.816529-20.939506-9.306447-5.816529 3.489918-12.796365 6.979835-20.939506 9.306447h41.879012z m-40.715706 25.592729h37.225788v-13.95967h-37.225788v13.95967z m4.653223-61.655211c4.653224 4.653224 9.306447 8.143141 15.122977 11.633058 5.816529-4.653224 11.633059-8.143141 15.122976-12.796364l-30.245953 1.163306z" p-id="9461"></path><path d="M513.163306 590.086907m-31.409259 0a31.409259 31.409259 0 1 0 62.818518 0 31.409259 31.409259 0 1 0-62.818518 0Z" p-id="9462"></path><path d="M382.873047 502.838966l45.36893-9.306447 15.122976 26.756035 6.979835 13.959671c3.489918 6.979835 10.469753 11.633059 18.612894 12.796365l74.451577 8.143141 37.225788 5.816529 22.102812 46.532235c4.653224 9.306447 15.122976 12.796365 23.266117 8.143141 9.306447-4.653224 12.796365-15.122976 8.143141-23.266117l-25.592729-52.348765c0-1.163306-1.163306-1.163306-1.163306-2.326611-2.326612-5.816529-6.979835-9.306447-12.796365-10.469753l-45.368929-6.979836 11.633059-61.655211 46.532235-6.979835c5.816529-1.163306 9.306447-4.653224 12.796365-9.306448 1.163306-1.163306 2.326612-2.326612 2.326612-4.653223l25.592729-65.145129c3.489918-9.306447-1.163306-19.7762-9.306447-23.266118-9.306447-3.489918-19.7762 1.163306-23.266118 9.306447l-23.266117 58.165294-82.594718 5.81653 9.306447-65.14513c0-3.489918 0-5.816529-1.163306-8.143141 0-1.163306-1.163306-3.489918-1.163305-4.653223l-31.409259-55.838683c-4.653224-8.143141-15.122976-11.633059-24.429424-6.979835-8.143141 4.653224-11.633059 15.122976-6.979835 24.429424l29.082647 52.348764-9.306447 63.981824v2.326611L465.467765 488.879296l-12.796365-23.266118c-3.489918-6.979835-11.633059-10.469753-19.7762-8.143141h-1.163306l-57.001988 11.633059c-9.306447 2.326612-15.122976 11.633059-13.95967 20.939506 3.489918 9.306447 12.796365 15.122976 22.102811 12.796364z" p-id="9463"></path><path d="M525.959671 172.460097h12.796364v116.330587h-12.796364zM499.203635 202.706049H512v70.961659h-12.796365zM683.005964 480.736155h12.796365v95.391082h-12.796365zM653.923317 447.000284h12.796365v95.391082h-12.796365zM338.667424 473.756319h12.796365v87.247941h-12.796365zM311.911389 519.125249h12.796364v66.308435h-12.796364z" p-id="9464"></path></svg>