<?xml version="1.0" standalone="no"?><!DOCTYPE svg PUBLIC "-//W3C//DTD SVG 1.1//EN" "http://www.w3.org/Graphics/SVG/1.1/DTD/svg11.dtd"><svg t="1577678249926" class="icon" viewBox="0 0 1024 1024" version="1.1" xmlns="http://www.w3.org/2000/svg" p-id="5672" xmlns:xlink="http://www.w3.org/1999/xlink" width="200" height="200"><defs><style type="text/css"></style></defs><path d="M102.516331 648.252201L458.48793 30.536779c23.266118-40.715706 82.594717-40.715706 105.860835 0l357.134904 617.715422c23.266118 40.715706-5.816529 91.901164-53.51207 91.901165H154.865095c-46.532235 0-75.614882-51.185459-52.348764-91.901165z" fill="#FFF500" p-id="5673"></path><path d="M130.435672 649.415507L475.937518 50.312979c16.286282-27.919341 55.838682-27.919341 70.961658 0l345.501846 597.939222c16.286282 27.919341-3.489918 61.655212-36.062482 61.655212H166.498154c-31.409259 1.163306-51.185459-33.73587-36.062482-60.491906z" p-id="5674"></path><path d="M186.274354 651.742119L512 88.702073 837.725646 651.742119z" fill="#FFF500" p-id="5675"></path><path d="M193.254189 783.195683H860.991764V1024H193.254189z" p-id="5676"></path><path d="M207.21386 797.155354h640.981539v214.048281H207.21386z" fill="#FFFFFF" p-id="5677"></path><path d="M472.4476 332.996308m-43.042317 0a43.042318 43.042318 0 1 0 86.084635 0 43.042318 43.042318 0 1 0-86.084635 0Z" p-id="5678"></path><path d="M364.260153 467.93979c0 73.28827 46.532235 132.61687 104.697529 132.61687s104.697529-59.3286 104.69753-132.61687c-24.429423-1.163306-104.697529 0-209.395059 0z m104.697529 112.84067c-24.429423 0-44.205623-19.7762-44.205623-44.205623s19.7762-44.205623 44.205623-44.205624c24.429423 0 44.205623 19.7762 44.205624 44.205624s-20.939506 44.205623-44.205624 44.205623zM493.387106 300.423743h102.370917v38.389094h-102.370917z" p-id="5679"></path><path d="M614.370917 360.915649l-29.082647-12.796365v-58.165294l29.082647-11.633058zM589.941494 452.816813c-6.979835-72.124964-58.165294-127.963647-120.983812-127.963646s-114.003976 55.838682-120.983811 127.963646h241.967623zM353.7904 467.93979c0 4.653224-1.163306 9.306447-1.163305 15.122976h232.661175c0-4.653224 0-10.469753-1.163306-15.122976H353.7904z" p-id="5680"></path><path d="M468.957682 536.574837m-9.306447 0a9.306447 9.306447 0 1 0 18.612895 0 9.306447 9.306447 0 1 0-18.612895 0Z" p-id="5681"></path><path d="M468.957682 507.49219m-9.306447 0a9.306447 9.306447 0 1 0 18.612895 0 9.306447 9.306447 0 1 0-18.612895 0Z" p-id="5682"></path><path d="M468.957682 565.657484m-9.306447 0a9.306447 9.306447 0 1 0 18.612895 0 9.306447 9.306447 0 1 0-18.612895 0Z" p-id="5683"></path><path d="M498.040329 536.574837m-9.306447 0a9.306447 9.306447 0 1 0 18.612894 0 9.306447 9.306447 0 1 0-18.612894 0Z" p-id="5684"></path><path d="M438.71173 536.574837m-9.306447 0a9.306447 9.306447 0 1 0 18.612894 0 9.306447 9.306447 0 1 0-18.612894 0Z" p-id="5685"></path><path d="M488.733882 516.798637m-9.306447 0a9.306447 9.306447 0 1 0 18.612894 0 9.306447 9.306447 0 1 0-18.612894 0Z" p-id="5686"></path><path d="M448.018177 557.514343m-9.306447 0a9.306447 9.306447 0 1 0 18.612894 0 9.306447 9.306447 0 1 0-18.612894 0Z" p-id="5687"></path><path d="M488.733882 557.514343m-9.306447 0a9.306447 9.306447 0 1 0 18.612894 0 9.306447 9.306447 0 1 0-18.612894 0Z" p-id="5688"></path><path d="M448.018177 516.798637m-9.306447 0a9.306447 9.306447 0 1 0 18.612894 0 9.306447 9.306447 0 1 0-18.612894 0Z" p-id="5689"></path><path d="M257.236012 825.074695c6.979835 10.469753 15.122976 18.612894 24.429424 24.429423l-3.489918 6.979835c-2.326612-2.326612-5.816529-3.489918-8.143141-5.816529v6.979835h-12.796365v11.633059h15.122977v8.143141h-15.122977v11.633059H279.338824v8.143141h-47.695541v-8.143141h20.939506v-11.633059h-15.122976v-8.143141h15.122976v-11.633059h-12.796365v-6.979835c-2.326612 2.326612-4.653224 4.653224-8.143141 5.816529l-2.326612-6.979835c9.306447-6.979835 17.449588-15.122976 24.429424-24.429423h3.489917z m12.796365 25.592729c-5.816529-4.653224-10.469753-10.469753-15.122976-17.449588-4.653224 5.816529-9.306447 11.633059-15.122977 17.449588h30.245953zM347.973871 828.564612v8.143141h-38.389094v22.102812c0 16.286282-2.326612 30.245953-6.979835 40.715706l-4.653224-5.816529c3.489918-8.143141 5.816529-19.7762 5.81653-34.899177v-30.245953h44.205623zM366.586765 865.7904h23.266118c-1.163306-1.163306-1.163306-3.489918-2.326612-4.653223l5.816529-2.326612 3.489918 6.979835h20.939506v6.979836h-6.979835l3.489917 4.653223c-2.326612 3.489918-4.653224 5.816529-6.979835 8.143141 3.489918 3.489918 6.979835 5.816529 11.633059 6.979836l-3.489918 6.979835c-10.469753-4.653224-17.449588-13.959671-22.102812-26.756035-2.326612 3.489918-4.653224 5.816529-8.143141 9.306447v8.143141c3.489918-1.163306 6.979835-2.326612 10.469753-4.653224l1.163306 6.979836c-4.653224 2.326612-11.633059 3.489918-18.612894 5.816529l-1.163306-6.979835c1.163306-1.163306 2.326612-2.326612 2.326612-3.489918v-2.326612c-2.326612 2.326612-5.816529 3.489918-9.306447 4.653224l-3.489918-5.816529c8.143141-3.489918 15.122976-6.979835 18.612894-11.633059h-18.612894v-6.979836z m12.796365-39.552399h5.816529v37.225788h-5.816529v-9.306447l-10.469753 6.979835-2.326612-6.979835c4.653224-2.326612 9.306447-4.653224 12.796365-6.979836V826.238001z m-9.306447 2.326611c3.489918 2.326612 5.816529 4.653224 8.143141 6.979836l-2.326612 6.979835c-2.326612-3.489918-5.816529-5.816529-9.306447-6.979835l3.489918-6.979836z m18.612894 5.81653h11.633059V826.238001h5.816529v8.143141h11.633059v6.979835h-11.633059v9.306447h9.306447v6.979835h-24.429423v-6.979835h9.306447v-9.306447h-11.633059v-6.979835z m8.143141 38.389094c1.163306 3.489918 3.489918 5.816529 4.653223 8.143141 2.326612-2.326612 4.653224-5.816529 6.979836-8.143141h-11.633059zM472.4476 883.239989h-20.939506v16.286282h-5.816529V861.137177c-2.326612 4.653224-5.816529 8.143141-9.306447 12.796365l-3.489918-6.979836c5.816529-6.979835 11.633059-15.122976 15.122977-24.429423h-13.959671v-8.143141h16.286282c1.163306-2.326612 1.163306-5.816529 2.326612-8.143141l5.81653 1.163305c-1.163306 3.489918-1.163306 5.816529-1.163306 6.979836h26.756035v8.143141h-29.082647c-1.163306 2.326612-2.326612 4.653224-2.326612 6.979835h25.59273v43.042318c0 4.653224-2.326612 6.979835-5.81653 6.979835h-5.816529l-1.163306-8.143141h5.816529c1.163306 0 2.326612-1.163306 2.326612-2.326612v-5.816529z m-19.7762-26.756036v6.979836h20.939506v-6.979836h-20.939506z m19.7762 12.796365h-20.939506v5.816529h20.939506v-5.816529zM509.673388 869.280318c-1.163306 2.326612-3.489918 4.653224-5.816529 8.143141l-2.326612-9.306447c6.979835-8.143141 11.633059-16.286282 13.959671-24.429423h-12.796365v-8.143141h8.143141c-1.163306-3.489918-2.326612-5.816529-2.326612-8.143142l5.81653-2.326611c1.163306 4.653224 2.326612 8.143141 2.326612 10.469753h5.816529v6.979835c-1.163306 5.816529-3.489918 11.633059-5.816529 16.286282 3.489918 2.326612 5.816529 5.816529 8.143141 8.143141l-3.489918 6.979836c-1.163306-2.326612-3.489918-4.653224-4.653223-6.979836v31.409259h-5.81653v-29.082647z m33.735871 29.082647c-3.489918 0-5.816529-2.326612-5.81653-8.143141v-10.469753c-1.163306 2.326612-1.163306 4.653224-1.163306 5.816529-2.326612 6.979835-6.979835 11.633059-12.796364 15.122977l-3.489918-6.979835c5.816529-3.489918 9.306447-8.143141 11.633059-13.959671 2.326612-5.816529 3.489918-13.959671 3.489918-23.266118v-15.122976h5.816529v15.122976c0 6.979835-1.163306 12.796365-1.163306 17.449589h4.653224v15.122976c0 1.163306 0 2.326612 1.163305 2.326612h1.163306s1.163306 0 1.163306-1.163306 0-3.489918 1.163306-8.143141l5.81653 2.326612c0 6.979835-1.163306 11.633059-2.326612 12.796364-1.163306 1.163306-2.326612 2.326612-4.653224 2.326612h-4.653223z m6.979835-69.798353v45.36893h-5.816529v-37.225789h-13.959671v37.225789h-5.816529v-45.36893h25.592729zM579.471741 865.7904c-1.163306 6.979835-2.326612 12.796365-4.653224 17.449589l-4.653223-5.81653c2.326612-3.489918 3.489918-9.306447 4.653223-15.122976l4.653224 3.489917zM581.798353 826.238001h5.816529v8.143141h5.81653v8.143141h-6.979836v6.979835h6.979836v8.143141h-23.266118V849.504118h2.326612v-16.286282h5.816529V849.504118h3.489918v-23.266117z m13.95967 37.225788c-2.326612 18.612894-9.306447 30.245953-22.102811 36.062482l-3.489918-8.143141c5.816529-2.326612 10.469753-6.979835 13.95967-11.633059H581.798353v-20.939506h5.816529v17.449588c2.326612-3.489918 3.489918-8.143141 3.489918-13.95967l4.653223 1.163306z m9.306447-9.306447h5.81653v13.95967c0 8.143141-1.163306 16.286282-3.489918 20.939506-2.326612 4.653224-5.816529 8.143141-11.633059 11.633059l-3.489917-6.979835c4.653224-2.326612 8.143141-5.816529 10.469753-9.306447 1.163306-3.489918 2.326612-9.306447 2.326611-16.286283v-13.95967z m-9.306447-25.59273h26.756036v8.143141h-10.469753v6.979836h9.306447v39.5524h-5.81653v-31.409259h-12.796364v31.409259h-5.81653v-39.5524h8.143141v-6.979836h-10.469753v-8.143141z m17.449588 52.348765c3.489918 4.653224 6.979835 8.143141 9.306448 12.796365l-4.653224 5.816529c-2.326612-4.653224-4.653224-9.306447-9.306447-13.959671l4.653223-4.653223zM685.332576 868.117012v22.102812h5.816529v6.979835H639.963647v-6.979835h5.816529v-22.102812h39.5524z m-43.042318-38.389094h5.81653v33.735871h-5.81653v-33.735871z m8.143142 60.491906h5.816529v-15.122977h-5.816529v15.122977z m3.489917-65.145129h5.81653v39.5524h-5.81653v-39.5524z m17.449588 17.449588c-2.326612 5.816529-3.489918 11.633059-6.979835 15.122976l-3.489917-6.979835c3.489918-6.979835 5.816529-15.122976 8.143141-26.756035l5.816529 2.326612c0 2.326612-1.163306 4.653224-1.163306 8.143141h15.122977v8.143141h-17.449589z m-9.306447 47.695541h5.81653v-15.122977h-5.81653v15.122977z m15.122977-44.205623l6.979835 13.95967-4.653223 4.653224c-1.163306-4.653224-3.489918-9.306447-6.979836-13.959671l4.653224-4.653223z m-3.489918 44.205623h5.81653v-15.122977h-5.81653v15.122977zM708.598694 899.526271l-1.163306-8.143141h4.653223c1.163306 0 2.326612-1.163306 2.326612-2.326612V872.770236c-2.326612 1.163306-3.489918 2.326612-5.816529 2.326611l-1.163306-8.143141 6.979835-3.489917v-16.286283h-5.816529v-8.143141h5.816529V826.238001h5.816529v13.95967h3.489918v8.143141h-3.489918V861.137177c1.163306-1.163306 2.326612-1.163306 4.653224-3.489918v8.143141c-1.163306 1.163306-2.326612 2.326612-4.653224 2.326612v22.102812c0 5.816529-2.326612 8.143141-5.816529 8.143141h-5.816529z m30.245952-24.429424h-11.633058v-8.143141H756.294235v8.143141h-11.633059v15.122977h13.95967v8.143141h-34.899176v-8.143141h13.959671v-15.122977z m3.489918-50.022152c1.163306 3.489918 2.326612 6.979835 2.326612 9.306447h12.796364v16.286282h-5.816529v-9.306447h-20.939506v9.306447h-5.816529v-16.286282h12.796365c-1.163306-2.326612-1.163306-4.653224-2.326612-6.979836l6.979835-2.326611z m-2.326612 22.102811c-2.326612 8.143141-5.816529 13.959671-9.306447 17.449589l-4.653223-5.81653c3.489918-3.489918 6.979835-9.306447 8.143141-15.122976l5.816529 3.489917z m8.143141-2.326611c3.489918 4.653224 5.816529 10.469753 9.306447 16.286282l-4.653223 3.489918c-2.326612-6.979835-5.816529-12.796365-8.143141-17.449589l3.489917-2.326611zM803.989776 828.564612h18.612894V849.504118h-6.979836c1.163306 2.326612 2.326612 4.653224 2.326612 5.81653h8.143141v6.979835h-12.796364c3.489918 3.489918 8.143141 6.979835 13.95967 9.306447l-2.326612 6.979835-2.326611-1.163306v23.266118h-4.653224v-3.489918h-8.143141v3.489918H802.82647V872.770236h12.796364c-3.489918-3.489918-6.979835-6.979835-9.306447-10.469753h-9.306447c-2.326612 4.653224-5.816529 8.143141-10.469753 10.469753h11.633059v26.756035h-4.653223V896.036353h-8.143141v3.489918h-4.653224v-23.266118l-3.489918 1.163306-2.326611-6.979835c5.816529-2.326612 10.469753-5.816529 13.95967-9.306447h-12.796364v-6.979835h18.612894c1.163306-1.163306 1.163306-3.489918 2.326611-5.81653l5.81653 1.163306c0 1.163306-1.163306 3.489918-1.163306 4.653224h11.633059c-1.163306-2.326612-1.163306-3.489918-2.326612-4.653224h3.489918-10.469753v-20.939506z m-23.266118 0h18.612894V849.504118h-18.612894v-20.939506z m12.796365 13.959671v-6.979835h-8.143141v6.979835h8.143141z m-6.979836 47.695541h8.143142v-9.306447h-8.143142v9.306447z m22.102812 0h8.143141v-9.306447h-8.143141v9.306447z m8.143141-47.695541v-6.979835h-8.143141v6.979835h8.143141zM229.316671 929.772224h12.796365v32.572564c1.163306-1.163306 2.326612-3.489918 4.653224-5.816529l1.163305 9.306447c-3.489918 4.653224-6.979835 9.306447-10.469752 12.796365l-2.326612-6.979836c1.163306-1.163306 1.163306-2.326612 1.163306-4.653223v-27.919341h-6.979836v-9.306447z m8.143142-23.266118c3.489918 3.489918 6.979835 8.143141 9.306447 11.633059l-3.489918 5.816529c-2.326612-3.489918-4.653224-6.979835-9.306447-11.633058l3.489918-5.81653z m23.266117-1.163306h5.81653v4.653224H279.338824v6.979835h-12.796364v3.489918h11.633058v6.979835h-11.633058v3.489918h15.122976v6.979835h-34.899176V930.93553h13.95967v-3.489918h-10.469753v-6.979835h10.469753v-3.489918h-12.796365v-6.979835h12.796365v-4.653224z m-4.653223 62.818518v12.796364h-5.81653v-39.552399h26.756035v31.409258c0 4.653224-2.326612 8.143141-5.816529 8.143141H267.705765l-1.163305-6.979835h4.653223c1.163306 0 1.163306-1.163306 1.163306-2.326612v-2.326611H256.072707z m15.122976-17.449588v-3.489918H256.072707v3.489918h15.122976z m-15.122976 6.979835v3.489918h16.286282v-3.489918H256.072707zM324.707753 925.119c3.489918 3.489918 6.979835 8.143141 9.306448 11.633059l-4.653224 5.816529c-2.326612-3.489918-5.816529-8.143141-9.306447-11.633058l4.653223-5.81653z m10.469753 25.59273c-2.326612 10.469753-4.653224 19.7762-8.143141 27.919341l-5.816529-3.489918c3.489918-8.143141 5.816529-17.449588 9.306447-27.919341l4.653223 3.489918z m-9.306447-44.205624c3.489918 3.489918 6.979835 8.143141 9.306447 11.633059l-4.653223 5.816529c-2.326612-3.489918-5.816529-8.143141-9.306447-11.633058l4.653223-5.81653z m11.633059 11.633059h13.959671l-3.489918-10.469753 5.816529-2.326612c1.163306 4.653224 2.326612 9.306447 3.489918 12.796365h13.959671v8.143141h-13.959671V942.568588h11.633059v8.143142h-11.633059v18.612894H372.403295v8.143141h-36.062483v-8.143141h15.122977v-18.612894h-12.796365V942.568588h12.796365v-16.286282H337.504118v-8.143141zM422.425447 961.181483c-1.163306 5.816529-3.489918 11.633059-5.816529 16.286282l-4.653224-4.653224c2.326612-4.653224 3.489918-9.306447 4.653224-13.95967l5.816529 2.326612z m1.163306-44.205624h-8.143141v-6.979835h18.612894c0-1.163306-1.163306-2.326612-1.163306-3.489918l5.81653-1.163306c0 1.163306 1.163306 2.326612 1.163306 4.653224h19.776199v6.979835h-9.306447l-1.163305 4.653224h12.796364v6.979835h-48.858847v-6.979835h12.796365l-2.326612-4.653224z m-5.816529 13.959671h38.389094v25.592729h-17.449588c2.326612 3.489918 3.489918 5.816529 4.653223 8.143141l-4.653223 4.653224c-1.163306-2.326612-3.489918-5.816529-4.653224-8.143141l4.653224-4.653224h-20.939506V930.93553z m5.816529 10.469753h26.756035v-3.489918h-26.756035v3.489918z m26.756035 9.306447v-3.489918h-26.756035v3.489918h26.756035z m-18.612894 27.919341c-4.653224 0-6.979835-2.326612-6.979835-8.143141v-10.469753h5.816529v8.143141c0 2.326612 1.163306 3.489918 2.326612 3.489917h10.469753c1.163306 0 1.163306 0 2.326612-1.163305 0-1.163306 1.163306-2.326612 1.163306-5.81653l5.816529 2.326612c0 5.816529-1.163306 9.306447-2.326612 10.469753-1.163306 1.163306-2.326612 1.163306-4.653223 1.163306h-13.959671z m0-57.001988h11.633059l1.163306-4.653224H430.568588l1.163306 4.653224z m24.429424 36.062482c3.489918 5.816529 5.816529 10.469753 6.979835 13.95967l-4.653223 4.653224c-1.163306-4.653224-3.489918-9.306447-6.979836-13.959671l4.653224-4.653223zM508.510082 939.078671c-2.326612 3.489918-3.489918 5.816529-4.653223 8.143141l-2.326612-9.306447c5.816529-9.306447 10.469753-19.7762 12.796365-31.409259l5.816529 3.489918c-1.163306 5.816529-3.489918 11.633059-5.816529 17.449588v53.51207h-5.81653v-41.879011z m18.612894-16.286282c-1.163306 5.816529-3.489918 11.633059-5.816529 16.286282l-4.653223-4.653224c4.653224-9.306447 6.979835-18.612894 9.306447-27.919341l5.816529 1.163306c0 2.326612-1.163306 4.653224-1.163306 6.979835h23.266118v5.81653l-3.489918 13.95967-5.816529-2.326611c1.163306-2.326612 2.326612-5.816529 2.326611-9.306447h-19.7762z m2.326612 17.449588c-2.326612 10.469753-4.653224 20.939506-6.979835 29.082647l-5.816529-2.326612c3.489918-6.979835 5.816529-16.286282 8.143141-27.919341l4.653223 1.163306z m-3.489917 39.5524l-1.163306-8.143142h6.979835c1.163306 0 2.326612-1.163306 2.326612-3.489917v-40.715706h5.816529v43.042318c0 5.816529-2.326612 8.143141-5.816529 8.143141h-8.143141z m20.939505-41.879012c2.326612 9.306447 4.653224 19.7762 6.979836 30.245953l-4.653224 3.489917c-2.326612-11.633059-4.653224-22.102812-6.979835-30.245952l4.653223-3.489918zM614.370917 919.302471v55.838682h-5.816529v-3.489918h-8.143141v5.81653h-5.81653v-58.165294h5.81653c1.163306-4.653224 1.163306-8.143141 2.326612-12.796365l5.816529 1.163306c-1.163306 4.653224-1.163306 8.143141-2.326612 11.633059h8.143141z m-13.95967 20.939506h8.143141v-13.959671h-8.143141v13.959671z m0 23.266117h8.143141v-15.122976h-8.143141v15.122976z m43.042317-44.205623c0 27.919341 0 45.368929-1.163306 52.348764 0 5.816529-3.489918 8.143141-8.143141 8.143142H628.330588l-1.163306-8.143142h6.979835c2.326612 0 3.489918-1.163306 3.489918-4.653223 0-3.489918 0-16.286282 1.163306-39.5524h-13.959671c-1.163306 4.653224-3.489918 9.306447-5.816529 12.796365l-3.489918-6.979836c3.489918-6.979835 5.816529-16.286282 6.979836-27.919341l5.816529 1.163306c0 4.653224-1.163306 8.143141-2.326612 12.796365h17.449588z m-18.612894 18.612894c3.489918 6.979835 5.816529 11.633059 8.143141 17.449588l-4.653223 4.653224c-2.326612-4.653224-4.653224-10.469753-8.143141-17.449589l4.653223-4.653223zM685.332576 914.649247h22.102812c-1.163306-2.326612-1.163306-4.653224-2.326612-6.979835l5.816529-2.326612c1.163306 3.489918 2.326612 6.979835 2.326612 9.306447h22.102812v8.143142h-51.185459v-8.143142z m44.205623 38.389094v27.919341h-5.816529V977.467765h-27.919341v3.489917h-5.81653v-27.919341h39.5524z m-37.225788-25.592729h37.225788v6.979835h-37.225788v-6.979835z m0 12.796365h37.225788v6.979835h-37.225788v-6.979835z m3.489918 29.082647h27.919341v-9.306447h-27.919341v9.306447zM792.356717 909.996024c-3.489918 8.143141-8.143141 16.286282-15.122977 23.266117l-2.326611-8.143141c5.816529-5.816529 9.306447-11.633059 11.633058-18.612894l5.81653 3.489918z m2.326612 18.612894c-1.163306 4.653224-3.489918 8.143141-5.81653 11.633059v39.5524h-5.816529v-31.409259c-2.326612 2.326612-3.489918 4.653224-5.81653 6.979835l-2.326611-8.143141c5.816529-5.816529 10.469753-13.959671 13.95967-22.102812l5.81653 3.489918z m0 1.163306H826.092587v8.143141h-8.143141v33.73587c0 5.816529-2.326612 8.143141-5.816529 8.143142h-8.143141l-1.163306-8.143142h6.979835c1.163306 0 2.326612-1.163306 2.326612-2.326611v-31.409259h-16.286283v-8.143141z m2.326611-19.7762h27.919341v8.143141h-27.919341v-8.143141z" p-id="5690"></path></svg>