<?xml version="1.0" standalone="no"?><!DOCTYPE svg PUBLIC "-//W3C//DTD SVG 1.1//EN" "http://www.w3.org/Graphics/SVG/1.1/DTD/svg11.dtd"><svg t="1577681383549" class="icon" viewBox="0 0 1024 1024" version="1.1" xmlns="http://www.w3.org/2000/svg" p-id="12083" xmlns:xlink="http://www.w3.org/1999/xlink" width="200" height="200"><defs><style type="text/css"></style></defs><path d="M512 373.527273m-373.527273 0a373.527273 373.527273 0 1 0 747.054546 0 373.527273 373.527273 0 1 0-747.054546 0Z" fill="#FF090B" p-id="12084"></path><path d="M512 373.527273m-310.690909 0a310.690909 310.690909 0 1 0 621.381818 0 310.690909 310.690909 0 1 0-621.381818 0Z" fill="#FFFFFF" p-id="12085"></path><path d="M603.927273 173.381818m-36.072728 0a36.072727 36.072727 0 1 0 72.145455 0 36.072727 36.072727 0 1 0-72.145455 0Z" p-id="12086"></path><path d="M728.436364 310.690909L624.872727 267.636364c-9.309091-3.490909-13.963636-15.127273-10.472727-24.436364l3.490909-8.145455c3.490909-9.309091 15.127273-13.963636 24.436364-10.472727l103.563636 43.054546c9.309091 3.490909 13.963636 15.127273 10.472727 24.436363l-3.490909 8.145455c-3.490909 9.309091-15.127273 13.963636-24.436363 10.472727z" p-id="12087"></path><path d="M713.309091 372.363636l-1.163636-88.436363c0-10.472727 8.145455-18.618182 18.618181-18.618182h8.145455c10.472727 0 18.618182 8.145455 18.618182 18.618182l1.163636 88.436363c0 10.472727-8.145455 18.618182-18.618182 18.618182h-8.145454c-9.309091 0-18.618182-8.145455-18.618182-18.618182zM485.236364 595.781818l-2.327273-98.909091c0-10.472727 8.145455-18.618182 18.618182-18.618182h8.145454c10.472727 0 18.618182 8.145455 18.618182 18.618182l2.327273 98.909091c0 10.472727-8.145455 18.618182-18.618182 18.618182h-8.145455c-10.472727 0-18.618182-9.309091-18.618181-18.618182zM619.054545 614.4l5.818182-204.8c0-10.472727 9.309091-18.618182 18.618182-17.454545h8.145455c10.472727 0 18.618182 9.309091 17.454545 18.618181L664.436364 616.727273c0 10.472727-9.309091 18.618182-18.618182 17.454545h-8.145455c-11.636364 0-19.781818-9.309091-18.618182-19.781818zM635.345455 267.636364l-154.763637 109.381818c-8.145455 5.818182-19.781818 3.490909-25.6-4.654546l-4.654545-6.981818c-5.818182-8.145455-3.490909-19.781818 4.654545-25.6l154.763637-109.381818c8.145455-5.818182 19.781818-3.490909 25.6 4.654545l4.654545 6.981819c5.818182 6.981818 3.490909 19.781818-4.654545 25.6z" p-id="12088"></path><path d="M615.563636 410.763636l-95.418181 104.727273c-6.981818 6.981818-18.618182 8.145455-26.763637 1.163636l-5.818182-4.654545c-6.981818-6.981818-8.145455-18.618182-1.163636-26.763636l95.418182-104.727273c6.981818-6.981818 18.618182-8.145455 26.763636-1.163636l6.981818 5.818181c5.818182 6.981818 6.981818 18.618182 0 25.6z" p-id="12089"></path><path d="M574.836364 295.563636v133.818182l94.254545 43.054546 30.254546-223.418182-64-27.927273c-10.472727-4.654545-22.109091-2.327273-31.418182 4.654546l-43.054546 37.236363 13.963637 32.581818z" p-id="12090"></path><path d="M368.872727 349.090909h41.890909v19.781818h-41.890909zM374.690909 195.490909h122.181818v88.436364H374.690909z" p-id="12091"></path><path d="M545.745455 571.345455V144.290909H331.636364V570.181818h-16.290909v23.272727H560.872727v-23.272727h-15.127272z m-190.836364 0V167.563636h167.563636v403.781819H354.909091z" p-id="12092"></path><path d="M285.405091 110.917818l488.750545 488.738909-35.374545 35.374546-488.750546-488.738909z" fill="#FF090B" p-id="12093"></path><path d="M201.309091 800.581818h621.381818V1024H201.309091z" fill="#FE0807" p-id="12094"></path><path d="M214.109091 812.218182h596.945454v198.981818H214.109091z" fill="#FFFFFF" p-id="12095"></path><path d="M272.290909 861.090909h19.781818v-9.309091h12.8v9.309091h17.454546v11.636364h-17.454546c5.818182 3.490909 10.472727 5.818182 16.290909 10.472727l-6.981818 10.472727c-3.490909-4.654545-6.981818-8.145455-9.309091-11.636363v18.618181h-12.8v-18.618181c-4.654545 6.981818-9.309091 12.8-15.127272 18.618181l-6.981819-10.472727c8.145455-4.654545 15.127273-10.472727 19.781819-17.454545h-17.454546v-11.636364z m31.418182 84.945455c-6.981818 8.145455-15.127273 15.127273-24.436364 22.109091l-8.145454-10.472728c9.309091-5.818182 17.454545-11.636364 23.272727-18.618182l9.309091 6.981819z m-31.418182-23.272728h105.890909v11.636364h-44.218182v20.945455c0 6.981818-4.654545 11.636364-12.8 11.636363h-11.636363l-2.327273-11.636363c3.490909 0 6.981818 1.163636 10.472727 1.163636 2.327273 0 3.490909-1.163636 3.490909-3.490909v-18.618182h-47.709091v-11.636364z m11.636364-18.618181h84.945454v11.636363h-84.945454v-11.636363z m44.218182-43.054546h16.290909v-9.309091h12.8v9.309091h20.945454v11.636364h-16.290909c4.654545 5.818182 10.472727 11.636364 19.781818 17.454545l-9.309091 10.472727c-6.981818-5.818182-11.636364-12.8-15.127272-20.945454v20.945454h-12.8v-20.945454c-4.654545 8.145455-9.309091 15.127273-15.127273 20.945454l-6.981818-10.472727c6.981818-4.654545 12.8-10.472727 18.618182-17.454545h-12.8v-11.636364z m24.436363 76.8c9.309091 4.654545 17.454545 11.636364 25.6 18.618182l-6.981818 11.636364c-8.145455-8.145455-16.290909-15.127273-25.6-19.781819l6.981818-10.472727zM449.163636 852.945455h12.8v38.4h37.236364v12.8h-37.236364v45.381818h44.218182v12.8h-111.709091v-12.8h19.781818v-75.636364h12.8v75.636364h22.109091v-96.581818zM546.909091 858.763636l10.472727-6.981818c10.472727 6.981818 19.781818 20.945455 27.927273 41.890909 11.636364 29.090909 26.763636 48.872727 45.381818 61.672728l-8.145454 10.472727c-19.781818-11.636364-36.072727-33.745455-48.872728-67.490909v-1.163637c-8.145455 29.090909-25.6 52.363636-50.036363 68.654546l-8.145455-11.636364c25.6-17.454545 43.054545-40.727273 51.2-72.145454-5.818182-10.472727-11.636364-17.454545-19.781818-23.272728zM671.418182 939.054545l-8.145455-10.472727c12.8-9.309091 22.109091-20.945455 25.6-33.745454 1.163636-3.490909 2.327273-8.145455 2.327273-11.636364h-30.254545v83.781818h-12.8v-96.581818h45.381818c0-5.818182 1.163636-12.8 1.163636-18.618182h12.8c0 6.981818 0 12.8-1.163636 18.618182h43.054545v80.290909c0 9.309091-4.654545 15.127273-12.8 15.127273h-19.781818l-3.490909-12.8 18.618182 1.163636c3.490909 0 4.654545-1.163636 4.654545-4.654545V884.363636h-31.418182c-1.163636 3.490909-1.163636 8.145455-2.327272 11.636364 11.636364 10.472727 22.109091 22.109091 31.418181 33.745455l-10.472727 10.472727c-5.818182-9.309091-13.963636-19.781818-24.436363-30.254546-5.818182 10.472727-15.127273 20.945455-27.927273 29.090909z" fill="#FF090B" p-id="12096"></path></svg>