<?xml version="1.0" standalone="no"?><!DOCTYPE svg PUBLIC "-//W3C//DTD SVG 1.1//EN" "http://www.w3.org/Graphics/SVG/1.1/DTD/svg11.dtd"><svg t="1577678513962" class="icon" viewBox="0 0 1024 1024" version="1.1" xmlns="http://www.w3.org/2000/svg" p-id="9814" xmlns:xlink="http://www.w3.org/1999/xlink" width="200" height="200"><defs><style type="text/css"></style></defs><path d="M102.516331 648.252201L458.48793 30.536779c23.266118-40.715706 82.594717-40.715706 105.860835 0l357.134904 617.715422c23.266118 40.715706-5.816529 91.901164-53.51207 91.901165H154.865095c-46.532235 0-75.614882-51.185459-52.348764-91.901165z" fill="#FFF500" p-id="9815"></path><path d="M130.435672 649.415507L475.937518 50.312979c16.286282-27.919341 55.838682-27.919341 70.961658 0l345.501846 597.939222c16.286282 27.919341-3.489918 61.655212-36.062482 61.655212H166.498154c-31.409259 1.163306-51.185459-33.73587-36.062482-60.491906z" p-id="9816"></path><path d="M186.274354 651.742119L512 88.702073 837.725646 651.742119z" fill="#FFF500" p-id="9817"></path><path d="M193.254189 783.195683H860.991764V1024H193.254189z" p-id="9818"></path><path d="M207.21386 797.155354h640.981539v214.048281H207.21386z" fill="#FFFFFF" p-id="9819"></path><path d="M275.848907 880.913377h44.205623v-40.715706h15.122976v40.715706h44.205624v80.268106h-13.959671v-4.653224h-89.574552V942.568588h89.574552v-18.612894h-82.594717v-12.796364h82.594717v-17.449588h-89.574552v-12.796365z m12.796364-33.735871c6.979835 8.143141 11.633059 16.286282 16.286283 23.266118l-11.633059 8.143141c-3.489918-6.979835-9.306447-15.122976-16.286283-23.266117l11.633059-8.143142z m90.737859 4.653224c-3.489918 9.306447-9.306447 17.449588-15.122977 25.592729l-12.796364-6.979835c6.979835-9.306447 11.633059-17.449588 15.122976-25.592729l12.796365 6.979835zM425.915365 883.239989c-3.489918 24.429423-8.143141 45.368929-15.122976 62.818517l-11.633059-8.143141c6.979835-18.612894 11.633059-37.225788 13.95967-58.165294l12.796365 3.489918z m23.266118 75.614882c-10.469753 0-16.286282-5.816529-16.286283-16.286283v-75.614882h13.959671v72.124965c0 3.489918 2.326612 5.816529 6.979835 5.816529h23.266118c2.326612 0 4.653224-1.163306 4.653223-3.489917 1.163306-2.326612 2.326612-11.633059 2.326612-25.59273l12.796365 4.653224c-1.163306 18.612894-3.489918 30.245953-5.81653 33.73587-2.326612 3.489918-6.979835 4.653224-12.796364 4.653224h-29.082647z m6.979835-119.820506c11.633059 13.959671 20.939506 25.592729 26.756035 36.062482l-11.633059 8.143142c-6.979835-11.633059-16.286282-23.266118-26.756035-37.225788l11.633059-6.979836z m46.532235 37.225788c8.143141 17.449588 13.959671 37.225788 19.7762 58.165294l-12.796365 5.81653c-5.816529-22.102812-12.796365-41.879012-20.939506-59.3286l13.959671-4.653224zM537.592729 856.483953h18.612894v-16.286282H570.165294v16.286282h18.612894v12.796365H570.165294V884.403295h17.449588v12.796364h-15.122976v15.122977h16.286282v12.796364h-16.286282v19.7762h1.163306c8.143141 2.326612 25.592729 3.489918 53.51207 3.489918 11.633059 0 20.939506 0 26.756035-1.163306l-2.326612 13.959671h-20.939505c-34.899176 0-55.838682-2.326612-65.14513-5.81653-6.979835-3.489918-12.796365-8.143141-17.449588-13.95967-1.163306 6.979835-3.489918 15.122976-6.979835 22.102811l-9.306447-9.306447c5.816529-15.122976 8.143141-32.572565 9.306447-50.022153l11.633059 1.163306c0 8.143141-1.163306 13.959671-1.163306 19.7762 2.326612 3.489918 4.653224 6.979835 8.143141 10.469753v-38.389094h-23.266118V884.403295h19.7762v-16.286283h-18.612894v-11.633059z m54.675377 1.163306v-12.796364h58.165294c0 24.429423-1.163306 38.389094-3.489918 43.042317-2.326612 4.653224-6.979835 6.979835-12.796365 6.979835-2.326612 0-5.816529 0-10.469753-1.163305l-3.489917-12.796365 10.469753 1.163306c2.326612 0 4.653224-1.163306 4.653223-4.653224 1.163306-2.326612 1.163306-9.306447 1.163306-20.939506h-16.286282c-1.163306 8.143141-3.489918 15.122976-6.979836 20.939506-2.326612 6.979835-8.143141 13.959671-15.122976 18.612894l-9.306447-11.633058c5.816529-3.489918 10.469753-8.143141 13.959671-12.796365 2.326612-3.489918 4.653224-8.143141 5.816529-13.959671h-16.286282z m3.489917 41.879012h53.512071V942.568588h-53.512071v-43.042317z m40.715706 31.409259v-19.7762h-27.919341V930.93553h27.919341zM785.376882 843.687589v12.796364h-95.391083v30.245953c0 31.409259-5.816529 57.001988-13.95967 75.614882l-11.633059-8.143141c6.979835-16.286282 10.469753-38.389094 10.469753-66.308435v-44.205623h110.514059z m-89.574553 45.368929h34.899176v-24.429423H744.661176v24.429423h37.225788v13.959671H744.661176v41.879011h44.205623v13.959671h-101.207611v-13.959671h43.042317v-41.879011h-34.899176v-13.959671z m67.471741 18.612894c8.143141 10.469753 12.796365 19.7762 17.449588 26.756035l-11.633059 8.143141c-3.489918-8.143141-9.306447-17.449588-16.286282-27.919341l10.469753-6.979835z" p-id="9820"></path><path d="M624.84067 635.455836H396.832718V514.472025c0-12.796365 10.469753-23.266118 23.266118-23.266118h182.639023c12.796365 0 23.266118 10.469753 23.266117 23.266118v120.983811z" p-id="9821"></path><path d="M516.653224 501.67566h-11.633059v-88.411246h-115.167282v-10.469753h126.800341z" p-id="9822"></path><path d="M524.796365 479.572849h-13.959671v-24.429424h13.959671c5.816529 0 10.469753 4.653224 10.469753 10.469753v3.489918c0 5.816529-4.653224 10.469753-10.469753 10.469753zM458.48793 336.486226h10.469752V407.447884h-10.469752z" p-id="9823"></path><path d="M444.528259 353.935814h37.225788V372.548708h-37.225788zM460.814541 342.302755c-25.592729 0-45.368929-20.939506-45.368929-45.368929s20.939506-45.368929 45.368929-45.36893 45.368929 20.939506 45.36893 45.36893-19.7762 45.368929-45.36893 45.368929z m0-87.247941c-22.102812 0-40.715706 18.612894-40.715705 40.715706s18.612894 40.715706 40.715705 40.715706 40.715706-18.612894 40.715706-40.715706-18.612894-40.715706-40.715706-40.715706z" p-id="9824"></path><path d="M459.651235 301.587049c-1.163306 0-1.163306 0 0 0-1.163306 0-2.326612-1.163306-2.326611-2.326612v-38.389094c0-1.163306 1.163306-2.326612 2.326611-2.326611s2.326612 1.163306 2.326612 2.326611v34.899177l17.449588-13.959671c1.163306-1.163306 2.326612 0 2.326612 0 1.163306 1.163306 0 2.326612 0 2.326612l-20.939506 16.286282-1.163306 1.163306zM555.042318 464.449872l-3.489918-4.653223c3.489918-2.326612 4.653224-5.816529 4.653223-9.306447 0-6.979835-5.816529-11.633059-11.633058-11.633059v-5.81653c9.306447 0 17.449588 8.143141 17.449588 17.449589 1.163306 4.653224-2.326612 10.469753-6.979835 13.95967zM577.145129 472.593013l-3.489917-4.653223c6.979835-4.653224 10.469753-12.796365 10.469752-20.939506 0-15.122976-11.633059-26.756035-26.756035-26.756035v-5.81653c18.612894 0 32.572565 15.122976 32.572565 32.572565 1.163306 9.306447-4.653224 18.612894-12.796365 25.592729z" p-id="9825"></path><path d="M599.247941 478.409543l-3.489918-4.653224c10.469753-8.143141 17.449588-20.939506 17.449588-33.73587 0-23.266118-18.612894-41.879012-41.879011-41.879012v-5.816529c26.756035 0 47.695541 22.102812 47.695541 47.695541 0 15.122976-8.143141 29.082647-19.7762 38.389094z" p-id="9826"></path><path d="M621.350753 491.205907l-3.489918-4.653223c17.449588-12.796365 26.756035-32.572565 26.756035-52.348765 0-36.062482-29.082647-65.145129-65.145129-65.145129v-5.816529c39.5524 0 72.124964 32.572565 72.124964 72.124964-1.163306 20.939506-11.633059 43.042318-30.245952 55.838682zM674.862823 535.411531c-8.143141 1.163306-16.286282-3.489918-17.449588-11.633059-1.163306-8.143141 6.979835-27.919341 8.143141-30.245953l1.163306-2.326612 2.326612 2.326612c2.326612 1.163306 17.449588 17.449588 18.612894 24.429424 1.163306 6.979835-3.489918 15.122976-12.796365 17.449588z m-6.979835-37.225788c-3.489918 6.979835-8.143141 19.7762-6.979835 24.429423 1.163306 5.816529 6.979835 10.469753 12.796364 9.306447 5.816529-1.163306 10.469753-6.979835 9.306447-12.796364 0-5.816529-9.306447-16.286282-15.122976-20.939506zM679.516047 591.250213c-8.143141 1.163306-16.286282-3.489918-17.449589-11.633059-1.163306-8.143141 6.979835-27.919341 8.143142-30.245953l1.163305-2.326611 2.326612 2.326611c2.326612 1.163306 17.449588 17.449588 18.612894 24.429424 1.163306 8.143141-4.653224 16.286282-12.796364 17.449588z m-6.979836-37.225788c-3.489918 6.979835-8.143141 19.7762-6.979835 24.429423 1.163306 5.816529 6.979835 10.469753 12.796365 9.306447 5.816529-1.163306 10.469753-6.979835 9.306447-12.796364-1.163306-5.816529-10.469753-15.122976-15.122977-20.939506zM716.741835 584.270378c-8.143141 1.163306-16.286282-3.489918-17.449588-11.633059-1.163306-8.143141 6.979835-27.919341 8.143141-30.245953l1.163306-2.326612 2.326611 2.326612c2.326612 1.163306 17.449588 17.449588 18.612894 24.429424 0 8.143141-4.653224 16.286282-12.796364 17.449588z m-8.143141-37.225788c-3.489918 6.979835-8.143141 19.7762-6.979836 24.429423 1.163306 5.816529 6.979835 10.469753 12.796365 9.306447 5.816529-1.163306 10.469753-6.979835 9.306447-12.796365 0-5.816529-9.306447-15.122976-15.122976-20.939505zM709.761999 524.941778c-8.143141 1.163306-16.286282-3.489918-17.449588-11.633059-1.163306-8.143141 6.979835-27.919341 8.143141-30.245953l1.163306-2.326611 2.326612 2.326611c2.326612 1.163306 17.449588 17.449588 18.612894 24.429424 1.163306 6.979835-4.653224 15.122976-12.796365 17.449588z m-6.979835-38.389094c-3.489918 6.979835-8.143141 19.7762-6.979835 24.429423 1.163306 5.816529 6.979835 10.469753 12.796365 9.306447 5.816529-1.163306 10.469753-6.979835 9.306447-12.796364-1.163306-4.653224-9.306447-15.122976-15.122977-20.939506z" p-id="9827"></path></svg>