<?xml version="1.0" standalone="no"?><!DOCTYPE svg PUBLIC "-//W3C//DTD SVG 1.1//EN" "http://www.w3.org/Graphics/SVG/1.1/DTD/svg11.dtd"><svg t="1577678409479" class="icon" viewBox="0 0 1024 1024" version="1.1" xmlns="http://www.w3.org/2000/svg" p-id="7674" xmlns:xlink="http://www.w3.org/1999/xlink" width="200" height="200"><defs><style type="text/css"></style></defs><path d="M512 370.036364m-370.036364 0a370.036364 370.036364 0 1 0 740.072728 0 370.036364 370.036364 0 1 0-740.072728 0Z" fill="#00569E" p-id="7675"></path><path d="M167.563636 801.745455h690.036364V1024H167.563636z" fill="#00569E" p-id="7676"></path><path d="M280.436364 889.018182c8.145455 5.818182 15.127273 12.8 19.781818 18.618182l-9.309091 9.309091c-4.654545-5.818182-11.636364-11.636364-19.781818-18.618182l9.309091-9.309091z m23.272727 39.563636c-5.818182 15.127273-11.636364 30.254545-18.618182 43.054546l-12.8-5.818182c6.981818-12.8 13.963636-27.927273 19.781818-43.054546l11.636364 5.818182z m-20.945455-68.654545c8.145455 5.818182 15.127273 11.636364 20.945455 18.618182l-9.309091 9.30909c-4.654545-5.818182-11.636364-11.636364-22.109091-18.618181l10.472727-9.309091z m24.436364 18.618182h31.418182c-2.327273-5.818182-4.654545-10.472727-6.981818-16.29091l11.636363-3.490909c3.490909 8.145455 5.818182 13.963636 8.145455 19.781819h30.254545v12.8h-30.254545v24.436363h26.763636v12.8h-26.763636v27.927273H384v12.8h-79.127273v-12.8H337.454545v-27.927273h-26.763636v-12.8H337.454545v-24.436363h-30.254545v-12.8zM416.581818 943.709091c-2.327273 9.309091-6.981818 18.618182-11.636363 25.6l-11.636364-6.981818c4.654545-6.981818 8.145455-13.963636 10.472727-20.945455l12.8 2.327273z m4.654546-67.490909h-18.618182v-10.472727H442.181818c-1.163636-2.327273-1.163636-3.490909-2.327273-4.654546l13.963637-2.327273c0 1.163636 1.163636 3.490909 2.327273 6.981819h41.890909v10.472727h-19.781819l-3.490909 6.981818h27.927273v11.636364h-108.218182v-11.636364h26.763637v-6.981818z m-12.8 22.109091h83.781818v39.563636H453.818182c4.654545 4.654545 8.145455 9.309091 10.472727 12.8l-10.472727 6.981818c-2.327273-3.490909-6.981818-8.145455-11.636364-12.8l10.472727-6.981818H407.272727v-39.563636z m12.8 15.127272h58.181818V907.636364h-58.181818v5.818181z m58.181818 13.963637v-5.818182h-58.181818v5.818182h58.181818z m-41.890909 43.054545c-10.472727 0-15.127273-4.654545-15.127273-12.8V942.545455h12.8v12.8c0 3.490909 2.327273 4.654545 5.818182 4.654545H465.454545c2.327273 0 3.490909 0 4.654546-1.163636 1.163636-1.163636 2.327273-3.490909 2.327273-9.309091l11.636363 3.490909c-1.163636 8.145455-2.327273 13.963636-5.818182 15.127273-2.327273 1.163636-5.818182 2.327273-10.472727 2.327272h-30.254545z m0-87.272727h25.6l3.490909-6.981818h-31.418182l2.327273 6.981818z m54.690909 55.854545c6.981818 8.145455 11.636364 15.127273 15.127273 20.945455l-10.472728 6.981818c-3.490909-5.818182-8.145455-13.963636-15.127272-22.109091l10.472727-5.818182zM599.272727 970.472727h-22.109091c-8.145455 0-13.963636-1.163636-19.781818-2.327272-4.654545-1.163636-9.309091-4.654545-12.8-8.145455-1.163636-2.327273-3.490909-3.490909-4.654545-3.490909-2.327273 0-6.981818 5.818182-12.8 16.290909l-9.309091-9.309091c5.818182-10.472727 11.636364-16.290909 16.290909-18.618182v-33.745454h-16.290909v-11.636364h27.927273v46.545455l1.163636 1.163636c3.490909 3.490909 5.818182 5.818182 8.145454 6.981818 3.490909 2.327273 9.309091 2.327273 16.29091 3.490909h43.054545c5.818182 0 11.636364 0 13.963636-1.163636l-3.490909 12.8h-25.6z m-69.818182-110.545454c8.145455 6.981818 15.127273 12.8 20.945455 19.781818l-9.309091 9.309091c-4.654545-5.818182-11.636364-12.8-20.945454-19.781818l9.30909-9.309091z m47.709091 12.8h-23.272727v-10.472728h68.654546v9.309091c-6.981818 5.818182-15.127273 11.636364-22.109091 15.127273h24.436363v54.690909c0 8.145455-4.654545 11.636364-12.8 11.636364h-9.309091l-2.327272-10.472727h8.145454c2.327273 0 3.490909-1.163636 3.490909-3.49091v-4.654545h-16.290909V954.181818h-11.636363v-19.781818h-16.29091V954.181818h-11.636363v-66.327273h26.763636c-4.654545-2.327273-9.309091-5.818182-12.8-8.145454l6.981818-6.981818z m6.981819 32.581818v-8.145455h-16.29091v8.145455h16.29091z m-15.127273 10.472727v8.145455h16.290909v-8.145455h-16.290909zM605.090909 872.727273h-24.436364c4.654545 3.490909 9.309091 5.818182 11.636364 8.145454 4.654545-2.327273 9.309091-4.654545 12.8-8.145454z m8.145455 32.581818v-8.145455h-16.290909v8.145455h16.290909z m-17.454546 10.472727v8.145455h16.290909v-8.145455h-16.290909zM652.8 862.254545h82.618182v51.2c0 18.618182 0 30.254545 1.163636 34.909091 1.163636 4.654545 2.327273 8.145455 3.490909 8.145455 1.163636 0 1.163636-4.654545 2.327273-13.963636l11.636364 5.818181c-1.163636 9.309091-3.490909 16.290909-5.818182 18.618182-2.327273 3.490909-4.654545 4.654545-6.981818 4.654546-6.981818 0-11.636364-3.490909-13.963637-11.636364-3.490909-8.145455-4.654545-23.272727-4.654545-46.545455v-38.4h-57.018182v37.236364c0 24.436364-5.818182 44.218182-15.127273 61.672727l-10.472727-9.309091c8.145455-13.963636 12.8-31.418182 12.8-52.363636v-50.036364z m25.6 24.436364c6.981818 9.309091 12.8 16.290909 17.454545 22.109091 4.654545-8.145455 8.145455-17.454545 10.472728-25.6l12.8 2.327273c-3.490909 12.8-8.145455 24.436364-13.963637 34.909091 6.981818 10.472727 12.8 19.781818 18.618182 27.927272l-11.636363 8.145455c-3.490909-6.981818-8.145455-15.127273-13.963637-23.272727-6.981818 9.309091-15.127273 18.618182-25.6 25.6l-8.145454-11.636364c10.472727-8.145455 18.618182-16.290909 25.6-26.763636-5.818182-8.145455-12.8-17.454545-19.781819-27.927273l8.145455-5.818182z" fill="#FFFFFF" p-id="7677"></path><path d="M513.163636 267.636364c-55.854545 0-102.4 45.381818-102.4 102.4 0 55.854545 45.381818 102.4 102.4 102.4s102.4-45.381818 102.4-102.4c-1.163636-57.018182-46.545455-102.4-102.4-102.4z m0 171.054545c-38.4 0-69.818182-31.418182-69.818181-69.818182s31.418182-69.818182 69.818181-69.818182 69.818182 31.418182 69.818182 69.818182c-1.163636 38.4-31.418182 69.818182-69.818182 69.818182z" fill="#FFFFFF" p-id="7678"></path><path d="M513.163636 368.872727m-36.072727 0a36.072727 36.072727 0 1 0 72.145455 0 36.072727 36.072727 0 1 0-72.145455 0Z" fill="#FFFFFF" p-id="7679"></path><path d="M698.181818 173.381818L512 368.872727h269.963636c1.163636-76.8-31.418182-146.618182-83.781818-195.490909zM513.163636 366.545455v-267.636364c-75.636364 0-144.290909 31.418182-193.163636 81.454545l193.163636 186.181819zM323.490909 562.036364L512 366.545455l-269.963636-2.327273v4.654545c0 75.636364 31.418182 144.290909 81.454545 193.163637zM513.163636 370.036364L510.836364 640h1.163636c76.8 0 146.618182-32.581818 195.490909-83.781818l-194.327273-186.181818zM524.8 98.909091h58.181818v23.272727h-58.181818zM524.8 143.127273h48.872727v23.272727h-48.872727zM524.8 187.345455h40.727273v23.272727h-40.727273zM524.8 231.563636h29.090909v23.272728h-29.090909z" fill="#FFFFFF" p-id="7680"></path><path d="M759.854545 384h23.272728v58.181818h-23.272728zM715.636364 384h23.272727v48.872727h-23.272727zM671.418182 384h23.272727v40.727273h-23.272727zM627.2 384h23.272727v29.090909h-23.272727z" fill="#FFFFFF" p-id="7681"></path><path d="M435.2 616.727273h58.181818v23.272727h-58.181818zM443.345455 572.509091h48.872727v23.272727h-48.872727zM451.490909 528.290909h40.727273v23.272727h-40.727273zM464.290909 484.072727h29.090909v23.272728h-29.090909z" fill="#FFFFFF" p-id="7682"></path><path d="M242.036364 293.236364h23.272727v58.181818h-23.272727zM286.254545 301.381818h23.272728v48.872727h-23.272728zM330.472727 310.690909h23.272728v40.727273h-23.272728zM374.690909 322.327273h23.272727v29.090909h-23.272727z" fill="#FFFFFF" p-id="7683"></path></svg>