<?xml version="1.0" standalone="no"?><!DOCTYPE svg PUBLIC "-//W3C//DTD SVG 1.1//EN" "http://www.w3.org/Graphics/SVG/1.1/DTD/svg11.dtd"><svg class="icon" width="200px" height="200.00px" viewBox="0 0 1024 1024" version="1.1" xmlns="http://www.w3.org/2000/svg"><path d="M512 373.527273m-373.527273 0a373.527273 373.527273 0 1 0 747.054546 0 373.527273 373.527273 0 1 0-747.054546 0Z" fill="#FF090B" /><path d="M512 373.527273m-310.690909 0a310.690909 310.690909 0 1 0 621.381818 0 310.690909 310.690909 0 1 0-621.381818 0Z" fill="#FFFFFF" /><path d="M278.109091 445.672727H232.727273c-5.818182 0-10.472727-4.654545-10.472728-10.472727s4.654545-10.472727 10.472728-10.472727h24.436363V407.272727c-20.945455-19.781818-31.418182-38.4-27.927272-55.854545 2.327273-12.8 10.472727-20.945455 16.290909-25.6-9.309091-82.618182 58.181818-95.418182 59.345454-95.418182 5.818182-1.163636 11.636364 2.327273 12.8 8.145455 1.163636 5.818182-2.327273 11.636364-8.145454 12.8-5.818182 1.163636-51.2 11.636364-40.727273 79.127272l1.163636 8.145455-6.981818 3.490909s-10.472727 4.654545-11.636363 13.963636c-1.163636 10.472727 6.981818 24.436364 25.6 39.563637l3.490909 3.490909v46.545454z"  /><path d="M324.654545 474.763636h-1.163636c-5.818182 0-10.472727-4.654545-10.472727-10.472727s4.654545-10.472727 10.472727-10.472727h1.163636c15.127273 0 27.927273-4.654545 36.072728-16.290909 25.6-30.254545 18.618182-94.254545 16.290909-117.527273h-72.145455c-5.818182 0-10.472727-4.654545-10.472727-10.472727s4.654545-10.472727 10.472727-10.472728H395.636364l1.163636 8.145455c1.163636 3.490909 18.618182 97.745455-18.618182 143.127273-12.8 17.454545-31.418182 24.436364-53.527273 24.436363z"  /><path d="M335.127273 429.381818c-15.127273 0-32.581818-10.472727-32.581818-39.563636 0-26.763636 15.127273-46.545455 32.581818-46.545455 18.618182 0 32.581818 20.945455 32.581818 46.545455 1.163636 29.090909-17.454545 39.563636-32.581818 39.563636z m0-65.163636c-4.654545 0-11.636364 10.472727-11.636364 25.6 0 11.636364 3.490909 17.454545 11.636364 17.454545s11.636364-5.818182 11.636363-17.454545c1.163636-15.127273-6.981818-25.6-11.636363-25.6zM378.181818 442.181818c-5.818182 0-10.472727-4.654545-10.472727-10.472727s4.654545-10.472727 10.472727-10.472727h68.654546c5.818182 0 10.472727 4.654545 10.472727 10.472727s-4.654545 10.472727-10.472727 10.472727h-68.654546zM468.945455 494.545455l-55.854546-2.327273-88.436364 93.090909 31.418182 26.763636 67.490909-104.727272 48.872728 8.145454zM524.8 399.127273s-45.381818-117.527273-96.581818-53.527273c0 0 25.6 36.072727 31.418182 48.872727 4.654545 12.8 20.945455 140.8 89.6 164.072728s164.072727-54.690909 182.690909-145.454546c0 0 68.654545-90.763636 73.309091-103.563636 4.654545-11.636364-2.327273-41.890909-22.109091-22.109091-19.781818 19.781818-74.472727 77.963636-74.472728 77.963636l44.218182-138.472727s5.818182-43.054545-29.090909-11.636364l-62.836363 123.345455s32.581818-152.436364 36.072727-162.909091-12.8-47.709091-36.072727-10.472727l-57.018182 154.763636s0-87.272727 4.654545-117.527273c4.654545-30.254545-22.109091-47.709091-33.745454-9.309091s-33.745455 174.545455-50.036364 205.963637z"  /><path d="M285.405091 110.917818l488.750545 488.738909-35.374545 35.374546-488.750546-488.738909z" fill="#FF090B" /><path d="M201.309091 800.581818h621.381818V1024H201.309091z" fill="#FE0807" /><path d="M214.109091 812.218182h596.945454v198.981818H214.109091z" fill="#FFFFFF" /><path d="M273.454545 872.727273h11.636364v94.254545h-11.636364V872.727273z m20.945455-22.109091c4.654545 4.654545 8.145455 11.636364 12.8 18.618182l-10.472727 5.818181c-4.654545-6.981818-8.145455-13.963636-12.8-18.618181l10.472727-5.818182z m1.163636 40.727273h24.436364v-17.454546h11.636364v17.454546h23.272727v11.636363h-23.272727v3.490909c11.636364 9.309091 20.945455 18.618182 29.090909 26.763637l-8.145455 9.309091c-4.654545-6.981818-11.636364-13.963636-19.781818-22.109091v39.563636h-11.636364v-45.381818c-6.981818 12.8-13.963636 24.436364-23.272727 32.581818l-8.145454-12.8c11.636364-8.145455 19.781818-18.618182 26.763636-31.418182h-20.945455v-11.636363z m57.018182 74.472727l-3.490909-11.636364h10.472727c3.490909 0 4.654545-2.327273 4.654546-6.981818v-79.127273h-46.545455v-11.636363h58.181818v94.254545c0 9.309091-4.654545 13.963636-15.127272 13.963636h-8.145455zM456.145455 851.781818c0 9.309091 0 18.618182-1.163637 27.927273 6.981818 32.581818 24.436364 58.181818 53.527273 74.472727l-8.145455 11.636364c-23.272727-15.127273-39.563636-36.072727-48.872727-62.836364-8.145455 25.6-25.6 46.545455-51.2 62.836364l-8.145454-11.636364c33.745455-19.781818 50.036364-47.709091 51.2-83.781818v-19.781818h12.8zM531.781818 892.509091l-5.818182 3.490909-8.145454-10.472727c13.963636-8.145455 26.763636-19.781818 37.236363-36.072728l12.8 3.49091c-2.327273 3.490909-4.654545 5.818182-4.654545 6.981818h40.727273v9.309091c-3.490909 4.654545-8.145455 9.309091-11.636364 13.963636h27.927273v40.727273h-27.927273v20.945454c0 3.490909 1.163636 5.818182 4.654546 5.818182h18.618181c1.163636 0 2.327273-1.163636 3.490909-2.327273 1.163636-2.327273 1.163636-6.981818 1.163637-15.127272l12.8 3.490909c-1.163636 12.8-2.327273 19.781818-4.654546 22.109091-3.490909 5.818182-6.981818 6.981818-11.636363 6.981818h-24.436364c-9.309091 0-12.8-4.654545-12.8-15.127273v-24.436364h-3.490909c0 1.163636-1.163636 3.490909-2.327273 5.818182-5.818182 13.963636-22.109091 25.6-46.545454 36.072728l-8.145455-10.472728c20.945455-8.145455 34.909091-17.454545 41.890909-29.090909l1.163637-2.327273h-29.090909v-33.745454z m44.218182-8.145455c3.490909-3.490909 8.145455-6.981818 11.636364-11.636363h-33.745455c-3.490909 3.490909-6.981818 8.145455-11.636364 11.636363h33.745455z m-10.472727 29.090909c1.163636-4.654545 2.327273-10.472727 2.327272-16.290909h-23.272727v16.290909h20.945455z m41.890909 0v-16.290909h-26.763637c0 5.818182-1.163636 10.472727-2.327272 16.290909h29.090909zM724.945455 964.654545h-22.109091c-8.145455 0-13.963636-1.163636-19.781819-2.327272-4.654545-1.163636-9.309091-4.654545-12.8-8.145455-1.163636-2.327273-3.490909-3.490909-4.654545-3.490909-2.327273 0-6.981818 5.818182-12.8 16.290909l-9.309091-9.309091c5.818182-10.472727 11.636364-16.290909 16.290909-18.618182v-33.745454h-16.290909v-11.636364h27.927273v47.709091l1.163636 1.163637c2.327273 3.490909 5.818182 5.818182 8.145455 6.981818 3.490909 2.327273 9.309091 2.327273 16.290909 3.490909h43.054545c5.818182 0 11.636364 0 15.127273-1.163637l-3.490909 12.8h-26.763636z m-70.981819-111.70909c8.145455 6.981818 15.127273 12.8 20.945455 19.781818l-9.309091 9.309091c-4.654545-5.818182-11.636364-12.8-20.945455-19.781819l9.309091-9.30909z m27.927273 17.454545h12.8v-18.618182h12.8v18.618182h15.127273v-18.618182h12.8v18.618182h13.963636v11.636364h-13.963636v20.945454h18.618182v11.636364h-18.618182v32.581818h-12.8v-32.581818h-18.618182c-3.490909 13.963636-9.309091 24.436364-18.618182 31.418182l-8.145454-10.472728c6.981818-4.654545 11.636364-11.636364 13.963636-20.945454h-13.963636v-11.636364h16.290909c0-3.490909 1.163636-8.145455 1.163636-12.8v-8.145454h-12.8v-11.636364z m25.6 11.636364v5.818181c0 4.654545 0 10.472727-1.163636 15.127273h16.290909v-20.945454h-15.127273z" fill="#FF090B" /></svg>