<?xml version="1.0" standalone="no"?><!DOCTYPE svg PUBLIC "-//W3C//DTD SVG 1.1//EN" "http://www.w3.org/Graphics/SVG/1.1/DTD/svg11.dtd"><svg t="1577678423216" class="icon" viewBox="0 0 1024 1024" version="1.1" xmlns="http://www.w3.org/2000/svg" p-id="8035" xmlns:xlink="http://www.w3.org/1999/xlink" width="200" height="200"><defs><style type="text/css"></style></defs><path d="M102.516331 648.252201L458.48793 30.536779c23.266118-40.715706 82.594717-40.715706 105.860835 0l357.134904 617.715422c23.266118 40.715706-5.816529 91.901164-53.51207 91.901165H154.865095c-46.532235 0-75.614882-51.185459-52.348764-91.901165z" fill="#FFF500" p-id="8036"></path><path d="M130.435672 649.415507L475.937518 50.312979c16.286282-27.919341 55.838682-27.919341 70.961658 0l345.501846 597.939222c16.286282 27.919341-3.489918 61.655212-36.062482 61.655212H166.498154c-31.409259 1.163306-51.185459-33.73587-36.062482-60.491906z" p-id="8037"></path><path d="M186.274354 651.742119L512 88.702073 837.725646 651.742119z" fill="#FFF500" p-id="8038"></path><path d="M193.254189 783.195683H860.991764V1024H193.254189z" p-id="8039"></path><path d="M207.21386 797.155354h640.981539v214.048281H207.21386z" fill="#FFFFFF" p-id="8040"></path><path d="M275.848907 871.60693c9.306447 6.979835 16.286282 12.796365 22.102811 19.7762l-9.306447 9.306447c-5.816529-5.816529-12.796365-12.796365-22.102811-19.7762l9.306447-9.306447z m25.592729 43.042317c-5.816529 16.286282-12.796365 32.572565-19.7762 47.695541l-13.959671-6.979835c8.143141-13.959671 15.122976-30.245953 20.939506-46.532235l12.796365 5.816529zM279.338824 840.197671c9.306447 6.979835 16.286282 12.796365 23.266118 19.7762l-9.306447 10.469753c-5.816529-5.816529-12.796365-12.796365-23.266118-19.7762l9.306447-10.469753z m25.59273 19.7762h33.73587c-2.326612-5.816529-4.653224-11.633059-8.143141-17.449588l12.796365-3.489918c3.489918 8.143141 6.979835 15.122976 8.143141 22.102812H384.036353v13.95967h-32.572564v26.756036h29.082647v12.796364h-29.082647v30.245953h34.899176v13.959671H302.604942v-13.959671h36.062482v-30.245953h-29.082647v-12.796364h29.082647v-26.756036h-33.73587v-15.122976zM423.588753 932.098836c-3.489918 10.469753-6.979835 19.7762-12.796364 27.919341l-11.633059-8.143141c5.816529-6.979835 9.306447-15.122976 11.633059-22.102812l12.796364 2.326612z m4.653224-74.451577H407.302471v-11.633058h43.042317c-1.163306-2.326612-2.326612-3.489918-2.326611-5.81653l15.122976-2.326612c1.163306 1.163306 1.163306 3.489918 3.489918 8.143142H512v11.633058h-20.939506l-2.326612 6.979836h30.245953v11.633058H401.485941v-11.633058H430.568588l-2.326611-6.979836z m-12.796365 24.429424h90.737859v43.042317H465.467765c4.653224 4.653224 9.306447 9.306447 11.633059 13.959671l-11.633059 8.143141c-3.489918-4.653224-6.979835-9.306447-11.633059-13.959671l11.633059-6.979835h-48.858847v-44.205623z m13.959671 16.286282h62.818517v-5.816529h-62.818517v5.816529z m62.818517 15.122976V907.669412h-62.818517v5.816529h62.818517z m-45.368929 47.695542c-10.469753 0-16.286282-4.653224-16.286283-13.959671v-17.449588h13.959671v13.95967c0 3.489918 2.326612 4.653224 5.816529 4.653224H477.100824c2.326612 0 3.489918 0 4.653223-1.163306 1.163306-1.163306 2.326612-4.653224 2.326612-9.306447l12.796365 4.653223c-1.163306 9.306447-3.489918 15.122976-5.81653 16.286283-2.326612 1.163306-6.979835 2.326612-11.633059 2.326612h-32.572564z m-1.163306-96.554388h27.919341l3.489918-6.979836h-33.735871l2.326612 6.979836z m60.491906 61.655211c6.979835 9.306447 12.796365 16.286282 16.286282 22.102812l-11.633059 8.143141c-3.489918-6.979835-9.306447-15.122976-16.286282-23.266118l11.633059-6.979835zM536.429423 843.687589h44.205624v10.469753c-3.489918 10.469753-8.143141 22.102812-12.796365 36.062482 8.143141 12.796365 12.796365 23.266118 12.796365 32.572565 0 6.979835-1.163306 10.469753-3.489918 13.95967-4.653224 3.489918-11.633059 4.653224-20.939506 5.816529l-4.653223-13.95967c3.489918 0 5.816529 1.163306 6.979835 1.163306 3.489918 0 5.816529-1.163306 6.979835-1.163306 1.163306-1.163306 1.163306-2.326612 1.163306-4.653224 0-9.306447-4.653224-18.612894-12.796364-30.245952 5.816529-13.959671 10.469753-25.592729 13.95967-36.062483h-16.286282v105.860835h-13.959671V843.687589z m44.205624 13.95967h31.409259c-2.326612-6.979835-3.489918-11.633059-5.81653-16.286282l13.959671-2.326612c2.326612 4.653224 3.489918 11.633059 5.816529 18.612894h27.919341v13.959671h-41.879011l-1.163306 19.7762h38.389094c0 31.409259-2.326612 50.022153-4.653224 58.165294-3.489918 9.306447-9.306447 12.796365-19.7762 12.796364-3.489918 0-5.816529 0-10.469753-1.163305l-4.653223-12.796365h12.796365c4.653224 0 8.143141-3.489918 9.306447-8.143141 1.163306-3.489918 1.163306-16.286282 1.163305-36.062483h-24.429423c-1.163306 10.469753-3.489918 19.7762-8.143141 27.919342-5.816529 11.633059-12.796365 22.102812-22.102812 31.409258l-9.306447-9.306447c11.633059-11.633059 18.612894-22.102812 22.102812-32.572564 3.489918-9.306447 5.816529-20.939506 5.816529-33.735871v-17.449588h-16.286282v-12.796365zM678.352741 912.322636h41.879011v-13.959671h13.959671v13.959671h41.879012v12.796364h-41.879012v18.612894h52.348764v12.796365H667.882988v-12.796365h52.348764v-18.612894h-41.879011v-12.796364z m30.245953-57.001988c-8.143141 15.122976-17.449588 27.919341-27.919342 39.552399l-11.633058-8.143141c10.469753-10.469753 19.7762-22.102812 26.756035-37.225788l12.796365 5.81653z m11.633058-16.286283h13.959671v55.838682h-13.959671v-55.838682z m38.389094 9.306447c11.633059 15.122976 20.939506 26.756035 26.756036 37.225788l-11.633059 8.143142c-6.979835-11.633059-15.122976-24.429423-26.756035-38.389094l11.633058-6.979836z" p-id="8041"></path><path d="M475.937518 636.619142h52.348764c-3.489918-5.816529-5.816529-19.7762 0-33.73587 8.143141-19.7762 4.653224-43.042318-15.122976-52.348765-19.7762-9.306447-12.796365 34.899176-10.469753 60.491906 1.163306 19.7762-13.959671 22.102812-26.756035 25.592729z" p-id="8042"></path><path d="M681.842658 517.961943c-8.143141-65.145129-143.086623-70.961659-143.086623-70.961659v-23.266118c72.124964-33.73587 83.758023-79.1048 65.145129-136.106787-18.612894-57.001988-103.534223-58.165294-131.453564-25.59273-27.919341 32.572565-13.959671 51.185459-13.95967 51.185459s2.326612 3.489918-15.122977 17.449588c-29.082647 22.102812-5.816529 26.756035-4.653223 26.756035 1.163306 0 9.306447 4.653224 9.306447 4.653224s-1.163306 4.653224-3.489918 4.653223c-2.326612-1.163306-2.326612 2.326612-2.326612 2.326612l3.489918 5.81653s-2.326612 0-3.489918-1.163306c-1.163306-1.163306-2.326612 1.163306-2.326611 1.163306 1.163306 1.163306 1.163306 4.653224 1.163305 4.653223-12.796365 20.939506 36.062482 50.022153 36.062483 50.022153l3.489917 24.429423c-176.822494-1.163306-130.290258 182.639023-130.290258 182.639023h60.491906c-10.469753-17.449588 0-54.675376-1.163306-79.104799-1.163306-34.899176 73.28827-74.451576 73.28827-74.451577s11.633059 12.796365 12.796365 8.143141c1.163306-5.816529 3.489918-13.959671 6.979835-16.286282 2.326612-2.326612-1.163306-9.306447-1.163306-9.306447s5.816529-46.532235-11.633059-72.124964-41.879012-6.979835-39.5524-26.756036c2.326612-19.7762 51.185459 6.979835 51.185459 6.979836s17.449588 10.469753 20.939506 37.225788c3.489918 30.245953-4.653224 34.899176 3.489918 34.899176 8.143141 1.163306-3.489918 20.939506-2.326612 33.735871 1.163306 12.796365 20.939506 2.326612 20.939506 2.326611 33.73587-8.143141 84.921329 62.818517 59.328599 83.758024-24.429423 20.939506 4.653224 12.796365 4.653224 12.796364 24.429423 16.286282 1.163306 41.879012-4.653224 59.3286h84.92133c1.163306-1.163306 2.326612-53.51207-6.979836-119.820505z" p-id="8043"></path><path d="M451.508094 624.986083c-8.143141-1.163306-10.469753 4.653224-11.633058 11.633059h18.612894c0-4.653224 0-10.469753-6.979836-11.633059z" p-id="8044"></path><path d="M461.977847 571.474013l8.143141 5.816529s-1.163306-3.489918 0-4.653223-12.796365-9.306447-12.796364-9.306447l4.653223 8.143141zM457.324624 592.413519l-10.469753 2.326612 2.326612 4.653223 23.266117-6.979835-6.979835-2.326612zM487.570577 613.353025h-2.326612l1.163306 3.489917 3.489917-1.163306zM485.243965 584.270378l-4.653224 8.143141h4.653224l4.653223-11.633059zM491.060494 586.596989v3.489918h3.489918l-1.163306-3.489918zM489.897188 570.310707l-4.653223 2.326612 4.653223 2.326612 2.326612-2.326612zM472.4476 601.719966l-17.449588 10.469753 4.653223 1.163306 5.81653-5.81653zM474.774212 615.679636l-2.326612 5.81653s4.653224 0 4.653224-1.163306c0-2.326612-2.326612-4.653224-2.326612-4.653224zM489.897188 601.719966l-4.653223 1.163306 4.653223 2.326612 2.326612-3.489918zM487.570577 624.986083h-4.653224l4.653224 3.489918 4.653223-2.326612zM558.532235 605.209884l-5.816529 2.326611 5.816529 1.163306 2.326612-3.489917zM556.205623 579.617154l-3.489917 2.326612 4.653223 4.653223 6.979836-3.489917zM544.572565 599.393354l-3.489918 6.979835s1.163306 4.653224 3.489918 3.489918c2.326612 0 3.489918-12.796365 3.489917-12.796365l-3.489917 2.326612zM555.042318 618.006248v5.81653l1.163305 1.163305 2.326612-4.653223zM591.1048 613.353025l-8.143141 8.143141h8.143141l6.979835-10.469753zM502.693553 526.105084l-13.959671-4.653224 6.979836 11.633059h20.939506l-4.653224-5.816529zM494.550412 542.391366h-11.633059v8.143141l11.633059 3.489918zM516.653224 542.391366l18.612894-9.306447 5.816529 9.306447-19.7762 5.816529zM375.893212 379.528543l12.796365-13.959671 6.979835 13.959671-19.7762 10.469753zM406.139165 341.139449h-17.449588v10.469753l25.592729 5.816529zM411.955694 380.691849l-5.816529-6.979835h8.143141l4.653224 3.489917zM401.485941 400.468049l-12.796364 16.286282 6.979835 4.653224 10.469753-10.469753zM418.93553 400.468049v15.122976h9.306447l-4.653224-15.122976z" p-id="8045"></path></svg>