<?xml version="1.0" standalone="no"?><!DOCTYPE svg PUBLIC "-//W3C//DTD SVG 1.1//EN" "http://www.w3.org/Graphics/SVG/1.1/DTD/svg11.dtd"><svg t="1577681363765" class="icon" viewBox="0 0 1024 1024" version="1.1" xmlns="http://www.w3.org/2000/svg" p-id="11720" xmlns:xlink="http://www.w3.org/1999/xlink" width="200" height="200"><defs><style type="text/css"></style></defs><path d="M512 373.527273m-373.527273 0a373.527273 373.527273 0 1 0 747.054546 0 373.527273 373.527273 0 1 0-747.054546 0Z" fill="#FF090B" p-id="11721"></path><path d="M512 373.527273m-310.690909 0a310.690909 310.690909 0 1 0 621.381818 0 310.690909 310.690909 0 1 0-621.381818 0Z" fill="#FFFFFF" p-id="11722"></path><path d="M642.327273 328.145455c-6.981818 0-13.963636-1.163636-19.781818-4.654546-5.818182-2.327273-11.636364-6.981818-16.29091-10.472727-4.654545-4.654545-8.145455-10.472727-10.472727-16.290909-2.327273-5.818182-4.654545-12.8-4.654545-19.781818 0-6.981818 1.163636-13.963636 4.654545-19.781819s6.981818-11.636364 10.472727-16.290909 10.472727-8.145455 16.29091-10.472727c5.818182-2.327273 12.8-4.654545 19.781818-4.654545 6.981818 0 13.963636 1.163636 19.781818 4.654545 5.818182 2.327273 11.636364 6.981818 16.290909 10.472727 4.654545 4.654545 8.145455 10.472727 10.472727 16.290909s3.490909 12.8 3.490909 19.781819c0 6.981818-1.163636 13.963636-3.490909 19.781818s-5.818182 11.636364-10.472727 16.290909c-4.654545 4.654545-10.472727 8.145455-16.290909 10.472727-5.818182 3.490909-12.8 4.654545-19.781818 4.654546z m73.309091 46.545454c5.818182 4.654545 10.472727 9.309091 15.127272 15.127273 3.490909 5.818182 5.818182 11.636364 5.818182 17.454545v32.581818c0 3.490909-2.327273 6.981818-6.981818 8.145455-4.654545 2.327273-9.309091 3.490909-13.963636 3.490909s-9.309091-1.163636-13.963637-2.327273-6.981818-4.654545-6.981818-9.309091v-13.963636c0-3.490909-1.163636-5.818182-3.490909-6.981818-2.327273-1.163636-3.490909-3.490909-5.818182-4.654546-2.327273-1.163636-4.654545-1.163636-6.981818 1.163637-2.327273 2.327273-4.654545 5.818182-4.654545 10.472727v87.272727c0 5.818182 2.327273 10.472727 5.818181 13.963637 3.490909 4.654545 8.145455 8.145455 12.8 11.636363 4.654545 3.490909 8.145455 5.818182 11.636364 9.309091l10.472727 10.472728c1.163636 1.163636 2.327273 3.490909 1.163637 5.818181 0 2.327273-1.163636 5.818182-2.327273 8.145455-1.163636 3.490909-3.490909 5.818182-5.818182 9.309091-2.327273 3.490909-4.654545 5.818182-8.145454 6.981818-2.327273 2.327273-5.818182 2.327273-8.145455 2.327273-3.490909 0-5.818182-1.163636-8.145455-4.654546-3.490909-4.654545-6.981818-6.981818-9.30909-10.472727l-6.981819-6.981818-5.818181-5.818182-6.981819-6.981818c-5.818182-5.818182-10.472727-12.8-15.127272-22.109091s-5.818182-17.454545-5.818182-26.763636v-26.763637c-2.327273 3.490909-4.654545 5.818182-6.981818 8.145455s-3.490909 5.818182-6.981819 9.309091c-1.163636 2.327273-2.327273 3.490909-2.327272 6.981818-1.163636 2.327273-1.163636 5.818182-2.327273 9.309091-1.163636 3.490909-1.163636 5.818182-2.327273 9.309091 0 3.490909-1.163636 5.818182-1.163636 8.145454V558.545455c0 4.654545-2.327273 6.981818-6.981818 9.30909-4.654545 2.327273-9.309091 3.490909-13.963637 3.49091s-9.309091-1.163636-13.963636-3.49091c-4.654545-2.327273-6.981818-5.818182-6.981818-10.472727v-24.436363c0-8.145455 1.163636-16.290909 3.490909-22.109091 2.327273-6.981818 5.818182-13.963636 9.309091-20.945455 4.654545-10.472727 8.145455-18.618182 9.309091-24.436364 2.327273-5.818182 3.490909-10.472727 4.654545-12.8 2.327273-4.654545 3.490909-9.309091 3.490909-13.963636v-10.472727c-2.327273 1.163636-4.654545 3.490909-5.818182 4.654545l-6.981818 6.981818c-2.327273 3.490909-5.818182 5.818182-8.145454 6.981819-3.490909 1.163636-8.145455 1.163636-13.963637 1.163636h-20.945454c-5.818182 0-9.309091-2.327273-11.636364-6.981818-2.327273-4.654545-3.490909-9.309091-3.490909-13.963637 0-4.654545 1.163636-9.309091 4.654546-13.963636 2.327273-4.654545 6.981818-6.981818 11.636363-6.981818h19.781818c2.327273 0 4.654545 0 6.981819-1.163636 1.163636-1.163636 3.490909-1.163636 4.654545-3.49091 1.163636-1.163636 3.490909-2.327273 4.654545-4.654545 1.163636-2.327273 3.490909-3.490909 5.818182-5.818182 3.490909-2.327273 5.818182-6.981818 9.309091-11.636363s5.818182-10.472727 9.309091-15.127273c3.490909-5.818182 6.981818-12.8 9.309091-19.781818 4.654545 0 9.309091 0 12.8 1.163636h37.236364c3.490909 0 6.981818 0 10.472727-1.163636l17.454545 10.472727c4.654545 2.327273 9.309091 5.818182 13.963637 8.145454 3.490909 6.981818 6.981818 9.309091 9.309091 11.636364zM473.6 314.181818v-12.8h-162.909091V314.181818c-4.654545 1.163636-8.145455 5.818182-8.145454 11.636364v109.381818c0 6.981818 5.818182 11.636364 11.636363 12.8v2.327273c0 6.981818 5.818182 12.8 12.8 12.8h9.309091c1.163636 5.818182 5.818182 11.636364 11.636364 11.636363h16.290909c6.981818 0 11.636364-4.654545 11.636363-11.636363H407.272727c1.163636 5.818182 5.818182 11.636364 11.636364 11.636363h16.290909c6.981818 0 11.636364-4.654545 11.636364-11.636363h9.309091c6.981818 0 12.8-5.818182 12.8-12.8v-2.327273c6.981818 0 11.636364-5.818182 11.636363-12.8V325.818182c1.163636-5.818182-2.327273-9.309091-6.981818-11.636364z m-143.127273 100.072727c0 2.327273-1.163636 3.490909-3.490909 3.49091-2.327273 0-3.490909-1.163636-3.490909-3.49091v-55.854545c0-2.327273 1.163636-3.490909 3.490909-3.490909 2.327273 0 3.490909 1.163636 3.490909 3.490909v55.854545z m32.581818 20.945455c0 2.327273-1.163636 3.490909-3.490909 3.490909-2.327273 0-3.490909-1.163636-3.490909-3.490909V337.454545c0-2.327273 1.163636-3.490909 3.490909-3.490909 2.327273 0 3.490909 1.163636 3.490909 3.490909v97.745455zM395.636364 430.545455c0 2.327273-1.163636 3.490909-3.490909 3.490909-2.327273 0-3.490909-1.163636-3.49091-3.490909v-88.436364c0-2.327273 1.163636-3.490909 3.49091-3.490909 2.327273 0 3.490909 1.163636 3.490909 3.490909V430.545455z m32.581818 4.654545c0 2.327273-1.163636 3.490909-3.490909 3.490909-2.327273 0-3.490909-1.163636-3.490909-3.490909V337.454545c0-2.327273 1.163636-3.490909 3.490909-3.490909 2.327273 0 3.490909 1.163636 3.490909 3.490909v97.745455z m32.581818-20.945455c0 2.327273-1.163636 3.490909-3.490909 3.49091-2.327273 0-3.490909-1.163636-3.490909-3.49091v-55.854545c0-2.327273 1.163636-3.490909 3.490909-3.490909 2.327273 0 3.490909 1.163636 3.490909 3.490909v55.854545zM272.290909 222.254545h242.036364v27.927273H272.290909z" p-id="11723"></path><path d="M272.290909 468.945455h242.036364v27.927272H272.290909z" p-id="11724"></path><path d="M508.509091 646.981818h-1.163636c-6.981818 0-11.636364-5.818182-11.636364-11.636363V121.018182c0-6.981818 5.818182-11.636364 11.636364-11.636364h1.163636c6.981818 0 11.636364 5.818182 11.636364 11.636364v514.327273c1.163636 5.818182-4.654545 11.636364-11.636364 11.636363zM276.945455 514.327273h-1.163637c-6.981818 0-11.636364-5.818182-11.636363-11.636364V228.072727c0-6.981818 5.818182-11.636364 11.636363-11.636363h1.163637c6.981818 0 11.636364 5.818182 11.636363 11.636363v274.618182c0 6.981818-5.818182 11.636364-11.636363 11.636364z" p-id="11725"></path><path d="M285.405091 110.917818l488.750545 488.738909-35.374545 35.374546-488.750546-488.738909z" fill="#FF090B" p-id="11726"></path><path d="M201.309091 800.581818h621.381818V1024H201.309091z" fill="#FE0807" p-id="11727"></path><path d="M214.109091 812.218182h596.945454v198.981818H214.109091z" fill="#FFFFFF" p-id="11728"></path><path d="M272.290909 861.090909h19.781818v-9.309091h12.8v9.309091h17.454546v11.636364h-17.454546c5.818182 3.490909 10.472727 5.818182 16.290909 10.472727l-6.981818 10.472727c-3.490909-4.654545-6.981818-8.145455-9.309091-11.636363v18.618181h-12.8v-18.618181c-4.654545 6.981818-9.309091 12.8-15.127272 18.618181l-6.981819-10.472727c8.145455-4.654545 15.127273-10.472727 19.781819-17.454545h-17.454546v-11.636364z m31.418182 84.945455c-6.981818 8.145455-15.127273 15.127273-24.436364 22.109091l-8.145454-10.472728c9.309091-5.818182 17.454545-11.636364 23.272727-18.618182l9.309091 6.981819z m-31.418182-23.272728h105.890909v11.636364h-44.218182v20.945455c0 6.981818-4.654545 11.636364-12.8 11.636363h-11.636363l-2.327273-11.636363c3.490909 0 6.981818 1.163636 10.472727 1.163636 2.327273 0 3.490909-1.163636 3.490909-3.490909v-18.618182h-47.709091v-11.636364z m11.636364-18.618181h84.945454v11.636363h-84.945454v-11.636363z m44.218182-43.054546h16.290909v-9.309091h12.8v9.309091h20.945454v11.636364h-16.290909c4.654545 5.818182 10.472727 11.636364 19.781818 17.454545l-9.309091 10.472727c-6.981818-5.818182-11.636364-12.8-15.127272-20.945454v20.945454h-12.8v-20.945454c-4.654545 8.145455-9.309091 15.127273-15.127273 20.945454l-6.981818-10.472727c6.981818-4.654545 12.8-10.472727 18.618182-17.454545h-12.8v-11.636364z m24.436363 76.8c9.309091 4.654545 17.454545 11.636364 25.6 18.618182l-6.981818 11.636364c-8.145455-8.145455-16.290909-15.127273-25.6-19.781819l6.981818-10.472727zM449.163636 852.945455h12.8v38.4h37.236364v12.8h-37.236364v45.381818h44.218182v12.8h-111.709091v-12.8h19.781818v-75.636364h12.8v75.636364h22.109091v-96.581818zM528.290909 875.054545l-4.654545-5.818181c6.981818-3.490909 12.8-9.309091 17.454545-16.290909l11.636364 2.327272-2.327273 3.490909h18.618182v-6.981818H581.818182v6.981818h38.4v10.472728H581.818182v5.818181h48.872727v10.472728h-110.545454v-10.472728h8.145454z m2.327273 13.963637H616.727273v23.272727h-25.6v4.654546h33.745454v9.30909h-33.745454v4.654546h29.090909v11.636364h-29.090909v4.654545h38.4v10.472727h-38.4v9.309091h-12.8v-53.527273h-9.309091v53.527273h-12.8v-9.309091h-38.4v-10.472727h38.4V942.545455h-30.254546v-9.309091h30.254546v-4.654546h-34.909091V919.272727h34.909091v-4.654545h-25.6v-25.6z m10.472727-19.781818c-2.327273 2.327273-3.490909 3.490909-6.981818 5.818181h33.745454v-5.818181h-26.763636z m62.836364 34.909091v-5.818182h-60.509091v5.818182h60.509091zM724.945455 964.654545h-22.109091c-8.145455 0-13.963636-1.163636-19.781819-2.327272-4.654545-1.163636-9.309091-4.654545-12.8-8.145455-1.163636-2.327273-3.490909-3.490909-4.654545-3.490909-2.327273 0-6.981818 5.818182-12.8 16.290909l-9.309091-9.309091c5.818182-10.472727 11.636364-16.290909 16.290909-18.618182v-33.745454h-16.290909v-11.636364h27.927273v47.709091l1.163636 1.163637c2.327273 3.490909 5.818182 5.818182 8.145455 6.981818 3.490909 2.327273 9.309091 2.327273 16.290909 3.490909h43.054545c5.818182 0 11.636364 0 15.127273-1.163637l-3.490909 12.8h-26.763636z m-70.981819-111.70909c8.145455 6.981818 15.127273 12.8 20.945455 19.781818l-9.309091 9.309091c-4.654545-5.818182-11.636364-12.8-20.945455-19.781819l9.309091-9.30909z m65.163637 44.218181H698.181818c-1.163636 19.781818-5.818182 34.909091-13.963636 47.709091l-9.309091-9.309091c6.981818-10.472727 10.472727-25.6 10.472727-44.218181v-32.581819c19.781818 0 37.236364-2.327273 52.363637-6.981818l5.818181 11.636364c-13.963636 3.490909-29.090909 5.818182-46.545454 5.818182v16.290909h53.527273v12.8h-19.781819v51.2h-12.8v-52.363637z" fill="#FF090B" p-id="11729"></path></svg>