<?xml version="1.0" standalone="no"?><!DOCTYPE svg PUBLIC "-//W3C//DTD SVG 1.1//EN" "http://www.w3.org/Graphics/SVG/1.1/DTD/svg11.dtd"><svg t="1577678365452" class="icon" viewBox="0 0 1024 1024" version="1.1" xmlns="http://www.w3.org/2000/svg" p-id="6625" xmlns:xlink="http://www.w3.org/1999/xlink" width="200" height="200"><defs><style type="text/css"></style></defs><path d="M512 370.036364m-370.036364 0a370.036364 370.036364 0 1 0 740.072728 0 370.036364 370.036364 0 1 0-740.072728 0Z" fill="#00569E" p-id="6626"></path><path d="M167.563636 801.745455h690.036364V1024H167.563636z" fill="#00569E" p-id="6627"></path><path d="M240.872727 898.327273c-2.327273 19.781818-6.981818 37.236364-11.636363 52.363636l-9.309091-8.145454c4.654545-15.127273 8.145455-30.254545 10.472727-47.709091l10.472727 3.490909z m53.527273-30.254546c-9.309091 37.236364-20.945455 65.163636-38.4 83.781818 0 2.327273 1.163636 3.490909 4.654545 3.49091h15.127273c2.327273 0 3.490909-1.163636 4.654546-3.49091 1.163636-2.327273 2.327273-10.472727 2.327272-23.272727l9.309091 3.490909c-1.163636 17.454545-2.327273 26.763636-4.654545 30.254546-2.327273 3.490909-5.818182 4.654545-10.472727 4.654545H256c-5.818182 0-9.309091-2.327273-10.472727-6.981818-4.654545 4.654545-10.472727 8.145455-16.290909 11.636364l-5.818182-10.472728c6.981818-4.654545 13.963636-9.309091 20.945454-16.290909V884.363636h11.636364v48.872728c12.8-17.454545 22.109091-41.890909 29.090909-70.981819l9.309091 5.818182z m-38.4-9.309091c8.145455 8.145455 13.963636 15.127273 18.618182 22.109091l-6.981818 9.309091c-4.654545-6.981818-10.472727-15.127273-18.618182-23.272727l6.981818-8.145455z m41.890909 38.4c5.818182 13.963636 10.472727 30.254545 13.963636 46.545455l-9.30909 5.818182c-4.654545-18.618182-9.309091-33.745455-15.127273-47.709091l10.472727-4.654546zM356.072727 937.890909c-8.145455 12.8-18.618182 24.436364-31.418182 33.745455l-4.654545-12.8c11.636364-8.145455 22.109091-17.454545 30.254545-30.254546l5.818182 9.309091z m-2.327272-69.818182c-8.145455 9.309091-17.454545 17.454545-27.927273 24.436364l-4.654546-11.636364c10.472727-5.818182 19.781818-12.8 25.6-22.109091l6.981819 9.309091z m1.163636 33.745455c-8.145455 10.472727-17.454545 19.781818-29.090909 26.763636l-4.654546-11.636363c10.472727-5.818182 19.781818-13.963636 26.763637-23.272728l6.981818 8.145455z m22.109091 0h10.472727v22.109091c0 13.963636-3.490909 24.436364-8.145454 31.418182-4.654545 6.981818-12.8 12.8-24.436364 17.454545l-5.818182-11.636364c10.472727-3.490909 18.618182-8.145455 22.109091-13.963636 3.490909-5.818182 5.818182-13.963636 6.981818-23.272727v-22.109091z m-20.945455-39.563637h52.363637v12.8h-20.945455c0 4.654545-1.163636 6.981818-1.163636 9.309091h19.781818v60.509091H395.636364V896h-26.763637v48.872727h-10.472727V884.363636h17.454545c0-4.654545 1.163636-6.981818 1.163637-9.309091h-20.945455v-12.8z m36.072728 81.454546c6.981818 6.981818 12.8 12.8 17.454545 19.781818l-8.145455 9.309091c-4.654545-6.981818-9.309091-12.8-17.454545-20.945455l8.145455-8.145454zM423.563636 865.745455H442.181818v-6.981819h10.472727v6.981819h16.29091v10.472727h-16.29091v5.818182h20.945455v-23.272728h9.309091v23.272728h23.272727v10.472727h-23.272727c1.163636 12.8 1.163636 23.272727 2.327273 31.418182 0 1.163636 0 3.490909 1.163636 5.818182 2.327273-9.309091 4.654545-19.781818 6.981818-31.418182l8.145455 4.654545c-2.327273 17.454545-6.981818 32.581818-10.472728 43.054546 0 1.163636 1.163636 2.327273 1.163637 3.490909 2.327273 5.818182 3.490909 8.145455 4.654545 8.145454 1.163636 0 2.327273-5.818182 3.490909-17.454545l8.145455 5.818182c-2.327273 16.290909-5.818182 25.6-10.472727 25.6-3.490909 0-6.981818-3.490909-11.636364-11.636364 0-1.163636-1.163636-2.327273-1.163636-3.490909-3.490909 5.818182-6.981818 10.472727-10.472728 13.963636l-5.818181-10.472727c4.654545-4.654545 8.145455-9.309091 11.636363-16.290909-1.163636-4.654545-2.327273-11.636364-3.490909-18.618182-1.163636-9.309091-2.327273-20.945455-3.490909-33.745454H418.909091v-10.472728h23.272727v-5.818182h-18.618182v-9.30909z m0 30.254545h44.218182v31.418182h-9.309091v3.490909h10.472728v9.309091h-10.472728v4.654545h12.8v9.309091h-16.290909c5.818182 2.327273 10.472727 5.818182 13.963637 8.145455l-3.49091 9.309091c-4.654545-4.654545-10.472727-8.145455-16.290909-10.472728l3.490909-6.981818h-16.290909l4.654546 5.818182c-4.654545 4.654545-10.472727 8.145455-18.618182 11.636364l-3.490909-9.309091c5.818182-2.327273 11.636364-4.654545 15.127273-8.145455h-13.963637v-9.309091h12.8v-4.654545h-10.472727V930.909091h10.472727v-4.654546h-9.309091V896z m9.309091 11.636364h9.309091v-4.654546h-9.309091v4.654546z m9.309091 11.636363v-3.490909h-9.309091v3.490909h9.309091z m8.145455 11.636364v-4.654546H442.181818v4.654546h8.145455z m-8.145455 13.963636h8.145455v-4.654545H442.181818v4.654545z m8.145455-41.890909v4.654546h9.309091v-4.654546h-9.309091z m9.309091 16.290909v-3.490909h-9.309091v3.490909h9.309091z m32.581818-60.509091c4.654545 5.818182 8.145455 10.472727 10.472727 15.127273l-6.981818 5.818182c-2.327273-4.654545-5.818182-10.472727-10.472727-15.127273l6.981818-5.818182zM518.981818 971.636364l-2.327273-12.8c3.490909 0 5.818182 1.163636 8.145455 1.163636 2.327273 0 3.490909-1.163636 3.490909-4.654545V930.909091c-4.654545 2.327273-8.145455 3.490909-10.472727 4.654545l-2.327273-12.8c4.654545-1.163636 9.309091-2.327273 12.8-4.654545v-24.436364h-11.636364v-12.8h11.636364v-22.109091h10.472727v22.109091h9.309091v12.8h-9.309091v19.781818c2.327273-1.163636 5.818182-3.490909 10.472728-5.818181v12.8c-3.490909 2.327273-6.981818 3.490909-10.472728 5.818181v32.581819c0 8.145455-3.490909 12.8-10.472727 12.8h-9.309091z m44.218182-54.690909c0 22.109091-4.654545 40.727273-12.8 55.854545l-8.145455-9.309091c6.981818-12.8 10.472727-30.254545 10.472728-51.2V872.727273h20.945454c-1.163636-4.654545-2.327273-8.145455-4.654545-12.8l10.472727-2.327273c1.163636 4.654545 2.327273 9.309091 3.490909 15.127273H605.090909v44.218182h-41.890909z m31.418182-31.418182h-31.418182v19.781818h31.418182v-19.781818zM616.727273 863.418182h86.109091v12.8h-15.127273v64c6.981818-1.163636 12.8-1.163636 16.290909-2.327273v11.636364c-3.490909 0-9.309091 1.163636-16.290909 2.327272v19.781819h-10.472727V954.181818c-17.454545 2.327273-37.236364 3.490909-59.345455 5.818182l-2.327273-12.8 16.290909-1.163636v-69.818182H616.727273v-12.8z m25.6 26.763636h34.909091v-13.963636h-34.909091v13.963636z m0 25.6h34.909091v-13.963636h-34.909091v13.963636z m0 29.090909l34.909091-3.490909v-13.963636h-34.909091v17.454545zM763.345455 862.254545h33.745454V896h-11.636364c2.327273 3.490909 3.490909 6.981818 4.654546 9.309091H802.909091v11.636364h-23.272727c5.818182 5.818182 13.963636 10.472727 25.6 13.963636l-4.654546 10.472727-4.654545-2.327273v34.909091h-9.309091v-4.654545h-15.127273v4.654545h-9.309091v-40.727272h22.109091c-6.981818-4.654545-12.8-10.472727-17.454545-16.290909h-16.290909c-4.654545 5.818182-10.472727 11.636364-17.454546 16.290909h20.945455v40.727272H744.727273v-4.654545h-12.8v4.654545h-9.309091v-34.909091l-5.818182 2.327273-4.654545-10.472727c10.472727-3.490909 18.618182-8.145455 25.6-13.963636h-23.272728v-11.636364h32.581818c1.163636-2.327273 2.327273-5.818182 3.49091-8.145455l9.30909 1.163637c-1.163636 2.327273-1.163636 4.654545-2.327272 6.981818h20.945454l-3.490909-6.981818 6.981818-2.327273h-19.781818v-33.745455z m-40.727273 0h32.581818V896h-32.581818v-33.745455z m22.109091 23.272728v-11.636364h-13.963637v11.636364H744.727273z m-12.8 72.145454H744.727273V942.545455h-12.8v15.127272z m39.563636 0h15.127273V942.545455h-15.127273v15.127272z m15.127273-72.145454v-11.636364h-15.127273v11.636364h15.127273z" fill="#FFFFFF" p-id="6628"></path><path d="M731.927273 292.072727c-10.472727 1.163636-32.581818-10.472727-13.963637-34.909091 0 0 26.763636-13.963636 8.145455-26.763636l23.272727-64s-207.127273-139.636364-475.927273 0l26.763637 68.654545s-37.236364 24.436364 8.145454 32.581819c0 0 16.290909 26.763636-33.745454 36.072727-50.036364 9.309091-57.018182 59.345455-25.6 140.8s89.6 67.490909 96.581818 70.981818c6.981818 3.490909 17.454545 9.309091 23.272727 27.927273s33.745455 43.054545 54.690909 45.381818c20.945455 2.327273 41.890909 30.254545 46.545455 32.581818 4.654545 2.327273 32.581818 11.636364 61.672727 10.472727 29.090909-1.163636 51.2-13.963636 59.345455-26.763636 0 0 58.181818-38.4 87.272727-81.454545 0 0 74.472727-11.636364 111.709091-119.854546 33.745455-109.381818-47.709091-112.872727-58.181818-111.709091z m-67.490909-136.145454c-139.636364-55.854545-302.545455-2.327273-302.545455-2.327273 158.254545-80.290909 302.545455 2.327273 302.545455 2.327273z m29.090909 114.036363H674.909091s16.290909 51.2-1.163636 79.127273c-16.290909 27.927273-36.072727 29.090909-13.963637 88.436364 22.109091 59.345455-24.436364 104.727273-36.072727 112.872727-11.636364 8.145455-37.236364 19.781818-57.018182 45.381818-22.109091 29.090909-83.781818 20.945455-100.072727-8.145454-6.981818-12.8-101.236364-8.145455-105.890909-128 0 0 31.418182-75.636364-22.109091-105.890909 0 0 0-55.854545 4.654545-72.145455l-17.454545-1.163636-10.472727-88.436364s166.4-111.709091 390.981818-2.327273l-12.8 80.290909z" fill="#FFFFFF" p-id="6629"></path><path d="M350.254545 246.690909s59.345455-60.509091 90.763637-32.581818 132.654545 26.763636 166.4 11.636364c47.709091-19.781818 69.818182 12.8 69.818182 12.8s0-68.654545-88.436364-52.363637c1.163636 1.163636-159.418182-70.981818-238.545455 60.509091z" fill="#FFFFFF" p-id="6630"></path></svg>