<?xml version="1.0" standalone="no"?><!DOCTYPE svg PUBLIC "-//W3C//DTD SVG 1.1//EN" "http://www.w3.org/Graphics/SVG/1.1/DTD/svg11.dtd"><svg t="1577681334644" class="icon" viewBox="0 0 1024 1024" version="1.1" xmlns="http://www.w3.org/2000/svg" p-id="11128" xmlns:xlink="http://www.w3.org/1999/xlink" width="200" height="200"><defs><style type="text/css"></style></defs><path d="M512 373.527273m-373.527273 0a373.527273 373.527273 0 1 0 747.054546 0 373.527273 373.527273 0 1 0-747.054546 0Z" fill="#FF090B" p-id="11129"></path><path d="M512 373.527273m-310.690909 0a310.690909 310.690909 0 1 0 621.381818 0 310.690909 310.690909 0 1 0-621.381818 0Z" fill="#FFFFFF" p-id="11130"></path><path d="M401.454545 538.763636s-15.127273-46.545455-62.836363-55.854545c-43.054545-8.145455-59.345455-48.872727-59.345455-48.872727s23.272727-5.818182 0-23.272728-38.4-76.8-37.236363-111.709091c0 0 13.963636 18.618182 20.945454 0s-24.436364-69.818182 62.836364-125.672727c0 0-8.145455 20.945455 0 26.763637s15.127273-50.036364 105.890909-73.309091 90.763636-13.963636 90.763636-13.963637-82.618182 31.418182-93.090909 110.545455 15.127273 101.236364 40.727273 73.309091c25.6-26.763636 30.254545-84.945455 30.254545-84.945455s65.163636 133.818182-62.836363 198.981818c0 0 13.963636-30.254545 4.654545-54.690909 0 0-18.618182 26.763636-37.236363 30.254546 0 0-33.745455-37.236364-23.272728-96.581818 0 0-31.418182 41.890909-15.127272 87.272727 0 0-12.8 1.163636-47.709091-45.381818 0 0 3.490909 70.981818 45.381818 88.436363 43.054545 17.454545 41.890909 59.345455 41.890909 59.345455s12.8-40.727273 64-66.327273 51.2-80.290909 51.2-80.290909 39.563636 72.145455-58.181818 136.145455c1.163636 2.327273-51.2 37.236364-61.672728 69.818181z" fill="#1E1C1A" p-id="11131"></path><path d="M406.119358 621.281002a34.909091 45.381818 53.109 1 0-41.911478-55.839113 34.909091 45.381818 53.109 1 0 41.911478 55.839113Z" fill="#1E1C1A" p-id="11132"></path><path d="M751.709091 287.418182L422.4 535.272727l29.090909 38.4L780.8 325.818182l1.163636-31.418182-30.254545-6.981818z m19.781818 31.418182L454.981818 556.218182l-4.654545-6.981818 315.345454-237.381819 5.818182 6.981819z m-9.309091-13.963637L445.672727 542.254545l-4.654545-6.981818L756.363636 297.890909l5.818182 6.981818zM413.090909 553.890909c-3.490909 2.327273-8.145455 3.490909-13.963636 3.490909l23.272727 31.418182c1.163636-4.654545 3.490909-9.309091 8.145455-11.636364 5.818182-3.490909 12.8-4.654545 20.945454-3.490909L422.4 535.272727c-1.163636 8.145455-3.490909 15.127273-9.309091 18.618182z" fill="#1E1C1A" p-id="11133"></path><path d="M738.816 635.136L250.065455 146.385455l35.374545-35.374546L774.202182 599.738182z" fill="#FF090B" p-id="11134"></path><path d="M201.309091 800.581818h621.381818V1024H201.309091z" fill="#FE0807" p-id="11135"></path><path d="M214.109091 812.218182h596.945454v198.981818H214.109091z" fill="#FFFFFF" p-id="11136"></path><path d="M272.290909 861.090909h19.781818v-9.309091h12.8v9.309091h17.454546v11.636364h-17.454546c5.818182 3.490909 10.472727 5.818182 16.290909 10.472727l-6.981818 10.472727c-3.490909-4.654545-6.981818-8.145455-9.309091-11.636363v18.618181h-12.8v-18.618181c-4.654545 6.981818-9.309091 12.8-15.127272 18.618181l-6.981819-10.472727c8.145455-4.654545 15.127273-10.472727 19.781819-17.454545h-17.454546v-11.636364z m31.418182 84.945455c-6.981818 8.145455-15.127273 15.127273-24.436364 22.109091l-8.145454-10.472728c9.309091-5.818182 17.454545-11.636364 23.272727-18.618182l9.309091 6.981819z m-31.418182-23.272728h105.890909v11.636364h-44.218182v20.945455c0 6.981818-4.654545 11.636364-12.8 11.636363h-11.636363l-2.327273-11.636363c3.490909 0 6.981818 1.163636 10.472727 1.163636 2.327273 0 3.490909-1.163636 3.490909-3.490909v-18.618182h-47.709091v-11.636364z m11.636364-18.618181h84.945454v11.636363h-84.945454v-11.636363z m44.218182-43.054546h16.290909v-9.309091h12.8v9.309091h20.945454v11.636364h-16.290909c4.654545 5.818182 10.472727 11.636364 19.781818 17.454545l-9.309091 10.472727c-6.981818-5.818182-11.636364-12.8-15.127272-20.945454v20.945454h-12.8v-20.945454c-4.654545 8.145455-9.309091 15.127273-15.127273 20.945454l-6.981818-10.472727c6.981818-4.654545 12.8-10.472727 18.618182-17.454545h-12.8v-11.636364z m24.436363 76.8c9.309091 4.654545 17.454545 11.636364 25.6 18.618182l-6.981818 11.636364c-8.145455-8.145455-16.290909-15.127273-25.6-19.781819l6.981818-10.472727zM449.163636 852.945455h12.8v38.4h37.236364v12.8h-37.236364v45.381818h44.218182v12.8h-111.709091v-12.8h19.781818v-75.636364h12.8v75.636364h22.109091v-96.581818zM531.781818 878.545455c0 12.8-1.163636 24.436364-3.490909 36.072727l-10.472727-2.327273c2.327273-10.472727 3.490909-22.109091 3.490909-33.745454h10.472727z m29.090909-2.327273v-19.781818h66.327273v110.545454h-12.8v-5.818182h-41.890909v5.818182h-11.636364v-86.109091c-3.490909 4.654545-8.145455 9.309091-13.963636 13.963637v4.654545c0 8.145455 0 15.127273-1.163636 20.945455 4.654545 5.818182 9.309091 12.8 13.963636 18.618181l-6.981818 10.472728c-3.490909-5.818182-5.818182-11.636364-9.309091-16.290909-3.490909 13.963636-8.145455 24.436364-15.127273 32.581818l-9.309091-8.145455c10.472727-11.636364 16.290909-31.418182 16.290909-58.181818v-46.545454h12.8v26.763636c3.490909-3.490909 5.818182-6.981818 8.145455-11.636364l4.654545 8.145455z m12.8 60.509091c8.145455-8.145455 12.8-20.945455 13.963637-36.072728h-11.636364v-11.636363h11.636364V872.727273h10.472727v15.127272h11.636364v11.636364h-12.8v4.654546c6.981818 10.472727 12.8 19.781818 16.290909 29.090909v-65.163637h-41.890909v68.654546z m0 12.8h41.890909v-12.8l-9.309091 5.818182c-3.490909-6.981818-6.981818-15.127273-11.636363-23.272728-2.327273 10.472727-6.981818 18.618182-12.8 24.436364l-8.145455-6.981818v12.8zM692.363636 851.781818h12.8v40.727273c3.490909 25.6 20.945455 46.545455 51.2 62.836364l-8.145454 10.472727c-24.436364-13.963636-40.727273-31.418182-50.036364-54.690909-6.981818 20.945455-23.272727 39.563636-48.872727 54.690909l-8.145455-10.472727c31.418182-17.454545 47.709091-38.4 50.036364-62.836364v-40.727273zM674.909091 877.381818c-3.490909 13.963636-8.145455 26.763636-12.8 37.236364l-11.636364-4.654546c4.654545-9.309091 9.309091-22.109091 12.8-36.072727l11.636364 3.490909z m73.309091-1.163636c-5.818182 12.8-12.8 24.436364-20.945455 34.909091l-9.309091-6.981818c6.981818-9.309091 13.963636-19.781818 19.781819-33.745455l10.472727 5.818182z" fill="#FF090B" p-id="11137"></path></svg>