<?xml version="1.0" standalone="no"?><!DOCTYPE svg PUBLIC "-//W3C//DTD SVG 1.1//EN" "http://www.w3.org/Graphics/SVG/1.1/DTD/svg11.dtd"><svg t="1577678398223" class="icon" viewBox="0 0 1024 1024" version="1.1" xmlns="http://www.w3.org/2000/svg" p-id="7442" xmlns:xlink="http://www.w3.org/1999/xlink" width="200" height="200"><defs><style type="text/css"></style></defs><path d="M512 370.036364m-370.036364 0a370.036364 370.036364 0 1 0 740.072728 0 370.036364 370.036364 0 1 0-740.072728 0Z" fill="#00569E" p-id="7443"></path><path d="M167.563636 801.745455h690.036364V1024H167.563636z" fill="#00569E" p-id="7444"></path><path d="M295.563636 898.327273c-3.490909 19.781818-8.145455 37.236364-15.127272 52.363636l-11.636364-6.981818c5.818182-15.127273 10.472727-30.254545 13.963636-47.709091l12.8 2.327273z m67.490909-30.254546c-10.472727 37.236364-26.763636 65.163636-47.70909 83.781818 0 2.327273 2.327273 3.490909 5.818181 3.49091h19.781819c2.327273 0 4.654545-1.163636 5.818181-3.49091 1.163636-2.327273 2.327273-10.472727 3.490909-23.272727l11.636364 3.490909c-1.163636 17.454545-3.490909 26.763636-5.818182 30.254546-3.490909 3.490909-6.981818 4.654545-12.8 4.654545h-25.6c-6.981818 0-10.472727-2.327273-12.8-6.981818-5.818182 4.654545-12.8 8.145455-19.781818 11.636364l-6.981818-10.472728c9.309091-4.654545 18.618182-9.309091 25.6-16.290909V884.363636h12.8v48.872728c16.290909-17.454545 27.927273-41.890909 36.072727-70.981819l10.472727 5.818182z m-47.70909-9.309091c9.309091 8.145455 17.454545 15.127273 24.436363 22.109091l-9.309091 9.309091c-5.818182-6.981818-13.963636-15.127273-24.436363-23.272727l9.309091-8.145455z m51.2 38.4c6.981818 13.963636 12.8 30.254545 17.454545 46.545455l-11.636364 4.654545c-5.818182-18.618182-11.636364-33.745455-18.618181-47.709091l12.8-3.490909zM441.018182 937.890909c-10.472727 13.963636-24.436364 24.436364-39.563637 33.745455l-5.818181-12.8c15.127273-8.145455 27.927273-17.454545 37.236363-30.254546l8.145455 9.309091z m-3.490909-69.818182c-9.309091 9.309091-20.945455 17.454545-34.909091 24.436364l-5.818182-11.636364c12.8-5.818182 24.436364-12.8 32.581818-22.109091l8.145455 9.309091z m1.163636 33.745455c-10.472727 10.472727-22.109091 19.781818-36.072727 26.763636l-5.818182-11.636363c13.963636-5.818182 24.436364-13.963636 33.745455-23.272728l8.145454 8.145455z m27.927273 0h12.8v22.109091c-1.163636 13.963636-4.654545 24.436364-10.472727 31.418182-6.981818 6.981818-16.290909 12.8-30.254546 17.454545l-6.981818-11.636364c13.963636-3.490909 23.272727-8.145455 27.927273-13.963636 4.654545-5.818182 6.981818-13.963636 8.145454-23.272727v-22.109091z m-25.6-39.563637h65.163636v12.8h-25.6c0 4.654545-1.163636 6.981818-1.163636 9.309091h24.436363v60.509091h-12.8V896h-33.745454v48.872727h-12.8V884.363636H465.454545c1.163636-4.654545 1.163636-6.981818 1.163637-9.309091h-25.6v-12.8z m44.218182 81.454546c9.309091 6.981818 16.290909 12.8 22.109091 19.781818l-9.309091 9.309091c-5.818182-6.981818-12.8-12.8-20.945455-20.945455l8.145455-8.145454zM536.436364 858.763636h12.8v20.945455h24.436363c0 43.054545-1.163636 68.654545-2.327272 79.127273-1.163636 9.309091-6.981818 13.963636-18.618182 13.963636-2.327273 0-5.818182 0-9.309091-1.163636l-3.490909-11.636364c4.654545 0 8.145455 1.163636 10.472727 1.163636 4.654545 0 6.981818-2.327273 8.145455-8.145454 0-5.818182 1.163636-25.6 1.163636-60.509091h-11.636364v3.490909c0 34.909091-8.145455 61.672727-23.272727 77.963636l-10.472727-9.309091c13.963636-13.963636 20.945455-37.236364 20.945454-68.654545v-3.490909h-18.618182v-12.8H535.272727v-20.945455z m89.6 13.963637v98.909091h-12.8v-6.981819h-17.454546v6.981819h-12.8V872.727273h43.054546z m-31.418182 77.963636h17.454545V884.363636h-17.454545v66.327273zM665.6 862.254545c-1.163636 3.490909-1.163636 5.818182-2.327273 9.309091h19.781818v11.636364h-23.272727c-2.327273 5.818182-3.490909 9.309091-5.818182 12.8h26.763637v11.636364h-10.472728v11.636363h13.963637v11.636364h-13.963637v24.436364l13.963637-6.981819 2.327273 11.636364c-8.145455 4.654545-17.454545 8.145455-27.927273 11.636364l-5.818182-10.472728c2.327273-1.163636 4.654545-3.490909 4.654545-4.654545v-23.272727h-15.127272v-11.636364h15.127272v-11.636364H651.636364v-8.145454c0 1.163636-1.163636 2.327273-3.490909 5.818182l-10.472728-6.981819c6.981818-11.636364 11.636364-25.6 15.127273-39.563636l12.8 1.163636z m47.709091 45.381819h12.8v13.963636c0 13.963636-3.490909 24.436364-9.309091 33.745455-4.654545 8.145455-13.963636 13.963636-25.6 17.454545l-6.981818-10.472727c10.472727-3.490909 18.618182-9.309091 22.109091-15.127273 3.490909-6.981818 5.818182-15.127273 5.818182-25.6V907.636364zM698.181818 862.254545c3.490909 5.818182 6.981818 12.8 10.472727 19.781819l-10.472727 5.818181c-3.490909-8.145455-6.981818-15.127273-10.472727-19.781818l10.472727-5.818182z m15.127273-3.490909h12.8v32.581819h23.272727v54.690909h-12.8v-44.218182h-34.909091v44.218182h-12.8v-54.690909h24.436364v-32.581819z m15.127273 84.945455c9.309091 4.654545 18.618182 11.636364 26.763636 18.618182l-6.981818 11.636363c-8.145455-8.145455-17.454545-15.127273-25.6-19.781818l5.818182-10.472727z m24.436363-76.8c-2.327273 6.981818-6.981818 15.127273-11.636363 22.109091l-10.472728-5.818182c4.654545-6.981818 8.145455-13.963636 10.472728-20.945455l11.636363 4.654546z" fill="#FFFFFF" p-id="7445"></path><path d="M373.527273 404.945455h290.909091v237.381818h-290.909091zM656.290909 204.8l-4.654545-4.654545c-5.818182-5.818182-15.127273-5.818182-19.781819 0l-81.454545 81.454545c-5.818182 5.818182-5.818182 15.127273 0 19.781818l4.654545 4.654546c5.818182 5.818182 15.127273 5.818182 19.781819 0l81.454545-81.454546c5.818182-4.654545 5.818182-13.963636 0-19.781818zM607.418182 209.454545c-1.163636-6.981818 1.163636-15.127273 6.981818-20.945454l70.981818-70.981818-20.945454-20.945455-70.981819 70.981818a54.807273 54.807273 0 0 0-9.30909 65.163637l23.272727-23.272728zM740.072727 171.054545l-70.981818 70.981819c-5.818182 5.818182-12.8 8.145455-19.781818 6.981818l-23.272727 23.272727c20.945455 10.472727 46.545455 8.145455 64-9.309091l70.981818-70.981818-20.945455-20.945455z" fill="#FFFFFF" p-id="7446"></path><path d="M371.2 210.618182l4.654545-4.654546c5.818182-5.818182 15.127273-5.818182 19.781819 0l81.454545 81.454546c5.818182 5.818182 5.818182 15.127273 0 19.781818l-4.654545 4.654545c-5.818182 5.818182-15.127273 5.818182-19.781819 0l-81.454545-81.454545c-5.818182-4.654545-5.818182-13.963636 0-19.781818zM418.909091 215.272727c1.163636-6.981818-1.163636-15.127273-6.981818-20.945454l-70.981818-70.981818 20.945454-20.945455 70.981818 70.981818c17.454545 17.454545 20.945455 44.218182 9.309091 65.163637l-23.272727-23.272728zM286.254545 176.872727l70.981819 70.981818c5.818182 5.818182 12.8 8.145455 19.781818 6.981819l23.272727 23.272727c-20.945455 10.472727-46.545455 8.145455-64-9.309091L265.309091 197.818182l20.945454-20.945455z" fill="#FFFFFF" p-id="7447"></path><path d="M605.090909 295.563636c10.472727 12.8 16.290909 29.090909 16.290909 46.545455v128H421.236364v-128c0-12.8 3.490909-24.436364 9.309091-34.909091l-20.945455-20.945455c-10.472727 16.290909-16.290909 36.072727-16.290909 55.854546v157.090909H651.636364V342.109091c0-25.6-9.309091-50.036364-25.6-67.490909L605.090909 295.563636zM478.254545 269.963636c5.818182-1.163636 11.636364-2.327273 17.454546-2.327272h52.363636l25.6-25.6c-8.145455-2.327273-16.290909-3.490909-25.6-3.490909h-53.527272c-13.963636 0-27.927273 3.490909-40.727273 8.145454l24.436363 23.272727z" fill="#FFFFFF" p-id="7448"></path></svg>