<?xml version="1.0" standalone="no"?><!DOCTYPE svg PUBLIC "-//W3C//DTD SVG 1.1//EN" "http://www.w3.org/Graphics/SVG/1.1/DTD/svg11.dtd"><svg t="1577678504940" class="icon" viewBox="0 0 1024 1024" version="1.1" xmlns="http://www.w3.org/2000/svg" p-id="9574" xmlns:xlink="http://www.w3.org/1999/xlink" width="200" height="200"><defs><style type="text/css"></style></defs><path d="M102.516331 648.252201L458.48793 30.536779c23.266118-40.715706 82.594717-40.715706 105.860835 0l357.134904 617.715422c23.266118 40.715706-5.816529 91.901164-53.51207 91.901165H154.865095c-46.532235 0-75.614882-51.185459-52.348764-91.901165z" fill="#FFF500" p-id="9575"></path><path d="M130.435672 649.415507L475.937518 50.312979c16.286282-27.919341 55.838682-27.919341 70.961658 0l345.501846 597.939222c16.286282 27.919341-3.489918 61.655212-36.062482 61.655212H166.498154c-31.409259 1.163306-51.185459-33.73587-36.062482-60.491906z" p-id="9576"></path><path d="M186.274354 651.742119L512 88.702073 837.725646 651.742119z" fill="#FFF500" p-id="9577"></path><path d="M193.254189 783.195683H860.991764V1024H193.254189z" p-id="9578"></path><path d="M207.21386 797.155354h640.981539v214.048281H207.21386z" fill="#FFFFFF" p-id="9579"></path><path d="M275.848907 880.913377h44.205623v-40.715706h15.122976v40.715706h44.205624v80.268106h-13.959671v-4.653224h-89.574552V942.568588h89.574552v-17.449588h-82.594717v-12.796364h82.594717v-17.449589h-89.574552v-13.95967z m12.796364-33.735871c6.979835 8.143141 11.633059 16.286282 16.286283 23.266118l-11.633059 8.143141c-3.489918-6.979835-9.306447-15.122976-16.286283-23.266117l11.633059-8.143142z m90.737859 4.653224c-3.489918 9.306447-9.306447 17.449588-15.122977 25.592729l-12.796364-6.979835c6.979835-9.306447 11.633059-17.449588 15.122976-25.592729l12.796365 6.979835zM425.915365 883.239989c-3.489918 24.429423-8.143141 45.368929-15.122976 62.818517l-11.633059-8.143141c6.979835-18.612894 11.633059-37.225788 13.95967-58.165294l12.796365 3.489918z m23.266118 75.614882c-10.469753 0-16.286282-5.816529-16.286283-16.286283v-75.614882h13.959671v72.124965c0 3.489918 2.326612 5.816529 6.979835 5.816529h23.266118c2.326612 0 4.653224-1.163306 4.653223-3.489917 1.163306-2.326612 2.326612-11.633059 2.326612-25.59273l12.796365 4.653224c-1.163306 18.612894-3.489918 30.245953-5.81653 33.73587-2.326612 3.489918-6.979835 4.653224-12.796364 4.653224h-29.082647z m6.979835-119.820506c11.633059 13.959671 20.939506 25.592729 26.756035 36.062482l-11.633059 8.143142c-6.979835-11.633059-16.286282-23.266118-26.756035-37.225788l11.633059-6.979836z m46.532235 37.225788c8.143141 17.449588 13.959671 37.225788 19.7762 58.165294l-12.796365 5.81653c-5.816529-22.102812-12.796365-41.879012-20.939506-59.3286l13.959671-4.653224zM570.165294 933.262141c9.306447-3.489918 17.449588-6.979835 24.429423-10.469752V907.669412h-23.266117v-12.796365h36.062482v54.675377c0 8.143141-4.653224 11.633059-13.95967 11.633059h-15.122977l-3.489918-11.633059h13.959671c3.489918 0 5.816529-1.163306 5.816529-3.489918v-11.633059c-6.979835 4.653224-15.122976 8.143141-22.102811 11.633059l-3.489918-10.469753c-11.633059 4.653224-23.266118 8.143141-34.899176 11.633059l-3.489918-13.959671c5.816529-1.163306 10.469753-2.326612 15.122976-3.489917v-44.205624h-12.796364V872.770236h12.796364v-32.572565h13.959671V872.770236h12.796365v12.796364h-12.796365v39.5524c4.653224-2.326612 8.143141-3.489918 10.469753-4.653223v12.796364z m8.143141-25.592729c4.653224 3.489918 9.306447 6.979835 12.796365 10.469753l-6.979836 6.979835c-2.326612-3.489918-6.979835-6.979835-11.633058-11.633059l5.816529-5.816529z m1.163306-63.981823h66.308435v45.368929h-66.308435v-45.368929z m11.633059 17.449588h41.879011v-5.816529h-41.879011v5.816529z m41.879011 16.286282v-6.979835h-41.879011v6.979835h41.879011z m-10.469752 83.758024l-3.489918-11.633059h15.122976c2.326612 0 3.489918-1.163306 3.489918-4.653224v-10.469753c-6.979835 3.489918-13.959671 6.979835-23.266118 10.469753l-3.489917-11.633059c9.306447-3.489918 18.612894-6.979835 26.756035-10.469752v-16.286283h-24.429424v-12.796364H651.596705v54.675376c0 8.143141-4.653224 11.633059-12.796364 11.633059h-16.286282z m-2.326612-53.512071c5.816529 3.489918 9.306447 6.979835 12.796364 10.469753l-6.979835 6.979835c-3.489918-3.489918-6.979835-8.143141-12.796365-11.633059l6.979836-5.816529zM667.882988 857.647259h55.838682c-2.326612-4.653224-5.816529-9.306447-8.143141-13.95967l12.796364-4.653224c3.489918 5.816529 6.979835 11.633059 9.306448 18.612894h48.858846v13.959671h-68.635046l-1.163306 19.7762h54.675376c0 30.245953-2.326612 47.695541-3.489918 55.838682-3.489918 10.469753-9.306447 15.122976-19.7762 16.286282-3.489918 0-9.306447 0-15.122976-1.163306l-4.653224-12.796364c8.143141 0 13.959671 1.163306 17.449589 1.163306 4.653224 0 8.143141-4.653224 10.469753-11.633059 1.163306-3.489918 1.163306-15.122976 1.163305-33.735871h-43.042317c-2.326612 10.469753-4.653224 19.7762-9.306447 27.919341-6.979835 11.633059-16.286282 22.102812-27.919341 31.409259l-9.306447-10.469753c13.959671-11.633059 23.266118-22.102812 27.919341-32.572564 4.653224-10.469753 6.979835-20.939506 8.143141-33.735871l1.163306-16.286282h-36.062482v-13.959671z" p-id="9580"></path><path d="M518.979835 227.135473s10.469753-12.796365 6.979836-13.959671c-4.653224-1.163306-3.489918-17.449588-18.612895-22.102811-15.122976-4.653224-18.612894 1.163306-22.102811 0-4.653224-1.163306-12.796365 17.449588-12.796365 17.449588l-233.824482 418.790116h300.132917L523.633059 590.086907s-10.469753-4.653224-17.449588-6.979835c-6.979835-1.163306-10.469753-1.163306-13.959671-12.796365-4.653224-10.469753 13.959671-20.939506-9.306447-22.102812s-37.225788-6.979835-27.919341-15.122976c9.306447-8.143141 30.245953-19.7762 30.245953-23.266118 0-4.653224-8.143141-5.816529 0-15.122976s20.939506-6.979835 20.939506-6.979835c1.163306-16.286282 0-13.959671 0-24.429424 0-10.469753-1.163306 2.326612 0-20.939506s5.816529-30.245953 0-34.899176-10.469753-13.959671-13.959671-17.449588-6.979835-15.122976-2.326612-17.449588c4.653224-2.326612 17.449588-5.816529 17.449588-5.81653s-3.489918 6.979835 0-9.306447 0-23.266118 0-23.266117v-20.939506s1.163306-8.143141 5.81653-15.122977c5.816529-6.979835 4.653224-24.429423 4.653223-24.429423s-17.449588-6.979835-19.7762-12.796365c-1.163306-5.816529 12.796365-2.326612 15.122977-13.95967s5.816529-19.7762 5.816529-19.7762zM584.124964 302.750355l-10.469752 10.469753s-6.979835 2.326612-6.979836 10.469753-2.326612-1.163306 0 8.143141c2.326612 9.306447 4.653224 15.122976 8.143141 19.7762 3.489918 3.489918-3.489918-9.306447 3.489918 3.489918s10.469753 12.796365 10.469753 18.612894 2.326612 6.979835 1.163306 11.633058c-2.326612 4.653224 1.163306 2.326612-6.979835 4.653224-6.979835 2.326612-10.469753-2.326612-17.449589 0s-13.959671 9.306447-13.95967 9.306447-4.653224 3.489918-4.653224 8.143141 0 24.429423 5.81653 25.592729 18.612894-9.306447 16.286282 0 1.163306 8.143141 0 15.122977c-1.163306 6.979835 0 19.7762 0 19.7762s1.163306 4.653224 3.489918 9.306447 8.143141 2.326612 8.143141 9.306447-2.326612 10.469753-4.653224 17.449588 13.959671 13.959671 13.959671 13.959671-10.469753 4.653224 4.653223-4.653224 1.163306-8.143141 15.122977-9.306447c15.122976-1.163306 27.919341 26.756035 23.266117-1.163306-4.653224-27.919341-10.469753-34.899176-12.796364-41.879011-2.326612-6.979835-6.979835-2.326612-2.326612-15.122977s6.979835-13.959671 6.979835-23.266117c1.163306-9.306447 6.979835-5.816529 2.326612-18.612895-4.653224-12.796365 0-8.143141-6.979835-17.449588s-3.489918 0-6.979836-9.306447c-2.326612-9.306447-4.653224-19.7762-4.653223-19.7762l-10.469753-5.816529s-11.633059-1.163306-9.306447-9.306447c2.326612-8.143141 4.653224-8.143141 4.653224-13.959671s-4.653224-18.612894-4.653224-18.612894l-4.653224-6.979835zM656.249929 494.695825s-10.469753 0-8.143141 8.143141c2.326612 8.143141 3.489918 16.286282 3.489917 16.286283s-11.633059 4.653224-4.653223 9.306447 17.449588 4.653224 17.449588 4.653223 18.612894-10.469753 11.633059-13.95967c-6.979835-4.653224-4.653224-2.326612-9.306447-9.306448-4.653224-8.143141-5.816529-16.286282-10.469753-15.122976zM636.473729 566.82079c-12.796365 0-40.715706 5.816529-44.205623 8.143141s-4.653224-15.122976-15.122977-4.653224-9.306447 20.939506-9.306447 20.939506 4.653224-4.653224 0 9.306447c-4.653224 13.959671 5.816529 19.7762 8.143141 20.939506 2.326612 1.163306-4.653224 2.326612 10.469753 0s16.286282-5.816529 19.7762-2.326612c3.489918 2.326612 6.979835 2.326612 10.469753 4.653224 2.326612 2.326612 4.653224 0 8.143141 3.489917 3.489918 2.326612 5.816529 11.633059 19.7762 3.489918s32.572565-12.796365 32.572565-12.796365 0 5.816529 10.469753 5.81653-9.306447-2.326612 19.7762-2.326612c27.919341 1.163306 37.225788-10.469753 24.429423-15.122977s-20.939506 2.326612-12.796365-4.653223c8.143141-6.979835 13.959671-2.326612 6.979836-15.122977-6.979835-11.633059-15.122976-15.122976-17.449588-16.286282s2.326612-5.816529-10.469753-10.469753c-11.633059-5.816529-2.326612-4.653224-11.633059-5.816529-9.306447-1.163306-2.326612-11.633059-16.286282-4.653224s-16.286282 10.469753-18.612895 13.959671-15.122976 3.489918-15.122976 3.489918zM569.001988 284.137461H558.532235c0-30.245953-18.612894-52.348765-19.7762-52.348765l8.143141-6.979835c1.163306 0 23.266118 24.429423 22.102812 59.3286zM555.042318 351.609202l-10.469753-2.326612c5.816529-30.245953-9.306447-55.838682-9.306447-55.838682l9.306447-5.816529c1.163306 2.326612 17.449588 30.245953 10.469753 63.981823z" p-id="9581"></path><path d="M535.266118 285.300767c-2.326612-25.592729-12.796365-38.389094-12.796365-39.5524l8.143141-6.979835c0 1.163306 12.796365 16.286282 15.122976 45.368929l-10.469752 1.163306z" p-id="9582"></path></svg>