<?xml version="1.0" standalone="no"?><!DOCTYPE svg PUBLIC "-//W3C//DTD SVG 1.1//EN" "http://www.w3.org/Graphics/SVG/1.1/DTD/svg11.dtd"><svg t="1577678418819" class="icon" viewBox="0 0 1024 1024" version="1.1" xmlns="http://www.w3.org/2000/svg" p-id="7912" xmlns:xlink="http://www.w3.org/1999/xlink" width="200" height="200"><defs><style type="text/css"></style></defs><path d="M102.516331 648.252201L458.48793 30.536779c23.266118-40.715706 82.594717-40.715706 105.860835 0l357.134904 617.715422c23.266118 40.715706-5.816529 91.901164-53.51207 91.901165H154.865095c-46.532235 0-75.614882-51.185459-52.348764-91.901165z" fill="#FFF500" p-id="7913"></path><path d="M130.435672 649.415507L475.937518 50.312979c16.286282-27.919341 55.838682-27.919341 70.961658 0l345.501846 597.939222c16.286282 27.919341-3.489918 61.655212-36.062482 61.655212H166.498154c-31.409259 1.163306-51.185459-33.73587-36.062482-60.491906z" p-id="7914"></path><path d="M186.274354 651.742119L512 88.702073 837.725646 651.742119z" fill="#FFF500" p-id="7915"></path><path d="M193.254189 783.195683H860.991764V1024H193.254189z" p-id="7916"></path><path d="M207.21386 797.155354h640.981539v214.048281H207.21386z" fill="#FFFFFF" p-id="7917"></path><path d="M275.848907 880.913377h44.205623v-40.715706h15.122976v40.715706h44.205624v80.268106h-13.959671v-4.653224h-89.574552V942.568588h89.574552v-17.449588h-82.594717v-12.796364h82.594717v-17.449589h-89.574552v-13.95967z m12.796364-33.735871c6.979835 8.143141 11.633059 16.286282 16.286283 23.266118l-11.633059 8.143141c-3.489918-6.979835-9.306447-15.122976-16.286283-23.266117l11.633059-8.143142z m90.737859 4.653224c-3.489918 9.306447-9.306447 17.449588-15.122977 25.592729l-12.796364-6.979835c6.979835-9.306447 11.633059-17.449588 15.122976-25.592729l12.796365 6.979835zM425.915365 883.239989c-3.489918 24.429423-8.143141 45.368929-15.122976 62.818517l-11.633059-8.143141c6.979835-18.612894 11.633059-37.225788 13.95967-58.165294l12.796365 3.489918z m23.266118 75.614882c-10.469753 0-16.286282-5.816529-16.286283-16.286283v-75.614882h13.959671v72.124965c0 3.489918 2.326612 5.816529 6.979835 5.816529h23.266118c2.326612 0 4.653224-1.163306 4.653223-3.489917 1.163306-2.326612 2.326612-11.633059 2.326612-25.59273l12.796365 4.653224c-1.163306 18.612894-3.489918 30.245953-5.81653 33.73587-2.326612 3.489918-6.979835 4.653224-12.796364 4.653224h-29.082647z m6.979835-119.820506c11.633059 13.959671 20.939506 25.592729 26.756035 36.062482l-11.633059 8.143142c-6.979835-11.633059-16.286282-23.266118-26.756035-37.225788l11.633059-6.979836z m46.532235 37.225788c8.143141 17.449588 13.959671 37.225788 19.7762 58.165294l-12.796365 5.81653c-5.816529-22.102812-12.796365-41.879012-20.939506-59.3286l13.959671-4.653224zM532.939506 872.770236h16.286282v-33.735871h13.959671V872.770236h13.95967v12.796364h-13.95967v39.5524c5.816529-2.326612 10.469753-4.653224 15.122976-5.816529v13.95967c-12.796365 5.816529-26.756035 10.469753-41.879012 13.959671l-3.489917-15.122976c4.653224-1.163306 9.306447-2.326612 16.286282-3.489918V884.403295h-16.286282v-11.633059z m39.5524 81.431411c6.979835-5.816529 11.633059-12.796365 13.95967-18.612894 2.326612-5.816529 3.489918-13.959671 3.489918-25.592729v-30.245953h45.368929v65.145129c0 2.326612 1.163306 3.489918 3.489918 3.489918h2.326612l1.163305-1.163306V930.93553l11.633059 3.489917c0 6.979835 0 12.796365-1.163306 17.449589 0 3.489918-1.163306 6.979835-3.489917 8.143141-2.326612 1.163306-4.653224 2.326612-9.306447 2.326611h-4.653224c-10.469753 0-16.286282-4.653224-16.286282-13.95967v-53.512071h-19.7762v17.449589c0 11.633059-1.163306 20.939506-4.653224 30.245952-2.326612 8.143141-8.143141 16.286282-16.286282 24.429424l-5.816529-12.796365z m5.816529-98.880999h27.919341c-2.326612-5.816529-4.653224-10.469753-6.979835-13.959671l13.95967-2.326612c2.326612 5.816529 4.653224 10.469753 6.979836 16.286283h29.082647v13.95967h-72.124965v-13.95967zM676.026129 871.60693c9.306447 6.979835 16.286282 12.796365 22.102812 19.7762l-9.306447 9.306447c-4.653224-5.816529-12.796365-12.796365-22.102812-19.7762l9.306447-9.306447z m23.266118 41.879011c-5.816529 17.449588-12.796365 32.572565-19.7762 47.695542l-12.796365-5.81653c8.143141-15.122976 15.122976-31.409259 20.939506-46.532235l11.633059 4.653223z m-22.102812-73.28827c9.306447 5.816529 16.286282 12.796365 23.266117 18.612894l-9.306447 9.306447c-5.816529-5.816529-12.796365-12.796365-23.266117-18.612894l9.306447-9.306447z m75.614882 122.147117l-3.489918-13.95967h15.122977c4.653224 0 6.979835-1.163306 6.979835-4.653224v-88.411246h-54.675376v105.860835h-13.959671V843.687589h81.431412v103.534223c0 9.306447-5.816529 15.122976-16.286283 15.122976h-15.122976z m-30.245953-95.391082h43.042318v12.796365h-43.042318v-12.796365z m2.326612 22.102812h37.225788v48.858847h-37.225788v-48.858847z m25.592729 36.062482v-24.429423h-12.796364v24.429423h12.796364z" p-id="7918"></path><path d="M485.243965 263.197955m-24.429424 0a24.429423 24.429423 0 1 0 48.858847 0 24.429423 24.429423 0 1 0-48.858847 0Z" p-id="7919"></path><path d="M502.693553 330.669696l-86.084635 51.185459c-5.816529 3.489918-13.959671 1.163306-16.286282-4.653224l-2.326612-3.489917c-3.489918-5.816529-1.163306-13.959671 4.653223-16.286283l86.084635-51.185458c5.816529-3.489918 13.959671-1.163306 16.286283 4.653223l2.326611 3.489918c3.489918 4.653224 1.163306 12.796365-4.653223 16.286282z" p-id="7920"></path><path d="M578.308435 330.669696l-70.961659-5.816529c-5.816529 0-10.469753-5.816529-10.469752-11.633059v-3.489918c0-5.816529 5.816529-10.469753 11.633058-10.469753l70.961659 5.81653c5.816529 0 10.469753 5.816529 10.469753 11.633059v3.489917c-1.163306 6.979835-5.816529 10.469753-11.633059 10.469753z" p-id="7921"></path><path d="M601.574553 364.405567l-34.899177-37.225789c-4.653224-4.653224-3.489918-11.633059 0-16.286282l2.326612-2.326612c4.653224-4.653224 11.633059-3.489918 16.286282 0l34.899177 37.225789c4.653224 4.653224 3.489918 11.633059 0 16.286282l-2.326612 2.326612c-4.653224 4.653224-11.633059 4.653224-16.286282 0zM474.774212 424.897472L443.364953 477.246237c-4.653224 6.979835-13.959671 9.306447-20.939506 4.653223l-3.489917-2.326611c-6.979835-4.653224-9.306447-13.959671-4.653224-20.939506l31.409259-52.348765c4.653224-6.979835 13.959671-9.306447 20.939506-4.653223l3.489917 2.326611c6.979835 3.489918 9.306447 12.796365 4.653224 20.939506z" p-id="7922"></path><path d="M521.306447 434.203919l-61.655212 1.163306c-8.143141 0-15.122976-6.979835-15.122976-15.122976v-4.653224c0-8.143141 6.979835-15.122976 15.122976-15.122976l61.655212-1.163306c8.143141 0 15.122976 6.979835 15.122976 15.122976v4.653224c0 8.143141-6.979835 15.122976-15.122976 15.122976zM528.286282 457.470037l12.796365 69.798353c1.163306 8.143141-3.489918 16.286282-11.633059 17.449588l-4.653223 1.163306c-8.143141 1.163306-16.286282-3.489918-17.449589-11.633059l-12.796364-69.798353c-1.163306-8.143141 3.489918-16.286282 11.633059-17.449588l4.653223-1.163306c8.143141-2.326612 15.122976 3.489918 17.449588 11.633059z" p-id="7923"></path><path d="M574.818517 433.040613L518.979835 477.246237c-6.979835 5.816529-16.286282 4.653224-20.939506-2.326612l-2.326611-3.489918c-5.816529-6.979835-4.653224-16.286282 2.326611-20.939505l55.838683-45.36893c6.979835-5.816529 16.286282-4.653224 20.939505 2.326612l2.326612 3.489918c4.653224 6.979835 4.653224 16.286282-2.326612 22.102811z" p-id="7924"></path><path d="M463.141153 321.363249l47.695541 83.758023 16.286282 23.266118 52.348765-11.633059-40.715706-112.84067-24.429423-2.326612c-10.469753-1.163306-19.7762 1.163306-29.082647 6.979835l-22.102812 12.796365zM313.074695 494.695825l-75.614882 140.760011h558.386821l-81.431411-127.963646s-62.818517-20.939506-80.268106-22.102812-67.471741 10.469753-62.818517 13.959671 0 48.858847-10.469753 60.491905-33.73587 41.879012-69.798353 26.756035-30.245953-16.286282-31.409259-32.572564c-1.163306-17.449588-10.469753-62.818517-36.062482-59.3286-25.592729 2.326612-110.514059 0-110.514058 0z" p-id="7925"></path></svg>