<?xml version="1.0" standalone="no"?><!DOCTYPE svg PUBLIC "-//W3C//DTD SVG 1.1//EN" "http://www.w3.org/Graphics/SVG/1.1/DTD/svg11.dtd"><svg t="1577678509215" class="icon" viewBox="0 0 1024 1024" version="1.1" xmlns="http://www.w3.org/2000/svg" p-id="9692" xmlns:xlink="http://www.w3.org/1999/xlink" width="200" height="200"><defs><style type="text/css"></style></defs><path d="M102.516331 648.252201L458.48793 30.536779c23.266118-40.715706 82.594717-40.715706 105.860835 0l357.134904 617.715422c23.266118 40.715706-5.816529 91.901164-53.51207 91.901165H154.865095c-46.532235 0-75.614882-51.185459-52.348764-91.901165z" fill="#FFF500" p-id="9693"></path><path d="M130.435672 649.415507L475.937518 50.312979c16.286282-27.919341 55.838682-27.919341 70.961658 0l345.501846 597.939222c16.286282 27.919341-3.489918 61.655212-36.062482 61.655212H166.498154c-31.409259 1.163306-51.185459-33.73587-36.062482-60.491906z" p-id="9694"></path><path d="M186.274354 651.742119L512 88.702073 837.725646 651.742119z" fill="#FFF500" p-id="9695"></path><path d="M193.254189 783.195683H860.991764V1024H193.254189z" p-id="9696"></path><path d="M207.21386 797.155354h640.981539v214.048281H207.21386z" fill="#FFFFFF" p-id="9697"></path><path d="M275.848907 880.913377h44.205623v-40.715706h15.122976v40.715706h44.205624v80.268106h-13.959671v-4.653224h-89.574552V942.568588h89.574552v-17.449588h-82.594717v-12.796364h82.594717v-17.449589h-89.574552v-13.95967z m12.796364-33.735871c6.979835 8.143141 11.633059 16.286282 16.286283 23.266118l-11.633059 8.143141c-3.489918-6.979835-9.306447-15.122976-16.286283-23.266117l11.633059-8.143142z m90.737859 4.653224c-3.489918 9.306447-9.306447 17.449588-15.122977 25.592729l-12.796364-6.979835c6.979835-9.306447 11.633059-17.449588 15.122976-25.592729l12.796365 6.979835zM425.915365 883.239989c-3.489918 24.429423-8.143141 45.368929-15.122976 62.818517l-11.633059-8.143141c6.979835-18.612894 11.633059-37.225788 13.95967-58.165294l12.796365 3.489918z m23.266118 75.614882c-10.469753 0-16.286282-5.816529-16.286283-16.286283v-75.614882h13.959671v72.124965c0 3.489918 2.326612 5.816529 6.979835 5.816529h23.266118c2.326612 0 4.653224-1.163306 4.653223-3.489917 1.163306-2.326612 2.326612-11.633059 2.326612-25.59273l12.796365 4.653224c-1.163306 18.612894-3.489918 30.245953-5.81653 33.73587-2.326612 3.489918-6.979835 4.653224-12.796364 4.653224h-29.082647z m6.979835-119.820506c11.633059 13.959671 20.939506 25.592729 26.756035 36.062482l-11.633059 8.143142c-6.979835-11.633059-16.286282-23.266118-26.756035-37.225788l11.633059-6.979836z m46.532235 37.225788c8.143141 17.449588 13.959671 37.225788 19.7762 58.165294l-12.796365 5.81653c-5.816529-22.102812-12.796365-41.879012-20.939506-59.3286l13.959671-4.653224zM578.308435 904.179494c-4.653224 2.326612-9.306447 4.653224-12.796365 6.979836v37.225788c0 9.306447-4.653224 13.959671-13.95967 13.95967h-11.633059l-4.653223-13.95967c3.489918 0 6.979835 1.163306 10.469752 1.163306 3.489918 0 4.653224-1.163306 4.653224-4.653224v-27.919341c-6.979835 2.326612-11.633059 4.653224-15.122976 5.81653l-3.489918-15.122977c5.816529-1.163306 11.633059-3.489918 18.612894-5.816529v-26.756036h-16.286282V861.137177h16.286282v-22.102812h13.959671V861.137177h12.796364v13.95967h-12.796364V896.036353c5.816529-2.326612 10.469753-4.653224 12.796364-6.979835v15.122976z m-1.163306 39.5524h40.715706c5.816529-17.449588 10.469753-39.5524 15.122976-65.145129l12.796365 3.489918c-3.489918 22.102812-8.143141 43.042318-13.95967 61.655211h23.266117v13.959671h-77.941494v-13.959671z m3.489918-84.921329h29.082647c-2.326612-6.979835-3.489918-12.796365-5.81653-17.449588l13.959671-2.326612c1.163306 5.816529 3.489918 11.633059 5.816529 19.7762h29.082647V872.770236h-72.124964v-13.959671z m18.612894 20.939506c3.489918 16.286282 6.979835 34.899176 10.469753 57.001988l-12.796365 3.489918c-2.326612-19.7762-5.816529-38.389094-10.469753-57.001988l12.796365-3.489918zM669.046294 844.850895h11.633058v95.391082h43.042318V954.201647h-55.838682v-109.350752z m16.286282 34.899176h17.449588v-40.715706h12.796365v40.715706h16.286282v12.796365h-16.286282v2.326611c5.816529 4.653224 11.633059 10.469753 17.449588 17.449589l-6.979835 11.633058c-4.653224-8.143141-8.143141-13.959671-10.469753-16.286282v31.409259h-12.796365V907.669412c-4.653224 6.979835-9.306447 13.959671-15.122976 20.939506l-5.81653-13.959671c9.306447-6.979835 16.286282-13.959671 19.7762-22.102811h-17.449588v-12.796365z m9.306447-31.409259c2.326612 6.979835 3.489918 15.122976 5.816529 24.429424l-10.469753 2.326611c-1.163306-8.143141-3.489918-15.122976-5.816529-23.266117l10.469753-3.489918z m38.389094 0c-1.163306 9.306447-2.326612 18.612894-4.653224 26.756035l-10.469752-3.489917c2.326612-6.979835 3.489918-15.122976 4.653223-24.429424l10.469753 1.163306z m17.449588 44.205624v8.143141c0 26.756035-4.653224 47.695541-12.796364 60.491906l-11.633059-5.81653c8.143141-12.796365 11.633059-31.409259 11.633059-54.675376v-52.348765c17.449588-1.163306 31.409259-3.489918 43.042317-9.306447l6.979835 11.633059c-11.633059 4.653224-23.266118 6.979835-37.225788 8.143141v20.939506h39.5524v12.796365h-12.796365v70.961658h-12.796364v-70.961658h-13.959671z" p-id="9698"></path><path d="M508.510082 281.810849c-18.612894 0-38.389094-11.633059-38.389094-33.73587h12.796365c0 13.959671 12.796365 20.939506 25.592729 20.939506 11.633059 0 24.429423-5.816529 24.429424-22.102812 0-10.469753-2.326612-18.612894-6.979835-23.266118-5.816529-5.816529-12.796365-5.816529-12.796365-5.816529h-6.979835v-73.288271h12.796364v61.655212c4.653224 1.163306 10.469753 3.489918 16.286283 9.306447 8.143141 8.143141 11.633059 18.612894 11.633058 32.572565 0 22.102812-19.7762 33.73587-38.389094 33.73587z" p-id="9699"></path><path d="M543.409259 182.929849h-61.655212c-5.816529 0-9.306447-4.653224-9.306447-9.306447v-2.326611c0-5.816529 4.653224-9.306447 9.306447-9.306447h61.655212c5.816529 0 9.306447 4.653224 9.306447 9.306447v2.326611c0 5.816529-4.653224 9.306447-9.306447 9.306447zM454.998012 394.651519l-93.06447 45.36893v54.675376l93.06447-47.695541z" p-id="9700"></path><path d="M491.060494 427.224084l-36.062482-32.572565v52.348765l-93.06447 47.695541 47.695541 30.245953 81.431411-40.715706z" p-id="9701"></path><path d="M558.532235 477.246237l-36.062482-32.572565v52.348765l-93.06447 47.695541 48.858847 30.245953 80.268105-40.715706zM637.637035 527.26839l-36.062482-32.572565V547.04459l-93.064471 47.695541 48.858847 30.245952 80.268106-41.879011z" p-id="9702"></path><path d="M616.697529 484.226072h-12.796365c0-53.51207-8.143141-176.822494-88.411246-176.822493-73.28827 0-93.06447 105.860835-93.064471 107.02414l-12.796364-2.326611c1.163306-4.653224 22.102812-118.6572 107.024141-118.6572 90.737859 1.163306 100.044306 133.780176 100.044305 190.782164z" p-id="9703"></path><path d="M506.183471 274.831014h12.796364v148.903152h-12.796364z" p-id="9704"></path></svg>