<?xml version="1.0" standalone="no"?><!DOCTYPE svg PUBLIC "-//W3C//DTD SVG 1.1//EN" "http://www.w3.org/Graphics/SVG/1.1/DTD/svg11.dtd"><svg class="icon" width="200px" height="200.00px" viewBox="0 0 1024 1024" version="1.1" xmlns="http://www.w3.org/2000/svg"><path d="M102.516331 648.252201L458.48793 30.536779c23.266118-40.715706 82.594717-40.715706 105.860835 0l357.134904 617.715422c23.266118 40.715706-5.816529 91.901164-53.51207 91.901165H154.865095c-46.532235 0-75.614882-51.185459-52.348764-91.901165z" fill="#FFF500" /><path d="M130.435672 649.415507L475.937518 50.312979c16.286282-27.919341 55.838682-27.919341 70.961658 0l345.501846 597.939222c16.286282 27.919341-3.489918 61.655212-36.062482 61.655212H166.498154c-31.409259 1.163306-51.185459-33.73587-36.062482-60.491906z"  /><path d="M186.274354 651.742119L512 88.702073 837.725646 651.742119z" fill="#FFF500" /><path d="M193.254189 783.195683H860.991764V1024H193.254189z"  /><path d="M207.21386 797.155354h640.981539v214.048281H207.21386z" fill="#FFFFFF" /><path d="M275.848907 880.913377h44.205623v-40.715706h15.122976v40.715706h44.205624v80.268106h-13.959671v-4.653224h-89.574552V942.568588h89.574552v-18.612894h-82.594717v-12.796364h82.594717v-17.449588h-89.574552v-12.796365z m12.796364-33.735871c6.979835 8.143141 11.633059 16.286282 16.286283 23.266118l-11.633059 8.143141c-3.489918-6.979835-9.306447-15.122976-16.286283-23.266117l11.633059-8.143142z m90.737859 4.653224c-3.489918 9.306447-9.306447 17.449588-15.122977 25.592729l-12.796364-6.979835c6.979835-9.306447 11.633059-17.449588 15.122976-25.592729l12.796365 6.979835zM425.915365 883.239989c-3.489918 24.429423-8.143141 45.368929-15.122976 62.818517l-11.633059-8.143141c6.979835-18.612894 11.633059-37.225788 13.95967-58.165294l12.796365 3.489918z m23.266118 75.614882c-10.469753 0-16.286282-5.816529-16.286283-16.286283v-75.614882h13.959671v72.124965c0 3.489918 2.326612 5.816529 6.979835 5.816529h23.266118c2.326612 0 4.653224-1.163306 4.653223-3.489917 1.163306-2.326612 2.326612-11.633059 2.326612-25.59273l12.796365 4.653224c-1.163306 18.612894-3.489918 30.245953-5.81653 33.73587-2.326612 3.489918-6.979835 4.653224-12.796364 4.653224h-29.082647z m6.979835-119.820506c11.633059 13.959671 20.939506 25.592729 26.756035 36.062482l-11.633059 8.143142c-6.979835-11.633059-16.286282-23.266118-26.756035-37.225788l11.633059-6.979836z m46.532235 37.225788c8.143141 17.449588 13.959671 37.225788 19.7762 58.165294l-12.796365 5.81653c-5.816529-22.102812-12.796365-41.879012-20.939506-59.3286l13.959671-4.653224zM563.185459 925.119c-4.653224 12.796365-10.469753 24.429423-17.449589 36.062483l-13.95967-5.81653c6.979835-10.469753 12.796365-22.102812 18.612894-34.899176l12.796365 4.653223z m-19.7762-33.73587c8.143141 4.653224 15.122976 9.306447 22.102811 15.122976l-9.306447 9.306447c-4.653224-4.653224-12.796365-9.306447-22.102811-15.122976l9.306447-9.306447z m-8.143141-45.368929h29.082647v-6.979836h13.95967v6.979836h31.409259v-6.979836h13.95967v6.979836h29.082647v12.796364h-29.082647v8.143141h-13.95967v-8.143141h-31.409259v8.143141h-13.95967v-8.143141H535.266118v-12.796364z m13.95967 17.449588c8.143141 4.653224 15.122976 9.306447 20.939506 15.122976l-9.306447 9.306447c-5.816529-4.653224-12.796365-9.306447-22.102812-15.122976l10.469753-9.306447z m107.024141 50.022152l-8.143141 11.633059c-3.489918-1.163306-5.816529-1.163306-8.143141-2.326611v39.552399h-12.796365v-4.653223h-37.225788v4.653223h-12.796365v-38.389094c-1.163306 0-3.489918 1.163306-6.979835 2.326612l-8.143141-10.469753c13.959671-3.489918 25.592729-8.143141 36.062482-12.796364-3.489918-3.489918-8.143141-6.979835-10.469753-10.469753-4.653224 3.489918-9.306447 8.143141-15.122976 10.469753l-8.143141-10.469753c13.959671-8.143141 24.429423-17.449588 29.082647-30.245953l12.796364 2.326612c-1.163306 2.326612-2.326612 4.653224-3.489917 5.816529H639.963647v9.306447c-4.653224 8.143141-10.469753 15.122976-18.612894 20.939506 10.469753 6.979835 22.102812 10.469753 34.899176 12.796364z m-24.429423 6.979836c-8.143141-2.326612-15.122976-5.816529-20.939506-9.306447-5.816529 3.489918-12.796365 6.979835-20.939506 9.306447h41.879012z m-40.715706 25.592729H628.330588v-13.95967h-37.225788v13.95967z m4.653223-61.655211c4.653224 4.653224 9.306447 8.143141 15.122977 11.633058 5.816529-4.653224 11.633059-8.143141 15.122976-12.796364l-30.245953 1.163306zM680.679352 878.586765c-1.163306 6.979835-2.326612 12.796365-3.489917 18.612894l-12.796365-3.489917c3.489918-13.959671 5.816529-29.082647 5.81653-44.205624l12.796364 1.163306c0 6.979835-1.163306 11.633059-1.163306 15.122976h5.81653v-26.756035h13.95967v26.756035h9.306447v12.796365h-9.306447v26.756035l8.143141-3.489917v12.796364l-8.143141 3.489918v44.205623h-13.95967v-38.389094c-8.143141 2.326612-13.959671 4.653224-18.612894 5.81653l-3.489918-13.959671c6.979835-1.163306 13.959671-3.489918 22.102812-5.816529v-31.409259h-6.979836z m58.165294-36.062482c-1.163306 6.979835-2.326612 12.796365-4.653223 17.449588h50.022153c0 46.532235-1.163306 75.614882-2.326612 86.084635-1.163306 11.633059-9.306447 17.449588-23.266118 17.449588-1.163306 0-4.653224 0-10.469753-1.163306l-3.489917-12.796364c4.653224 0 8.143141 1.163306 11.633059 1.163306 6.979835 0 11.633059-3.489918 12.796364-11.633059 1.163306-5.816529 1.163306-27.919341 1.163306-66.308435h-4.653223c-2.326612 22.102812-6.979835 38.389094-11.633059 51.185458-5.816529 13.959671-15.122976 26.756035-27.919341 38.389094l-8.143141-11.633058c10.469753-9.306447 18.612894-20.939506 24.429423-32.572565 4.653224-11.633059 8.143141-26.756035 10.469753-45.368929h-6.979835c-5.816529 27.919341-15.122976 48.858847-30.245953 62.818517l-9.306447-10.469753c12.796365-10.469753 22.102812-27.919341 26.756035-52.348764h-5.816529c-3.489918 8.143141-6.979835 15.122976-11.633059 19.7762l-6.979835-8.143141c8.143141-10.469753 13.959671-25.592729 17.449588-45.36893l12.796364 3.489918z"  /><path d="M512 515.635331c20.939506 0 37.225788-16.286282 37.225788-37.225788 0-20.939506-16.286282-37.225788-37.225788-37.225788-20.939506 0-37.225788 16.286282-37.225788 37.225788 0 20.939506 17.449588 37.225788 37.225788 37.225788zM461.977847 638.945754v-54.675376c0-2.326612 1.163306-4.653224 2.326612-5.81653 1.163306-1.163306 2.326612-1.163306 3.489918-2.326611v62.818517h89.574552v-62.818517c1.163306 0 2.326612 1.163306 3.489918 2.326611 1.163306 1.163306 2.326612 3.489918 2.326612 5.81653v54.675376H605.06447v-84.921329c0-5.816529-2.326612-10.469753-5.816529-15.122977-3.489918-3.489918-9.306447-5.816529-15.122977-5.816529H441.038341c-5.816529 0-11.633059 2.326612-15.122976 5.816529-3.489918 3.489918-5.816529 9.306447-5.816529 15.122977v84.921329h41.879011zM407.302471 370.222096l-20.939506 24.429423v41.879012l10.469753 12.796365 10.469753 10.469753 10.469753-10.469753h13.95967l11.633059-13.959671-11.633059-29.082647 11.633059-18.612894-19.7762-12.796364zM594.594717 364.405567l-11.633058 9.306447v19.7762l5.816529 9.306447 17.449588 5.816529 5.81653-17.449588v-26.756035zM505.020165 196.88952l-10.469753 45.368929 27.919341 40.715706 20.939506-29.082647v-33.73587l-9.306447-23.266118zM517.816529 338.812837l-23.266117 31.409259-5.81653 58.165294 47.695541 5.816529 29.082647-50.022152-22.102811-25.59273zM439.875036 346.955978l-3.489918 23.266118 13.95967 4.653224 16.286283-27.919342-10.469753-4.653223zM643.453564 434.203919l-10.469753 26.756036 17.449589 30.245952 20.939505-29.082647-18.612894-15.122976z"  /><path d="M444.528259 218.992332h12.796365v39.5524h-12.796365zM444.528259 277.157626h12.796365v39.5524h-12.796365zM495.713718 132.907697h12.796364v39.5524h-12.796364zM495.713718 188.746379h12.796364v47.695541h-12.796364zM495.713718 252.728202h12.796364v39.5524h-12.796364z"  /><path d="M523.633059 244.585061h12.796364v26.756035H523.633059zM523.633059 302.750355h12.796364v26.756035H523.633059z"  /><path d="M569.001988 192.236297H581.798353v39.552399h-12.796365zM569.001988 248.074979H581.798353v47.695541h-12.796365zM569.001988 310.893496H581.798353v39.5524h-12.796365z"  /><path d="M626.003976 321.363249h12.796365V360.915649h-12.796365zM626.003976 379.528543h12.796365V419.080943h-12.796365z"  /></svg>