<?xml version="1.0" standalone="no"?><!DOCTYPE svg PUBLIC "-//W3C//DTD SVG 1.1//EN" "http://www.w3.org/Graphics/SVG/1.1/DTD/svg11.dtd"><svg t="1577678562044" class="icon" viewBox="0 0 1024 1024" version="1.1" xmlns="http://www.w3.org/2000/svg" p-id="10768" xmlns:xlink="http://www.w3.org/1999/xlink" width="200" height="200"><defs><style type="text/css"></style></defs><path d="M512 373.527273m-373.527273 0a373.527273 373.527273 0 1 0 747.054546 0 373.527273 373.527273 0 1 0-747.054546 0Z" fill="#FF090B" p-id="10769"></path><path d="M512 373.527273m-310.690909 0a310.690909 310.690909 0 1 0 621.381818 0 310.690909 310.690909 0 1 0-621.381818 0Z" fill="#FFFFFF" p-id="10770"></path><path d="M472.436364 493.381818L800.581818 302.545455v84.945454L472.436364 578.327273zM238.545455 358.4l329.30909-190.836364 232.727273 134.981819-328.145454 190.836363z" fill="#1E1C1A" p-id="10771"></path><path d="M253.672727 359.563636l313.018182-181.527272L783.127273 302.545455 470.109091 484.072727z" fill="#FFFFFF" p-id="10772"></path><path d="M477.090909 495.709091l115.2-68.654546v69.818182L477.090909 565.527273z" fill="#FFFFFF" p-id="10773"></path><path d="M472.436364 493.381818v84.945455L238.545455 443.345455v-84.945455z" fill="#1E1C1A" p-id="10774"></path><path d="M464.290909 495.709091v67.490909L247.854545 437.527273v-66.327273z" fill="#FFFFFF" p-id="10775"></path><path d="M592.290909 424.727273L364.218182 292.072727l10.472727-6.981818 223.418182 129.163636zM505.018182 310.690909c10.472727 9.309091 19.781818 18.618182 25.6 26.763636l-10.472727 2.327273c-5.818182-8.145455-13.963636-16.290909-24.436364-26.763636l9.309091-2.327273zM549.236364 279.272727c8.145455 10.472727 13.963636 19.781818 18.618181 29.090909h-12.8c-3.490909-8.145455-9.309091-17.454545-17.454545-27.927272l11.636364-1.163637z" fill="#1E1C1A" p-id="10776"></path><path d="M537.6 307.2c25.6 12.8 54.690909 18.618182 87.272727 15.127273l4.654546 9.309091c-26.763636 2.327273-53.527273-1.163636-79.127273-11.636364 15.127273 15.127273 20.945455 32.581818 18.618182 52.363636l-13.963637-2.327272c3.490909-23.272727-4.654545-41.890909-25.6-57.018182l-36.072727-24.436364 8.145455-5.818182 36.072727 24.436364zM617.890909 260.654545c-6.981818 9.309091-16.290909 18.618182-25.6 27.927273l-12.8-5.818182 4.654546-3.490909-31.418182-20.945454 6.981818-4.654546 30.254545 19.781818 4.654546-3.490909-37.236364-24.436363 6.981818-4.654546 11.636364 6.981818 10.472727-6.981818 9.309091 6.981818-10.472727 6.981819 13.963636 9.309091c2.327273-3.490909 5.818182-5.818182 8.145455-9.309091l10.472727 5.818181zM652.8 271.127273c12.8 2.327273 27.927273 1.163636 45.381818-2.327273l4.654546 9.309091c-20.945455 2.327273-39.563636 1.163636-55.854546-2.327273l32.581818 20.945455-8.145454 5.818182-32.581818-20.945455c6.981818 11.636364 8.145455 24.436364 4.654545 37.236364l-13.963636-3.490909c4.654545-10.472727 5.818182-20.945455 2.327272-30.254546l-22.10909 15.127273-10.472728-6.981818 29.090909-19.781819-11.636363-5.818181 8.145454-5.818182 10.472728 6.981818 29.090909-19.781818 10.472727 6.981818-22.109091 15.127273zM633.018182 258.327273c-5.818182 3.490909-11.636364 2.327273-19.781818-2.327273l-36.072728-23.272727 6.981819-4.654546 13.963636 9.309091c4.654545-5.818182 6.981818-11.636364 9.309091-17.454545l12.8 4.654545c-3.490909 5.818182-6.981818 12.8-11.636364 19.781818l9.309091 5.818182c2.327273 2.327273 4.654545 2.327273 6.981818 1.163637l8.145455-5.818182c1.163636-1.163636 2.327273-2.327273 2.327273-3.490909 0-1.163636-3.490909-3.490909-8.145455-8.145455l10.472727-2.327273c8.145455 5.818182 12.8 10.472727 12.8 12.8s-1.163636 4.654545-4.654545 6.981819l-12.8 6.981818z" fill="#1E1C1A" p-id="10777"></path><path d="M408.238545 313.925818L282.298182 386.734545l-5.818182-10.065454 125.917091-72.820364zM452.864 338.455273l-125.928727 72.808727-5.818182-10.065455 125.905454-72.820363zM498.699636 365.218909l-122.903272 71.063273-5.818182-10.065455 122.891636-71.074909zM548.619636 393.309091l-125.917091 72.808727-5.818181-10.065454 125.905454-72.820364z" fill="#1E1C1A" p-id="10778"></path><path d="M738.816 635.136L250.065455 146.385455l35.374545-35.374546L774.202182 599.738182z" fill="#FF090B" p-id="10779"></path><path d="M164.072727 800.581818h695.854546V1024H164.072727z" fill="#FE0807" p-id="10780"></path><path d="M175.709091 812.218182h671.418182v198.981818H175.709091z" fill="#FFFFFF" p-id="10781"></path><path d="M210.618182 861.090909h19.781818v-9.309091h12.8v9.309091h17.454545v11.636364h-17.454545c5.818182 3.490909 10.472727 5.818182 16.290909 10.472727l-6.981818 10.472727c-3.490909-4.654545-6.981818-8.145455-9.309091-11.636363v18.618181h-12.8v-18.618181c-4.654545 6.981818-9.309091 12.8-15.127273 18.618181l-6.981818-10.472727c8.145455-4.654545 15.127273-10.472727 19.781818-17.454545h-17.454545v-11.636364z m31.418182 84.945455c-6.981818 8.145455-15.127273 15.127273-24.436364 22.109091l-8.145455-11.636364c9.309091-5.818182 17.454545-11.636364 23.272728-18.618182l9.309091 8.145455z m-31.418182-23.272728h105.890909v11.636364h-44.218182v20.945455c0 6.981818-4.654545 11.636364-12.8 11.636363h-11.636364l-2.327272-11.636363c3.490909 0 6.981818 1.163636 10.472727 1.163636 2.327273 0 3.490909-1.163636 3.490909-3.490909v-18.618182h-47.709091v-11.636364z m10.472727-18.618181h84.945455v11.636363H221.090909v-11.636363z m44.218182-43.054546h16.290909v-9.309091h12.8v9.309091h20.945455v11.636364h-16.29091c4.654545 5.818182 10.472727 11.636364 19.781819 17.454545l-8.145455 10.472727c-6.981818-5.818182-11.636364-12.8-15.127273-20.945454v20.945454h-12.8v-20.945454c-4.654545 8.145455-9.309091 15.127273-15.127272 20.945454l-6.981819-10.472727c6.981818-4.654545 12.8-10.472727 18.618182-17.454545h-12.8v-11.636364z m25.6 76.8c9.309091 4.654545 17.454545 11.636364 25.6 18.618182l-6.981818 11.636364c-8.145455-8.145455-16.290909-15.127273-25.6-19.781819l6.981818-10.472727zM386.327273 852.945455h12.8v38.4h37.236363v12.8h-37.236363v45.381818h44.218182v12.8h-111.709091v-12.8h19.781818v-75.636364h12.8v75.636364h22.109091v-96.581818zM456.145455 864.581818h17.454545v-11.636363h11.636364v11.636363h19.781818v-11.636363h12.8v11.636363h19.781818v-11.636363h11.636364v11.636363h17.454545v12.8h-17.454545v11.636364h-11.636364v-11.636364h-19.781818v11.636364h-12.8v-11.636364h-19.781818v11.636364h-11.636364v-11.636364h-17.454545v-12.8z m109.381818 29.090909V919.272727h-12.8v-12.8h-33.745455v9.309091h31.418182v29.090909c0 9.309091-3.490909 12.8-11.636364 12.8h-11.636363l-3.490909-11.636363 10.472727 1.163636c2.327273 0 3.490909-1.163636 3.490909-4.654545v-15.127273h-18.618182V965.818182h-12.8v-38.4h-18.618182v31.418182h-12.8v-43.054546h31.418182v-9.309091h-33.745454V919.272727h-12.8v-25.6h105.890909zM629.527273 851.781818h12.8v40.727273c3.490909 25.6 20.945455 46.545455 51.2 62.836364l-6.981818 10.472727c-24.436364-13.963636-40.727273-31.418182-50.036364-54.690909-6.981818 20.945455-23.272727 39.563636-48.872727 54.690909l-8.145455-10.472727c31.418182-17.454545 47.709091-38.4 50.036364-62.836364v-40.727273z m-17.454546 25.6c-3.490909 13.963636-8.145455 26.763636-12.8 37.236364l-11.636363-4.654546c4.654545-9.309091 9.309091-22.109091 12.8-36.072727l11.636363 3.490909z m74.472728-1.163636c-5.818182 12.8-12.8 24.436364-20.945455 34.909091l-9.309091-6.981818c6.981818-9.309091 13.963636-19.781818 19.781818-33.745455l10.472728 5.818182zM705.163636 859.927273c15.127273-1.163636 29.090909-3.490909 40.727273-6.981818l4.654546 11.636363c-5.818182 1.163636-10.472727 2.327273-15.127273 3.490909V884.363636h15.127273v12.8h-15.127273v4.654546c5.818182 4.654545 11.636364 10.472727 17.454545 16.290909l-6.981818 11.636364c-4.654545-6.981818-6.981818-11.636364-10.472727-16.29091v53.527273h-12.8v-51.2c-3.490909 10.472727-9.309091 19.781818-15.127273 27.927273l-5.818182-13.963636c8.145455-9.309091 15.127273-20.945455 18.618182-32.581819h-16.290909V884.363636H721.454545v-15.127272c-5.818182 1.163636-10.472727 1.163636-15.127272 2.327272l-1.163637-11.636363z m72.145455-8.145455h12.8V872.727273H814.545455v58.181818h-12.8v-4.654546h-11.636364v40.727273h-12.8v-40.727273h-10.472727v4.654546h-12.8v-58.181818h23.272727v-20.945455z m-10.472727 62.836364h10.472727v-29.090909h-10.472727v29.090909z m23.272727 0h11.636364v-29.090909h-11.636364v29.090909z" fill="#FF090B" p-id="10782"></path></svg>