<?xml version="1.0" standalone="no"?><!DOCTYPE svg PUBLIC "-//W3C//DTD SVG 1.1//EN" "http://www.w3.org/Graphics/SVG/1.1/DTD/svg11.dtd"><svg t="1577681354908" class="icon" viewBox="0 0 1024 1024" version="1.1" xmlns="http://www.w3.org/2000/svg" p-id="11480" xmlns:xlink="http://www.w3.org/1999/xlink" width="200" height="200"><defs><style type="text/css"></style></defs><path d="M512 373.527273m-373.527273 0a373.527273 373.527273 0 1 0 747.054546 0 373.527273 373.527273 0 1 0-747.054546 0Z" fill="#FF090B" p-id="11481"></path><path d="M512 373.527273m-310.690909 0a310.690909 310.690909 0 1 0 621.381818 0 310.690909 310.690909 0 1 0-621.381818 0Z" fill="#FFFFFF" p-id="11482"></path><path d="M297.890909 194.327273v396.8h444.509091V194.327273H297.890909z m430.545455 382.836363H311.854545V208.290909h416.581819v368.872727z" p-id="11483"></path><path d="M592.290909 316.509091c-3.490909-3.490909-8.145455-5.818182-12.8-5.818182H457.309091c-4.654545 0-9.309091 2.327273-12.8 5.818182-3.490909 3.490909-5.818182 8.145455-5.818182 12.8v96.581818c0 10.472727 8.145455 17.454545 17.454546 17.454546 10.472727 0 17.454545-8.145455 17.454545-17.454546v-72.145454c0-2.327273 1.163636-3.490909 2.327273-4.654546 1.163636-1.163636 1.163636-1.163636 2.327272-1.163636v205.963636c0 10.472727 8.145455 17.454545 17.454546 17.454546s17.454545-8.145455 17.454545-17.454546v-97.745454h4.654546v97.745454c0 10.472727 8.145455 17.454545 17.454545 17.454546 10.472727 0 17.454545-8.145455 17.454546-17.454546V347.927273c1.163636 0 2.327273 1.163636 2.327272 1.163636 1.163636 1.163636 2.327273 3.490909 2.327273 4.654546v72.145454c0 10.472727 8.145455 17.454545 17.454546 17.454546 10.472727 0 17.454545-8.145455 17.454545-17.454546v-96.581818c4.654545-4.654545 3.490909-9.309091 0-12.8z m-73.309091-19.781818c17.454545 0 31.418182-13.963636 31.418182-31.418182 0-17.454545-13.963636-31.418182-31.418182-31.418182-17.454545 0-31.418182 13.963636-31.418182 31.418182 0 17.454545 13.963636 31.418182 31.418182 31.418182z" p-id="11484"></path><path d="M460.8 167.563636m-17.454545 0a17.454545 17.454545 0 1 0 34.90909 0 17.454545 17.454545 0 1 0-34.90909 0Z" p-id="11485"></path><path d="M579.490909 167.563636m-17.454545 0a17.454545 17.454545 0 1 0 34.909091 0 17.454545 17.454545 0 1 0-34.909091 0Z" p-id="11486"></path><path d="M570.181818 144.290909c-1.163636 0-3.490909-1.163636-4.654545-2.327273l-45.381818-45.381818-45.381819 45.381818c-2.327273 2.327273-5.818182 2.327273-9.309091 0-2.327273-2.327273-2.327273-5.818182 0-9.309091l48.872728-48.872727c2.327273-2.327273 5.818182-2.327273 9.309091 0l50.036363 50.036364c2.327273 2.327273 2.327273 5.818182 0 9.309091 0 1.163636-2.327273 1.163636-3.490909 1.163636z" p-id="11487"></path><path d="M285.405091 110.917818l488.750545 488.738909-35.374545 35.374546-488.750546-488.738909z" fill="#FF090B" p-id="11488"></path><path d="M201.309091 800.581818h621.381818V1024H201.309091z" fill="#FE0807" p-id="11489"></path><path d="M214.109091 812.218182h596.945454v198.981818H214.109091z" fill="#FFFFFF" p-id="11490"></path><path d="M272.290909 861.090909h19.781818v-9.309091h12.8v9.309091h17.454546v11.636364h-17.454546c5.818182 3.490909 10.472727 5.818182 16.290909 10.472727l-6.981818 10.472727c-3.490909-4.654545-6.981818-8.145455-9.309091-11.636363v18.618181h-12.8v-18.618181c-4.654545 6.981818-9.309091 12.8-15.127272 18.618181l-6.981819-10.472727c8.145455-4.654545 15.127273-10.472727 19.781819-17.454545h-17.454546v-11.636364z m31.418182 84.945455c-6.981818 8.145455-15.127273 15.127273-24.436364 22.109091l-8.145454-10.472728c9.309091-5.818182 17.454545-11.636364 23.272727-18.618182l9.309091 6.981819z m-31.418182-23.272728h105.890909v11.636364h-44.218182v20.945455c0 6.981818-4.654545 11.636364-12.8 11.636363h-11.636363l-2.327273-11.636363c3.490909 0 6.981818 1.163636 10.472727 1.163636 2.327273 0 3.490909-1.163636 3.490909-3.490909v-18.618182h-47.709091v-11.636364z m11.636364-18.618181h84.945454v11.636363h-84.945454v-11.636363z m44.218182-43.054546h16.290909v-9.309091h12.8v9.309091h20.945454v11.636364h-16.290909c4.654545 5.818182 10.472727 11.636364 19.781818 17.454545l-9.309091 10.472727c-6.981818-5.818182-11.636364-12.8-15.127272-20.945454v20.945454h-12.8v-20.945454c-4.654545 8.145455-9.309091 15.127273-15.127273 20.945454l-6.981818-10.472727c6.981818-4.654545 12.8-10.472727 18.618182-17.454545h-12.8v-11.636364z m24.436363 76.8c9.309091 4.654545 17.454545 11.636364 25.6 18.618182l-6.981818 11.636364c-8.145455-8.145455-16.290909-15.127273-25.6-19.781819l6.981818-10.472727zM449.163636 852.945455h12.8v38.4h37.236364v12.8h-37.236364v45.381818h44.218182v12.8h-111.709091v-12.8h19.781818v-75.636364h12.8v75.636364h22.109091v-96.581818zM518.981818 873.890909h48.872727v-6.981818c-10.472727 0-22.109091 1.163636-34.90909 1.163636l-3.49091-11.636363c32.581818 0 59.345455-1.163636 83.781819-4.654546l5.818181 10.472727c-10.472727 1.163636-23.272727 3.490909-37.236363 4.654546v6.981818h48.872727v11.636364H581.818182v31.418182c12.8 12.8 29.090909 23.272727 50.036363 31.418181l-6.981818 12.8c-16.290909-6.981818-31.418182-16.290909-43.054545-29.090909v34.909091h-12.8v-34.909091c-11.636364 11.636364-26.763636 20.945455-43.054546 29.090909l-8.145454-11.636363c22.109091-9.309091 38.4-19.781818 51.2-32.581818v-31.418182h-48.872727v-11.636364z m26.763637 15.127273H558.545455v37.236363h-12.8v-4.654545c-6.981818 2.327273-15.127273 3.490909-22.109091 4.654545l-3.490909-11.636363c9.309091-1.163636 18.618182-2.327273 26.763636-3.490909v-5.818182h-23.272727v-11.636364h23.272727v-4.654545z m57.018181 37.236363c-9.309091 0-13.963636-4.654545-13.963636-13.963636v-23.272727h12.8v6.981818c6.981818-1.163636 13.963636-3.490909 20.945455-5.818182l4.654545 10.472727c-6.981818 2.327273-15.127273 4.654545-24.436364 5.818182v2.327273c0 3.490909 1.163636 5.818182 4.654546 5.818182h8.145454c1.163636 0 2.327273 0 2.327273-1.163637 1.163636-1.163636 1.163636-3.490909 1.163636-8.145454l11.636364 3.490909c-1.163636 8.145455-2.327273 12.8-4.654545 13.963636-2.327273 1.163636-4.654545 2.327273-9.309091 2.327273h-13.963637zM705.163636 851.781818c0 9.309091 0 18.618182-1.163636 27.927273 6.981818 32.581818 24.436364 58.181818 53.527273 74.472727l-8.145455 11.636364c-23.272727-15.127273-39.563636-36.072727-48.872727-62.836364-8.145455 25.6-25.6 46.545455-51.2 62.836364l-8.145455-11.636364c33.745455-19.781818 50.036364-47.709091 51.2-83.781818v-19.781818h12.8z" fill="#FF090B" p-id="11491"></path></svg>