<?xml version="1.0" standalone="no"?><!DOCTYPE svg PUBLIC "-//W3C//DTD SVG 1.1//EN" "http://www.w3.org/Graphics/SVG/1.1/DTD/svg11.dtd"><svg class="icon" width="200px" height="200.00px" viewBox="0 0 1024 1024" version="1.1" xmlns="http://www.w3.org/2000/svg"><path d="M512 370.036364m-370.036364 0a370.036364 370.036364 0 1 0 740.072728 0 370.036364 370.036364 0 1 0-740.072728 0Z" fill="#00569E" /><path d="M167.563636 801.745455h690.036364V1024H167.563636z" fill="#00569E" /><path d="M240.872727 898.327273c-2.327273 19.781818-6.981818 37.236364-11.636363 52.363636l-9.309091-8.145454c4.654545-15.127273 8.145455-30.254545 10.472727-47.709091l10.472727 3.490909z m53.527273-30.254546c-9.309091 37.236364-20.945455 65.163636-38.4 83.781818 0 2.327273 1.163636 3.490909 4.654545 3.49091h15.127273c2.327273 0 3.490909-1.163636 4.654546-3.49091 1.163636-2.327273 2.327273-10.472727 2.327272-23.272727l9.309091 3.490909c-1.163636 17.454545-2.327273 26.763636-4.654545 30.254546-2.327273 3.490909-5.818182 4.654545-10.472727 4.654545H256c-5.818182 0-9.309091-2.327273-10.472727-6.981818-4.654545 4.654545-10.472727 8.145455-16.290909 11.636364l-5.818182-10.472728c6.981818-4.654545 13.963636-9.309091 20.945454-16.290909V884.363636h11.636364v48.872728c12.8-17.454545 22.109091-41.890909 29.090909-70.981819l9.309091 5.818182z m-38.4-9.309091c8.145455 8.145455 13.963636 15.127273 18.618182 22.109091l-6.981818 9.309091c-4.654545-6.981818-10.472727-15.127273-18.618182-23.272727l6.981818-8.145455z m41.890909 38.4c5.818182 13.963636 10.472727 30.254545 13.963636 46.545455l-9.30909 5.818182c-4.654545-18.618182-9.309091-33.745455-15.127273-47.709091l10.472727-4.654546zM356.072727 937.890909c-8.145455 13.963636-18.618182 24.436364-31.418182 33.745455l-4.654545-12.8c11.636364-8.145455 22.109091-17.454545 29.090909-30.254546l6.981818 9.309091z m-2.327272-69.818182c-8.145455 9.309091-17.454545 17.454545-27.927273 24.436364l-4.654546-11.636364c10.472727-5.818182 19.781818-12.8 25.6-22.109091l6.981819 9.309091z m1.163636 33.745455c-8.145455 10.472727-17.454545 19.781818-29.090909 26.763636l-4.654546-11.636363c10.472727-5.818182 19.781818-13.963636 26.763637-23.272728l6.981818 8.145455z m22.109091 0h10.472727v22.109091c0 13.963636-3.490909 24.436364-8.145454 31.418182-4.654545 6.981818-12.8 12.8-24.436364 17.454545l-5.818182-11.636364c10.472727-3.490909 18.618182-8.145455 22.109091-13.963636 3.490909-5.818182 5.818182-13.963636 6.981818-23.272727v-22.109091z m-20.945455-39.563637h52.363637v12.8h-20.945455c0 4.654545-1.163636 6.981818-1.163636 9.309091h19.781818v60.509091H395.636364V896h-26.763637v48.872727h-10.472727V884.363636h17.454545c0-4.654545 1.163636-6.981818 1.163637-9.309091h-20.945455v-12.8z m36.072728 81.454546c6.981818 6.981818 12.8 12.8 17.454545 19.781818l-8.145455 9.309091c-4.654545-6.981818-9.309091-12.8-17.454545-20.945455l8.145455-8.145454zM423.563636 865.745455H442.181818v-6.981819h10.472727v6.981819h16.29091v10.472727h-16.29091v5.818182h20.945455v-23.272728h9.309091v23.272728h23.272727v10.472727h-23.272727c1.163636 12.8 1.163636 23.272727 2.327273 31.418182 0 1.163636 0 3.490909 1.163636 5.818182 2.327273-9.309091 4.654545-19.781818 6.981818-31.418182l8.145455 4.654545c-2.327273 17.454545-6.981818 32.581818-10.472728 43.054546 0 1.163636 1.163636 2.327273 1.163637 3.490909 2.327273 5.818182 3.490909 8.145455 4.654545 8.145454 1.163636 0 2.327273-5.818182 3.490909-17.454545l8.145455 5.818182c-2.327273 16.290909-5.818182 25.6-10.472727 25.6-3.490909 0-6.981818-3.490909-11.636364-11.636364 0-1.163636-1.163636-2.327273-1.163636-3.490909-3.490909 5.818182-6.981818 10.472727-10.472728 13.963636l-5.818181-10.472727c4.654545-4.654545 8.145455-9.309091 11.636363-16.290909-1.163636-4.654545-2.327273-11.636364-3.490909-18.618182-1.163636-9.309091-2.327273-20.945455-3.490909-33.745454H418.909091v-10.472728h23.272727v-5.818182h-18.618182v-9.30909z m0 30.254545h44.218182v31.418182h-9.309091v3.490909h10.472728v9.309091h-10.472728v4.654545h12.8v9.309091h-16.290909c5.818182 2.327273 10.472727 5.818182 13.963637 8.145455l-3.49091 9.309091c-4.654545-4.654545-10.472727-8.145455-16.290909-10.472728l3.490909-6.981818h-16.290909l4.654546 5.818182c-4.654545 4.654545-10.472727 8.145455-18.618182 11.636364l-3.490909-9.309091c5.818182-2.327273 11.636364-4.654545 15.127273-8.145455h-13.963637v-9.309091h12.8v-4.654545h-10.472727V930.909091h10.472727v-4.654546h-9.309091V896z m9.309091 11.636364h9.309091v-4.654546h-9.309091v4.654546z m9.309091 11.636363v-3.490909h-9.309091v3.490909h9.309091z m8.145455 11.636364v-4.654546H442.181818v4.654546h8.145455z m-8.145455 13.963636h8.145455v-4.654545H442.181818v4.654545z m8.145455-41.890909v4.654546h9.309091v-4.654546h-9.309091z m9.309091 16.290909v-3.490909h-9.309091v3.490909h9.309091z m32.581818-60.509091c4.654545 5.818182 8.145455 10.472727 10.472727 15.127273l-6.981818 5.818182c-2.327273-4.654545-5.818182-10.472727-10.472727-15.127273l6.981818-5.818182zM517.818182 904.145455h26.763636c2.327273-5.818182 4.654545-11.636364 8.145455-18.618182l10.472727 3.490909-5.818182 15.127273H605.090909v12.8h-18.618182c-3.490909 11.636364-8.145455 20.945455-12.8 27.927272 9.309091 4.654545 19.781818 11.636364 29.090909 17.454546l-6.981818 11.636363c-10.472727-6.981818-19.781818-13.963636-30.254545-19.781818-11.636364 11.636364-25.6 18.618182-43.054546 18.618182l-5.818182-11.636364c16.290909 0 29.090909-4.654545 38.4-12.8-9.309091-4.654545-17.454545-8.145455-26.763636-11.636363 3.490909-6.981818 6.981818-13.963636 9.309091-19.781818h-22.109091v-12.8z m86.109091-33.745455v27.927273H593.454545v-16.290909h-64v16.290909h-10.472727v-27.927273h36.072727c-1.163636-3.490909-2.327273-5.818182-3.490909-9.309091l11.636364-2.327273c1.163636 2.327273 2.327273 6.981818 3.490909 11.636364h37.236364z m-52.363637 45.381818c-2.327273 5.818182-4.654545 10.472727-6.981818 15.127273 5.818182 2.327273 12.8 4.654545 19.781818 8.145454 4.654545-5.818182 8.145455-13.963636 11.636364-23.272727h-24.436364zM663.272727 858.763636c12.8 16.290909 26.763636 27.927273 43.054546 37.236364l-4.654546 11.636364c-4.654545-2.327273-9.309091-5.818182-13.963636-9.309091v11.636363h-22.109091v17.454546h27.927273v12.8h-27.927273v18.618182h36.072727v12.8h-82.618182v-12.8h36.072728v-18.618182h-27.927273v-12.8h27.927273v-17.454546h-22.109091v-11.636363c-4.654545 3.490909-9.309091 6.981818-13.963637 9.309091l-4.654545-11.636364c17.454545-10.472727 31.418182-23.272727 43.054545-37.236364h5.818182z m22.109091 38.4c-9.309091-6.981818-18.618182-16.290909-25.6-26.763636-6.981818 9.309091-16.290909 18.618182-25.6 26.763636h51.2zM737.745455 950.690909v22.109091h-9.309091v-84.945455h-3.490909v64h-8.145455v-75.636363h12.8v-18.618182h9.309091v18.618182h12.8v60.509091c0 9.309091-2.327273 12.8-8.145455 12.8h-5.818181z m0-62.836364v52.363637h1.163636c1.163636 0 2.327273-2.327273 2.327273-5.818182v-46.545455h-3.490909z m64-25.6v41.89091H791.272727v-30.254546h-27.927272v30.254546h-9.309091v-41.89091h47.709091z m-3.49091 46.545455v65.163636h-9.30909v-4.654545h-23.272728v4.654545H756.363636v-64h41.890909z m-32.581818-30.254545h23.272728v10.472727h-23.272728v-10.472727z m0 15.127272h23.272728v10.472728h-23.272728v-10.472728z m0 32.581818h23.272728V919.272727h-23.272728v6.981818z m0 16.29091h23.272728v-5.818182h-23.272728v5.818182z m0 15.127272h23.272728v-5.818182h-23.272728v5.818182zM706.327273 338.618182c16.290909-15.127273 13.963636-44.218182-2.327273-55.854546-17.454545-11.636364-23.272727-20.945455-23.272727-20.945454C645.818182 98.909091 512 111.709091 512 111.709091S378.181818 98.909091 343.272727 261.818182c0 0-6.981818 9.309091-23.272727 20.945454-17.454545 11.636364-18.618182 40.727273-2.327273 55.854546 16.290909 15.127273 16.290909 23.272727 12.8 30.254545-4.654545 6.981818-11.636364 8.145455-3.490909 36.072728 8.145455 29.090909 22.109091 74.472727 22.109091 74.472727s3.490909 9.309091 16.290909 18.618182c12.8 9.309091 20.945455 12.8 31.418182 32.581818 9.309091 19.781818 12.8 24.436364 15.127273 27.927273 2.327273 2.327273 11.636364 11.636364 50.036363 36.072727 0 0 6.981818 9.309091 27.927273 4.654545 19.781818-4.654545 23.272727-4.654545 23.272727-4.654545s2.327273-1.163636 23.272728 4.654545c19.781818 4.654545 27.927273-4.654545 27.927272-4.654545 38.4-24.436364 47.709091-33.745455 50.036364-36.072727 2.327273-2.327273 5.818182-8.145455 15.127273-27.927273s18.618182-23.272727 31.418182-32.581818c12.8-9.309091 16.290909-18.618182 16.290909-18.618182s12.8-45.381818 22.109091-74.472727c8.145455-29.090909 1.163636-29.090909-3.49091-36.072728-5.818182-8.145455-4.654545-16.290909 10.472728-30.254545z m-304.872728-45.381818c32.581818 15.127273 83.781818 16.290909 110.545455 15.127272 26.763636 0 77.963636 0 110.545455-15.127272l1.163636 9.309091s-54.690909 18.618182-111.709091 15.127272c-55.854545 3.490909-111.709091-15.127273-111.709091-15.127272l1.163636-9.309091z m267.636364 125.672727c-8.145455 30.254545-12.8 46.545455-15.127273 50.036364-2.327273 3.490909-8.145455 10.472727-17.454545 12.8-9.309091 2.327273-45.381818 62.836364-45.381818 62.836363s-38.4 27.927273-46.545455 31.418182c0 0-19.781818-2.327273-33.745454-2.327273s-33.745455 2.327273-33.745455 2.327273c-8.145455-3.490909-46.545455-31.418182-46.545454-31.418182s-36.072727-60.509091-45.381819-62.836363c-9.309091-2.327273-15.127273-9.309091-17.454545-12.8-2.327273-3.490909-6.981818-19.781818-15.127273-50.036364-8.145455-30.254545 0-31.418182 0-31.418182 23.272727-20.945455 20.945455-25.6 20.945455-25.6 2.327273-27.927273-13.963636-47.709091-13.963637-47.709091l4.654546-1.163636c81.454545 26.763636 125.672727 27.927273 145.454545 25.6 19.781818 2.327273 62.836364 1.163636 145.454546-25.6l4.654545 1.163636s-16.290909 19.781818-13.963636 47.709091c0 0-1.163636 3.490909 20.945454 25.6 2.327273 0 10.472727 1.163636 2.327273 31.418182z" fill="#FFFFFF" /></svg>