<?xml version="1.0" standalone="no"?><!DOCTYPE svg PUBLIC "-//W3C//DTD SVG 1.1//EN" "http://www.w3.org/Graphics/SVG/1.1/DTD/svg11.dtd"><svg t="1578995409463" class="icon" viewBox="0 0 1024 1024" version="1.1" xmlns="http://www.w3.org/2000/svg" p-id="6139" xmlns:xlink="http://www.w3.org/1999/xlink" width="200" height="200"><defs><style type="text/css"></style></defs><path d="M768 597.504l-204.8-204.8h-0.512l-2.56-2.56c-0.512-0.512-1.024-0.512-1.536-1.024-0.512-0.512-1.024-1.024-1.536-1.024-0.512-0.512-1.024-0.512-1.536-1.024-0.512-0.512-1.024-0.512-1.536-1.024-0.512-0.512-1.024-0.512-2.048-1.024-0.512-0.512-1.024-0.512-2.048-1.024-0.512 0-1.024-0.512-1.536-0.512-0.512 0-1.536-0.512-2.048-0.512-0.512 0-1.024-0.512-1.536-0.512-0.512 0-1.536-0.512-2.048-0.512-0.512 0-1.536 0-2.048-0.512-0.512 0-1.536 0-2.048-0.512h-3.584-0.512H530.432c-0.512 0-1.536 0-2.048 0.512-0.512 0-1.536 0-2.048 0.512-0.512 0-1.536 0.512-2.048 0.512-0.512 0-1.024 0.512-1.536 0.512-0.512 0-1.536 0.512-2.048 0.512-0.512 0-1.024 0.512-1.536 0.512-0.512 0.512-1.024 0.512-2.048 1.024-0.512 0.512-1.024 0.512-1.536 1.024-0.512 0.512-1.024 0.512-1.536 1.024-0.512 0.512-1.024 0.512-1.536 1.024-0.512 0.512-1.536 1.024-2.048 1.536-0.512 0.512-1.024 0.512-1.536 1.024-1.024 1.024-2.048 1.536-3.072 2.56l-192.512 192.512c-15.872 15.872-15.872 41.984 0 57.856 8.192 8.192 18.432 11.776 29.184 11.776s20.992-4.096 29.184-11.776l122.368-122.368v275.456c0 22.528 18.432 40.96 40.96 40.96s40.96-18.432 40.96-40.96v-275.456l135.168 135.168c8.192 8.192 18.432 11.776 29.184 11.776s20.992-4.096 29.184-11.776c14.336-16.896 14.336-43.008-1.536-58.88z" p-id="6140" fill="#ffffff"></path><path d="M961.024 301.568L686.08 26.624h-0.512l-2.56-2.56c-0.512-0.512-1.024-0.512-1.536-1.024-0.512-0.512-1.024-1.024-1.536-1.024-0.512-0.512-1.024-0.512-1.536-1.024-0.512-0.512-1.024-0.512-1.536-1.024-0.512-0.512-1.024-0.512-2.048-1.024-0.512-0.512-1.024-0.512-2.048-1.024-0.512 0-1.024-0.512-1.536-0.512-0.512 0-1.536-0.512-2.048-0.512-0.512 0-1.024-0.512-1.536-0.512-0.512 0-1.536-0.512-2.048-0.512-0.512 0-1.536 0-2.048-0.512-0.512 0-1.536 0-2.048-0.512h-3.584-0.512-472.064c-52.736 0-95.232 42.496-95.232 95.232v804.352c0 52.736 42.496 95.232 95.232 95.232h692.736c52.736 0 95.232-42.496 95.232-95.232V344.064c0-2.56 0-4.608-0.512-6.656 1.536-12.8-2.048-26.112-11.776-35.84z m-263.168-146.944l148.992 148.992h-148.992v-148.992zM877.568 927.232h-692.736c-7.168 0-13.312-6.144-13.312-13.312V109.568c0-7.168 6.144-13.312 13.312-13.312h431.104v247.808c0 22.528 18.432 40.96 40.96 40.96H890.88v528.896c0 7.68-6.144 13.312-13.312 13.312z" p-id="6141" fill="#ffffff"></path></svg>