<?xml version="1.0" standalone="no"?><!DOCTYPE svg PUBLIC "-//W3C//DTD SVG 1.1//EN" "http://www.w3.org/Graphics/SVG/1.1/DTD/svg11.dtd"><svg t="1577678459717" class="icon" viewBox="0 0 1024 1024" version="1.1" xmlns="http://www.w3.org/2000/svg" p-id="8622" xmlns:xlink="http://www.w3.org/1999/xlink" width="200" height="200"><defs><style type="text/css"></style></defs><path d="M102.516331 648.252201L458.48793 30.536779c23.266118-40.715706 82.594717-40.715706 105.860835 0l357.134904 617.715422c23.266118 40.715706-5.816529 91.901164-53.51207 91.901165H154.865095c-46.532235 0-75.614882-51.185459-52.348764-91.901165z" fill="#FFF500" p-id="8623"></path><path d="M130.435672 649.415507L475.937518 50.312979c16.286282-27.919341 55.838682-27.919341 70.961658 0l345.501846 597.939222c16.286282 27.919341-3.489918 61.655212-36.062482 61.655212H166.498154c-31.409259 1.163306-51.185459-33.73587-36.062482-60.491906z" p-id="8624"></path><path d="M186.274354 651.742119L512 88.702073 837.725646 651.742119z" fill="#FFF500" p-id="8625"></path><path d="M193.254189 783.195683H860.991764V1024H193.254189z" p-id="8626"></path><path d="M207.21386 797.155354h640.981539v214.048281H207.21386z" fill="#FFFFFF" p-id="8627"></path><path d="M275.848907 880.913377h44.205623v-40.715706h15.122976v40.715706h44.205624v80.268106h-13.959671v-4.653224h-89.574552V942.568588h89.574552v-17.449588h-82.594717v-12.796364h82.594717v-17.449589h-89.574552v-13.95967z m12.796364-33.735871c6.979835 8.143141 11.633059 16.286282 16.286283 23.266118l-11.633059 8.143141c-3.489918-6.979835-9.306447-15.122976-16.286283-23.266117l11.633059-8.143142z m90.737859 4.653224c-3.489918 9.306447-9.306447 17.449588-15.122977 25.592729l-12.796364-6.979835c6.979835-9.306447 11.633059-17.449588 15.122976-25.592729l12.796365 6.979835zM425.915365 883.239989c-3.489918 24.429423-8.143141 45.368929-15.122976 62.818517l-11.633059-8.143141c6.979835-18.612894 11.633059-37.225788 13.95967-58.165294l12.796365 3.489918z m23.266118 75.614882c-10.469753 0-16.286282-5.816529-16.286283-16.286283v-75.614882h13.959671v72.124965c0 3.489918 2.326612 5.816529 6.979835 5.816529h23.266118c2.326612 0 4.653224-1.163306 4.653223-3.489917 1.163306-2.326612 2.326612-11.633059 2.326612-25.59273l12.796365 4.653224c-1.163306 18.612894-3.489918 30.245953-5.81653 33.73587-2.326612 3.489918-6.979835 4.653224-12.796364 4.653224h-29.082647z m6.979835-119.820506c11.633059 13.959671 20.939506 25.592729 26.756035 36.062482l-11.633059 8.143142c-6.979835-11.633059-16.286282-23.266118-26.756035-37.225788l11.633059-6.979836z m46.532235 37.225788c8.143141 17.449588 13.959671 37.225788 19.7762 58.165294l-12.796365 5.81653c-5.816529-22.102812-12.796365-41.879012-20.939506-59.3286l13.959671-4.653224zM553.879012 844.850895h77.941494v43.042317h-31.409259v11.633059h44.205623v37.225788c0 9.306447-4.653224 13.959671-12.796364 13.959671h-12.796365l-3.489918-12.796365 12.796365 1.163306c2.326612 0 3.489918-1.163306 3.489918-4.653224v-20.939506h-31.409259v50.022153h-13.959671v-50.022153h-30.245953v39.5524h-13.95967v-52.348764h44.205623v-11.633059h-32.572564v-44.205623z m65.145129 30.245952v-18.612894h-51.185459v18.612894h51.185459zM680.679352 878.586765c-1.163306 6.979835-2.326612 12.796365-3.489917 18.612894l-12.796365-3.489917c3.489918-13.959671 5.816529-29.082647 5.81653-44.205624l12.796364 1.163306c0 6.979835-1.163306 11.633059-1.163306 15.122976h5.81653v-26.756035h13.95967v26.756035h9.306447v12.796365h-9.306447v26.756035l8.143141-3.489917v12.796364l-8.143141 3.489918v44.205623h-13.95967v-38.389094c-8.143141 2.326612-13.959671 4.653224-18.612894 5.81653l-3.489918-13.959671c6.979835-1.163306 13.959671-3.489918 22.102812-5.816529v-31.409259h-6.979836z m58.165294-36.062482c-1.163306 6.979835-2.326612 12.796365-4.653223 17.449588h50.022153c0 46.532235-1.163306 75.614882-2.326612 86.084635-1.163306 11.633059-9.306447 17.449588-23.266118 17.449588-1.163306 0-4.653224 0-10.469753-1.163306l-3.489917-12.796364c4.653224 0 8.143141 1.163306 11.633059 1.163306 6.979835 0 11.633059-3.489918 12.796364-11.633059 1.163306-5.816529 1.163306-27.919341 1.163306-66.308435h-4.653223c-2.326612 22.102812-6.979835 38.389094-11.633059 51.185458-5.816529 13.959671-15.122976 26.756035-27.919341 38.389094l-8.143141-11.633058c10.469753-9.306447 18.612894-20.939506 24.429423-32.572565 4.653224-11.633059 8.143141-26.756035 10.469753-45.368929h-6.979835c-5.816529 27.919341-15.122976 48.858847-30.245953 62.818517l-9.306447-10.469753c12.796365-10.469753 22.102812-27.919341 26.756035-52.348764h-5.816529c-3.489918 8.143141-6.979835 15.122976-11.633059 19.7762l-6.979835-8.143141c8.143141-10.469753 13.959671-25.592729 17.449588-45.36893l12.796364 3.489918z" p-id="8628"></path><path d="M512 515.635331c20.939506 0 37.225788-16.286282 37.225788-37.225788 0-20.939506-16.286282-37.225788-37.225788-37.225788-20.939506 0-37.225788 16.286282-37.225788 37.225788 0 20.939506 17.449588 37.225788 37.225788 37.225788zM461.977847 638.945754v-54.675376c0-2.326612 1.163306-4.653224 2.326612-5.81653 1.163306-1.163306 2.326612-1.163306 3.489918-2.326611v62.818517h89.574552v-62.818517c1.163306 0 2.326612 1.163306 3.489918 2.326611 1.163306 1.163306 2.326612 3.489918 2.326612 5.81653v54.675376H605.06447v-84.921329c0-5.816529-2.326612-10.469753-5.816529-15.122977-3.489918-3.489918-9.306447-5.816529-15.122977-5.816529H441.038341c-5.816529 0-11.633059 2.326612-15.122976 5.816529-3.489918 3.489918-5.816529 9.306447-5.816529 15.122977v84.921329h41.879011z" p-id="8629"></path><path d="M514.326612 343.466061h-4.653224c-16.286282-1.163306-29.082647-11.633059-31.409258-24.429424l-1.163306-1.163306-6.979836-1.163305 3.489918-13.959671 6.979835 1.163306c8.143141 2.326612 10.469753 10.469753 11.633059 11.633059 1.163306 6.979835 9.306447 12.796365 19.7762 13.95967 4.653224 0 16.286282 0 20.939506-11.633059 3.489918-8.143141 3.489918-15.122976 1.163306-20.939505-4.653224-9.306447-18.612894-12.796365-18.612894-12.796365-3.489918-1.163306-5.816529-3.489918-5.81653-6.979835v-30.245953H523.633059v25.592729c6.979835 2.326612 17.449588 6.979835 23.266117 17.449588 4.653224 9.306447 4.653224 20.939506 0 33.735871-6.979835 11.633059-18.612894 19.7762-32.572564 19.7762z" p-id="8630"></path><path d="M485.243965 186.419767h57.001988l22.102812 22.102812-25.59273 53.51207h-52.348764l-22.102812-54.675376zM434.058506 394.651519l-8.143141-12.796364 89.574553-61.655212 87.247941 61.655212-8.143142 12.796364-79.104799-55.838682z" p-id="8631"></path><path d="M379.38313 380.691849h269.886964v40.715706H379.38313z" p-id="8632"></path></svg>