<?xml version="1.0" standalone="no"?><!DOCTYPE svg PUBLIC "-//W3C//DTD SVG 1.1//EN" "http://www.w3.org/Graphics/SVG/1.1/DTD/svg11.dtd"><svg class="icon" width="200px" height="200.00px" viewBox="0 0 1024 1024" version="1.1" xmlns="http://www.w3.org/2000/svg"><path d="M512 373.527273m-373.527273 0a373.527273 373.527273 0 1 0 747.054546 0 373.527273 373.527273 0 1 0-747.054546 0Z" fill="#FF090B" /><path d="M512 373.527273m-310.690909 0a310.690909 310.690909 0 1 0 621.381818 0 310.690909 310.690909 0 1 0-621.381818 0Z" fill="#FFFFFF" /><path d="M459.636364 566.690909h-101.236364V174.545455h101.236364v392.145454z m-72.145455-27.927273h45.381818v-337.454545h-45.381818v337.454545zM659.781818 566.690909H558.545455V174.545455h101.236363v392.145454z m-73.309091-27.927273h45.381818v-337.454545h-45.381818v337.454545z"  /><path d="M445.672727 353.745455h126.836364v27.927272H445.672727zM445.672727 431.709091h126.836364v27.927273H445.672727zM445.672727 275.781818h126.836364v27.927273H445.672727zM445.672727 512h126.836364v27.927273H445.672727zM645.818182 204.8V232.727273h67.490909v43.054545h-67.490909V302.545455h67.490909v51.2h-67.490909v26.763636h67.490909v51.2h-67.490909v27.927273h67.490909V512h-67.490909v26.763636h95.418182V204.8zM445.672727 204.8h126.836364V232.727273H445.672727zM373.527273 512h-62.836364v-52.363636h62.836364v-27.927273h-62.836364v-51.2h62.836364v-26.763636h-62.836364V302.545455h62.836364v-26.763637h-62.836364V232.727273h62.836364v-27.927273h-90.763637v333.963636h90.763637z"  /><path d="M285.405091 110.917818l488.750545 488.738909-35.374545 35.374546-488.750546-488.738909z" fill="#FF090B" /><path d="M201.309091 800.581818h621.381818V1024H201.309091z" fill="#FE0807" /><path d="M214.109091 812.218182h596.945454v198.981818H214.109091z" fill="#FFFFFF" /><path d="M272.290909 861.090909h19.781818v-9.309091h12.8v9.309091h17.454546v11.636364h-17.454546c5.818182 3.490909 10.472727 5.818182 16.290909 10.472727l-6.981818 10.472727c-3.490909-4.654545-6.981818-8.145455-9.309091-11.636363v18.618181h-12.8v-18.618181c-4.654545 6.981818-9.309091 12.8-15.127272 18.618181l-6.981819-10.472727c8.145455-4.654545 15.127273-10.472727 19.781819-17.454545h-17.454546v-11.636364z m31.418182 84.945455c-6.981818 8.145455-15.127273 15.127273-24.436364 22.109091l-8.145454-10.472728c9.309091-5.818182 17.454545-11.636364 23.272727-18.618182l9.309091 6.981819z m-31.418182-23.272728h105.890909v11.636364h-44.218182v20.945455c0 6.981818-4.654545 11.636364-12.8 11.636363h-11.636363l-2.327273-11.636363c3.490909 0 6.981818 1.163636 10.472727 1.163636 2.327273 0 3.490909-1.163636 3.490909-3.490909v-18.618182h-47.709091v-11.636364z m11.636364-18.618181h84.945454v11.636363h-84.945454v-11.636363z m44.218182-43.054546h16.290909v-9.309091h12.8v9.309091h20.945454v11.636364h-16.290909c4.654545 5.818182 10.472727 11.636364 19.781818 17.454545l-9.309091 10.472727c-6.981818-5.818182-11.636364-12.8-15.127272-20.945454v20.945454h-12.8v-20.945454c-4.654545 8.145455-9.309091 15.127273-15.127273 20.945454l-6.981818-10.472727c6.981818-4.654545 12.8-10.472727 18.618182-17.454545h-12.8v-11.636364z m24.436363 76.8c9.309091 4.654545 17.454545 11.636364 25.6 18.618182l-6.981818 11.636364c-8.145455-8.145455-16.290909-15.127273-25.6-19.781819l6.981818-10.472727zM449.163636 852.945455h12.8v38.4h37.236364v12.8h-37.236364v45.381818h44.218182v12.8h-111.709091v-12.8h19.781818v-75.636364h12.8v75.636364h22.109091v-96.581818zM578.327273 961.163636v6.981819h-12.8v-66.327273l-6.981818 10.472727-4.654546-13.963636 1.163636-2.327273h-9.30909v36.072727c4.654545-1.163636 9.309091-3.490909 15.127272-5.818182v12.8c-12.8 5.818182-26.763636 10.472727-40.727272 13.963637l-3.49091-12.8c4.654545-1.163636 10.472727-2.327273 16.29091-3.490909V896h-15.127273v-12.8h15.127273v-31.418182h12.8v31.418182h11.636363v10.472727c6.981818-12.8 12.8-26.763636 16.290909-41.890909l12.8 2.327273c-1.163636 5.818182-3.490909 11.636364-4.654545 17.454545h18.618182l-6.981819-17.454545 12.8-3.490909c2.327273 6.981818 4.654545 13.963636 6.981819 19.781818h18.618181V884.363636h-19.781818v12.8h17.454546v11.636364h-17.454546v12.8h17.454546v11.636364h-17.454546v13.963636h22.109091v12.8h-55.854545z m18.618182-76.8h-18.618182v12.8h18.618182V884.363636z m-18.618182 25.6v12.8h18.618182v-12.8h-18.618182z m0 24.436364v13.963636h18.618182v-13.963636h-18.618182zM642.327273 869.236364h22.109091c-2.327273-4.654545-4.654545-10.472727-8.145455-15.127273l12.8-2.327273 6.981818 17.454546h17.454546v12.8h-29.090909v15.127272h23.272727c0 30.254545 0 50.036364-1.163636 58.181819 0 6.981818-4.654545 10.472727-15.127273 10.472727-1.163636 0-4.654545 0-9.309091-1.163637l-3.490909-11.636363h9.309091c3.490909 0 5.818182-2.327273 6.981818-5.818182 0-3.490909 1.163636-17.454545 1.163636-39.563636h-11.636363c-2.327273 25.6-6.981818 45.381818-15.127273 58.181818l-9.309091-8.145455c9.309091-13.963636 13.963636-36.072727 13.963636-67.490909v-8.145454h-11.636363v-12.8z m61.672727 33.745454c-1.163636 2.327273-3.490909 4.654545-4.654545 5.818182l-8.145455-10.472727c8.145455-11.636364 13.963636-27.927273 16.290909-48.872728l12.8 2.327273c-1.163636 6.981818-2.327273 11.636364-3.490909 16.290909h34.909091v12.8H744.727273c-1.163636 19.781818-5.818182 37.236364-13.963637 52.363637 6.981818 9.309091 15.127273 17.454545 25.6 22.109091l-6.981818 11.636363c-9.309091-5.818182-17.454545-12.8-25.6-22.109091-6.981818 9.309091-16.290909 16.290909-26.763636 22.109091l-6.981818-11.636363c10.472727-5.818182 19.781818-12.8 26.763636-22.109091-4.654545-9.309091-9.309091-18.618182-12.8-30.254546z m10.472727-20.945454c-1.163636 1.163636-1.163636 4.654545-3.490909 8.145454 3.490909 11.636364 8.145455 22.109091 12.8 31.418182 5.818182-11.636364 8.145455-24.436364 9.309091-39.563636h-18.618182z" fill="#FF090B" /></svg>