<?xml version="1.0" standalone="no"?><!DOCTYPE svg PUBLIC "-//W3C//DTD SVG 1.1//EN" "http://www.w3.org/Graphics/SVG/1.1/DTD/svg11.dtd"><svg t="1577681376303" class="icon" viewBox="0 0 1024 1024" version="1.1" xmlns="http://www.w3.org/2000/svg" p-id="11958" xmlns:xlink="http://www.w3.org/1999/xlink" width="200" height="200"><defs><style type="text/css"></style></defs><path d="M512 373.527273m-373.527273 0a373.527273 373.527273 0 1 0 747.054546 0 373.527273 373.527273 0 1 0-747.054546 0Z" fill="#FF090B" p-id="11959"></path><path d="M512 373.527273m-310.690909 0a310.690909 310.690909 0 1 0 621.381818 0 310.690909 310.690909 0 1 0-621.381818 0Z" fill="#FFFFFF" p-id="11960"></path><path d="M695.854545 228.072727m-36.072727 0a36.072727 36.072727 0 1 0 72.145455 0 36.072727 36.072727 0 1 0-72.145455 0Z" p-id="11961"></path><path d="M644.654545 323.490909L498.036364 204.8c-9.309091-6.981818-10.472727-20.945455-3.490909-30.254545l2.327272-2.327273c6.981818-9.309091 20.945455-10.472727 30.254546-3.490909l146.618182 118.690909c9.309091 6.981818 10.472727 20.945455 3.490909 30.254545l-2.327273 2.327273c-8.145455 9.309091-20.945455 10.472727-30.254546 3.490909z" p-id="11962"></path><path d="M644.654545 331.636364l-90.763636-2.327273c-11.636364 0-20.945455-10.472727-20.945454-22.109091v-3.490909c0-11.636364 10.472727-20.945455 22.10909-20.945455l90.763637 2.327273c11.636364 0 20.945455 10.472727 20.945454 22.109091v3.490909c-1.163636 11.636364-10.472727 22.109091-22.109091 20.945455z" p-id="11963"></path><path d="M542.254545 323.490909l-72.145454-54.690909c-9.309091-6.981818-11.636364-20.945455-4.654546-30.254545l2.327273-2.327273c6.981818-9.309091 20.945455-11.636364 30.254546-4.654546l72.145454 54.690909c9.309091 6.981818 11.636364 20.945455 4.654546 30.254546l-2.327273 2.327273c-8.145455 10.472727-20.945455 11.636364-30.254546 4.654545zM531.781818 428.218182l-90.763636-1.163637c-11.636364 0-20.945455-9.309091-20.945455-20.945454v-3.490909c0-11.636364 9.309091-20.945455 20.945455-20.945455l90.763636 1.163637c11.636364 0 20.945455 9.309091 20.945455 20.945454v3.490909c0 11.636364-9.309091 20.945455-20.945455 20.945455z" p-id="11964"></path><path d="M463.127273 402.618182l-1.163637 104.727273c0 11.636364-9.309091 20.945455-20.945454 20.945454h-3.490909c-11.636364 0-20.945455-9.309091-20.945455-20.945454l1.163637-104.727273c0-11.636364 9.309091-20.945455 20.945454-20.945455h3.490909c11.636364 0 22.109091 9.309091 20.945455 20.945455zM585.309091 495.709091l26.763636 107.054545c2.327273 11.636364-4.654545 23.272727-15.127272 25.6H593.454545c-11.636364 2.327273-23.272727-4.654545-25.6-15.127272l-26.763636-107.054546c-2.327273-11.636364 4.654545-23.272727 15.127273-25.6l2.327273-1.163636c11.636364-2.327273 23.272727 4.654545 26.763636 16.290909z" p-id="11965"></path><path d="M589.963636 420.072727l-3.490909 79.127273c0 11.636364-10.472727 20.945455-22.109091 19.781818h-2.327272c-11.636364 0-20.945455-10.472727-19.781819-22.109091l3.49091-79.127272c0-11.636364 10.472727-20.945455 22.10909-19.781819h2.327273c10.472727 1.163636 19.781818 10.472727 19.781818 22.109091z" p-id="11966"></path><path d="M630.690909 254.836364l-116.363636 144.290909 26.763636 104.727272 46.545455-59.345454 87.272727-114.036364c10.472727-13.963636 8.145455-34.909091-5.818182-45.381818l-38.4-30.254545z" p-id="11967"></path><path d="M343.272727 122.181818h23.272728v488.727273h-23.272728zM491.054545 122.181818h23.272728v488.727273h-23.272728z" p-id="11968"></path><path d="M353.745455 160.581818h141.963636V174.545455H353.745455zM353.745455 244.363636h141.963636v13.963637H353.745455zM353.745455 328.145455h141.963636v13.963636H353.745455zM353.745455 413.090909h141.963636v13.963636H353.745455zM353.745455 496.872727h141.963636v13.963637H353.745455z" p-id="11969"></path><path d="M285.405091 110.917818l488.750545 488.738909-35.374545 35.374546-488.750546-488.738909z" fill="#FF090B" p-id="11970"></path><path d="M201.309091 800.581818h621.381818V1024H201.309091z" fill="#FE0807" p-id="11971"></path><path d="M214.109091 812.218182h596.945454v198.981818H214.109091z" fill="#FFFFFF" p-id="11972"></path><path d="M272.290909 861.090909h19.781818v-9.309091h12.8v9.309091h17.454546v11.636364h-17.454546c5.818182 3.490909 10.472727 5.818182 16.290909 10.472727l-6.981818 10.472727c-3.490909-4.654545-6.981818-8.145455-9.309091-11.636363v18.618181h-12.8v-18.618181c-4.654545 6.981818-9.309091 12.8-15.127272 18.618181l-6.981819-10.472727c8.145455-4.654545 15.127273-10.472727 19.781819-17.454545h-17.454546v-11.636364z m31.418182 84.945455c-6.981818 8.145455-15.127273 15.127273-24.436364 22.109091l-8.145454-10.472728c9.309091-5.818182 17.454545-11.636364 23.272727-18.618182l9.309091 6.981819z m-31.418182-23.272728h105.890909v11.636364h-44.218182v20.945455c0 6.981818-4.654545 11.636364-12.8 11.636363h-11.636363l-2.327273-11.636363c3.490909 0 6.981818 1.163636 10.472727 1.163636 2.327273 0 3.490909-1.163636 3.490909-3.490909v-18.618182h-47.709091v-11.636364z m11.636364-18.618181h84.945454v11.636363h-84.945454v-11.636363z m44.218182-43.054546h16.290909v-9.309091h12.8v9.309091h20.945454v11.636364h-16.290909c4.654545 5.818182 10.472727 11.636364 19.781818 17.454545l-9.309091 10.472727c-6.981818-5.818182-11.636364-12.8-15.127272-20.945454v20.945454h-12.8v-20.945454c-4.654545 8.145455-9.309091 15.127273-15.127273 20.945454l-6.981818-10.472727c6.981818-4.654545 12.8-10.472727 18.618182-17.454545h-12.8v-11.636364z m24.436363 76.8c9.309091 4.654545 17.454545 11.636364 25.6 18.618182l-6.981818 11.636364c-8.145455-8.145455-16.290909-15.127273-25.6-19.781819l6.981818-10.472727zM449.163636 852.945455h12.8v38.4h37.236364v12.8h-37.236364v45.381818h44.218182v12.8h-111.709091v-12.8h19.781818v-75.636364h12.8v75.636364h22.109091v-96.581818zM522.472727 900.654545h37.236364l4.654545-4.654545 11.636364 2.327273-2.327273 3.490909h52.363637v10.472727h-22.109091c6.981818 4.654545 16.290909 8.145455 27.927272 11.636364l-4.654545 10.472727c-16.290909-5.818182-29.090909-12.8-36.072727-22.109091h-25.6c-2.327273 2.327273-4.654545 3.490909-6.981818 5.818182 12.8 0 23.272727-1.163636 33.745454-3.490909l4.654546 8.145454c-3.490909 1.163636-8.145455 2.327273-13.963637 2.327273v4.654546h27.927273v9.30909H581.818182v3.49091h40.727273v9.30909H581.818182v4.654546c0 6.981818-3.490909 10.472727-11.636364 10.472727h-16.290909l-2.327273-11.636363c4.654545 0 10.472727 1.163636 15.127273 1.163636 2.327273 0 3.490909-1.163636 3.490909-3.490909v-1.163637h-45.381818V942.545455H570.181818v-3.49091h-32.581818v-9.30909H570.181818v-3.49091h-17.454545l-1.163637-4.654545c-6.981818 4.654545-16.290909 8.145455-26.763636 11.636364l-8.145455-9.309091c11.636364-3.490909 22.109091-8.145455 30.254546-12.8h-24.436364v-10.472728z m0-40.727272h13.963637v-8.145455h10.472727v8.145455h8.145454v10.472727H546.909091v2.327273c4.654545 2.327273 8.145455 4.654545 10.472727 6.981818l5.818182-5.818182-4.654545-8.145454 6.981818-3.49091-8.145455-4.654545 6.981818-6.981818c3.490909 2.327273 6.981818 3.490909 9.309091 4.654545 2.327273-2.327273 4.654545-4.654545 5.818182-6.981818l6.981818 4.654546c-1.163636 2.327273-3.490909 4.654545-5.818182 6.981818 2.327273 1.163636 4.654545 3.490909 5.818182 4.654545l-6.981818 6.981818c-1.163636-1.163636-3.490909-3.490909-6.981818-4.654545-2.327273 1.163636-5.818182 3.490909-10.472727 5.818182 2.327273 1.163636 5.818182 3.490909 8.145454 4.654545 2.327273-2.327273 4.654545-3.490909 6.981818-5.818182l6.981819 4.654546c-2.327273 2.327273-3.490909 4.654545-5.818182 5.818182 2.327273 1.163636 4.654545 3.490909 8.145454 5.818181l-3.490909 8.145455c-2.327273-2.327273-5.818182-4.654545-9.309091-6.981818-3.490909 2.327273-8.145455 4.654545-12.8 5.818182l-4.654545-8.145455c3.490909-1.163636 5.818182-2.327273 9.309091-3.490909-2.327273-1.163636-4.654545-2.327273-5.818182-3.490909l-5.818182 8.145454-5.818182-5.818181V896h-10.472727v-16.290909c-3.490909 5.818182-8.145455 10.472727-12.8 15.127273l-4.654545-11.636364c6.981818-4.654545 12.8-9.309091 16.290909-15.127273H523.636364v-8.145454z m68.654546 0h10.472727v-8.145455h10.472727v8.145455h12.8v10.472727h-12.8v1.163636c5.818182 3.490909 10.472727 6.981818 16.290909 11.636364l-6.981818 9.309091-10.472727-10.472727v15.127272h-10.472727v-15.127272c-2.327273 4.654545-5.818182 8.145455-9.309091 12.8l-4.654546-11.636364c5.818182-3.490909 9.309091-8.145455 12.8-12.8h-9.309091v-10.472727zM704 861.090909c-2.327273 1.163636-4.654545 1.163636-6.981818 2.327273 0 10.472727 0 26.763636 1.163636 50.036363 1.163636 16.290909 4.654545 25.6 11.636364 30.254546 6.981818 6.981818 23.272727 10.472727 46.545454 10.472727l-4.654545 11.636364c-25.6 0-43.054545-4.654545-52.363636-12.8-5.818182-5.818182-9.309091-12.8-11.636364-22.109091-1.163636-6.981818-2.327273-27.927273-3.490909-62.836364l-5.818182 1.163637v95.418181h-11.636364v-93.090909l-6.981818 1.163637v30.254545c0 24.436364-3.490909 45.381818-11.636363 62.836364l-8.145455-9.309091c5.818182-15.127273 8.145455-32.581818 8.145455-53.527273V861.090909c20.945455-2.327273 36.072727-4.654545 46.545454-9.309091l9.309091 9.309091z m47.709091-3.490909v47.709091h-36.072727v15.127273c0 3.490909 2.327273 5.818182 5.818181 5.818181h17.454546c1.163636 0 2.327273-1.163636 3.490909-2.327272 0-1.163636 1.163636-4.654545 1.163636-11.636364l11.636364 3.490909c-1.163636 6.981818-1.163636 11.636364-2.327273 13.963637-1.163636 4.654545-4.654545 6.981818-9.309091 6.981818h-26.763636c-8.145455 0-11.636364-4.654545-11.636364-12.8v-67.490909h46.545455z m-27.927273 11.636364h-6.981818v24.436363h6.981818v-24.436363z m10.472727 24.436363h6.981819v-24.436363h-6.981819v24.436363z" fill="#FF090B" p-id="11973"></path></svg>