<?xml version="1.0" standalone="no"?><!DOCTYPE svg PUBLIC "-//W3C//DTD SVG 1.1//EN" "http://www.w3.org/Graphics/SVG/1.1/DTD/svg11.dtd"><svg t="1577678547309" class="icon" viewBox="0 0 1024 1024" version="1.1" xmlns="http://www.w3.org/2000/svg" p-id="10529" xmlns:xlink="http://www.w3.org/1999/xlink" width="200" height="200"><defs><style type="text/css"></style></defs><path d="M512 373.527273m-373.527273 0a373.527273 373.527273 0 1 0 747.054546 0 373.527273 373.527273 0 1 0-747.054546 0Z" fill="#FF090B" p-id="10530"></path><path d="M512 373.527273m-310.690909 0a310.690909 310.690909 0 1 0 621.381818 0 310.690909 310.690909 0 1 0-621.381818 0Z" fill="#FFFFFF" p-id="10531"></path><path d="M662.109091 150.109091L482.909091 105.890909c-22.109091-5.818182-45.381818 8.145455-51.2 30.254546l-100.072727 407.272727c-5.818182 22.109091 8.145455 45.381818 30.254545 51.2L541.090909 640c22.109091 5.818182 45.381818-8.145455 51.2-30.254545l100.072727-407.272728c5.818182-23.272727-8.145455-46.545455-30.254545-52.363636z m-122.181818 4.654545l48.872727 11.636364c4.654545 1.163636 6.981818 5.818182 5.818182 10.472727-1.163636 4.654545-5.818182 6.981818-10.472727 5.818182l-48.872728-11.636364c-4.654545-1.163636-6.981818-5.818182-5.818182-10.472727 1.163636-3.490909 5.818182-6.981818 10.472728-5.818182z m-83.781818 446.836364c-13.963636-3.490909-22.109091-17.454545-18.618182-30.254545s17.454545-22.109091 30.254545-18.618182c13.963636 3.490909 22.109091 17.454545 18.618182 30.254545-3.490909 13.963636-17.454545 22.109091-30.254545 18.618182z m130.327272-37.236364l-228.072727-55.854545 80.290909-325.818182 228.072727 55.854546-80.290909 325.818181z" p-id="10532"></path><path d="M285.405091 110.917818l488.750545 488.738909-35.374545 35.374546-488.750546-488.738909z" fill="#FF090B" p-id="10533"></path><path d="M164.072727 800.581818h695.854546V1024H164.072727z" fill="#FE0807" p-id="10534"></path><path d="M175.709091 812.218182h671.418182v198.981818H175.709091z" fill="#FFFFFF" p-id="10535"></path><path d="M210.618182 861.090909h19.781818v-9.309091h12.8v9.309091h17.454545v11.636364h-17.454545c5.818182 3.490909 10.472727 5.818182 16.290909 10.472727l-6.981818 10.472727c-3.490909-4.654545-6.981818-8.145455-9.309091-11.636363v18.618181h-12.8v-18.618181c-4.654545 6.981818-9.309091 12.8-15.127273 18.618181l-6.981818-10.472727c8.145455-4.654545 15.127273-10.472727 19.781818-17.454545h-17.454545v-11.636364z m31.418182 84.945455c-6.981818 8.145455-15.127273 15.127273-24.436364 22.109091l-8.145455-11.636364c9.309091-5.818182 17.454545-11.636364 23.272728-18.618182l9.309091 8.145455z m-31.418182-23.272728h105.890909v11.636364h-44.218182v20.945455c0 6.981818-4.654545 11.636364-12.8 11.636363h-11.636364l-2.327272-11.636363c3.490909 0 6.981818 1.163636 10.472727 1.163636 2.327273 0 3.490909-1.163636 3.490909-3.490909v-18.618182h-47.709091v-11.636364z m10.472727-18.618181h84.945455v11.636363H221.090909v-11.636363z m44.218182-43.054546h16.290909v-9.309091h12.8v9.309091h20.945455v11.636364h-16.29091c4.654545 5.818182 10.472727 11.636364 19.781819 17.454545l-8.145455 10.472727c-6.981818-5.818182-11.636364-12.8-15.127273-20.945454v20.945454h-12.8v-20.945454c-4.654545 8.145455-9.309091 15.127273-15.127272 20.945454l-6.981819-10.472727c6.981818-4.654545 12.8-10.472727 18.618182-17.454545h-12.8v-11.636364z m25.6 76.8c9.309091 4.654545 17.454545 11.636364 25.6 18.618182l-6.981818 11.636364c-8.145455-8.145455-16.290909-15.127273-25.6-19.781819l6.981818-10.472727zM386.327273 852.945455h12.8v38.4h37.236363v12.8h-37.236363v45.381818h44.218182v12.8h-111.709091v-12.8h19.781818v-75.636364h12.8v75.636364h22.109091v-96.581818zM502.690909 912.290909c-6.981818 3.490909-12.8 4.654545-16.290909 6.981818v33.745455c0 8.145455-4.654545 12.8-12.8 12.8h-12.8l-3.490909-12.8c3.490909 0 8.145455 1.163636 11.636364 1.163636 2.327273 0 4.654545-1.163636 4.654545-4.654545v-25.6c-6.981818 2.327273-12.8 3.490909-17.454545 4.654545l-2.327273-11.636363c5.818182-1.163636 12.8-3.490909 19.781818-4.654546v-25.6h-18.618182v-12.8h18.618182v-20.945454h12.8v20.945454h15.127273v12.8h-15.127273V907.636364c4.654545-2.327273 10.472727-4.654545 16.290909-6.981819v11.636364z m1.163636-52.363636h64V872.727273h-18.618181v79.127272c0 9.309091-4.654545 12.8-12.8 12.8h-20.945455l-2.327273-12.8c6.981818 0 12.8 1.163636 19.781819 1.163637 2.327273 0 3.490909-1.163636 3.490909-4.654546V872.727273h-31.418182v-12.8zM683.054545 863.418182c-11.636364 3.490909-24.436364 4.654545-38.4 6.981818v16.290909h38.4v12.8h-38.4v16.290909h47.709091v12.8h-47.709091v24.436364c0 8.145455-4.654545 12.8-13.963636 12.8h-19.781818l-3.490909-12.8c5.818182 0 11.636364 1.163636 17.454545 1.163636 3.490909 0 4.654545-1.163636 4.654546-3.490909v-20.945454h-52.363637v-12.8h52.363637v-16.29091h-41.890909v-12.8h41.890909V872.727273h-37.236364l-4.654545-11.636364c34.909091 0 65.163636-2.327273 89.6-8.145454l5.818181 10.472727zM705.163636 875.054545h17.454546v-23.272727h12.8v23.272727h13.963636v12.8h-13.963636v4.654546c5.818182 5.818182 10.472727 11.636364 16.290909 17.454545l-8.145455 11.636364c-4.654545-8.145455-6.981818-12.8-9.309091-16.290909v61.672727H721.454545v-55.854545c-3.490909 9.309091-8.145455 19.781818-13.963636 27.927272l-5.818182-13.963636c8.145455-10.472727 15.127273-23.272727 18.618182-37.236364h-16.290909v-12.8z m36.072728 83.781819c4.654545-8.145455 8.145455-15.127273 10.472727-23.272728 1.163636-6.981818 2.327273-17.454545 2.327273-31.418181v-47.709091h44.218181v94.254545c0 1.163636 0 1.163636 1.163637 1.163636h3.490909c1.163636 0 2.327273 0 2.327273-1.163636 0 0 1.163636-1.163636 1.163636-2.327273s1.163636-9.309091 1.163636-22.109091l11.636364 3.49091c0 8.145455 0 16.290909-1.163636 20.945454 0 4.654545-2.327273 8.145455-3.490909 10.472727-2.327273 1.163636-5.818182 2.327273-9.309091 2.327273h-5.818182c-9.309091 0-13.963636-4.654545-13.963637-12.8v-83.781818H768v34.909091c0 13.963636-1.163636 25.6-3.490909 36.072727-2.327273 10.472727-5.818182 19.781818-11.636364 29.090909l-11.636363-8.145454z" fill="#FF090B" p-id="10536"></path></svg>