<?xml version="1.0" standalone="no"?><!DOCTYPE svg PUBLIC "-//W3C//DTD SVG 1.1//EN" "http://www.w3.org/Graphics/SVG/1.1/DTD/svg11.dtd"><svg t="1577678265910" class="icon" viewBox="0 0 1024 1024" version="1.1" xmlns="http://www.w3.org/2000/svg" p-id="5917" xmlns:xlink="http://www.w3.org/1999/xlink" width="200" height="200"><defs><style type="text/css"></style></defs><path d="M102.516331 648.252201L458.48793 30.536779c23.266118-40.715706 82.594717-40.715706 105.860835 0l357.134904 617.715422c23.266118 40.715706-5.816529 91.901164-53.51207 91.901165H154.865095c-46.532235 0-75.614882-51.185459-52.348764-91.901165z" fill="#FFF500" p-id="5918"></path><path d="M130.435672 649.415507L475.937518 50.312979c16.286282-27.919341 55.838682-27.919341 70.961658 0l345.501846 597.939222c16.286282 27.919341-3.489918 61.655212-36.062482 61.655212H166.498154c-31.409259 1.163306-51.185459-33.73587-36.062482-60.491906z" p-id="5919"></path><path d="M186.274354 651.742119L512 88.702073 837.725646 651.742119z" fill="#FFF500" p-id="5920"></path><path d="M193.254189 783.195683H860.991764V1024H193.254189z" p-id="5921"></path><path d="M207.21386 797.155354h640.981539v214.048281H207.21386z" fill="#FFFFFF" p-id="5922"></path><path d="M574.818517 631.965919h-103.534223V307.403579c0-19.7762 15.122976-34.899176 34.899177-34.899177h33.73587c19.7762 0 34.899176 15.122976 34.899176 34.899177v324.56234z" p-id="5923"></path><path d="M454.998012 353.935814a69.798353 5.816529 0 1 0 139.596705 0 69.798353 5.816529 0 1 0-139.596705 0Z" p-id="5924"></path><path d="M454.998012 576.127237a69.798353 5.816529 0 1 0 139.596705 0 69.798353 5.816529 0 1 0-139.596705 0Z" p-id="5925"></path><path d="M545.73587 196.88952h-43.042317c-3.489918 0-6.979835-3.489918-6.979835-6.979835v-2.326612c0-3.489918 3.489918-6.979835 6.979835-6.979835h43.042317c3.489918 0 6.979835 3.489918 6.979836 6.979835v2.326612c0 3.489918-2.326612 6.979835-6.979836 6.979835zM545.73587 245.748367h-43.042317c-3.489918 0-6.979835-3.489918-6.979835-6.979835v-2.326612c0-3.489918 3.489918-6.979835 6.979835-6.979835h43.042317c3.489918 0 6.979835 3.489918 6.979836 6.979835v2.326612c0 4.653224-2.326612 6.979835-6.979836 6.979835z" p-id="5926"></path><path d="M518.979835 186.419767h15.122977v96.554388h-15.122977z" p-id="5927"></path><path d="M494.550412 530.758307c-3.489918 0-36.062482-1.163306-47.695541-34.899176-5.816529-18.612894-5.816529-34.899176-5.81653-48.858847 0-10.469753 0-19.7762-3.489917-23.266118-18.612894-22.102812-55.838682-83.758023-12.796365-166.35274 16.286282-30.245953 33.73587-46.532235 53.512071-47.695541 26.756035-1.163306 45.368929 25.592729 45.368929 26.756035l-6.979835 4.653223s-16.286282-23.266118-38.389094-22.102811c-16.286282 1.163306-31.409259 15.122976-46.532236 43.042317-40.715706 77.941494-4.653224 136.106788 11.633059 157.046294 5.816529 6.979835 5.816529 16.286282 5.81653 29.082647s0 29.082647 5.816529 45.368929c10.469753 30.245953 38.389094 30.245953 39.5524 29.082647v8.143141z" p-id="5928"></path><path d="M273.522295 841.360977l-2.326612 6.979835h30.245953v9.306447c-2.326612 5.816529-5.816529 9.306447-8.143141 12.796365H314.238001V884.403295h-54.675377v19.776199c0 24.429423-4.653224 44.205623-11.633059 59.3286l-6.979835-10.469753c6.979835-11.633059 10.469753-27.919341 10.469753-48.858847v-23.266117c-2.326612 2.326612-3.489918 4.653224-4.653223 5.816529l-5.81653-11.633059c9.306447-9.306447 17.449588-22.102812 24.429424-38.389094l8.143141 4.653224z m8.143141 30.245953c2.326612-3.489918 4.653224-6.979835 6.979835-11.633059h-24.429423c-2.326612 4.653224-4.653224 8.143141-6.979836 11.633059h24.429424z m13.959671 37.225788h-18.612895v34.899176c0 3.489918 1.163306 4.653224 3.489918 4.653224h20.939506c3.489918 0 4.653224-1.163306 5.816529-3.489918 1.163306-2.326612 1.163306-6.979835 1.163306-13.95967l8.143141 4.653223c-1.163306 12.796365-2.326612 19.7762-3.489917 22.102812-1.163306 2.326612-4.653224 3.489918-9.306447 3.489918h-27.919341c-5.816529 0-9.306447-4.653224-9.306447-12.796365V896.036353h37.225788v25.59273c0 8.143141-2.326612 12.796365-8.143141 12.796364h-10.469753l-2.326612-12.796364c3.489918 0 6.979835 1.163306 9.306447 1.163306 2.326612 0 2.326612-2.326612 2.326612-5.81653v-8.143141zM325.871059 843.687589h26.756036v10.469753c-2.326612 10.469753-4.653224 23.266118-8.143142 36.062482 4.653224 12.796365 8.143141 23.266118 8.143142 32.572565 0 5.816529-1.163306 10.469753-2.326612 13.95967-2.326612 3.489918-6.979835 4.653224-12.796365 5.816529l-2.326612-13.95967c2.326612 0 3.489918 1.163306 4.653224 1.163306 2.326612 0 3.489918-1.163306 3.489918-1.163306 1.163306-1.163306 1.163306-2.326612 1.163305-4.653224 0-9.306447-2.326612-18.612894-8.143141-30.245952 3.489918-13.959671 6.979835-25.592729 8.143141-36.062483h-10.469752v107.024141H325.871059V843.687589z m34.899177 38.389094c-2.326612 4.653224-5.816529 8.143141-8.143141 11.633059l-4.653224-10.469753c9.306447-11.633059 17.449588-25.592729 22.102812-43.042318h8.143141c4.653224 16.286282 11.633059 30.245953 23.266117 43.042318l-4.653223 11.633058c-3.489918-3.489918-5.816529-8.143141-8.143141-11.633058v6.979835H360.770236v-8.143141z m-11.633059 63.981823h29.082647c3.489918-13.959671 5.816529-30.245953 8.143141-51.185459l8.143141 3.489918c-2.326612 17.449588-4.653224 32.572565-8.143141 47.695541h12.796365v12.796365H349.137177v-12.796365z m11.633059-47.695541c2.326612 10.469753 4.653224 23.266118 6.979835 39.5524l-6.979835 3.489918-6.979836-38.389094 6.979836-4.653224z m23.266117-22.102812c-4.653224-6.979835-6.979835-15.122976-9.306447-23.266117-3.489918 9.306447-5.816529 17.449588-10.469753 23.266117H384.036353z m-10.469753 17.449589c2.326612 10.469753 4.653224 23.266118 5.81653 37.225788l-6.979835 3.489917c-1.163306-12.796365-3.489918-25.592729-5.81653-36.062482l6.979835-4.653223zM428.241977 930.93553c1.163306 2.326612 2.326612 4.653224 2.326611 6.979835 0 3.489918-1.163306 5.816529-2.326611 6.979835-1.163306 2.326612-2.326612 2.326612-4.653224 2.326612s-3.489918-1.163306-4.653223-3.489918c-1.163306-2.326612-2.326612-4.653224-2.326612-6.979835 0-3.489918 1.163306-5.816529 2.326612-6.979835 1.163306-2.326612 2.326612-2.326612 4.653223-2.326612 2.326612 1.163306 3.489918 2.326612 4.653224 3.489918z m-10.469753-77.941494h11.633059l-2.326612 67.471741h-6.979835l-2.326612-67.471741zM563.185459 843.687589v12.796364h-59.3286v30.245953c0 31.409259-3.489918 57.001988-9.306447 75.614882L488.733882 954.201647c4.653224-16.286282 6.979835-38.389094 6.979836-66.308435v-44.205623h67.471741z m-55.838683 45.368929h22.102812v-24.429423h8.143141v24.429423h23.266118v13.959671h-23.266118v41.879011h27.919341v13.959671h-62.818517v-13.959671h26.756035v-41.879011h-22.102812v-13.959671z m41.879012 18.612894c4.653224 10.469753 8.143141 19.7762 10.469753 26.756035l-6.979835 8.143141c-2.326612-8.143141-5.816529-17.449588-10.469753-27.919341l6.979835-6.979835zM592.268106 843.687589c-3.489918 16.286282-6.979835 29.082647-10.469753 38.389094l6.979835-2.326612 3.489918-12.796365 6.979835 4.653224c-5.816529 19.7762-10.469753 34.899176-13.959671 43.042317 3.489918-2.326612 6.979835-4.653224 11.633059-6.979835v12.796365c-8.143141 5.816529-15.122976 9.306447-22.102812 10.469753l-2.326611-11.633059c1.163306-1.163306 2.326612-2.326612 3.489917-4.653224 2.326612-4.653224 4.653224-11.633059 8.143141-22.102811l-11.633058 3.489917-2.326612-12.796364c1.163306-1.163306 2.326612-2.326612 3.489918-5.81653 3.489918-11.633059 5.816529-24.429423 9.306447-39.5524l9.306447 5.81653z m6.979835 103.534223c-6.979835 4.653224-15.122976 9.306447-24.429424 11.633059l-1.163305-13.959671c10.469753-2.326612 18.612894-6.979835 25.592729-11.633059v13.959671z m4.653223-39.5524c-1.163306 3.489918-3.489918 5.816529-4.653223 9.306447l-2.326612-13.95967c5.816529-10.469753 9.306447-23.266118 11.633059-37.225789l6.979835 5.81653c-1.163306 5.816529-2.326612 11.633059-3.489917 16.286282v73.288271h-8.143142V907.669412z m43.042318-59.3286v19.7762h-8.143141v-8.143141h-31.409259v10.469753h-8.143141v-22.102812h19.7762c-1.163306-2.326612-1.163306-5.816529-2.326612-8.143141l9.306447-2.326612c1.163306 4.653224 2.326612 8.143141 2.326612 10.469753h18.612894zM616.697529 869.280318h27.919341v11.633059h-10.469753l-1.163306 9.306447h11.633059v69.798353h-8.143141V954.201647h-12.796365v5.81653H616.697529v-69.798353h8.143141l1.163306-9.306447H616.697529v-11.633059z m8.143141 47.695541h12.796365v-13.95967h-12.796365v13.95967z m0 26.756035h12.796365v-15.122976h-12.796365v15.122976zM673.699517 863.463789c-3.489918 10.469753-8.143141 19.7762-12.796364 27.919341l-5.81653-10.469753c5.816529-10.469753 11.633059-24.429423 16.286282-43.042318l9.306447 3.489918c-1.163306 4.653224-2.326612 6.979835-2.326611 9.306447h46.532235v12.796365h-51.185459z m38.389094 89.574552c-2.326612-6.979835-3.489918-19.7762-3.489917-40.715705v-6.979836h-46.532236v-12.796364h53.512071v19.7762c0 15.122976 0 24.429423 1.163306 29.082647 1.163306 4.653224 2.326612 5.816529 3.489917 5.816529 1.163306 0 1.163306-2.326612 2.326612-6.979835l1.163306-12.796365 6.979835 5.816529c-1.163306 11.633059-2.326612 19.7762-4.653223 24.429424-1.163306 3.489918-3.489918 5.816529-5.81653 5.816529-3.489918-1.163306-6.979835-4.653224-8.143141-10.469753z m-40.715706-81.431411h48.858847V884.403295h-48.858847v-12.796365zM745.824482 896.036353c-2.326612 4.653224-4.653224 9.306447-6.979836 12.796365l-1.163305-12.796365c8.143141-16.286282 13.959671-36.062482 17.449588-57.001988l8.143141 5.81653c-2.326612 10.469753-4.653224 19.7762-8.143141 30.245952v88.411247h-8.143141V896.036353z m13.95967-36.062482h20.939506v-20.939506h8.143141v20.939506h22.102812V872.770236h-16.286282c3.489918 20.939506 10.469753 38.389094 19.7762 54.675376l-5.81653 11.633059c-9.306447-18.612894-15.122976-39.5524-19.7762-62.818518v47.695541h11.633059v12.796365h-11.633059v25.592729h-8.143141v-25.592729h-11.633059v-12.796365h11.633059v-47.695541c-4.653224 26.756035-10.469753 47.695541-19.7762 65.14513l-4.653223-11.633059c8.143141-13.959671 15.122976-32.572565 18.612894-55.838682h-15.122977v-13.959671z" p-id="5929"></path></svg>