<?xml version="1.0" standalone="no"?><!DOCTYPE svg PUBLIC "-//W3C//DTD SVG 1.1//EN" "http://www.w3.org/Graphics/SVG/1.1/DTD/svg11.dtd"><svg t="1577681397588" class="icon" viewBox="0 0 1024 1024" version="1.1" xmlns="http://www.w3.org/2000/svg" p-id="12325" xmlns:xlink="http://www.w3.org/1999/xlink" width="200" height="200"><defs><style type="text/css"></style></defs><path d="M512 373.527273m-373.527273 0a373.527273 373.527273 0 1 0 747.054546 0 373.527273 373.527273 0 1 0-747.054546 0Z" fill="#FF090B" p-id="12326"></path><path d="M512 373.527273m-310.690909 0a310.690909 310.690909 0 1 0 621.381818 0 310.690909 310.690909 0 1 0-621.381818 0Z" fill="#FFFFFF" p-id="12327"></path><path d="M293.236364 529.454545c3.490909 29.090909 29.090909 51.2 59.345454 51.2h75.636364c30.254545 0 54.690909-22.109091 59.345454-51.2H293.236364zM281.6 496.872727c0 10.472727 9.309091 19.781818 19.781818 19.781818h174.545455c10.472727 0 19.781818-9.309091 19.781818-19.781818 0-10.472727-9.309091-19.781818-19.781818-19.781818h-174.545455c-10.472727 1.163636-19.781818 9.309091-19.781818 19.781818zM486.4 465.454545c-3.490909-29.090909-29.090909-52.363636-59.345455-52.363636h-75.636363c-30.254545 0-54.690909 23.272727-59.345455 52.363636h194.327273zM665.6 582.981818H509.672727l-13.963636-304.872727h186.181818z" p-id="12328"></path><path d="M660.468364 154.996364l17.163636 3.141818-66.094545 362.891636-17.175273-3.130182z" p-id="12329"></path><path d="M285.405091 110.917818l488.750545 488.738909-35.374545 35.374546-488.750546-488.738909z" fill="#FF090B" p-id="12330"></path><path d="M201.309091 800.581818h621.381818V1024H201.309091z" fill="#FE0807" p-id="12331"></path><path d="M214.109091 812.218182h596.945454v198.981818H214.109091z" fill="#FFFFFF" p-id="12332"></path><path d="M308.363636 905.309091h-12.8c-4.654545 0-8.145455 0-11.636363-1.163636-3.490909-1.163636-5.818182-2.327273-8.145455-4.654546l-2.327273-2.327273c-1.163636 0-3.490909 3.490909-8.145454 10.472728l-5.818182-5.818182c3.490909-5.818182 6.981818-9.309091 10.472727-11.636364v-20.945454h-9.309091v-6.981819h17.454546v27.927273l1.163636 1.163637c1.163636 2.327273 3.490909 3.490909 4.654546 4.654545 2.327273 1.163636 5.818182 1.163636 9.309091 2.327273H329.309091l-3.490909 6.981818h-17.454546zM266.472727 837.818182c4.654545 3.490909 9.309091 8.145455 12.8 11.636363l-5.818182 5.818182c-2.327273-3.490909-6.981818-8.145455-12.8-11.636363l5.818182-5.818182z m16.290909 10.472727h8.145455v-11.636364h6.981818v11.636364h9.309091V837.818182h8.145455v10.472727h8.145454v6.981818h-8.145454v12.8h10.472727v6.981818h-10.472727v19.781819h-8.145455v-19.781819h-11.636364c-2.327273 8.145455-5.818182 15.127273-11.636363 18.618182l-4.654546-5.818182c3.490909-2.327273 6.981818-6.981818 8.145455-12.8H279.272727v-6.981818h10.472728v-11.636363h-8.145455v-8.145455z m15.127273 6.981818v12.8h10.472727v-12.8h-10.472727zM425.890909 841.309091l6.981818-4.654546c5.818182 4.654545 11.636364 12.8 16.290909 25.6 6.981818 17.454545 16.290909 29.090909 27.927273 37.236364l-4.654545 5.818182c-11.636364-6.981818-20.945455-19.781818-29.090909-40.727273v-1.163636c-4.654545 17.454545-15.127273 31.418182-30.254546 40.727273l-5.818182-5.818182c15.127273-10.472727 25.6-24.436364 30.254546-43.054546-2.327273-5.818182-6.981818-10.472727-11.636364-13.963636zM623.709091 840.145455v8.145454h-51.2v20.945455c0 15.127273-3.490909 27.927273-9.309091 37.236363l-5.818182-5.818182c4.654545-8.145455 6.981818-18.618182 8.145455-32.581818v-27.927272h58.181818zM712.145455 840.145455h60.50909v6.981818h-52.363636V896h54.690909v6.981818h-62.836363v-62.836363z m18.618181 11.636363c6.981818 4.654545 12.8 9.309091 18.618182 15.127273 3.490909-4.654545 6.981818-10.472727 9.309091-17.454546l6.981818 3.49091c-3.490909 6.981818-6.981818 13.963636-10.472727 18.618181 5.818182 4.654545 10.472727 10.472727 13.963636 13.963637l-5.818181 5.818182c-3.490909-4.654545-8.145455-9.309091-13.963637-13.963637-5.818182 6.981818-13.963636 11.636364-20.945454 15.127273l-4.654546-6.981818c8.145455-3.490909 13.963636-8.145455 19.781818-13.963637-5.818182-4.654545-11.636364-10.472727-18.618181-15.127272l5.818181-4.654546zM261.818182 918.109091h11.636363v-5.818182h8.145455v5.818182h10.472727v6.981818h-10.472727c3.490909 2.327273 6.981818 3.490909 9.309091 5.818182l-4.654546 5.818182c-2.327273-2.327273-4.654545-4.654545-5.818181-6.981818v11.636363h-8.145455V930.909091c-2.327273 4.654545-5.818182 8.145455-9.309091 10.472727l-4.654545-6.981818c4.654545-3.490909 9.309091-6.981818 11.636363-10.472727h-10.472727v-5.818182z m18.618182 50.036364c-3.490909 4.654545-9.309091 9.309091-15.127273 12.8l-4.654546-5.818182c5.818182-3.490909 10.472727-6.981818 13.963637-11.636364l5.818182 4.654546zM261.818182 954.181818h62.836363v6.981818h-26.763636v12.8c0 4.654545-2.327273 6.981818-8.145454 6.981819h-6.981819l-1.163636-6.981819h5.818182c1.163636 0 2.327273-1.163636 2.327273-2.327272v-10.472728h-29.09091V954.181818z m5.818182-10.472727h51.2v6.981818H267.636364v-6.981818z m26.763636-25.6h10.472727v-5.818182h8.145455v5.818182H325.818182v6.981818h-9.309091c2.327273 3.490909 5.818182 6.981818 11.636364 10.472727l-4.654546 5.818182c-3.490909-3.490909-6.981818-8.145455-9.309091-12.8v12.8h-8.145454v-12.8c-2.327273 4.654545-5.818182 9.309091-9.309091 12.8l-5.818182-5.818182c4.654545-3.490909 8.145455-6.981818 10.472727-10.472727h-6.981818v-6.981818z m15.127273 45.381818c5.818182 3.490909 10.472727 6.981818 15.127272 11.636364l-4.654545 6.981818c-4.654545-4.654545-10.472727-9.309091-15.127273-11.636364l4.654546-6.981818zM404.945455 912.290909h8.145454v23.272727h22.109091v8.145455h-22.109091v27.927273h26.763636v8.145454h-66.327272v-8.145454h11.636363v-45.381819h8.145455v45.381819h12.8v-59.345455zM507.345455 916.945455V930.909091c4.654545-4.654545 8.145455-10.472727 10.472727-18.618182l6.981818 1.163636-3.490909 6.981819h26.763636v6.981818h-31.418182c-2.327273 3.490909-4.654545 6.981818-6.981818 9.309091l-4.654545-5.818182v40.727273H500.363636v-3.490909h-6.981818v5.818181h-8.145454v-58.181818h22.109091z m-15.127273 45.381818h8.145454v-37.236364h-6.981818v37.236364z m22.109091-24.436364h30.254545v6.981818l-13.963636 13.963637c-3.490909 3.490909-5.818182 5.818182-6.981818 8.145454-1.163636 1.163636-1.163636 3.490909-1.163637 3.490909 0 1.163636 1.163636 2.327273 2.327273 2.327273h15.127273c1.163636 0 2.327273-1.163636 3.490909-2.327273 1.163636-1.163636 1.163636-4.654545 1.163636-11.636363l6.981818 2.327272c-1.163636 8.145455-2.327273 12.8-3.490909 15.127273-1.163636 1.163636-4.654545 2.327273-8.145454 2.327273h-17.454546c-5.818182 0-9.309091-2.327273-9.309091-8.145455 0-1.163636 1.163636-3.490909 2.327273-5.818182 1.163636-1.163636 3.490909-4.654545 6.981818-9.30909 3.490909-3.490909 6.981818-8.145455 10.472728-11.636364h-18.618182v-5.818182zM626.036364 941.381818v-11.636363H605.090909v9.30909h-6.981818v-15.127272h27.927273v-3.490909h-24.436364v-5.818182h55.854545v5.818182h-24.436363v3.490909h27.927273v15.127272h-6.981819v-9.30909h-20.945454V942.545455l2.327273 1.163636v-4.654546H651.636364v4.654546h-15.127273c6.981818 3.490909 16.290909 6.981818 26.763636 10.472727l-4.654545 5.818182c-12.8-3.490909-23.272727-8.145455-30.254546-13.963636-8.145455 5.818182-18.618182 10.472727-30.254545 13.963636L593.454545 954.181818c10.472727-2.327273 19.781818-5.818182 26.763637-10.472727h-13.963637v-4.654546h16.29091v3.49091l3.490909-1.163637z m-18.618182-10.472727h15.127273v4.654545h-15.127273V930.909091z m19.781818 17.454545c3.490909 1.163636 5.818182 3.490909 8.145455 5.818182l-1.163637 2.327273h16.290909v5.818182c-3.490909 3.490909-8.145455 6.981818-12.8 10.472727 3.490909 1.163636 5.818182 2.327273 9.309091 3.490909l-3.490909 5.818182c-9.309091-4.654545-19.781818-8.145455-29.090909-10.472727l2.327273-5.818182c4.654545 1.163636 9.309091 2.327273 12.8 3.490909 3.490909-2.327273 6.981818-3.490909 10.472727-5.818182h-31.418182v-6.981818H628.363636c-1.163636-1.163636-3.490909-2.327273-5.818181-3.490909l4.654545-4.654546z m8.145455-17.454545H651.636364v4.654545h-15.127273V930.909091zM744.727273 912.290909c9.309091 8.145455 19.781818 15.127273 31.418182 19.781818l-3.49091 6.981818c-3.490909-1.163636-6.981818-3.490909-9.30909-4.654545v26.763636c1.163636-1.163636 1.163636-2.327273 2.327272-2.327272l6.981818 3.490909c-2.327273 3.490909-5.818182 5.818182-8.145454 8.145454 3.490909 1.163636 6.981818 3.490909 10.472727 5.818182l-4.654545 5.818182c-8.145455-4.654545-17.454545-10.472727-29.090909-13.963636l4.654545-4.654546c4.654545 1.163636 8.145455 3.490909 12.8 4.654546l5.818182-5.818182h-32.581818v11.636363c4.654545-1.163636 10.472727-2.327273 15.127272-3.490909l1.163637 6.981818c-6.981818 2.327273-15.127273 3.490909-25.6 5.818182l-2.327273-5.818182c2.327273-1.163636 3.490909-2.327273 3.490909-5.818181v-34.909091c-3.490909 2.327273-6.981818 3.490909-10.472727 4.654545l-3.490909-6.981818c12.8-5.818182 23.272727-12.8 31.418182-20.945455h3.490909z m-5.818182 20.945455c0-2.327273-1.163636-3.490909-2.327273-6.981819l6.981818-1.163636c1.163636 2.327273 1.163636 4.654545 2.327273 6.981818h13.963636c-6.981818-3.490909-12.8-8.145455-18.618181-13.963636-4.654545 4.654545-10.472727 9.309091-17.454546 13.963636h15.127273z m16.290909 10.472727v-4.654546h-25.6v4.654546h25.6z m-25.6 6.981818v3.490909h25.6v-4.654545h-25.6z" fill="#FF090B" p-id="12333"></path></svg>