<?xml version="1.0" standalone="no"?><!DOCTYPE svg PUBLIC "-//W3C//DTD SVG 1.1//EN" "http://www.w3.org/Graphics/SVG/1.1/DTD/svg11.dtd"><svg class="icon" width="200px" height="200.00px" viewBox="0 0 1024 1024" version="1.1" xmlns="http://www.w3.org/2000/svg"><path d="M512 373.527273m-373.527273 0a373.527273 373.527273 0 1 0 747.054546 0 373.527273 373.527273 0 1 0-747.054546 0Z" fill="#FF090B" /><path d="M512 373.527273m-310.690909 0a310.690909 310.690909 0 1 0 621.381818 0 310.690909 310.690909 0 1 0-621.381818 0Z" fill="#FFFFFF" /><path d="M520.145455 114.036364c-87.272727 0-158.254545 18.618182-158.254546 41.890909S432.872727 197.818182 520.145455 197.818182s158.254545-18.618182 158.254545-41.890909-70.981818-41.890909-158.254545-41.890909z m102.4 51.2c-18.618182 0-33.745455-3.490909-33.745455-9.309091 0-4.654545 15.127273-9.309091 33.745455-9.309091 18.618182 0 33.745455 3.490909 33.745454 9.309091s-15.127273 9.309091-33.745454 9.309091z"  /><path d="M520.145455 217.6c-87.272727 0-158.254545-18.618182-158.254546-41.890909v123.345454c2.327273 22.109091 72.145455 40.727273 158.254546 40.727273s154.763636-17.454545 158.254545-40.727273V175.709091c0 23.272727-70.981818 41.890909-158.254545 41.890909z"  /><path d="M520.145455 364.218182c-87.272727 0-158.254545-18.618182-158.254546-41.890909v123.345454c2.327273 22.109091 72.145455 40.727273 158.254546 40.727273s154.763636-17.454545 158.254545-40.727273V322.327273c0 22.109091-70.981818 41.890909-158.254545 41.890909z"  /><path d="M520.145455 513.163636c-87.272727 0-158.254545-18.618182-158.254546-41.890909v123.345455c2.327273 22.109091 72.145455 40.727273 158.254546 40.727273S674.909091 616.727273 678.4 594.618182V471.272727c0 23.272727-70.981818 41.890909-158.254545 41.890909z"  /><path d="M285.405091 110.917818l488.750545 488.738909-35.374545 35.374546-488.750546-488.738909z" fill="#FF090B" /><path d="M164.072727 800.581818h695.854546V1024H164.072727z" fill="#FE0807" /><path d="M175.709091 812.218182h671.418182v198.981818H175.709091z" fill="#FFFFFF" /><path d="M221.090909 861.090909h16.290909v-9.309091h10.472727v9.309091h13.963637v11.636364h-13.963637c4.654545 3.490909 9.309091 5.818182 12.8 10.472727l-5.818181 10.472727c-3.490909-4.654545-5.818182-8.145455-8.145455-11.636363v18.618181h-10.472727v-18.618181c-3.490909 6.981818-8.145455 12.8-12.8 18.618181l-5.818182-10.472727c6.981818-4.654545 11.636364-10.472727 16.290909-17.454545H221.090909v-11.636364z m25.6 84.945455c-4.654545 8.145455-11.636364 15.127273-19.781818 22.109091l-5.818182-10.472728c6.981818-5.818182 13.963636-11.636364 18.618182-18.618182l6.981818 6.981819z m-25.6-23.272728h84.945455v11.636364h-36.072728v20.945455c0 6.981818-3.490909 11.636364-10.472727 11.636363h-9.309091l-2.327273-11.636363c2.327273 0 5.818182 1.163636 8.145455 1.163636 2.327273 0 3.490909-1.163636 3.490909-3.490909v-18.618182H221.090909v-11.636364z m8.145455-18.618181h67.490909v11.636363h-67.490909v-11.636363z m36.072727-43.054546H279.272727v-9.309091h10.472728v9.309091h16.290909v11.636364h-12.8c3.490909 5.818182 8.145455 11.636364 15.127272 17.454545l-6.981818 10.472727c-5.818182-5.818182-9.309091-12.8-12.8-20.945454v20.945454h-10.472727v-20.945454c-3.490909 8.145455-8.145455 15.127273-12.8 20.945454l-5.818182-10.472727c5.818182-4.654545 10.472727-10.472727 13.963636-17.454545h-9.30909v-11.636364z m19.781818 76.8c6.981818 4.654545 13.963636 11.636364 20.945455 18.618182l-5.818182 11.636364c-6.981818-8.145455-12.8-15.127273-19.781818-19.781819l4.654545-10.472727zM361.890909 852.945455h10.472727v38.4h30.254546v12.8H372.363636v45.381818h34.909091v12.8h-89.6v-12.8h16.290909v-75.636364h10.472728v75.636364h17.454545v-96.581818zM417.745455 869.236364h17.454545c-1.163636-4.654545-3.490909-10.472727-5.818182-15.127273l10.472727-2.327273c2.327273 5.818182 4.654545 11.636364 5.818182 17.454546h13.963637v12.8h-23.272728v15.127272h18.618182c0 30.254545 0 50.036364-1.163636 58.181819-1.163636 6.981818-5.818182 10.472727-12.8 10.472727-1.163636 0-3.490909 0-6.981818-1.163637l-2.327273-11.636363h8.145454c3.490909 0 4.654545-2.327273 5.818182-5.818182 0-3.490909 1.163636-17.454545 1.163637-39.563636h-9.309091c-1.163636 25.6-5.818182 45.381818-12.8 58.181818l-8.145455-9.309091c6.981818-13.963636 11.636364-36.072727 11.636364-67.490909v-8.145455H418.909091v-11.636363z m48.872727 33.745454c-1.163636 2.327273-2.327273 4.654545-3.490909 5.818182l-6.981818-10.472727c6.981818-11.636364 10.472727-27.927273 12.8-48.872728l10.472727 2.327273c-1.163636 6.981818-2.327273 11.636364-2.327273 16.290909h27.927273v12.8H500.363636c-1.163636 19.781818-4.654545 37.236364-10.472727 52.363637 5.818182 9.309091 12.8 17.454545 19.781818 22.109091l-5.818182 11.636363c-8.145455-5.818182-13.963636-12.8-19.781818-22.109091-5.818182 9.309091-12.8 16.290909-20.945454 22.109091l-5.818182-11.636363c8.145455-5.818182 15.127273-12.8 20.945454-22.109091-5.818182-9.309091-9.309091-18.618182-11.636363-30.254546z m8.145454-20.945454c0 1.163636-1.163636 4.654545-2.327272 8.145454 2.327273 11.636364 5.818182 22.109091 10.472727 31.418182 4.654545-11.636364 6.981818-24.436364 6.981818-39.563636h-15.127273zM530.618182 902.981818v-46.545454H593.454545v46.545454h-39.563636c-1.163636 3.490909-3.490909 5.818182-4.654545 6.981818h51.2c0 13.963636-1.163636 24.436364-2.327273 33.745455-1.163636 8.145455-2.327273 13.963636-4.654546 17.454545-2.327273 3.490909-5.818182 4.654545-10.472727 4.654546H570.181818l-2.327273-11.636364c4.654545 0 8.145455 1.163636 11.636364 1.163637 4.654545 0 6.981818-2.327273 8.145455-5.818182 1.163636-4.654545 2.327273-12.8 2.327272-26.763637h-6.981818c-8.145455 23.272727-22.109091 38.4-40.727273 45.381819l-5.818181-10.472728c16.290909-5.818182 27.927273-17.454545 36.072727-34.909091h-9.309091c-6.981818 12.8-17.454545 23.272727-32.581818 31.418182l-6.981818-11.636363c12.8-5.818182 22.109091-12.8 27.927272-20.945455h-11.636363c-4.654545 4.654545-10.472727 8.145455-16.290909 11.636364l-5.818182-11.636364c10.472727-4.654545 18.618182-11.636364 24.436363-18.618182h-11.636363z m10.472727-29.090909h43.054546v-6.981818h-43.054546v6.981818z m41.890909 17.454546V884.363636h-43.054545v6.981819h43.054545zM622.545455 965.818182l-8.145455-8.145455c9.309091-11.636364 13.963636-31.418182 13.963636-59.345454v-45.381818h9.309091v25.6c1.163636-2.327273 3.490909-6.981818 4.654546-11.636364l4.654545 8.145454c-2.327273 5.818182-5.818182 10.472727-10.472727 15.127273v6.981818c0 8.145455 0 16.290909-1.163636 23.272728 3.490909 4.654545 6.981818 10.472727 10.472727 16.290909l-5.818182 11.636363c-2.327273-6.981818-4.654545-12.8-5.818182-16.290909-2.327273 15.127273-5.818182 25.6-11.636363 33.745455z m2.327272-88.436364c0 12.8-1.163636 24.436364-2.327272 36.072727l-8.145455-2.327272c1.163636-10.472727 2.327273-20.945455 2.327273-33.745455h8.145454z m51.2-13.963636v9.309091c0 2.327273 0 4.654545-1.163636 6.981818h5.818182v-24.436364h9.309091v24.436364h15.127272v11.636364h-15.127272c2.327273 10.472727 6.981818 22.109091 17.454545 33.745454l-6.981818 9.309091c-6.981818-10.472727-12.8-19.781818-15.127273-31.418182-2.327273 10.472727-6.981818 22.109091-15.127273 31.418182l-6.981818-9.309091c9.309091-12.8 13.963636-24.436364 16.290909-34.909091h-6.981818c-4.654545 17.454545-11.636364 31.418182-23.272727 40.727273l-5.818182-9.309091c4.654545-4.654545 8.145455-9.309091 11.636364-13.963636-2.327273-2.327273-4.654545-4.654545-6.981818-5.818182-1.163636 2.327273-2.327273 3.490909-3.49091 4.654545l-4.654545-9.309091c8.145455-11.636364 12.8-25.6 16.290909-43.054545l9.309091 1.163636c-2.327273 3.490909-2.327273 6.981818-2.327273 8.145455h12.8z m-16.290909 74.472727c-1.163636 11.636364-3.490909 20.945455-6.981818 30.254546l-9.309091-4.654546c2.327273-8.145455 5.818182-17.454545 6.981818-27.927273l9.309091 2.327273z m2.327273-44.218182c-2.327273-1.163636-4.654545-3.490909-6.981818-4.654545-2.327273 4.654545-3.490909 6.981818-2.327273 5.818182 2.327273 2.327273 4.654545 3.490909 6.981818 5.818181l2.327273-6.981818z m4.654545-18.618182h-6.981818l-1.163636 4.654546c2.327273 1.163636 4.654545 2.327273 6.981818 4.654545 0-2.327273 1.163636-5.818182 1.163636-9.309091z m5.818182 62.836364c1.163636 9.309091 1.163636 18.618182 1.163637 27.927273l-9.309091 1.163636-1.163637-27.927273 9.309091-1.163636z m12.8-2.327273c2.327273 8.145455 3.490909 17.454545 5.818182 27.927273l-10.472727 2.327273c-1.163636-10.472727-2.327273-19.781818-4.654546-27.927273l9.309091-2.327273z m13.963637-2.327272c3.490909 8.145455 5.818182 17.454545 9.30909 27.927272l-9.30909 4.654546c-2.327273-11.636364-5.818182-20.945455-8.145455-29.090909l8.145455-3.490909z m-1.163637-76.8c3.490909 5.818182 5.818182 10.472727 8.145455 15.127272l-6.981818 5.818182c-2.327273-5.818182-4.654545-10.472727-8.145455-16.290909l6.981818-4.654545zM726.109091 889.018182c-1.163636 6.981818-2.327273 11.636364-2.327273 17.454545l-9.309091-3.490909c2.327273-12.8 4.654545-26.763636 4.654546-40.727273l9.309091 1.163637c0 5.818182 0 10.472727-1.163637 13.963636h4.654546v-24.436363h10.472727v24.436363h6.981818v12.8h-6.981818v24.436364l5.818182-3.490909v11.636363l-5.818182 3.490909v40.727273h-10.472727V930.909091c-5.818182 2.327273-10.472727 4.654545-13.963637 5.818182l-2.327272-12.8c4.654545-1.163636 10.472727-3.490909 16.290909-5.818182v-30.254546h-5.818182z m43.054545-33.745455c-1.163636 5.818182-2.327273 11.636364-3.490909 16.290909H802.909091c0 43.054545 0 69.818182-1.163636 80.290909-1.163636 10.472727-6.981818 16.290909-17.454546 16.29091-1.163636 0-3.490909 0-6.981818-1.163637l-2.327273-11.636363c3.490909 0 5.818182 1.163636 8.145455 1.163636 5.818182 0 8.145455-3.490909 9.309091-10.472727 0-4.654545 1.163636-25.6 1.163636-61.672728h-3.490909c-2.327273 19.781818-4.654545 36.072727-9.309091 47.709091-4.654545 12.8-11.636364 25.6-20.945455 36.072728l-6.981818-10.472728c8.145455-9.309091 13.963636-19.781818 18.618182-31.418182 3.490909-10.472727 5.818182-24.436364 8.145455-41.890909h-4.654546c-4.654545 26.763636-11.636364 45.381818-22.109091 58.181819l-5.818182-11.636364c9.309091-10.472727 16.290909-26.763636 19.781819-47.709091h-4.654546c-2.327273 6.981818-5.818182 13.963636-8.145454 18.618182l-6.981819-8.145455c5.818182-9.309091 10.472727-23.272727 12.8-41.890909l9.309091 3.490909z" fill="#FF090B" /></svg>