<?xml version="1.0" standalone="no"?><!DOCTYPE svg PUBLIC "-//W3C//DTD SVG 1.1//EN" "http://www.w3.org/Graphics/SVG/1.1/DTD/svg11.dtd"><svg class="icon" width="200px" height="200.00px" viewBox="0 0 1024 1024" version="1.1" xmlns="http://www.w3.org/2000/svg"><path d="M512 373.527273m-373.527273 0a373.527273 373.527273 0 1 0 747.054546 0 373.527273 373.527273 0 1 0-747.054546 0Z" fill="#FF090B" /><path d="M201.309091 800.581818h621.381818V1024H201.309091z" fill="#FE0807" /><path d="M214.109091 812.218182h596.945454v198.981818H214.109091zM203.636364 314.181818h621.381818v148.945455H203.636364z" fill="#FFFFFF" /><path d="M272.290909 861.090909h19.781818v-9.309091h12.8v9.309091h17.454546v11.636364h-17.454546c5.818182 3.490909 10.472727 5.818182 16.290909 10.472727l-6.981818 10.472727c-3.490909-4.654545-6.981818-8.145455-9.309091-11.636363v18.618181h-12.8v-18.618181c-4.654545 6.981818-9.309091 12.8-15.127272 18.618181l-6.981819-10.472727c8.145455-4.654545 15.127273-10.472727 19.781819-17.454545h-17.454546v-11.636364z m31.418182 84.945455c-6.981818 8.145455-15.127273 15.127273-24.436364 22.109091l-8.145454-10.472728c9.309091-5.818182 17.454545-11.636364 23.272727-18.618182l9.309091 6.981819z m-31.418182-23.272728h105.890909v11.636364h-44.218182v20.945455c0 6.981818-4.654545 11.636364-12.8 11.636363h-11.636363l-2.327273-11.636363c3.490909 0 6.981818 1.163636 10.472727 1.163636 2.327273 0 3.490909-1.163636 3.490909-3.490909v-18.618182h-47.709091v-11.636364z m11.636364-18.618181h84.945454v11.636363h-84.945454v-11.636363z m44.218182-43.054546h16.290909v-9.309091h12.8v9.309091h20.945454v11.636364h-16.290909c4.654545 5.818182 10.472727 11.636364 19.781818 17.454545l-9.309091 10.472727c-6.981818-5.818182-11.636364-12.8-15.127272-20.945454v20.945454h-12.8v-20.945454c-4.654545 8.145455-9.309091 15.127273-15.127273 20.945454l-6.981818-10.472727c6.981818-4.654545 12.8-10.472727 18.618182-17.454545h-12.8v-11.636364z m24.436363 76.8c9.309091 4.654545 17.454545 11.636364 25.6 18.618182l-6.981818 11.636364c-8.145455-8.145455-16.290909-15.127273-25.6-19.781819l6.981818-10.472727zM449.163636 852.945455h12.8v38.4h37.236364v12.8h-37.236364v45.381818h44.218182v12.8h-111.709091v-12.8h19.781818v-75.636364h12.8v75.636364h22.109091v-96.581818zM546.909091 939.054545c-9.309091 2.327273-19.781818 4.654545-30.254546 6.981819l-1.163636-12.8c11.636364-1.163636 22.109091-3.490909 32.581818-5.818182v11.636363z m1.163636-70.981818h-30.254545v-11.636363h43.054545l-5.818182 51.2h9.309091c0 29.090909-1.163636 46.545455-4.654545 51.2-2.327273 4.654545-9.309091 6.981818-17.454546 6.981818-2.327273 0-5.818182 0-9.30909-1.163637l-3.49091-11.636363c4.654545 1.163636 8.145455 1.163636 10.472728 1.163636 5.818182 0 9.309091-1.163636 10.472727-4.654545 1.163636-3.490909 2.327273-13.963636 2.327273-30.254546h-32.581818l5.818181-44.218182 11.636364 1.163637-5.818182 31.418182h10.472727l5.818182-39.563637z m20.945455 1.163637h23.272727v-17.454546H605.090909v17.454546h23.272727v46.545454h-23.272727v1.163637c0 9.309091-2.327273 17.454545-4.654545 24.436363 9.309091 6.981818 20.945455 11.636364 33.745454 11.636364l-3.490909 11.636363c-13.963636-1.163636-26.763636-5.818182-37.236364-13.963636-5.818182 5.818182-13.963636 11.636364-23.272727 15.127273l-6.981818-11.636364c9.309091-3.490909 17.454545-8.145455 20.945455-12.8-5.818182-5.818182-10.472727-11.636364-15.127273-19.781818l9.309091-6.981818c3.490909 5.818182 6.981818 10.472727 10.472727 15.127273 1.163636-4.654545 2.327273-10.472727 2.327273-15.127273v-1.163637h-23.272728v-44.218181z m23.272727 34.909091v-23.272728h-11.636364v23.272728h11.636364z m23.272727 0v-23.272728h-11.636363v23.272728h11.636363zM671.418182 858.763636l10.472727-6.981818c10.472727 6.981818 19.781818 20.945455 27.927273 41.890909 11.636364 29.090909 26.763636 48.872727 45.381818 61.672728l-8.145455 10.472727c-19.781818-11.636364-36.072727-33.745455-48.872727-67.490909v-1.163637c-8.145455 29.090909-25.6 52.363636-50.036363 68.654546l-8.145455-11.636364c25.6-17.454545 43.054545-40.727273 51.2-72.145454-5.818182-10.472727-11.636364-17.454545-19.781818-23.272728z" fill="#FF090B" /></svg>