<?xml version="1.0" standalone="no"?><!DOCTYPE svg PUBLIC "-//W3C//DTD SVG 1.1//EN" "http://www.w3.org/Graphics/SVG/1.1/DTD/svg11.dtd"><svg class="icon" width="200px" height="200.00px" viewBox="0 0 1024 1024" version="1.1" xmlns="http://www.w3.org/2000/svg"><path d="M512 373.527273m-373.527273 0a373.527273 373.527273 0 1 0 747.054546 0 373.527273 373.527273 0 1 0-747.054546 0Z" fill="#FF090B" /><path d="M512 373.527273m-310.690909 0a310.690909 310.690909 0 1 0 621.381818 0 310.690909 310.690909 0 1 0-621.381818 0Z" fill="#FFFFFF" /><path d="M491.054545 140.8s-64-8.145455-50.036363 16.290909c13.963636 25.6 25.6 4.654545 31.418182 114.036364s20.945455 188.509091-6.981819 200.145454-160.581818 61.672727-148.945454 101.236364c11.636364 38.4 29.090909 43.054545 40.727273 31.418182 10.472727-10.472727 22.109091-19.781818 31.418181-9.309091 10.472727 10.472727 25.6 18.618182 40.727273-1.163637s32.581818 2.327273 36.072727 10.472728c3.490909 8.145455 24.436364-3.490909 25.6-17.454546 1.163636-13.963636 88.436364-40.727273 109.381819-29.090909 20.945455 11.636364 9.309091 37.236364 27.927272 37.236364 18.618182 0 19.781818-24.436364 13.963637-43.054546-5.818182-19.781818 2.327273-93.090909-5.818182-103.563636-8.145455-10.472727-17.454545-257.163636-1.163636-272.290909 17.454545-18.618182 26.763636-47.709091-144.29091-34.909091z"  /><path d="M285.405091 110.917818l488.750545 488.738909-35.374545 35.374546-488.750546-488.738909z" fill="#FF090B" /><path d="M164.072727 800.581818h695.854546V1024H164.072727z" fill="#FE0807" /><path d="M175.709091 812.218182h671.418182v198.981818H175.709091z" fill="#FFFFFF" /><path d="M217.6 861.090909h16.290909v-9.309091h10.472727v9.309091h13.963637v11.636364H244.363636c4.654545 3.490909 9.309091 5.818182 12.8 10.472727l-5.818181 10.472727c-3.490909-4.654545-5.818182-8.145455-8.145455-11.636363v18.618181H232.727273v-18.618181c-3.490909 6.981818-8.145455 12.8-12.8 18.618181l-5.818182-10.472727c6.981818-4.654545 11.636364-10.472727 16.290909-17.454545h-13.963636v-11.636364z m25.6 84.945455c-5.818182 8.145455-11.636364 15.127273-19.781818 22.109091l-6.981818-10.472728c8.145455-5.818182 13.963636-11.636364 18.618181-18.618182l8.145455 6.981819z m-25.6-23.272728H302.545455v11.636364h-36.072728v20.945455c0 6.981818-3.490909 11.636364-10.472727 11.636363h-9.309091l-2.327273-11.636363c2.327273 0 5.818182 1.163636 8.145455 1.163636 2.327273 0 3.490909-1.163636 3.490909-3.490909v-18.618182h-39.563636v-11.636364z m8.145455-18.618181h68.654545v11.636363h-68.654545v-11.636363z m36.072727-43.054546h13.963636v-9.309091h10.472727v9.309091H302.545455v11.636364h-12.8c3.490909 5.818182 8.145455 11.636364 15.127272 17.454545l-6.981818 10.472727c-5.818182-5.818182-9.309091-12.8-12.8-20.945454v20.945454h-10.472727v-20.945454c-3.490909 8.145455-8.145455 15.127273-12.8 20.945454l-5.818182-10.472727c5.818182-4.654545 10.472727-10.472727 15.127273-17.454545h-10.472728v-11.636364z m20.945454 76.8c8.145455 4.654545 13.963636 11.636364 20.945455 18.618182l-5.818182 11.636364c-6.981818-8.145455-12.8-15.127273-19.781818-19.781819l4.654545-10.472727zM359.563636 852.945455h10.472728v38.4h30.254545v12.8h-30.254545v45.381818h34.909091v12.8H314.181818v-12.8h16.290909v-75.636364h10.472728v75.636364h17.454545v-96.581818zM424.727273 897.163636h74.472727v11.636364h-15.127273v11.636364h22.109091v11.636363h-22.109091V954.181818c0 8.145455-3.490909 12.8-10.472727 12.8h-13.963636l-2.327273-11.636363c4.654545 0 9.309091 1.163636 12.8 1.163636 2.327273 0 3.490909-1.163636 3.490909-4.654546v-17.454545h-2.327273c-10.472727 13.963636-26.763636 24.436364-48.872727 33.745455l-5.818182-11.636364c18.618182-5.818182 32.581818-13.963636 41.890909-22.109091h-34.909091c2.327273-8.145455 4.654545-15.127273 5.818182-20.945455l10.472727 1.163637c0 2.327273-1.163636 4.654545-2.327272 8.145454h36.072727v-11.636363h-48.872727v-13.963637z m40.727272-46.545454c1.163636 4.654545 2.327273 6.981818 2.327273 9.309091h37.236364v19.781818h-10.472727v-8.145455h-66.327273v9.309091h-10.472727v-20.945454h38.4c-1.163636-2.327273-2.327273-4.654545-2.327273-6.981818l11.636363-2.327273z m-6.981818 31.418182c-8.145455 5.818182-18.618182 10.472727-30.254545 13.963636l-3.490909-10.472727c11.636364-3.490909 20.945455-6.981818 27.927272-12.8l5.818182 9.309091z m11.636364-9.309091c11.636364 3.490909 20.945455 8.145455 29.090909 12.8l-4.654545 10.472727c-9.309091-5.818182-19.781818-10.472727-29.09091-13.963636l4.654546-9.309091zM516.654545 864.581818h13.963637v-11.636363h9.309091v11.636363h16.290909v-11.636363h10.472727v11.636363h16.290909v-11.636363h10.472727v11.636363h13.963637v12.8H593.454545v11.636364h-9.30909v-11.636364h-16.29091v11.636364h-10.472727v-11.636364h-16.290909v11.636364h-9.309091v-11.636364h-13.963636v-12.8z m88.436364 29.090909V919.272727h-10.472727v-12.8h-27.927273v9.309091H593.454545v29.090909c0 9.309091-3.490909 12.8-9.30909 12.8h-9.309091l-2.327273-12.8 8.145454 1.163637c1.163636 0 2.327273-1.163636 2.327273-4.654546v-15.127273h-15.127273v38.4h-10.472727v-38.4h-15.127273v31.418182h-10.472727v-43.054545h25.6v-9.309091h-27.927273V919.272727h-10.472727v-25.6H605.090909zM638.836364 855.272727c0 2.327273-1.163636 5.818182-2.327273 10.472728h17.454545v11.636363h-20.945454c-1.163636 4.654545-3.490909 9.309091-4.654546 12.8h24.436364v11.636364h-9.309091v11.636363h12.8v11.636364h-12.8v24.436364c4.654545-2.327273 8.145455-4.654545 12.8-8.145455l1.163636 11.636364c-6.981818 4.654545-15.127273 8.145455-24.436363 11.636363l-4.654546-11.636363c2.327273-1.163636 4.654545-3.490909 4.654546-4.654546v-23.272727h-12.8v-11.636364h12.8v-11.636363h-5.818182v-9.309091l-3.490909 6.981818-8.145455-6.981818c6.981818-12.8 10.472727-25.6 13.963637-40.727273l9.309091 3.490909z m18.618181 3.490909H709.818182v12.8h-17.454546v81.454546c0 9.309091-3.490909 12.8-10.472727 12.8h-15.127273l-2.327272-12.8c5.818182 0 9.309091 1.163636 12.8 1.163636 2.327273 0 3.490909-1.163636 3.490909-4.654545v-77.963637h-25.6v-12.8zM717.963636 859.927273h5.818182v-8.145455h9.309091v8.145455h11.636364v-8.145455h9.309091v8.145455h5.818181v11.636363h-5.818181v17.454546H744.727273v5.818182h13.963636v33.745454H744.727273v8.145455h16.290909v11.636363H744.727273V965.818182h-10.472728v-17.454546h-16.290909v-11.636363h16.290909v-8.145455h-13.963636v-33.745454h13.963636v-5.818182h-10.472727v-17.454546h-5.818182v-11.636363z m16.290909 59.345454v-13.963636h-4.654545V919.272727h4.654545z m0-47.709091v6.981819h10.472728v-6.981819h-10.472728z m15.127273 47.709091v-13.963636H744.727273V919.272727h4.654545z m13.963637 2.327273H779.636364v-12.8h10.472727v12.8h16.290909v11.636364h-16.290909v19.781818h20.945454v11.636363H756.363636v-11.636363h23.272728v-19.781818h-16.290909v-11.636364z m1.163636-55.854545H779.636364v-12.8h10.472727v12.8h16.290909v11.636363h-16.290909v15.127273h19.781818v11.636364h-48.872727v-11.636364H779.636364v-15.127273h-16.290909v-11.636363z" fill="#FF090B" /></svg>