<?xml version="1.0" standalone="no"?><!DOCTYPE svg PUBLIC "-//W3C//DTD SVG 1.1//EN" "http://www.w3.org/Graphics/SVG/1.1/DTD/svg11.dtd"><svg class="icon" width="200px" height="200.00px" viewBox="0 0 1024 1024" version="1.1" xmlns="http://www.w3.org/2000/svg"><path d="M512 373.527273m-373.527273 0a373.527273 373.527273 0 1 0 747.054546 0 373.527273 373.527273 0 1 0-747.054546 0Z" fill="#FF090B" /><path d="M512 373.527273m-310.690909 0a310.690909 310.690909 0 1 0 621.381818 0 310.690909 310.690909 0 1 0-621.381818 0Z" fill="#FFFFFF" /><path d="M343.272727 262.981818s69.818182-60.509091 117.527273-73.309091l11.636364 16.290909 72.145454-62.836363-107.054545-3.490909 10.472727 19.781818s-90.763636 33.745455-121.018182 76.8l16.290909 26.763636zM598.109091 393.309091l-15.127273 3.490909c-5.818182 1.163636-13.963636-2.327273-17.454545-8.145455l-11.636364-17.454545c-4.654545-4.654545-4.654545-12.8-1.163636-18.618182l8.145454-12.8c1.163636-2.327273 2.327273-4.654545 1.163637-8.145454-1.163636-2.327273-2.327273-4.654545-4.654546-5.818182L535.272727 311.854545c-2.327273-1.163636-4.654545-2.327273-6.981818-1.163636-2.327273 0-4.654545 2.327273-5.818182 4.654546l-8.145454 12.8c-3.490909 5.818182-11.636364 8.145455-17.454546 6.981818l-19.781818-4.654546c-5.818182 0-12.8-5.818182-13.963636-12.8l-3.490909-15.127272c0-2.327273-2.327273-4.654545-4.654546-5.818182-2.327273-1.163636-4.654545-2.327273-6.981818-1.163637l-25.6 5.818182c-2.327273 0-4.654545 2.327273-5.818182 4.654546-1.163636 2.327273-2.327273 4.654545-1.163636 6.981818l3.490909 15.127273c1.163636 5.818182-2.327273 13.963636-8.145455 17.454545l-17.454545 11.636364c-4.654545 4.654545-12.8 4.654545-18.618182 1.163636L360.727273 349.090909c-2.327273-1.163636-4.654545-2.327273-8.145455-1.163636-2.327273 0-4.654545 2.327273-5.818182 4.654545l-13.963636 22.109091c-1.163636 2.327273-2.327273 4.654545-1.163636 8.145455 0 2.327273 2.327273 4.654545 4.654545 5.818181l12.8 8.145455c5.818182 3.490909 8.145455 11.636364 6.981818 17.454545l-3.490909 20.945455c0 5.818182-5.818182 12.8-12.8 13.963636l-15.127273 3.490909c-2.327273 0-4.654545 2.327273-5.818181 4.654546-1.163636 2.327273-2.327273 4.654545-1.163637 8.145454l5.818182 25.6c0 2.327273 2.327273 4.654545 4.654546 5.818182 2.327273 1.163636 4.654545 2.327273 8.145454 1.163637l15.127273-3.490909c5.818182-1.163636 13.963636 2.327273 17.454545 8.145454l11.636364 17.454546c4.654545 4.654545 4.654545 12.8 1.163636 18.618181l-8.145454 12.8c-1.163636 2.327273-2.327273 4.654545-1.163637 8.145455 0 2.327273 2.327273 4.654545 4.654546 5.818182l22.109091 13.963636c2.327273 1.163636 4.654545 2.327273 6.981818 1.163636 2.327273 0 4.654545-2.327273 5.818182-4.654545l8.145454-12.8c3.490909-5.818182 11.636364-8.145455 17.454546-6.981818l20.945454 3.490909c5.818182 0 12.8 5.818182 13.963637 12.8l3.490909 15.127273c0 2.327273 2.327273 4.654545 4.654545 5.818181 2.327273 1.163636 4.654545 2.327273 8.145455 1.163637l25.6-5.818182c2.327273 0 4.654545-2.327273 5.818182-4.654545 1.163636-2.327273 2.327273-4.654545 1.163636-8.145455l-3.490909-15.127273c-1.163636-5.818182 2.327273-13.963636 8.145454-17.454545l17.454546-11.636364c4.654545-4.654545 12.8-4.654545 18.618182-1.163636l12.8 8.145454c2.327273 1.163636 4.654545 2.327273 8.145454 1.163637 2.327273 0 4.654545-2.327273 5.818182-4.654546l13.963636-22.109091c1.163636-2.327273 2.327273-4.654545 1.163637-8.145454 0-2.327273-2.327273-4.654545-4.654546-5.818182l-12.8-8.145455c-5.818182-3.490909-8.145455-11.636364-6.981818-17.454545l3.490909-20.945455c1.163636-5.818182 5.818182-12.8 12.8-13.963636l15.127273-3.490909c2.327273 0 4.654545-2.327273 5.818182-4.654545 1.163636-2.327273 2.327273-4.654545 1.163636-8.145455l-5.818182-25.6c0-2.327273-2.327273-4.654545-4.654545-5.818182-3.490909 2.327273-6.981818 1.163636-9.309091 2.327273z m-119.854546 108.218182c-31.418182 6.981818-61.672727-12.8-68.654545-44.218182-6.981818-31.418182 12.8-61.672727 44.218182-68.654546 31.418182-6.981818 61.672727 12.8 68.654545 44.218182 6.981818 31.418182-12.8 61.672727-44.218182 68.654546z m258.327273-266.472728c-1.163636-1.163636-3.490909-1.163636-5.818182-1.163636l-10.472727 2.327273c-4.654545 1.163636-10.472727-1.163636-12.8-5.818182l-8.145454-12.8c-3.490909-3.490909-3.490909-9.309091-1.163637-13.963636l5.818182-9.309091c1.163636-1.163636 1.163636-3.490909 1.163636-5.818182s-1.163636-3.490909-3.490909-4.654546l-15.127272-8.145454c-1.163636-1.163636-3.490909-1.163636-5.818182-1.163636s-3.490909 1.163636-4.654546 3.490909l-5.818182 8.145454c-2.327273 3.490909-8.145455 5.818182-12.8 4.654546l-15.127272-2.327273c-4.654545 0-9.309091-4.654545-10.472728-9.309091l-2.327272-10.472727c0-2.327273-1.163636-3.490909-3.490909-4.654546 0-1.163636-2.327273-1.163636-3.490909-1.163636l-18.618182 3.490909c-2.327273 0-3.490909 1.163636-4.654546 3.490909-1.163636 1.163636-1.163636 3.490909-1.163636 5.818182l2.327273 10.472727c1.163636 4.654545-1.163636 10.472727-5.818182 12.8l-12.8 8.145455c-3.490909 3.490909-9.309091 3.490909-13.963637 1.163636l-9.30909-5.818182c-1.163636-1.163636-3.490909-1.163636-5.818182-1.163636s-3.490909 1.163636-4.654546 3.490909l-10.472727 16.290909c-1.163636 1.163636-1.163636 3.490909-1.163636 5.818182s1.163636 3.490909 3.490909 4.654545l9.309091 5.818182c3.490909 2.327273 5.818182 8.145455 4.654545 12.8l-2.327273 15.127273c0 4.654545-4.654545 9.309091-9.309091 10.472727l-10.472727 2.327273c-2.327273 0-3.490909 1.163636-4.654545 3.490909-1.163636 1.163636-1.163636 3.490909-1.163637 5.818182l3.490909 18.618182c0 2.327273 1.163636 3.490909 3.49091 4.654545 1.163636 1.163636 3.490909 1.163636 5.818181 1.163636l10.472728-2.327272c4.654545-1.163636 10.472727 1.163636 12.8 5.818182l8.145454 12.8c3.490909 3.490909 3.490909 9.309091 1.163637 13.963636l-5.818182 9.309091c-1.163636 1.163636-1.163636 3.490909-1.163637 5.818182s1.163636 3.490909 3.490909 4.654545l16.29091 10.472727c1.163636 1.163636 3.490909 1.163636 5.818181 1.163637s3.490909-1.163636 4.654546-3.490909l5.818182-9.309091c2.327273-3.490909 8.145455-5.818182 12.8-4.654546l15.127272 2.327273c4.654545 0 9.309091 4.654545 10.472728 9.309091l2.327272 10.472727c0 2.327273 1.163636 3.490909 3.490909 4.654546 1.163636 1.163636 3.490909 1.163636 5.818182 1.163636l18.618182-3.490909c2.327273 0 3.490909-1.163636 4.654546-3.490909 1.163636-1.163636 1.163636-3.490909 1.163636-5.818182l-2.327273-10.472727c-1.163636-4.654545 1.163636-10.472727 5.818182-12.8l12.8-8.145455c3.490909-3.490909 9.309091-3.490909 13.963636-1.163636l9.309091 5.818182c1.163636 1.163636 3.490909 1.163636 5.818182 1.163636s3.490909-1.163636 4.654546-3.490909l10.472727-16.290909c1.163636-1.163636 1.163636-3.490909 1.163636-5.818182s-1.163636-3.490909-3.490909-4.654545l-9.309091-5.818182c-3.490909-2.327273-5.818182-8.145455-4.654545-12.8l2.327272-15.127273c0-4.654545 4.654545-9.309091 9.309091-10.472727l10.472728-2.327273c2.327273 0 3.490909-1.163636 4.654545-3.490909 1.163636-1.163636 1.163636-3.490909 1.163636-5.818182l-3.490909-18.618182c-3.490909-3.490909-4.654545-4.654545-6.981818-5.818182z m-91.927273 77.963637c-22.109091 4.654545-45.381818-9.309091-50.036363-32.581818-4.654545-22.109091 9.309091-45.381818 32.581818-50.036364 22.109091-4.654545 45.381818 9.309091 50.036364 32.581818 4.654545 22.109091-10.472727 44.218182-32.581819 50.036364z"  /><path d="M466.618182 444.509091m-30.254546 0a30.254545 30.254545 0 1 0 60.509091 0 30.254545 30.254545 0 1 0-60.509091 0Z"  /><path d="M635.345455 271.127273m-22.109091 0a22.109091 22.109091 0 1 0 44.218181 0 22.109091 22.109091 0 1 0-44.218181 0Z"  /><path d="M285.405091 110.917818l488.750545 488.738909-35.374545 35.374546-488.750546-488.738909z" fill="#FF090B" /><path d="M201.309091 800.581818h621.381818V1024H201.309091z" fill="#FE0807" /><path d="M214.109091 812.218182h596.945454v198.981818H214.109091z" fill="#FFFFFF" /><path d="M272.290909 861.090909h19.781818v-9.309091h12.8v9.309091h17.454546v11.636364h-17.454546c5.818182 3.490909 10.472727 5.818182 16.290909 10.472727l-6.981818 10.472727c-3.490909-4.654545-6.981818-8.145455-9.309091-11.636363v18.618181h-12.8v-18.618181c-4.654545 6.981818-9.309091 12.8-15.127272 18.618181l-6.981819-10.472727c8.145455-4.654545 15.127273-10.472727 19.781819-17.454545h-17.454546v-11.636364z m31.418182 84.945455c-6.981818 8.145455-15.127273 15.127273-24.436364 22.109091l-8.145454-10.472728c9.309091-5.818182 17.454545-11.636364 23.272727-18.618182l9.309091 6.981819z m-31.418182-23.272728h105.890909v11.636364h-44.218182v20.945455c0 6.981818-4.654545 11.636364-12.8 11.636363h-11.636363l-2.327273-11.636363c3.490909 0 6.981818 1.163636 10.472727 1.163636 2.327273 0 3.490909-1.163636 3.490909-3.490909v-18.618182h-47.709091v-11.636364z m11.636364-18.618181h84.945454v11.636363h-84.945454v-11.636363z m44.218182-43.054546h16.290909v-9.309091h12.8v9.309091h20.945454v11.636364h-16.290909c4.654545 5.818182 10.472727 11.636364 19.781818 17.454545l-9.309091 10.472727c-6.981818-5.818182-11.636364-12.8-15.127272-20.945454v20.945454h-12.8v-20.945454c-4.654545 8.145455-9.309091 15.127273-15.127273 20.945454l-6.981818-10.472727c6.981818-4.654545 12.8-10.472727 18.618182-17.454545h-12.8v-11.636364z m24.436363 76.8c9.309091 4.654545 17.454545 11.636364 25.6 18.618182l-6.981818 11.636364c-8.145455-8.145455-16.290909-15.127273-25.6-19.781819l6.981818-10.472727zM449.163636 852.945455h12.8v38.4h37.236364v12.8h-37.236364v45.381818h44.218182v12.8h-111.709091v-12.8h19.781818v-75.636364h12.8v75.636364h22.109091v-96.581818zM539.927273 886.690909h12.8v17.454546h12.8v11.636363h-12.8v12.8c5.818182-1.163636 10.472727-2.327273 15.127272-3.490909v11.636364c-5.818182 1.163636-11.636364 2.327273-15.127272 3.490909v26.763636h-12.8v-23.272727c-4.654545 1.163636-12.8 2.327273-22.109091 3.490909l-1.163637-12.8c10.472727-1.163636 17.454545-2.327273 23.272728-3.490909v-15.127273h-19.781818l-2.327273-11.636363c3.490909-5.818182 5.818182-15.127273 9.309091-24.436364h-10.472728v-12.8h13.963637c2.327273-9.309091 3.490909-13.963636 3.490909-15.127273l12.8 2.327273-2.327273 12.8h22.109091v12.8h-25.6c-2.327273 9.309091-5.818182 17.454545-8.145454 24.436364h9.30909v-17.454546z m29.090909-19.781818h18.618182l2.327272-15.127273 12.8 1.163637c-1.163636 3.490909-1.163636 8.145455-2.327272 13.963636H628.363636v12.8h-30.254545c-2.327273 8.145455-2.327273 11.636364-2.327273 10.472727h36.072727v12.8h-39.563636c-1.163636 4.654545-2.327273 8.145455-3.490909 12.8h38.4v10.472727c-3.490909 6.981818-9.309091 15.127273-17.454545 23.272728 4.654545 2.327273 8.145455 5.818182 11.636363 8.145454l-6.981818 11.636364c-12.8-10.472727-25.6-17.454545-39.563636-23.272727l6.981818-10.472728c5.818182 2.327273 11.636364 4.654545 16.290909 8.145455 5.818182-5.818182 10.472727-10.472727 15.127273-16.290909h-40.727273c2.327273-5.818182 4.654545-13.963636 6.981818-23.272727h-13.963636v-12.8h17.454545l2.327273-10.472728h-16.290909v-13.963636zM642.327273 892.509091H698.181818v12.8h-27.927273c-3.490909 16.290909-8.145455 27.927273-10.472727 36.072727 6.981818-1.163636 15.127273-3.490909 23.272727-6.981818-2.327273-5.818182-4.654545-10.472727-8.145454-16.290909l10.472727-4.654546c5.818182 10.472727 10.472727 22.109091 16.290909 33.745455 8.145455-13.963636 12.8-33.745455 12.8-57.018182v-2.327273h-13.963636v-12.8h13.963636v-22.10909h12.8v22.10909h26.763637c0 41.890909 0 67.490909-2.327273 77.963637-1.163636 9.309091-8.145455 13.963636-19.781818 13.963636-1.163636 0-4.654545 0-10.472728-1.163636l-3.490909-11.636364h11.636364c4.654545 0 8.145455-2.327273 9.309091-8.145454 1.163636-4.654545 1.163636-24.436364 1.163636-59.345455h-13.963636v2.327273c0 36.072727-8.145455 61.672727-25.6 79.127273l-10.472727-9.309091c3.490909-3.490909 5.818182-6.981818 9.309091-11.636364l-10.472728 4.654545-2.327272-6.981818c-12.8 4.654545-26.763636 8.145455-41.89091 10.472728l-3.490909-11.636364c1.163636 0 2.327273-1.163636 2.327273-1.163636 3.490909-4.654545 8.145455-17.454545 12.8-37.236364h-15.127273v-12.8z m4.654545-33.745455h46.545455v12.8h-46.545455v-12.8z" fill="#FF090B" /></svg>