<?xml version="1.0" standalone="no"?><!DOCTYPE svg PUBLIC "-//W3C//DTD SVG 1.1//EN" "http://www.w3.org/Graphics/SVG/1.1/DTD/svg11.dtd"><svg class="icon" width="200px" height="200.00px" viewBox="0 0 1024 1024" version="1.1" xmlns="http://www.w3.org/2000/svg"><path d="M512 373.527273m-373.527273 0a373.527273 373.527273 0 1 0 747.054546 0 373.527273 373.527273 0 1 0-747.054546 0Z" fill="#FF090B" /><path d="M512 373.527273m-310.690909 0a310.690909 310.690909 0 1 0 621.381818 0 310.690909 310.690909 0 1 0-621.381818 0Z" fill="#FFFFFF" /><path d="M698.181818 330.472727c-13.963636-6.981818-30.254545 0-37.236363 13.963637l-37.236364 80.290909s-8.145455-3.490909-20.945455-23.272728c-6.981818-10.472727-4.654545-29.090909-4.654545-29.090909V209.454545c0-12.8-10.472727-22.109091-22.109091-22.10909h-2.327273c-12.8 0-22.109091 10.472727-22.109091 22.10909v161.745455h-11.636363V187.345455c0-16.290909-12.8-29.090909-29.090909-29.09091s-29.090909 12.8-29.090909 29.09091v183.854545h-5.818182V194.327273c0-13.963636-11.636364-25.6-25.6-25.6-13.963636 0-25.6 11.636364-25.6 25.6v176.872727h-6.981818V250.181818c0-11.636364-6.981818-22.109091-18.618182-23.272727-13.963636-2.327273-26.763636 8.145455-26.763637 22.109091v273.454545c0 10.472727 3.490909 20.945455 10.472728 29.090909 4.654545 5.818182 11.636364 13.963636 19.781818 17.454546 33.745455 16.290909 34.909091 67.490909 34.909091 67.490909h168.727272s4.654545-58.181818 31.418182-75.636364c26.763636-17.454545 44.218182-117.527273 73.309091-186.181818l3.490909-8.145454c4.654545-12.8-2.327273-30.254545-16.290909-36.072728zM393.309091 102.4h231.563636v31.418182H393.309091z"  /><path d="M285.405091 110.917818l488.750545 488.738909-35.374545 35.374546-488.750546-488.738909z" fill="#FF090B" /><path d="M201.309091 800.581818h621.381818V1024H201.309091z" fill="#FE0807" /><path d="M214.109091 812.218182h596.945454v198.981818H214.109091z" fill="#FFFFFF" /><path d="M272.290909 861.090909h19.781818v-9.309091h12.8v9.309091h17.454546v11.636364h-17.454546c5.818182 3.490909 10.472727 5.818182 16.290909 10.472727l-6.981818 10.472727c-3.490909-4.654545-6.981818-8.145455-9.309091-11.636363v18.618181h-12.8v-18.618181c-4.654545 6.981818-9.309091 12.8-15.127272 18.618181l-6.981819-10.472727c8.145455-4.654545 15.127273-10.472727 19.781819-17.454545h-17.454546v-11.636364z m31.418182 84.945455c-6.981818 8.145455-15.127273 15.127273-24.436364 22.109091l-8.145454-10.472728c9.309091-5.818182 17.454545-11.636364 23.272727-18.618182l9.309091 6.981819z m-31.418182-23.272728h105.890909v11.636364h-44.218182v20.945455c0 6.981818-4.654545 11.636364-12.8 11.636363h-11.636363l-2.327273-11.636363c3.490909 0 6.981818 1.163636 10.472727 1.163636 2.327273 0 3.490909-1.163636 3.490909-3.490909v-18.618182h-47.709091v-11.636364z m11.636364-18.618181h84.945454v11.636363h-84.945454v-11.636363z m44.218182-43.054546h16.290909v-9.309091h12.8v9.309091h20.945454v11.636364h-16.290909c4.654545 5.818182 10.472727 11.636364 19.781818 17.454545l-9.309091 10.472727c-6.981818-5.818182-11.636364-12.8-15.127272-20.945454v20.945454h-12.8v-20.945454c-4.654545 8.145455-9.309091 15.127273-15.127273 20.945454l-6.981818-10.472727c6.981818-4.654545 12.8-10.472727 18.618182-17.454545h-12.8v-11.636364z m24.436363 76.8c9.309091 4.654545 17.454545 11.636364 25.6 18.618182l-6.981818 11.636364c-8.145455-8.145455-16.290909-15.127273-25.6-19.781819l6.981818-10.472727zM449.163636 852.945455h12.8v38.4h37.236364v12.8h-37.236364v45.381818h44.218182v12.8h-111.709091v-12.8h19.781818v-75.636364h12.8v75.636364h22.109091v-96.581818zM532.945455 937.890909c-1.163636 11.636364-3.490909 20.945455-8.145455 29.090909l-9.309091-8.145454c4.654545-8.145455 6.981818-18.618182 6.981818-31.418182v-37.236364l-6.981818-8.145454c6.981818-6.981818 13.963636-17.454545 18.618182-30.254546l11.636364 2.327273-2.327273 5.818182h22.109091v9.309091c-2.327273 4.654545-4.654545 8.145455-6.981818 11.636363h12.8v74.472728c0 6.981818-3.490909 10.472727-10.472728 10.472727h-5.818182l-2.327272-10.472727h5.818182c2.327273 0 2.327273-1.163636 2.327272-4.654546v-12.8h-8.145454v26.763636h-10.472728v-26.763636h-9.30909z m12.8-57.018182c2.327273-3.490909 4.654545-6.981818 5.818181-9.309091h-13.963636c-2.327273 3.490909-3.490909 5.818182-5.818182 9.309091h13.963637z m-4.654546 10.472728h-8.145454v11.636363h8.145454v-11.636363z m-8.145454 23.272727v12.8h8.145454v-12.8h-8.145454z m27.927272-10.472727v-11.636364h-8.145454v11.636364h8.145454z m0 23.272727v-12.8h-8.145454v12.8h8.145454z m16.290909-54.690909h18.618182v-19.781818h12.8V872.727273H628.363636v53.527272h-19.781818v23.272728c3.490909-1.163636 6.981818-1.163636 8.145455-1.163637-1.163636-3.490909-2.327273-8.145455-3.490909-12.8l10.472727-3.490909c3.490909 9.309091 5.818182 19.781818 9.309091 32.581818l-11.636364 2.327273c0-3.490909-1.163636-5.818182-2.327273-8.145454-13.963636 3.490909-27.927273 5.818182-41.890909 8.145454l-3.490909-11.636363c6.981818-1.163636 13.963636-1.163636 20.945455-2.327273v-24.436364h-18.618182V872.727273z m19.781819 40.727272V884.363636h-8.145455v29.090909h8.145455z m18.618181 0V884.363636h-8.145454v29.090909h8.145454zM679.563636 912.290909c-4.654545 2.327273-8.145455 4.654545-10.472727 5.818182v34.909091c0 8.145455-4.654545 12.8-12.8 12.8h-10.472727l-2.327273-12.8c3.490909 0 5.818182 1.163636 8.145455 1.163636 2.327273 0 3.490909-1.163636 3.490909-4.654545v-25.6c-3.490909 1.163636-8.145455 3.490909-11.636364 4.654545l-3.490909-12.8c4.654545-1.163636 9.309091-2.327273 15.127273-4.654545v-25.6h-13.963637V872.727273h13.963637v-20.945455h12.8V872.727273h10.472727v12.8h-10.472727v19.781818c4.654545-2.327273 8.145455-4.654545 10.472727-5.818182v12.8z m5.818182-29.090909h60.509091v39.563636H721.454545l-1.163636 6.981819h34.909091v11.636363h-29.090909c6.981818 6.981818 17.454545 11.636364 30.254545 16.290909l-9.309091 10.472728a100.072727 100.072727 0 0 1-32.581818-22.109091c-4.654545 8.145455-15.127273 16.290909-30.254545 22.109091l-8.145455-10.472728c13.963636-4.654545 23.272727-10.472727 27.927273-16.290909h-27.927273v-11.636363h32.581818c0-2.327273 1.163636-4.654545 1.163637-6.981819h-24.436364v-39.563636z m-6.981818-22.109091h17.454545v-9.309091h11.636364v9.309091h16.290909v-9.309091h11.636364v9.309091h18.618182v11.636364h-18.618182v6.981818h-11.636364V872.727273h-16.290909v6.981818h-11.636364V872.727273h-17.454545v-11.636364z m18.618182 37.236364h37.236363v-5.818182h-37.236363v5.818182z m37.236363 15.127272V907.636364h-37.236363v5.818181h37.236363z" fill="#FF090B" /></svg>