<?xml version="1.0" standalone="no"?><!DOCTYPE svg PUBLIC "-//W3C//DTD SVG 1.1//EN" "http://www.w3.org/Graphics/SVG/1.1/DTD/svg11.dtd"><svg class="icon" width="200px" height="200.00px" viewBox="0 0 1024 1024" version="1.1" xmlns="http://www.w3.org/2000/svg"><path d="M512 373.527273m-373.527273 0a373.527273 373.527273 0 1 0 747.054546 0 373.527273 373.527273 0 1 0-747.054546 0Z" fill="#FF090B" /><path d="M512 373.527273m-310.690909 0a310.690909 310.690909 0 1 0 621.381818 0 310.690909 310.690909 0 1 0-621.381818 0Z" fill="#FFFFFF" /><path d="M328.145455 609.745455L300.218182 581.818182V162.909091h27.927273zM425.890909 140.8h-81.454545v420.072727h81.454545c11.636364 0 22.109091-9.309091 22.109091-22.109091V162.909091c0-11.636364-10.472727-22.109091-22.109091-22.109091z m-39.563636 339.781818c-13.963636 0-24.436364-11.636364-24.436364-24.436363s11.636364-24.436364 24.436364-24.436364 24.436364 11.636364 24.436363 24.436364-10.472727 24.436364-24.436363 24.436363z"  /><path d="M386.327273 454.981818m-12.8 0a12.8 12.8 0 1 0 25.6 0 12.8 12.8 0 1 0-25.6 0Z"  /><path d="M457.309091 407.272727v34.909091l118.690909-64-13.963636-27.927273zM619.054545 228.072727s-48.872727-43.054545-82.618181-52.363636l-8.145455 11.636364-51.2-44.218182 75.636364-2.327273-6.981818 13.963636s64 23.272727 86.10909 54.690909l-12.8 18.618182zM615.563636 389.818182l-2.327272 1.163636c-8.145455 4.654545-17.454545 2.327273-22.109091-5.818182l-26.763637-45.381818c-4.654545-8.145455-2.327273-17.454545 5.818182-22.109091l2.327273-1.163636c8.145455-4.654545 17.454545-2.327273 22.109091 5.818182l26.763636 45.381818c4.654545 6.981818 2.327273 17.454545-5.818182 22.109091zM651.636364 367.709091l-2.327273 1.163636c-8.145455 4.654545-17.454545 2.327273-22.109091-5.818182l-26.763636-45.381818c-4.654545-8.145455-2.327273-17.454545 5.818181-22.109091l2.327273-1.163636c8.145455-4.654545 17.454545-2.327273 22.109091 5.818182l26.763636 45.381818c4.654545 8.145455 2.327273 17.454545-5.818181 22.109091zM717.963636 271.127273l-10.472727-16.290909c-4.654545-8.145455-16.290909-10.472727-24.436364-5.818182s-10.472727 16.290909-5.818181 24.436363l11.636363 18.618182 29.090909-20.945454zM676.072727 325.818182c-5.818182-9.309091-4.654545-20.945455 3.490909-27.927273l-11.636363-19.781818c-4.654545-8.145455-16.290909-10.472727-24.436364-5.818182-8.145455 4.654545-10.472727 16.290909-5.818182 24.436364l25.6 44.218182c4.654545 8.145455 16.290909 10.472727 24.436364 5.818181 4.654545-2.327273 6.981818-5.818182 8.145454-10.472727-6.981818 0-15.127273-3.490909-19.781818-10.472727z"  /><path d="M680.727273 324.654545l-1.163637-2.327272c-4.654545-6.981818-3.490909-17.454545 4.654546-23.272728l36.072727-24.436363c6.981818-4.654545 17.454545-3.490909 23.272727 4.654545l1.163637 2.327273c4.654545 6.981818 3.490909 17.454545-4.654546 23.272727l-36.072727 24.436364c-6.981818 4.654545-17.454545 2.327273-23.272727-4.654546z"  /><path d="M720.290909 275.781818l2.327273-1.163636c8.145455-4.654545 17.454545-2.327273 22.109091 5.818182l23.272727 40.727272c4.654545 8.145455 2.327273 17.454545-5.818182 22.109091l-2.327273 1.163637c-8.145455 4.654545-17.454545 2.327273-22.10909-5.818182l-23.272728-40.727273c-4.654545-8.145455-2.327273-18.618182 5.818182-22.109091z"  /><path d="M600.436364 399.127273s38.4 75.636364 73.309091 54.690909c0 0 11.636364 4.654545 19.781818 20.945454l86.109091-51.2s-13.963636-23.272727-11.636364-31.418181 17.454545-33.745455-1.163636-70.981819l-38.4 2.327273s-6.981818 11.636364-20.945455 8.145455c0 0 1.163636 15.127273-13.963636 23.272727s-26.763636-2.327273-26.763637-2.327273 3.490909 17.454545-10.472727 24.436364c-13.963636 8.145455-25.6-3.490909-25.6-3.490909s4.654545 17.454545-10.472727 24.436363-19.781818 1.163636-19.781818 1.163637zM791.272727 428.218182l-97.745454 58.181818 40.727272 67.490909s60.509091-62.836364 57.018182-125.672727z"  /><path d="M285.405091 110.917818l488.750545 488.738909-35.374545 35.374546-488.750546-488.738909z" fill="#FF090B" /><path d="M201.309091 800.581818h621.381818V1024H201.309091z" fill="#FE0807" /><path d="M214.109091 812.218182h596.945454v198.981818H214.109091z" fill="#FFFFFF" /><path d="M272.290909 861.090909h19.781818v-9.309091h12.8v9.309091h17.454546v11.636364h-17.454546c5.818182 3.490909 10.472727 5.818182 16.290909 10.472727l-6.981818 10.472727c-3.490909-4.654545-6.981818-8.145455-9.309091-11.636363v18.618181h-12.8v-18.618181c-4.654545 6.981818-9.309091 12.8-15.127272 18.618181l-6.981819-10.472727c8.145455-4.654545 15.127273-10.472727 19.781819-17.454545h-17.454546v-11.636364z m31.418182 84.945455c-6.981818 8.145455-15.127273 15.127273-24.436364 22.109091l-8.145454-10.472728c9.309091-5.818182 17.454545-11.636364 23.272727-18.618182l9.309091 6.981819z m-31.418182-23.272728h105.890909v11.636364h-44.218182v20.945455c0 6.981818-4.654545 11.636364-12.8 11.636363h-11.636363l-2.327273-11.636363c3.490909 0 6.981818 1.163636 10.472727 1.163636 2.327273 0 3.490909-1.163636 3.490909-3.490909v-18.618182h-47.709091v-11.636364z m11.636364-18.618181h84.945454v11.636363h-84.945454v-11.636363z m44.218182-43.054546h16.290909v-9.309091h12.8v9.309091h20.945454v11.636364h-16.290909c4.654545 5.818182 10.472727 11.636364 19.781818 17.454545l-9.309091 10.472727c-6.981818-5.818182-11.636364-12.8-15.127272-20.945454v20.945454h-12.8v-20.945454c-4.654545 8.145455-9.309091 15.127273-15.127273 20.945454l-6.981818-10.472727c6.981818-4.654545 12.8-10.472727 18.618182-17.454545h-12.8v-11.636364z m24.436363 76.8c9.309091 4.654545 17.454545 11.636364 25.6 18.618182l-6.981818 11.636364c-8.145455-8.145455-16.290909-15.127273-25.6-19.781819l6.981818-10.472727zM449.163636 852.945455h12.8v38.4h37.236364v12.8h-37.236364v45.381818h44.218182v12.8h-111.709091v-12.8h19.781818v-75.636364h12.8v75.636364h22.109091v-96.581818zM579.490909 851.781818c15.127273 17.454545 33.745455 31.418182 53.527273 40.727273l-6.981818 12.8c-6.981818-3.490909-12.8-6.981818-18.618182-11.636364v8.145455h-66.327273v-8.145455c-5.818182 4.654545-12.8 8.145455-18.618182 11.636364l-6.981818-12.8c22.109091-10.472727 39.563636-24.436364 54.690909-40.727273h9.309091z m36.072727 62.836364v52.363636h-12.8v-5.818182h-57.018181v5.818182h-12.8v-52.363636h82.618181z m-69.818181 33.745454h57.018181v-20.945454h-57.018181v20.945454z m55.854545-58.181818c-10.472727-8.145455-19.781818-16.290909-27.927273-26.763636-8.145455 9.309091-17.454545 18.618182-27.927272 26.763636h55.854545zM645.818182 872.727273h12.8v94.254545h-12.8V872.727273z m23.272727-22.109091c4.654545 5.818182 9.309091 12.8 13.963636 19.781818l-11.636363 5.818182c-3.490909-8.145455-8.145455-15.127273-13.963637-20.945455l11.636364-4.654545z m23.272727 83.781818h-11.636363v5.818182h-11.636364v-61.672727h59.345455v61.672727h-11.636364v-5.818182h-12.8V965.818182h-11.636364v-31.418182z m0-44.218182h-11.636363v10.472727h11.636363v-10.472727z m-11.636363 22.109091v10.472727h11.636363v-10.472727h-11.636363z m48.872727 53.527273l-3.490909-11.636364h8.145454c2.327273 0 4.654545-2.327273 4.654546-6.981818v-79.127273h-46.545455v-11.636363h59.345455v94.254545c0 9.309091-4.654545 15.127273-13.963636 15.127273h-8.145455z m-12.8-65.163637v-10.472727h-12.8v10.472727h12.8z m-12.8 22.109091h12.8v-10.472727h-12.8v10.472727z" fill="#FF090B" /></svg>