<?xml version="1.0" standalone="no"?><!DOCTYPE svg PUBLIC "-//W3C//DTD SVG 1.1//EN" "http://www.w3.org/Graphics/SVG/1.1/DTD/svg11.dtd"><svg class="icon" width="200px" height="200.00px" viewBox="0 0 1024 1024" version="1.1" xmlns="http://www.w3.org/2000/svg"><path d="M512 373.527273m-373.527273 0a373.527273 373.527273 0 1 0 747.054546 0 373.527273 373.527273 0 1 0-747.054546 0Z" fill="#FF090B" /><path d="M512 373.527273m-310.690909 0a310.690909 310.690909 0 1 0 621.381818 0 310.690909 310.690909 0 1 0-621.381818 0Z" fill="#FFFFFF" /><path d="M664.436364 160.581818h-88.436364c-1.163636 32.581818-29.090909 58.181818-64 58.181818s-61.672727-25.6-64-58.181818h-88.436364L267.636364 260.654545l68.654545 75.636364 23.272727-25.6v286.254546h302.545455V309.527273l23.272727 25.6 68.654546-75.636364-89.6-98.909091z"  /><path d="M415.418182 478.254545c-2.327273 5.818182-5.818182 11.636364-9.309091 17.454546v48.872727h-8.145455v-39.563636c-2.327273 2.327273-5.818182 5.818182-9.309091 8.145454l-2.327272-8.145454c10.472727-8.145455 17.454545-18.618182 22.109091-30.254546l6.981818 3.490909z m15.127273 65.163637c-5.818182 0-9.309091-3.490909-9.309091-9.309091v-19.781818c-1.163636 1.163636-4.654545 2.327273-8.145455 3.490909l-3.490909-6.981818c3.490909-1.163636 6.981818-3.490909 11.636364-5.818182v-29.090909h8.145454V500.363636c6.981818-4.654545 13.963636-10.472727 18.618182-16.290909l5.818182 5.818182c-6.981818 6.981818-15.127273 13.963636-24.436364 19.781818v23.272728c0 2.327273 1.163636 3.490909 3.490909 3.490909h10.472728c1.163636 0 2.327273 0 3.490909-1.163637 1.163636-1.163636 1.163636-4.654545 1.163636-11.636363l6.981818 2.327272c0 8.145455-1.163636 13.963636-2.327273 15.127273-1.163636 1.163636-3.490909 2.327273-8.145454 2.327273H430.545455zM480.581818 477.090909c-3.490909 8.145455-6.981818 16.290909-10.472727 22.109091 1.163636 0 4.654545 0 8.145454-1.163636l4.654546-8.145455 6.981818 2.327273c-5.818182 10.472727-10.472727 19.781818-15.127273 24.436363 4.654545-1.163636 9.309091-2.327273 12.8-3.490909v6.981819c-8.145455 2.327273-15.127273 4.654545-23.272727 5.818181l-2.327273-6.981818c1.163636 0 2.327273-1.163636 3.490909-2.327273 2.327273-2.327273 4.654545-5.818182 8.145455-11.636363l-10.472727 2.327273-2.327273-8.145455c1.163636-1.163636 2.327273-1.163636 3.490909-3.490909 3.490909-6.981818 5.818182-13.963636 8.145455-22.109091l8.145454 3.490909z m8.145455 58.181818c-6.981818 2.327273-16.290909 4.654545-25.6 6.981818l-1.163637-8.145454c10.472727-1.163636 18.618182-3.490909 26.763637-6.981818v8.145454z m-2.327273-30.254545h17.454545V488.727273c-3.490909 1.163636-8.145455 1.163636-13.963636 2.327272l-1.163636-6.981818c12.8-1.163636 24.436364-3.490909 33.745454-6.981818l2.327273 6.981818-13.963636 3.490909v17.454546h17.454545v6.981818H512v31.418182h-8.145455V512h-17.454545v-6.981818z" fill="#FFFFFF" /><path d="M303.709091 410.763636l-27.927273-3.490909-11.636363 24.436364-4.654546-26.763636-27.927273-4.654546 24.436364-12.8-4.654545-27.927273 19.781818 19.781819 24.436363-13.963637-11.636363 25.6zM787.781818 353.745455l-17.454545-2.327273-6.981818 15.127273-3.49091-16.29091-16.290909-2.327272 15.127273-8.145455-3.490909-17.454545 12.8 11.636363 13.963636-8.145454-6.981818 16.290909z"  /><path d="M285.405091 110.917818l488.750545 488.738909-35.374545 35.374546-488.750546-488.738909z" fill="#FF090B" /><path d="M164.072727 800.581818h695.854546V1024H164.072727z" fill="#FE0807" /><path d="M175.709091 812.218182h671.418182v198.981818H175.709091z" fill="#FFFFFF" /><path d="M209.454545 861.090909h13.963637v-9.309091h9.309091v9.309091h12.8v11.636364H232.727273c3.490909 3.490909 8.145455 5.818182 11.636363 10.472727l-4.654545 10.472727c-2.327273-4.654545-4.654545-8.145455-6.981818-11.636363v18.618181h-9.309091v-18.618181c-3.490909 6.981818-6.981818 12.8-10.472727 18.618181l-4.654546-10.472727c5.818182-4.654545 10.472727-10.472727 13.963636-17.454545H209.454545v-11.636364z m22.109091 84.945455c-4.654545 8.145455-10.472727 15.127273-17.454545 22.109091l-4.654546-11.636364c6.981818-5.818182 11.636364-11.636364 16.29091-18.618182l5.818181 8.145455z m-22.109091-23.272728h74.472728v11.636364h-31.418182v20.945455c0 6.981818-3.490909 11.636364-9.309091 11.636363h-8.145455l-2.327272-11.636363c2.327273 0 4.654545 1.163636 6.981818 1.163636 2.327273 0 2.327273-1.163636 2.327273-3.490909v-18.618182H209.454545v-11.636364z m8.145455-18.618181h60.509091v11.636363h-60.509091v-11.636363z m31.418182-43.054546h11.636363v-9.309091h9.309091v9.309091h15.127273v11.636364h-11.636364c3.490909 5.818182 6.981818 11.636364 13.963637 17.454545l-5.818182 10.472727c-4.654545-5.818182-8.145455-12.8-10.472727-20.945454v20.945454h-9.309091v-20.945454c-3.490909 8.145455-6.981818 15.127273-10.472727 20.945454l-6.981819-9.30909c4.654545-4.654545 9.309091-10.472727 12.8-17.454546h-9.309091V861.090909z m17.454545 76.8c6.981818 4.654545 12.8 11.636364 18.618182 18.618182l-4.654545 11.636364c-5.818182-8.145455-11.636364-15.127273-17.454546-19.781819l3.490909-10.472727zM335.127273 852.945455h9.309091v38.4h26.763636v12.8h-26.763636v45.381818h31.418181v12.8h-79.127272v-12.8h13.963636v-75.636364h9.309091v75.636364h15.127273v-96.581818zM390.981818 897.163636h65.163637v11.636364h-12.8v11.636364h18.618181v11.636363h-18.618181V954.181818c0 8.145455-3.490909 12.8-9.309091 12.8h-12.8l-2.327273-11.636363c3.490909 0 8.145455 1.163636 11.636364 1.163636 2.327273 0 3.490909-1.163636 3.490909-4.654546v-17.454545h-2.327273c-9.309091 13.963636-23.272727 24.436364-43.054546 33.745455l-4.654545-11.636364c16.290909-5.818182 27.927273-13.963636 36.072727-22.109091h-30.254545c2.327273-8.145455 4.654545-15.127273 5.818182-20.945455l9.309091 1.163637c0 2.327273-1.163636 4.654545-2.327273 8.145454h31.418182v-11.636363h-43.054546v-13.963637z m36.072727-46.545454c1.163636 4.654545 2.327273 6.981818 2.327273 9.309091h32.581818v19.781818h-9.309091v-8.145455h-58.181818v9.309091h-9.309091v-20.945454H418.909091c-1.163636-2.327273-1.163636-4.654545-2.327273-6.981818l10.472727-2.327273z m-5.818181 31.418182c-6.981818 5.818182-16.290909 10.472727-26.763637 13.963636l-3.490909-10.472727c9.309091-3.490909 18.618182-6.981818 24.436364-12.8l5.818182 9.309091z m9.309091-9.309091c9.309091 3.490909 18.618182 8.145455 25.6 12.8l-3.49091 10.472727c-8.145455-5.818182-17.454545-10.472727-25.6-13.963636l3.49091-9.309091zM505.018182 856.436364c-2.327273 10.472727-6.981818 19.781818-11.636364 29.090909v81.454545h-9.309091v-67.490909l-10.472727 13.963636-3.490909-13.963636c11.636364-13.963636 20.945455-31.418182 25.6-50.036364l9.309091 6.981819z m17.454545 108.218181c-6.981818 0-11.636364-4.654545-11.636363-15.127272v-33.745455c-2.327273 1.163636-4.654545 3.490909-9.309091 6.981818l-4.654546-12.8c4.654545-2.327273 9.309091-5.818182 12.8-9.309091v-47.70909h9.309091v39.563636c8.145455-8.145455 16.290909-17.454545 22.109091-26.763636l6.981818 10.472727c-8.145455 11.636364-18.618182 23.272727-29.090909 32.581818v39.563636c0 3.490909 1.163636 4.654545 3.490909 4.654546H535.272727c2.327273 0 3.490909-1.163636 4.654546-2.327273 1.163636-2.327273 1.163636-8.145455 1.163636-19.781818l8.145455 4.654545c-1.163636 13.963636-2.327273 23.272727-3.490909 25.6-1.163636 2.327273-4.654545 4.654545-9.309091 4.654546h-13.963637zM581.818182 856.436364c-3.490909 13.963636-8.145455 26.763636-11.636364 36.072727 2.327273 0 4.654545-1.163636 9.309091-1.163636l4.654546-13.963637 8.145454 4.654546c-6.981818 18.618182-12.8 32.581818-17.454545 40.727272 5.818182-1.163636 10.472727-3.490909 16.290909-5.818181v11.636363c-9.309091 4.654545-18.618182 8.145455-26.763637 9.309091l-2.327272-11.636364c1.163636-1.163636 3.490909-2.327273 4.654545-3.490909 2.327273-3.490909 5.818182-10.472727 9.309091-19.781818l-12.8 3.490909-4.654545-13.963636c1.163636-1.163636 3.490909-2.327273 4.654545-5.818182 3.490909-11.636364 6.981818-23.272727 10.472727-36.072727l8.145455 5.818182z m9.309091 95.418181c-8.145455 4.654545-18.618182 8.145455-30.254546 10.472728l-1.163636-12.8c11.636364-2.327273 22.109091-5.818182 31.418182-10.472728v12.8z m-1.163637-50.036363h20.945455v-26.763637c-4.654545 1.163636-9.309091 2.327273-16.290909 3.49091l-2.327273-11.636364c15.127273-2.327273 29.090909-5.818182 40.727273-11.636364l3.490909 11.636364c-5.818182 2.327273-11.636364 4.654545-16.290909 5.818182v29.090909h20.945454v12.8h-20.945454v52.363636h-9.309091v-52.363636h-20.945455v-12.8zM662.109091 925.090909c-1.163636 17.454545-2.327273 31.418182-6.981818 41.890909l-6.981818-9.309091c3.490909-10.472727 5.818182-24.436364 5.818181-40.727272v-61.672728h27.927273v97.745455c0 9.309091-2.327273 12.8-8.145454 12.8h-6.981819l-2.327272-11.636364h6.981818c2.327273 0 2.327273-2.327273 2.327273-6.981818v-23.272727h-11.636364z m11.636364-39.563636v-17.454546h-11.636364v17.454546h11.636364z m-11.636364 11.636363v17.454546h11.636364v-17.454546h-11.636364z m33.745454 60.509091v9.309091H686.545455v-110.545454h37.236363c0 16.290909 0 26.763636-1.163636 32.581818s-4.654545 8.145455-10.472727 8.145454h-6.981819l-2.327272-11.636363h9.309091c1.163636 0 1.163636-1.163636 2.327272-3.490909 0-2.327273 1.163636-6.981818 1.163637-15.127273h-19.781819v33.745454h30.254546v10.472728c-1.163636 11.636364-3.490909 22.109091-8.145455 30.254545 3.490909 4.654545 8.145455 9.309091 11.636364 12.8l-4.654545 11.636364c-4.654545-4.654545-9.309091-9.309091-12.8-13.963637-3.490909 5.818182-8.145455 10.472727-12.8 13.963637l-3.49091-8.145455z m0-44.218182v43.054546c4.654545-3.490909 8.145455-8.145455 10.472728-12.8-4.654545-9.309091-8.145455-18.618182-10.472728-30.254546z m8.145455 0c1.163636 8.145455 4.654545 13.963636 6.981818 20.945455 2.327273-5.818182 4.654545-12.8 5.818182-20.945455h-12.8zM737.745455 913.454545h36.072727l-3.490909-6.981818 8.145454-3.490909c1.163636 2.327273 3.490909 5.818182 4.654546 10.472727h32.581818v11.636364h-11.636364l5.818182 6.981818c-3.490909 4.654545-6.981818 9.309091-10.472727 12.8 4.654545 4.654545 10.472727 8.145455 17.454545 10.472728l-5.818182 11.636363c-16.290909-8.145455-27.927273-20.945455-34.90909-40.727273-3.490909 4.654545-6.981818 9.309091-12.8 13.963637v12.8c5.818182-1.163636 11.636364-3.490909 17.454545-6.981818l1.163636 11.636363c-8.145455 3.490909-17.454545 5.818182-29.090909 9.309091l-2.327272-11.636363c2.327273-1.163636 3.490909-3.490909 3.490909-5.818182v-3.490909c-4.654545 3.490909-9.309091 5.818182-13.963637 8.145454l-3.490909-11.636363c12.8-4.654545 23.272727-10.472727 30.254546-17.454546h-29.090909v-11.636364z m20.945454-61.672727h9.309091v57.018182h-9.309091v-15.127273c-4.654545 3.490909-10.472727 6.981818-17.454545 10.472728l-3.490909-11.636364c8.145455-3.490909 15.127273-6.981818 20.945454-11.636364v-29.090909z m-15.127273 4.654546c4.654545 3.490909 9.309091 6.981818 13.963637 11.636363l-4.654546 10.472728c-4.654545-4.654545-9.309091-8.145455-13.963636-11.636364l4.654545-10.472727z m27.927273 8.145454h17.454546v-12.8h9.30909v12.8h17.454546v11.636364h-17.454546v15.127273h15.127273v11.636363h-39.563636v-11.636363h15.127273v-15.127273h-17.454546v-11.636364z m13.963636 60.509091c2.327273 4.654545 4.654545 9.309091 8.145455 12.8 3.490909-3.490909 8.145455-8.145455 10.472727-12.8h-18.618182z" fill="#FF090B" /></svg>