<?xml version="1.0" standalone="no"?><!DOCTYPE svg PUBLIC "-//W3C//DTD SVG 1.1//EN" "http://www.w3.org/Graphics/SVG/1.1/DTD/svg11.dtd"><svg class="icon" width="200px" height="200.00px" viewBox="0 0 1024 1024" version="1.1" xmlns="http://www.w3.org/2000/svg"><path d="M512 373.527273m-373.527273 0a373.527273 373.527273 0 1 0 747.054546 0 373.527273 373.527273 0 1 0-747.054546 0Z" fill="#FF090B" /><path d="M512 373.527273m-310.690909 0a310.690909 310.690909 0 1 0 621.381818 0 310.690909 310.690909 0 1 0-621.381818 0Z" fill="#FFFFFF" /><path d="M257.163636 276.945455s138.472727-144.290909 235.054546-69.818182-150.109091 103.563636-157.090909 219.927272c-3.490909 52.363636 31.418182 76.8 31.418182 76.8S350.254545 484.072727 349.090909 430.545455c-2.327273-103.563636 190.836364-128 176.872727-194.327273-30.254545-143.127273-259.490909-34.909091-268.8 40.727273z" fill="#1E1C1A" /><path d="M472.436364 317.672727s-111.709091 4.654545-129.163637 50.036364c-22.109091 55.854545 43.054545 48.872727 59.345455 107.054545 9.309091 34.909091-8.145455 57.018182-8.145455 57.018182s8.145455-16.290909-1.163636-52.363636c-9.309091-38.4-73.309091-33.745455-76.8-80.290909-4.654545-52.363636 75.636364-97.745455 155.927273-81.454546zM659.781818 203.636364L381.672727 560.872727s-17.454545 38.4 27.927273 67.490909 62.836364 9.309091 62.836364 9.309091l267.636363-365.381818s15.127273-37.236364-19.781818-61.672727c-32.581818-25.6-60.509091-6.981818-60.509091-6.981818z" fill="#1E1C1A" /><path d="M664.436364 221.090909L474.763636 465.454545s20.945455-2.327273 37.236364 9.309091c29.090909 20.945455 24.436364 43.054545 24.436364 43.054546l182.690909-249.018182s10.472727-25.6-12.8-41.890909c-23.272727-17.454545-41.890909-5.818182-41.890909-5.818182zM445.672727 532.945455l-6.981818 8.145454s27.927273 4.654545 36.072727 29.090909l9.309091-12.8c1.163636 0-10.472727-29.090909-38.4-24.436363z" fill="#FFFFFF" /><path d="M285.405091 110.917818l488.750545 488.738909-35.374545 35.374546-488.750546-488.738909z" fill="#FF090B" /><path d="M201.309091 800.581818h621.381818V1024H201.309091z" fill="#FE0807" /><path d="M214.109091 812.218182h596.945454v198.981818H214.109091z" fill="#FFFFFF" /><path d="M272.290909 861.090909h19.781818v-9.309091h12.8v9.309091h17.454546v11.636364h-17.454546c5.818182 3.490909 10.472727 5.818182 16.290909 10.472727l-6.981818 10.472727c-3.490909-4.654545-6.981818-8.145455-9.309091-11.636363v18.618181h-12.8v-18.618181c-4.654545 6.981818-9.309091 12.8-15.127272 18.618181l-6.981819-10.472727c8.145455-4.654545 15.127273-10.472727 19.781819-17.454545h-17.454546v-11.636364z m31.418182 84.945455c-6.981818 8.145455-15.127273 15.127273-24.436364 22.109091l-8.145454-10.472728c9.309091-5.818182 17.454545-11.636364 23.272727-18.618182l9.309091 6.981819z m-31.418182-23.272728h105.890909v11.636364h-44.218182v20.945455c0 6.981818-4.654545 11.636364-12.8 11.636363h-11.636363l-2.327273-11.636363c3.490909 0 6.981818 1.163636 10.472727 1.163636 2.327273 0 3.490909-1.163636 3.490909-3.490909v-18.618182h-47.709091v-11.636364z m11.636364-18.618181h84.945454v11.636363h-84.945454v-11.636363z m44.218182-43.054546h16.290909v-9.309091h12.8v9.309091h20.945454v11.636364h-16.290909c4.654545 5.818182 10.472727 11.636364 19.781818 17.454545l-9.309091 10.472727c-6.981818-5.818182-11.636364-12.8-15.127272-20.945454v20.945454h-12.8v-20.945454c-4.654545 8.145455-9.309091 15.127273-15.127273 20.945454l-6.981818-10.472727c6.981818-4.654545 12.8-10.472727 18.618182-17.454545h-12.8v-11.636364z m24.436363 76.8c9.309091 4.654545 17.454545 11.636364 25.6 18.618182l-6.981818 11.636364c-8.145455-8.145455-16.290909-15.127273-25.6-19.781819l6.981818-10.472727zM449.163636 852.945455h12.8v38.4h37.236364v12.8h-37.236364v45.381818h44.218182v12.8h-111.709091v-12.8h19.781818v-75.636364h12.8v75.636364h22.109091v-96.581818zM556.218182 861.090909v79.127273h-23.272727v8.145454h-12.8V861.090909h36.072727z m-23.272727 67.490909h10.472727v-54.690909h-10.472727v54.690909z m37.236363-60.509091h-10.472727v-12.8h59.345454v8.145455c-2.327273 9.309091-3.490909 18.618182-5.818181 25.6h13.963636v6.981818c-2.327273 16.290909-8.145455 30.254545-16.290909 41.890909 5.818182 5.818182 13.963636 11.636364 22.109091 16.290909l-8.145455 11.636364c-8.145455-4.654545-15.127273-10.472727-22.109091-17.454546-6.981818 6.981818-16.290909 12.8-26.763636 17.454546l-6.981818-11.636364c9.309091-4.654545 18.618182-10.472727 25.6-16.290909-5.818182-6.981818-10.472727-15.127273-13.963637-24.436364-3.490909 22.109091-11.636364 39.563636-23.272727 52.363637l-10.472727-9.309091c16.290909-16.290909 23.272727-43.054545 24.436364-79.127273v-9.309091z m44.218182 33.745455h-17.454545c2.327273-6.981818 4.654545-18.618182 8.145454-33.745455h-22.109091V887.854545c3.490909 16.290909 9.309091 30.254545 18.618182 41.89091 5.818182-9.309091 10.472727-18.618182 12.8-27.927273zM656.290909 878.545455c0 12.8-1.163636 24.436364-3.490909 36.072727l-10.472727-2.327273c2.327273-10.472727 3.490909-22.109091 3.490909-33.745454h10.472727z m29.090909-2.327273v-19.781818h66.327273v110.545454h-12.8v-5.818182H698.181818v5.818182h-11.636363v-86.109091c-3.490909 4.654545-8.145455 9.309091-13.963637 13.963637v4.654545c0 8.145455 0 15.127273-1.163636 20.945455 4.654545 5.818182 9.309091 12.8 13.963636 18.618181l-6.981818 10.472728c-3.490909-5.818182-5.818182-11.636364-9.309091-16.290909-3.490909 13.963636-8.145455 24.436364-15.127273 32.581818l-9.309091-8.145455c10.472727-11.636364 16.290909-31.418182 16.29091-58.181818v-46.545454h12.8v26.763636c3.490909-3.490909 5.818182-6.981818 8.145454-11.636364l3.490909 8.145455z m12.8 60.509091c8.145455-8.145455 12.8-20.945455 13.963637-36.072728h-11.636364v-11.636363h11.636364V872.727273h10.472727v15.127272h11.636363v11.636364H721.454545v4.654546c6.981818 10.472727 12.8 19.781818 16.29091 29.090909v-65.163637H698.181818v68.654546z m0 12.8h41.890909v-12.8l-9.309091 5.818182c-3.490909-6.981818-6.981818-15.127273-11.636363-23.272728-2.327273 10.472727-6.981818 18.618182-12.8 24.436364l-8.145455-6.981818v12.8z" fill="#FF090B" /></svg>