<?xml version="1.0" standalone="no"?><!DOCTYPE svg PUBLIC "-//W3C//DTD SVG 1.1//EN" "http://www.w3.org/Graphics/SVG/1.1/DTD/svg11.dtd"><svg class="icon" width="200px" height="200.00px" viewBox="0 0 1024 1024" version="1.1" xmlns="http://www.w3.org/2000/svg"><path d="M512 373.527273m-373.527273 0a373.527273 373.527273 0 1 0 747.054546 0 373.527273 373.527273 0 1 0-747.054546 0Z" fill="#FF090B" /><path d="M512 373.527273m-310.690909 0a310.690909 310.690909 0 1 0 621.381818 0 310.690909 310.690909 0 1 0-621.381818 0Z" fill="#FFFFFF" /><path d="M593.454545 342.109091v75.636364l69.818182 160.581818s20.945455 33.745455-12.8 44.218182c0 0-22.109091 3.490909-33.745454-17.454546l-61.672728-117.527273s-13.963636-34.909091-24.436363-22.109091l-44.218182 46.545455s-11.636364 24.436364-11.636364 94.254545c0 0 4.654545 16.290909-26.763636 16.29091 0 0-22.109091 1.163636-22.109091-15.127273v-62.836364s3.490909-72.145455 67.490909-144.290909v-20.945454l-10.472727-59.345455s-12.8-15.127273-20.945455-2.327273c0 0 2.327273 17.454545-34.909091 37.236364L384 368.872727s-23.272727 8.145455-26.763636-4.654545c0 0-8.145455-18.618182 4.654545-23.272727l38.4-20.945455s45.381818-29.090909 43.054546-67.490909c0 0 6.981818-43.054545 46.545454-54.690909 0 0 18.618182-15.127273 43.054546-5.818182l101.236363 46.545455s13.963636 8.145455 13.963637 18.618181v100.072728s2.327273 18.618182-10.472728 18.618181c0 0-22.109091-6.981818-22.109091-13.963636l-1.163636-75.636364s-2.327273-5.818182-18.618182-16.290909l-16.290909-12.8s-18.618182-12.8-15.127273 4.654546c-3.490909-1.163636 29.090909 48.872727 29.090909 80.290909zM463.127273 186.181818c-23.272727 0-44.218182-18.618182-44.218182-44.218182 0-23.272727 18.618182-44.218182 44.218182-44.218181s44.218182 18.618182 44.218182 44.218181-19.781818 44.218182-44.218182 44.218182z" fill="#1E1C1A" /><path d="M285.405091 110.917818l488.750545 488.738909-35.374545 35.374546-488.750546-488.738909z" fill="#FF090B" /><path d="M201.309091 800.581818h621.381818V1024H201.309091z" fill="#FE0807" /><path d="M214.109091 812.218182h596.945454v198.981818H214.109091z" fill="#FFFFFF" /><path d="M272.290909 861.090909h19.781818v-9.309091h12.8v9.309091h17.454546v11.636364h-17.454546c5.818182 3.490909 10.472727 5.818182 16.290909 10.472727l-6.981818 10.472727c-3.490909-4.654545-6.981818-8.145455-9.309091-11.636363v18.618181h-12.8v-18.618181c-4.654545 6.981818-9.309091 12.8-15.127272 18.618181l-6.981819-10.472727c8.145455-4.654545 15.127273-10.472727 19.781819-17.454545h-17.454546v-11.636364z m31.418182 84.945455c-6.981818 8.145455-15.127273 15.127273-24.436364 22.109091l-8.145454-10.472728c9.309091-5.818182 17.454545-11.636364 23.272727-18.618182l9.309091 6.981819z m-31.418182-23.272728h105.890909v11.636364h-44.218182v20.945455c0 6.981818-4.654545 11.636364-12.8 11.636363h-11.636363l-2.327273-11.636363c3.490909 0 6.981818 1.163636 10.472727 1.163636 2.327273 0 3.490909-1.163636 3.490909-3.490909v-18.618182h-47.709091v-11.636364z m11.636364-18.618181h84.945454v11.636363h-84.945454v-11.636363z m44.218182-43.054546h16.290909v-9.309091h12.8v9.309091h20.945454v11.636364h-16.290909c4.654545 5.818182 10.472727 11.636364 19.781818 17.454545l-9.309091 10.472727c-6.981818-5.818182-11.636364-12.8-15.127272-20.945454v20.945454h-12.8v-20.945454c-4.654545 8.145455-9.309091 15.127273-15.127273 20.945454l-6.981818-10.472727c6.981818-4.654545 12.8-10.472727 18.618182-17.454545h-12.8v-11.636364z m24.436363 76.8c9.309091 4.654545 17.454545 11.636364 25.6 18.618182l-6.981818 11.636364c-8.145455-8.145455-16.290909-15.127273-25.6-19.781819l6.981818-10.472727zM449.163636 852.945455h12.8v38.4h37.236364v12.8h-37.236364v45.381818h44.218182v12.8h-111.709091v-12.8h19.781818v-75.636364h12.8v75.636364h22.109091v-96.581818zM600.436364 964.654545h-22.109091c-8.145455 0-13.963636-1.163636-19.781818-2.327272-4.654545-1.163636-9.309091-4.654545-12.8-8.145455-1.163636-2.327273-3.490909-3.490909-4.654546-3.490909-2.327273 0-6.981818 5.818182-12.8 16.290909l-9.309091-9.309091c5.818182-10.472727 11.636364-16.290909 16.290909-18.618182v-33.745454h-16.290909v-11.636364H546.909091v47.709091l1.163636 1.163637c3.490909 3.490909 5.818182 5.818182 8.145455 6.981818 3.490909 2.327273 9.309091 2.327273 16.290909 3.490909H616.727273c5.818182 0 11.636364 0 15.127272-1.163637l-3.490909 12.8h-27.927272z m-70.981819-111.70909c8.145455 6.981818 15.127273 12.8 20.945455 19.781818l-9.309091 9.309091c-4.654545-5.818182-11.636364-12.8-20.945454-19.781819l9.30909-9.30909z m48.872728 12.8h-23.272728v-10.472728h68.654546v9.309091c-6.981818 5.818182-15.127273 11.636364-23.272727 15.127273h25.6v54.690909c0 8.145455-4.654545 11.636364-12.8 11.636364h-9.309091l-2.327273-10.472728h8.145455c2.327273 0 4.654545-1.163636 4.654545-3.490909v-4.654545h-16.290909v19.781818h-11.636364v-19.781818H570.181818v19.781818h-11.636363v-67.490909h27.927272c-4.654545-3.490909-9.309091-5.818182-12.8-8.145455l4.654546-5.818181z m6.981818 32.581818v-8.145455h-16.290909v8.145455h16.290909z m-16.290909 10.472727v8.145455h16.290909v-8.145455h-16.290909z m37.236363-43.054545H581.818182c4.654545 3.490909 9.309091 5.818182 11.636363 8.145454 3.490909-2.327273 8.145455-4.654545 12.8-8.145454z m6.981819 32.581818v-8.145455h-16.290909v8.145455h16.290909z m-16.290909 10.472727v8.145455h16.290909v-8.145455h-16.290909zM678.4 858.763636c-6.981818 13.963636-17.454545 25.6-33.745455 37.236364l-4.654545-13.963636c11.636364-8.145455 20.945455-18.618182 25.6-29.090909l12.8 5.818181z m5.818182 27.927273c-3.490909 6.981818-6.981818 12.8-12.8 18.618182v61.672727h-12.8v-48.872727c-3.490909 3.490909-8.145455 6.981818-13.963637 10.472727l-3.490909-12.8c13.963636-9.309091 24.436364-20.945455 31.418182-34.909091l11.636364 5.818182z m1.163636 2.327273h69.818182v12.8h-18.618182V954.181818c0 8.145455-4.654545 12.8-13.963636 12.8h-17.454546l-4.654545-12.8c6.981818 0 11.636364 1.163636 16.290909 1.163637 3.490909 0 4.654545-1.163636 4.654545-3.49091v-48.872727h-37.236363v-13.963636z m3.490909-30.254546h61.672728v12.8h-61.672728v-12.8z" fill="#FF090B" /></svg>