<?xml version="1.0" standalone="no"?><!DOCTYPE svg PUBLIC "-//W3C//DTD SVG 1.1//EN" "http://www.w3.org/Graphics/SVG/1.1/DTD/svg11.dtd"><svg class="icon" width="200px" height="200.00px" viewBox="0 0 1024 1024" version="1.1" xmlns="http://www.w3.org/2000/svg"><path d="M512 373.527273m-373.527273 0a373.527273 373.527273 0 1 0 747.054546 0 373.527273 373.527273 0 1 0-747.054546 0Z" fill="#FF090B" /><path d="M512 373.527273m-310.690909 0a310.690909 310.690909 0 1 0 621.381818 0 310.690909 310.690909 0 1 0-621.381818 0Z" fill="#FFFFFF" /><path d="M570.181818 595.781818h-50.036363l-22.109091 13.963637h208.290909l-18.618182-15.127273h-68.654546s-13.963636-3.490909-13.963636-17.454546V441.018182s0-8.145455 8.145455-8.145455c6.981818 0 89.6-5.818182 89.6-198.981818 0 0-12.8-32.581818-102.4-32.581818-90.763636 0-101.236364 32.581818-101.236364 32.581818s-8.145455 200.145455 81.454545 200.145455c0 0 5.818182 1.163636 5.818182 8.145454v134.981818s-1.163636 18.618182-16.290909 18.618182z m-58.181818-353.745454c0-17.454545 40.727273-31.418182 89.6-31.418182s89.6 13.963636 89.6 31.418182c0 17.454545-40.727273 31.418182-89.6 31.418181S512 259.490909 512 242.036364zM339.781818 598.109091V253.672727s-1.163636-5.818182 6.981818-9.309091c4.654545-2.327273 36.072727-9.309091 36.072728-100.072727h27.927272s-5.818182 101.236364 40.727273 101.236364c0 0 6.981818 2.327273 6.981818 6.981818v346.763636s0 25.6-62.836363 25.6c-57.018182-1.163636-55.854545-26.763636-55.854546-26.763636z"  /><path d="M413.090909 147.781818h-30.254545c-1.163636 0-3.490909-1.163636-3.490909-3.490909 0-1.163636 1.163636-3.490909 3.490909-3.490909h30.254545c1.163636 0 3.490909 1.163636 3.490909 3.490909-1.163636 2.327273-2.327273 3.490909-3.490909 3.490909z"  /><path d="M285.405091 110.917818l488.750545 488.738909-35.374545 35.374546-488.750546-488.738909z" fill="#FF090B" /><path d="M164.072727 800.581818h695.854546V1024H164.072727z" fill="#FE0807" /><path d="M175.709091 812.218182h671.418182v198.981818H175.709091z" fill="#FFFFFF" /><path d="M217.6 861.090909h16.290909v-9.309091h10.472727v9.309091h13.963637v11.636364H244.363636c4.654545 3.490909 9.309091 5.818182 12.8 10.472727l-5.818181 10.472727c-3.490909-4.654545-5.818182-8.145455-8.145455-11.636363v18.618181H232.727273v-18.618181c-3.490909 6.981818-8.145455 12.8-12.8 18.618181l-5.818182-10.472727c6.981818-4.654545 11.636364-10.472727 16.290909-17.454545h-13.963636v-11.636364z m25.6 84.945455c-4.654545 8.145455-11.636364 15.127273-19.781818 22.109091l-6.981818-10.472728c8.145455-5.818182 13.963636-11.636364 18.618181-18.618182l8.145455 6.981819z m-25.6-23.272728H302.545455v11.636364h-36.072728v20.945455c0 6.981818-3.490909 11.636364-10.472727 11.636363h-9.309091l-2.327273-11.636363c2.327273 0 5.818182 1.163636 8.145455 1.163636 2.327273 0 3.490909-1.163636 3.490909-3.490909v-18.618182h-39.563636v-11.636364z m8.145455-18.618181h68.654545v11.636363h-68.654545v-11.636363z m36.072727-43.054546h13.963636v-9.309091h10.472727v9.309091H302.545455v11.636364h-12.8c3.490909 5.818182 8.145455 11.636364 15.127272 17.454545l-6.981818 10.472727c-5.818182-5.818182-9.309091-12.8-12.8-20.945454v20.945454h-10.472727v-20.945454c-3.490909 8.145455-8.145455 15.127273-12.8 20.945454l-5.818182-10.472727c5.818182-4.654545 10.472727-10.472727 15.127273-17.454545h-10.472728v-11.636364z m20.945454 76.8c8.145455 4.654545 13.963636 11.636364 20.945455 18.618182l-5.818182 11.636364c-6.981818-8.145455-12.8-15.127273-19.781818-19.781819l4.654545-10.472727zM359.563636 852.945455h10.472728v38.4h30.254545v12.8h-30.254545v45.381818h34.909091v12.8H314.181818v-12.8h16.290909v-75.636364h10.472728v75.636364h17.454545v-96.581818zM422.4 883.2c6.981818 5.818182 12.8 11.636364 16.290909 17.454545l-6.981818 9.309091c-3.490909-5.818182-9.309091-11.636364-16.290909-17.454545l6.981818-9.309091z m17.454545 37.236364c-4.654545 16.290909-9.309091 31.418182-15.127272 44.218181l-9.309091-5.818181c5.818182-15.127273 11.636364-30.254545 15.127273-44.218182l9.30909 5.818182z m-15.127272-67.490909c6.981818 5.818182 12.8 11.636364 17.454545 17.454545l-6.981818 9.309091c-3.490909-5.818182-9.309091-11.636364-17.454545-17.454546l6.981818-9.30909z m17.454545 2.327272h65.163637v11.636364h-19.781819v11.636364h17.454546V965.818182h-9.309091v-4.654546H453.818182v4.654546h-9.309091v-87.272727h16.290909v-11.636364H442.181818v-11.636364z m11.636364 64v10.472728h40.727273V919.272727h-8.145455c-5.818182 0-9.309091-3.490909-9.309091-10.472727v-18.618182h-8.145454v5.818182c0 12.8-3.490909 22.109091-11.636364 27.927273L453.818182 919.272727z m8.145454-27.927272H453.818182v24.436363c4.654545-4.654545 6.981818-10.472727 6.981818-19.781818v-4.654545z m-8.145454 59.345454h40.727273v-9.309091H453.818182v9.309091z m17.454545-70.981818h6.981818v-11.636364h-6.981818v11.636364z m24.436364 30.254545v-18.618181h-8.145455v15.127272c0 2.327273 1.163636 3.490909 3.490909 3.490909h4.654546zM536.436364 898.327273c-1.163636 29.090909-4.654545 51.2-12.8 68.654545l-8.145455-10.472727c6.981818-13.963636 10.472727-32.581818 10.472727-57.018182v-39.563636c26.763636 0 50.036364-2.327273 70.981819-8.145455l4.654545 11.636364c-19.781818 4.654545-41.890909 6.981818-66.327273 8.145454v13.963637h70.981818v12.8h-69.818181z m64 13.963636v54.690909h-10.472728v-4.654545h-36.072727v4.654545h-10.472727v-54.690909h57.018182z m-46.545455 37.236364h36.072727v-24.436364h-36.072727v24.436364zM652.8 851.781818h10.472727v37.236364h37.236364v12.8H663.272727v48.872727h44.218182v12.8H616.727273v-12.8h34.909091v-98.909091zM780.8 965.818182l-2.327273-11.636364 10.472728 1.163637c3.490909 0 4.654545-2.327273 4.654545-6.981819v-46.545454h-58.181818V965.818182h-10.472727v-76.8H802.909091v60.509091c0 10.472727-3.490909 16.290909-11.636364 16.290909h-10.472727z m-22.109091-114.036364h10.472727v18.618182h23.272728v-12.8h10.472727v25.6h-76.8v-25.6h10.472727v12.8h23.272727v-18.618182z m-11.636364 54.690909c5.818182 4.654545 11.636364 9.309091 18.618182 15.127273 3.490909-5.818182 8.145455-11.636364 11.636364-18.618182l8.145454 6.981818c-3.490909 6.981818-8.145455 13.963636-11.636363 18.618182l15.127273 15.127273-6.981819 9.309091c-4.654545-4.654545-9.309091-10.472727-13.963636-15.127273-5.818182 5.818182-13.963636 12.8-23.272727 19.781818l-5.818182-11.636363c6.981818-3.490909 13.963636-9.309091 20.945454-16.290909-5.818182-4.654545-11.636364-9.309091-18.618181-15.127273l5.818181-8.145455z" fill="#FF090B" /></svg>