<?xml version="1.0" standalone="no"?><!DOCTYPE svg PUBLIC "-//W3C//DTD SVG 1.1//EN" "http://www.w3.org/Graphics/SVG/1.1/DTD/svg11.dtd"><svg class="icon" width="200px" height="200.00px" viewBox="0 0 1024 1024" version="1.1" xmlns="http://www.w3.org/2000/svg"><path d="M512 373.527273m-373.527273 0a373.527273 373.527273 0 1 0 747.054546 0 373.527273 373.527273 0 1 0-747.054546 0Z" fill="#FF090B" /><path d="M512 373.527273m-310.690909 0a310.690909 310.690909 0 1 0 621.381818 0 310.690909 310.690909 0 1 0-621.381818 0Z" fill="#FFFFFF" /><path d="M621.381818 397.963636c-10.472727-11.636364-27.927273-10.472727-37.236363 1.163637l1.163636-1.163637c8.145455-10.472727 9.309091-25.6 0-34.909091-10.472727-11.636364-27.927273-10.472727-37.236364 1.163637l-1.163636 2.327273c9.309091-10.472727 8.145455-26.763636-2.327273-36.072728-9.309091-8.145455-20.945455-9.309091-30.254545-4.654545l77.963636-88.436364c8.145455-10.472727 9.309091-25.6 0-34.909091-10.472727-11.636364-27.927273-10.472727-37.236364 1.163637l-186.181818 214.109091c-20.945455 24.436364-31.418182 54.690909-30.254545 86.10909l5.818182 117.527273h200.145454l-16.290909-47.709091c-4.654545-13.963636-1.163636-29.090909 8.145455-39.563636l87.272727-100.072727c6.981818-11.636364 6.981818-26.763636-2.327273-36.072728z"  /><path d="M573.672727 289.745455c-43.054545 0-76.8-34.909091-76.8-76.8s34.909091-76.8 76.8-76.8c43.054545 0 76.8 34.909091 76.8 76.8s-34.909091 76.8-76.8 76.8z m0-136.145455c-32.581818 0-59.345455 26.763636-59.345454 59.345455s26.763636 59.345455 59.345454 59.345454 59.345455-26.763636 59.345455-59.345454-26.763636-59.345455-59.345455-59.345455z"  /><path d="M573.672727 324.654545c-61.672727 0-111.709091-50.036364-111.709091-111.70909s50.036364-111.709091 111.709091-111.709091 111.709091 50.036364 111.709091 111.709091-50.036364 111.709091-111.709091 111.70909z m0-205.963636c-52.363636 0-94.254545 41.890909-94.254545 94.254546s41.890909 94.254545 94.254545 94.254545 94.254545-41.890909 94.254546-94.254545-41.890909-94.254545-94.254546-94.254546z"  /><path d="M285.405091 110.917818l488.750545 488.738909-35.374545 35.374546-488.750546-488.738909z" fill="#FF090B" /><path d="M201.309091 800.581818h621.381818V1024H201.309091z" fill="#FE0807" /><path d="M214.109091 812.218182h596.945454v198.981818H214.109091z" fill="#FFFFFF" /><path d="M272.290909 861.090909h19.781818v-9.309091h12.8v9.309091h17.454546v11.636364h-17.454546c5.818182 3.490909 10.472727 5.818182 16.290909 10.472727l-6.981818 10.472727c-3.490909-4.654545-6.981818-8.145455-9.309091-11.636363v18.618181h-12.8v-18.618181c-4.654545 6.981818-9.309091 12.8-15.127272 18.618181l-6.981819-10.472727c8.145455-4.654545 15.127273-10.472727 19.781819-17.454545h-17.454546v-11.636364z m31.418182 84.945455c-6.981818 8.145455-15.127273 15.127273-24.436364 22.109091l-8.145454-10.472728c9.309091-5.818182 17.454545-11.636364 23.272727-18.618182l9.309091 6.981819z m-31.418182-23.272728h105.890909v11.636364h-44.218182v20.945455c0 6.981818-4.654545 11.636364-12.8 11.636363h-11.636363l-2.327273-11.636363c3.490909 0 6.981818 1.163636 10.472727 1.163636 2.327273 0 3.490909-1.163636 3.490909-3.490909v-18.618182h-47.709091v-11.636364z m11.636364-18.618181h84.945454v11.636363h-84.945454v-11.636363z m44.218182-43.054546h16.290909v-9.309091h12.8v9.309091h20.945454v11.636364h-16.290909c4.654545 5.818182 10.472727 11.636364 19.781818 17.454545l-9.309091 10.472727c-6.981818-5.818182-11.636364-12.8-15.127272-20.945454v20.945454h-12.8v-20.945454c-4.654545 8.145455-9.309091 15.127273-15.127273 20.945454l-6.981818-10.472727c6.981818-4.654545 12.8-10.472727 18.618182-17.454545h-12.8v-11.636364z m24.436363 76.8c9.309091 4.654545 17.454545 11.636364 25.6 18.618182l-6.981818 11.636364c-8.145455-8.145455-16.290909-15.127273-25.6-19.781819l6.981818-10.472727zM449.163636 852.945455h12.8v38.4h37.236364v12.8h-37.236364v45.381818h44.218182v12.8h-111.709091v-12.8h19.781818v-75.636364h12.8v75.636364h22.109091v-96.581818zM542.254545 902.981818v4.654546c0 23.272727-5.818182 41.890909-16.290909 59.345454l-10.472727-9.309091c9.309091-12.8 13.963636-29.090909 13.963636-50.036363v-44.218182H570.181818c-1.163636-3.490909-3.490909-8.145455-4.654545-11.636364l13.963636-2.327273c1.163636 3.490909 3.490909 8.145455 4.654546 13.963637h39.563636v39.563636h-81.454546z m68.654546-26.763636h-68.654546v15.127273h68.654546v-15.127273z m10.472727 40.727273v50.036363h-12.8v-5.818182H558.545455v5.818182h-11.636364v-50.036363h74.472727z m-61.672727 32.581818h50.036364v-19.781818h-50.036364v19.781818zM642.327273 892.509091H698.181818v12.8h-27.927273c-3.490909 16.290909-8.145455 27.927273-10.472727 36.072727 6.981818-1.163636 15.127273-3.490909 23.272727-6.981818-2.327273-5.818182-4.654545-10.472727-8.145454-16.290909l10.472727-4.654546c5.818182 10.472727 10.472727 22.109091 16.290909 33.745455 8.145455-13.963636 12.8-33.745455 12.8-57.018182v-2.327273h-13.963636v-12.8h13.963636v-22.10909h12.8v22.10909h26.763637c0 41.890909-1.163636 67.490909-2.327273 77.963637-1.163636 9.309091-8.145455 13.963636-19.781818 13.963636-1.163636 0-4.654545 0-10.472728-1.163636l-3.490909-11.636364h11.636364c4.654545 0 8.145455-2.327273 9.309091-8.145454 1.163636-4.654545 1.163636-24.436364 1.163636-59.345455h-13.963636v2.327273c0 36.072727-8.145455 61.672727-25.6 79.127273l-10.472727-9.309091c3.490909-3.490909 5.818182-6.981818 9.309091-11.636364l-10.472728 4.654545-2.327272-6.981818c-12.8 4.654545-26.763636 8.145455-41.89091 10.472728l-3.490909-11.636364c1.163636 0 2.327273-1.163636 2.327273-1.163636 3.490909-4.654545 8.145455-17.454545 12.8-37.236364h-15.127273v-12.8z m4.654545-33.745455h46.545455v12.8h-46.545455v-12.8z" fill="#FF090B" /></svg>