<?xml version="1.0" standalone="no"?><!DOCTYPE svg PUBLIC "-//W3C//DTD SVG 1.1//EN" "http://www.w3.org/Graphics/SVG/1.1/DTD/svg11.dtd"><svg class="icon" width="200px" height="200.00px" viewBox="0 0 1024 1024" version="1.1" xmlns="http://www.w3.org/2000/svg"><path d="M512 373.527273m-373.527273 0a373.527273 373.527273 0 1 0 747.054546 0 373.527273 373.527273 0 1 0-747.054546 0Z" fill="#FF090B" /><path d="M512 373.527273m-310.690909 0a310.690909 310.690909 0 1 0 621.381818 0 310.690909 310.690909 0 1 0-621.381818 0Z" fill="#FFFFFF" /><path d="M631.854545 406.109091c0-1.163636 1.163636-1.163636 0 0v-3.490909-1.163637-1.163636-2.327273c0-3.490909-1.163636-6.981818-3.490909-9.309091l-83.781818-115.2c-3.490909-5.818182-10.472727-8.145455-16.290909-9.30909h-1.163636H523.636364c-3.490909 0-5.818182 2.327273-9.309091 3.490909l-3.490909 2.327272L380.509091 349.090909c-8.145455 5.818182-11.636364 16.290909-5.818182 25.6 5.818182 8.145455 16.290909 11.636364 25.6 5.818182l84.945455-52.363636 37.236363 51.2-103.563636-2.327273c-8.145455 0-16.290909 5.818182-18.618182 13.963636l-20.945454 90.763637c-2.327273 9.309091 3.490909 19.781818 13.963636 22.10909 9.309091 2.327273 19.781818-3.490909 22.109091-13.963636l17.454545-76.8 144.290909 15.127273c2.327273 0 5.818182 1.163636 8.145455 1.163636h3.490909c11.636364 0 24.436364-3.490909 34.909091-11.636363 4.654545-1.163636 6.981818-5.818182 8.145454-11.636364z"  /><path d="M493.381818 223.418182m-29.090909 0a29.090909 29.090909 0 1 0 58.181818 0 29.090909 29.090909 0 1 0-58.181818 0Z"  /><path d="M765.137455 218.414545l4.305454 10.810182L235.671273 442.530909l-4.317091-10.798545zM310.690909 591.127273c48.872727 46.545455 103.563636 60.509091 103.563636 60.509091l364.218182-162.909091c20.945455-30.254545 20.945455-93.090909 20.945455-93.090909l-488.727273 195.490909z m80.290909 37.236363l-44.218182-29.090909 30.254546-11.636363 44.218182 30.254545-30.254546 10.472727zM512 578.327273l-44.218182-29.090909 30.254546-11.636364 44.218181 30.254545-30.254545 10.472728z m121.018182-50.036364l-44.218182-29.090909 30.254545-11.636364 44.218182 30.254546-30.254545 10.472727z m122.181818-50.036364l-44.218182-29.090909 30.254546-11.636363 44.218181 30.254545-30.254545 10.472727zM673.745455 330.472727l-31.418182 50.036364h43.054545l25.6-43.054546zM706.327273 288.581818l-30.254546 20.945455s6.981818 18.618182 15.127273 16.290909c8.145455-2.327273 36.072727-22.109091 36.072727-22.109091l-20.945454-15.127273zM740.072727 274.618182l32.581818 5.818182-32.581818 46.545454H721.454545zM346.763636 417.745455l-31.418181 39.563636 31.418181 8.145454 12.8-40.727272zM292.072727 465.454545l-20.945454 47.709091 33.745454 4.654546 10.472728-39.563637zM337.454545 473.6l17.454546 4.654545 9.309091 26.763637L337.454545 500.363636z"  /><path d="M285.405091 110.917818l488.750545 488.738909-35.374545 35.374546-488.750546-488.738909z" fill="#FF090B" /><path d="M164.072727 800.581818h695.854546V1024H164.072727z" fill="#FE0807" /><path d="M175.709091 812.218182h671.418182v198.981818H175.709091z" fill="#FFFFFF" /><path d="M221.090909 861.090909h16.290909v-9.309091h10.472727v9.309091h13.963637v11.636364h-13.963637c4.654545 3.490909 9.309091 5.818182 12.8 10.472727l-5.818181 10.472727c-3.490909-4.654545-5.818182-8.145455-8.145455-11.636363v18.618181h-10.472727v-18.618181c-3.490909 6.981818-8.145455 12.8-12.8 18.618181l-5.818182-10.472727c6.981818-4.654545 11.636364-10.472727 16.290909-17.454545H221.090909v-11.636364z m25.6 84.945455c-4.654545 8.145455-11.636364 15.127273-19.781818 22.109091l-5.818182-10.472728c6.981818-5.818182 13.963636-11.636364 18.618182-18.618182l6.981818 6.981819z m-25.6-23.272728h84.945455v11.636364h-36.072728v20.945455c0 6.981818-3.490909 11.636364-10.472727 11.636363h-9.309091l-2.327273-11.636363c2.327273 0 5.818182 1.163636 8.145455 1.163636 2.327273 0 3.490909-1.163636 3.490909-3.490909v-18.618182H221.090909v-11.636364z m8.145455-18.618181h67.490909v11.636363h-67.490909v-11.636363z m36.072727-43.054546H279.272727v-9.309091h10.472728v9.309091h16.290909v11.636364h-12.8c3.490909 5.818182 8.145455 11.636364 15.127272 17.454545l-6.981818 10.472727c-5.818182-5.818182-9.309091-12.8-12.8-20.945454v20.945454h-10.472727v-20.945454c-3.490909 8.145455-8.145455 15.127273-12.8 20.945454l-5.818182-10.472727c5.818182-4.654545 10.472727-10.472727 13.963636-17.454545h-9.30909v-11.636364z m19.781818 76.8c6.981818 4.654545 13.963636 11.636364 20.945455 18.618182l-5.818182 11.636364c-6.981818-8.145455-12.8-15.127273-19.781818-19.781819l4.654545-10.472727zM361.890909 852.945455h10.472727v38.4h30.254546v12.8H372.363636v45.381818h34.909091v12.8h-89.6v-12.8h16.290909v-75.636364h10.472728v75.636364h17.454545v-96.581818zM417.745455 873.890909h39.563636v-6.981818c-9.309091 0-18.618182 1.163636-27.927273 1.163636l-3.490909-11.636363c25.6 0 47.709091-1.163636 66.327273-4.654546l4.654545 10.472727c-8.145455 1.163636-18.618182 3.490909-30.254545 4.654546v6.981818h39.563636v11.636364h-39.563636v31.418182c10.472727 12.8 23.272727 23.272727 40.727273 31.418181l-5.818182 12.8c-12.8-6.981818-24.436364-16.290909-34.909091-29.090909v34.909091h-10.472727v-34.909091c-9.309091 11.636364-20.945455 20.945455-33.745455 29.090909l-5.818182-11.636363c17.454545-9.309091 31.418182-19.781818 40.727273-32.581818v-31.418182h-39.563636v-11.636364z m22.10909 15.127273h10.472728v37.236363h-10.472728v-4.654545c-5.818182 2.327273-11.636364 3.490909-18.618181 4.654545l-2.327273-11.636363c6.981818-1.163636 15.127273-2.327273 20.945454-3.490909v-5.818182h-18.618181v-11.636364h18.618181v-4.654545z m45.381819 37.236363c-6.981818 0-10.472727-4.654545-10.472728-13.963636v-23.272727h10.472728v6.981818c5.818182-1.163636 11.636364-3.490909 16.290909-5.818182l3.490909 10.472727c-5.818182 2.327273-12.8 4.654545-19.781818 5.818182v2.327273c0 3.490909 1.163636 5.818182 3.490909 5.818182h6.981818c1.163636 0 1.163636 0 2.327273-1.163637 0-1.163636 1.163636-3.490909 1.163636-8.145454l9.309091 3.490909c-1.163636 8.145455-2.327273 12.8-3.490909 13.963636-1.163636 1.163636-4.654545 2.327273-6.981818 2.327273h-12.8zM532.945455 886.690909h9.30909v16.290909h8.145455v11.636364h-8.145455v12.8c2.327273-1.163636 5.818182-1.163636 8.145455-2.327273v11.636364c-2.327273 1.163636-4.654545 1.163636-8.145455 2.327272V965.818182h-9.30909v-23.272727c-6.981818 1.163636-11.636364 2.327273-16.29091 3.490909l-1.163636-12.8 17.454546-3.490909v-15.127273h-13.963637l-2.327273-11.636364c2.327273-6.981818 4.654545-15.127273 6.981819-24.436363h-6.981819v-11.636364h9.309091c1.163636-11.636364 2.327273-16.290909 2.327273-16.290909l9.309091 2.327273-2.327273 15.127272h16.290909v11.636364h-18.618181c-2.327273 8.145455-3.490909 16.290909-5.818182 23.272727h5.818182v-16.290909z m31.418181-3.490909l-10.472727 10.472727-5.818182-10.472727c10.472727-9.309091 18.618182-19.781818 26.763637-31.418182h6.981818c8.145455 12.8 17.454545 23.272727 25.6 30.254546l-5.818182 10.472727-10.472727-10.472727v6.981818h-29.090909v-5.818182z m2.327273 82.618182l-2.327273-10.472727h3.490909c2.327273 0 2.327273-1.163636 2.327273-3.49091v-8.145454h-8.145454v23.272727h-9.309091v-69.818182h25.6v58.181819c0 8.145455-3.490909 11.636364-9.309091 11.636363h-2.327273z m-3.490909-50.036364h8.145455v-9.309091h-8.145455v9.309091z m0 18.618182h8.145455v-8.145455h-8.145455v8.145455z m26.763636-55.854545c-4.654545-4.654545-8.145455-10.472727-10.472727-15.127273-4.654545 5.818182-8.145455 11.636364-11.636364 15.127273h22.109091z m-6.981818 22.10909h8.145455v45.381819h-8.145455v-45.381819z m3.490909 65.163637l-2.327272-11.636364c3.490909 0 5.818182 1.163636 8.145454 1.163637 1.163636 0 2.327273-1.163636 2.327273-4.654546V896h9.309091v58.181818c0 8.145455-2.327273 12.8-8.145455 12.8h-9.309091zM681.890909 964.654545h-17.454545c-5.818182 0-11.636364-1.163636-16.290909-2.327272-3.490909-1.163636-6.981818-4.654545-10.472728-8.145455-1.163636-2.327273-2.327273-3.490909-3.490909-3.490909-2.327273 0-5.818182 5.818182-10.472727 16.290909l-6.981818-8.145454c4.654545-10.472727 9.309091-16.290909 12.8-18.618182v-33.745455H616.727273v-11.636363h23.272727V942.545455c2.327273 3.490909 4.654545 5.818182 6.981818 6.981818 2.327273 2.327273 6.981818 2.327273 12.8 3.490909h34.909091c4.654545 0 9.309091 0 11.636364-1.163637l-2.327273 12.8h-22.109091z m-57.018182-111.70909c6.981818 6.981818 11.636364 12.8 16.290909 19.781818l-6.981818 9.309091c-3.490909-5.818182-9.309091-12.8-16.290909-19.781819l6.981818-9.30909z m22.109091 46.545454h23.272727c0-4.654545 1.163636-9.309091 1.163637-15.127273h-20.945455v-11.636363h10.472728c-2.327273-5.818182-4.654545-10.472727-8.145455-15.127273l9.309091-5.818182c3.490909 5.818182 5.818182 11.636364 8.145454 17.454546l-4.654545 3.490909h13.963636c3.490909-6.981818 5.818182-15.127273 6.981819-22.109091l9.30909 4.654545c-2.327273 6.981818-4.654545 12.8-6.981818 17.454546h10.472728v11.636363h-19.781819c0 4.654545 0 10.472727-1.163636 15.127273h24.436364v11.636364h-25.6c-3.490909 13.963636-11.636364 26.763636-25.6 36.072727l-6.981819-10.472727c10.472727-6.981818 18.618182-15.127273 20.945455-25.6h-20.945455v-11.636364z m36.072727 17.454546c8.145455 6.981818 15.127273 13.963636 20.945455 20.945454l-6.981818 10.472727c-5.818182-8.145455-12.8-16.290909-19.781818-22.109091l5.818181-9.30909zM715.636364 864.581818h13.963636v-11.636363h9.309091v11.636363h16.290909v-11.636363h10.472727v11.636363h16.290909v-11.636363h9.309091v11.636363h13.963637v12.8H791.272727v11.636364h-9.309091v-11.636364h-16.290909v11.636364h-10.472727v-11.636364h-16.290909v11.636364h-9.309091v-11.636364h-13.963636v-12.8z m87.272727 29.090909V919.272727h-10.472727v-12.8h-27.927273v9.309091H791.272727v29.090909c0 9.309091-3.490909 12.8-9.309091 12.8h-9.309091l-2.327272-12.8 8.145454 1.163637c1.163636 0 2.327273-1.163636 2.327273-4.654546v-15.127273h-15.127273v38.4h-10.472727v-38.4h-15.127273v31.418182h-10.472727v-43.054545h24.436364v-9.309091h-26.763637V919.272727h-10.472727v-25.6H802.909091z" fill="#FF090B" /></svg>