<?xml version="1.0" standalone="no"?><!DOCTYPE svg PUBLIC "-//W3C//DTD SVG 1.1//EN" "http://www.w3.org/Graphics/SVG/1.1/DTD/svg11.dtd"><svg class="icon" width="200px" height="200.00px" viewBox="0 0 1024 1024" version="1.1" xmlns="http://www.w3.org/2000/svg"><path d="M102.516331 648.252201L458.48793 30.536779c23.266118-40.715706 82.594717-40.715706 105.860835 0l357.134904 617.715422c23.266118 40.715706-5.816529 91.901164-53.51207 91.901165H154.865095c-46.532235 0-75.614882-51.185459-52.348764-91.901165z" fill="#FFF500" /><path d="M130.435672 649.415507L475.937518 50.312979c16.286282-27.919341 55.838682-27.919341 70.961658 0l345.501846 597.939222c16.286282 27.919341-3.489918 61.655212-36.062482 61.655212H166.498154c-31.409259 1.163306-51.185459-33.73587-36.062482-60.491906z"  /><path d="M186.274354 651.742119L512 88.702073 837.725646 651.742119z" fill="#FFF500" /><path d="M193.254189 783.195683H860.991764V1024H193.254189z"  /><path d="M207.21386 797.155354h640.981539v214.048281H207.21386z" fill="#FFFFFF" /><path d="M303.768248 848.340812v89.574553h-20.939506v8.143141h-12.796365v-97.717694h33.735871z m-20.939506 76.778188h8.143141V861.137177h-8.143141v63.981823z m24.429423-8.143141h31.409259v-6.979835h13.959671v6.979835h32.572564v12.796365h-20.939506c5.816529 6.979835 13.959671 12.796365 24.429424 17.449588l-9.306447 11.633059c-12.796365-9.306447-22.102812-18.612894-27.919341-29.082647h-1.163306v33.73587h-13.959671v-33.73587h-1.163306c-6.979835 11.633059-17.449588 22.102812-31.409258 29.082647l-6.979836-11.633059c11.633059-4.653224 20.939506-10.469753 26.756036-17.449588h-18.612894v-12.796365z m1.163306-38.389094h34.899177V907.669412h-34.899177v-29.082647z m10.469753-34.899176h54.675376V872.770236h-54.675376v-29.082647z m11.633059 53.51207v-9.306447h-11.633059v9.306447h11.633059z m30.245953-34.899176v-8.143141h-29.082647v8.143141H360.770236z m-11.633059 16.286282h34.899176V907.669412h-34.899176v-29.082647z m22.102812 18.612894v-9.306447h-11.633059v9.306447h11.633059zM423.588753 925.119c-2.326612 15.122976-6.979835 27.919341-13.95967 38.389094l-11.633059-10.469753c8.143141-11.633059 12.796365-26.756035 12.796365-45.368929v-19.7762h97.717693v36.062482h-84.921329z m-22.102812-76.778188H453.834706v-9.306447h13.959671v9.306447h51.185458V861.137177h-51.185458v8.143141H512v12.796365h-103.534223v-12.796365H453.834706V861.137177h-51.185459v-12.796365z m53.512071 52.348765h-29.082647v11.633059h30.245953v-11.633059z m13.95967 12.796364h27.919342v-11.633058h-27.919342v11.633058zM624.84067 934.425447h-48.858847v27.919341h-12.796364v-65.145129c-6.979835 6.979835-13.959671 13.959671-22.102812 20.939506l-9.306447-11.633059c15.122976-11.633059 26.756035-25.592729 36.062482-40.715706H535.266118v-13.95967h38.389094c2.326612-4.653224 3.489918-9.306447 4.653223-13.959671l13.959671 1.163306c-1.163306 4.653224-3.489918 9.306447-4.653224 12.796365H651.596705v13.95967h-69.798352c-2.326612 4.653224-4.653224 8.143141-6.979836 11.633059h60.491906v72.124965c0 8.143141-4.653224 11.633059-13.95967 11.633059h-15.122977l-3.489917-12.796365c5.816529 0 10.469753 1.163306 13.95967 1.163306 3.489918 0 4.653224-1.163306 4.653224-4.653224v-10.469753z m-48.858847-44.205623v10.469753h48.858847v-10.469753h-48.858847z m48.858847 22.102812h-48.858847v10.469753h48.858847v-10.469753zM687.659188 886.729906H721.395058v-5.816529h-40.715706v-5.81653h-8.143141v-27.919341H721.395058c-1.163306-2.326612-2.326612-4.653224-3.489917-8.143141l15.122976-2.326612c1.163306 3.489918 2.326612 5.816529 3.489918 10.469753h48.858847V872.770236h-8.143142v8.143141h-40.715705v5.816529H767.927293v10.469753h-33.73587v5.81653h51.185459v11.633058h-51.185459v4.653224h-13.959671v-4.653224h-51.185458v-11.633058h51.185458v-5.81653H686.495882v-10.469753z m84.921329 36.062483v39.552399h-13.959671v-4.653223h-61.655211v4.653223h-13.959671v-39.552399h89.574553z m-2.326612-52.348765V861.137177h-84.921329v9.306447h34.899176v-5.816529h13.959671v5.816529h36.062482z m-73.28827 75.614882h61.655211v-11.633059h-61.655211v11.633059z"  /><path d="M523.633059 374.87532s-74.451576-26.756035-57.001988 108.187446l8.143141 5.81653c-2.326612-67.471741 32.572565-73.28827 32.572564-73.288271 39.5524 1.163306 34.899176 27.919341 34.899177 27.919341-33.73587-6.979835-43.042318 22.102812-43.042318 22.102812h43.042318c-13.959671 53.51207-34.899176 50.022153-34.899177 50.022153l4.653224 3.489918s-13.959671 10.469753-27.919341 19.776199v18.612895s110.514059-89.574553 63.981823-132.616871-60.491906 11.633059-70.961658-11.633058c-8.143141-17.449588 30.245953-37.225788 51.185458-29.082647 120.983811 50.022153 27.919341 147.739847 0 177.985799s-67.471741 40.715706-77.941494 20.939506c-4.653224-9.306447 3.489918-22.102812 12.796365-32.572565-1.163306 0-2.326612 1.163306-3.489918 1.163306-15.122976 4.653224-41.879012 36.062482-5.816529 48.858847s96.554388-46.532235 112.84067-65.145129c15.122976-17.449588 75.614882-129.126953-43.042317-160.536211z"  /><path d="M544.572565 555.187731l122.147117 66.308435-114.003976-77.941494zM646.943482 466.776484l25.592729-30.245953-40.715705-11.633059 12.796364-81.431411-36.062482 8.143141-4.653224-26.756035-26.756035 19.7762 18.612894-82.594718-50.022153 67.471741 3.489918-70.961658-37.225788 43.042317-8.143141-74.451576-33.735871 72.124964-34.899176-44.205623 10.469753 61.655212-32.572565-2.326612 4.653224 34.899176-32.572565-16.286282 8.143141 67.471741-40.715705-17.449588 15.122976 41.879011-37.225788 15.122977 172.16927 93.06447 13.959671-13.95967L395.669412 436.530531l27.919341-16.286282-20.939506-37.225788h36.062483l-3.489918-36.062483 36.062482 12.796365 19.7762-40.715706 15.122977 33.735871 25.592729-13.959671 13.95967 23.266118 50.022153 10.469753-8.143141 18.612894 19.7762 18.612894-1.163306 30.245953 27.919341 24.429423-22.102811 23.266118 32.572564 6.979835-41.879011 31.409259 91.901164-1.163306 29.082647-25.592729z"  /></svg>