<?xml version="1.0" standalone="no"?><!DOCTYPE svg PUBLIC "-//W3C//DTD SVG 1.1//EN" "http://www.w3.org/Graphics/SVG/1.1/DTD/svg11.dtd"><svg class="icon" width="200px" height="200.00px" viewBox="0 0 1024 1024" version="1.1" xmlns="http://www.w3.org/2000/svg"><path d="M102.516331 648.252201L458.48793 30.536779c23.266118-40.715706 82.594717-40.715706 105.860835 0l357.134904 617.715422c23.266118 40.715706-5.816529 91.901164-53.51207 91.901165H154.865095c-46.532235 0-75.614882-51.185459-52.348764-91.901165z" fill="#FFF500" /><path d="M130.435672 649.415507L475.937518 50.312979c16.286282-27.919341 55.838682-27.919341 70.961658 0l345.501846 597.939222c16.286282 27.919341-3.489918 61.655212-36.062482 61.655212H166.498154c-31.409259 1.163306-51.185459-33.73587-36.062482-60.491906z"  /><path d="M186.274354 651.742119L512 88.702073 837.725646 651.742119z" fill="#FFF500" /><path d="M193.254189 783.195683H860.991764V1024H193.254189z"  /><path d="M207.21386 797.155354h640.981539v214.048281H207.21386z" fill="#FFFFFF" /><path d="M275.848907 871.60693c9.306447 6.979835 16.286282 12.796365 22.102811 19.7762l-9.306447 9.306447c-5.816529-5.816529-12.796365-12.796365-22.102811-19.7762l9.306447-9.306447z m25.592729 43.042317c-5.816529 16.286282-12.796365 32.572565-19.7762 47.695541l-13.959671-6.979835c8.143141-13.959671 15.122976-30.245953 20.939506-46.532235l12.796365 5.816529zM279.338824 840.197671c9.306447 6.979835 16.286282 12.796365 23.266118 19.7762l-9.306447 10.469753c-5.816529-5.816529-12.796365-12.796365-23.266118-19.7762l9.306447-10.469753z m25.59273 19.7762h33.73587c-2.326612-5.816529-4.653224-11.633059-8.143141-18.612894l12.796365-3.489918c3.489918 8.143141 6.979835 15.122976 8.143141 22.102812H384.036353v13.959671h-32.572564v26.756035h29.082647v12.796364h-29.082647v30.245953h34.899176v13.959671H302.604942v-13.959671h36.062482v-30.245953h-29.082647v-12.796364h29.082647v-26.756035h-33.73587v-13.959671zM423.588753 932.098836c-3.489918 10.469753-6.979835 19.7762-12.796364 27.919341l-11.633059-8.143141c5.816529-6.979835 9.306447-15.122976 11.633059-22.102812l12.796364 2.326612z m4.653224-74.451577H407.302471v-11.633058h43.042317c-1.163306-2.326612-2.326612-3.489918-2.326611-5.81653l15.122976-2.326612c1.163306 1.163306 1.163306 3.489918 3.489918 8.143142H512v11.633058h-20.939506l-2.326612 6.979836h30.245953v11.633058H401.485941v-11.633058H430.568588l-2.326611-6.979836z m-12.796365 24.429424h90.737859v43.042317H465.467765c4.653224 4.653224 9.306447 9.306447 11.633059 13.959671l-11.633059 8.143141c-3.489918-4.653224-6.979835-9.306447-11.633059-13.959671l11.633059-6.979835h-48.858847v-44.205623z m13.959671 16.286282h62.818517v-5.816529h-62.818517v5.816529z m62.818517 15.122976V907.669412h-62.818517v5.816529h62.818517z m-45.368929 47.695542c-10.469753 0-16.286282-4.653224-16.286283-13.959671v-17.449588h13.959671v13.95967c0 3.489918 2.326612 4.653224 5.816529 4.653224H477.100824c2.326612 0 3.489918 0 4.653223-1.163306 1.163306-1.163306 2.326612-4.653224 2.326612-9.306447l12.796365 4.653223c-1.163306 9.306447-3.489918 15.122976-5.81653 16.286283-2.326612 1.163306-6.979835 2.326612-11.633059 2.326612h-32.572564z m-1.163306-96.554388h27.919341l3.489918-6.979836h-33.735871l2.326612 6.979836z m60.491906 61.655211c6.979835 9.306447 12.796365 16.286282 16.286282 22.102812l-11.633059 8.143141c-3.489918-6.979835-9.306447-15.122976-16.286282-23.266118l11.633059-6.979835zM535.266118 887.893212h37.225788c3.489918-5.816529 6.979835-12.796365 10.469753-20.939506l13.95967 4.653224-8.143141 16.286282h65.145129v12.796365H628.330588c-4.653224 12.796365-10.469753 23.266118-16.286282 30.245953 12.796365 5.816529 26.756035 11.633059 39.552399 19.7762l-9.306447 12.796364c-13.959671-8.143141-26.756035-15.122976-40.715705-20.939506-15.122976 12.796365-34.899176 19.7762-59.3286 20.939506l-8.143141-12.796364c22.102812 0 39.5524-4.653224 52.348764-13.959671-11.633059-4.653224-24.429423-9.306447-36.062482-12.796365 4.653224-8.143141 9.306447-15.122976 12.796365-20.939505H535.266118v-15.122977z m116.330587-37.225788v31.409259h-13.95967v-17.449588h-87.247941v17.449588h-13.959671v-30.245953h48.858847c-1.163306-3.489918-3.489918-6.979835-5.816529-10.469753l16.286282-2.326612c1.163306 3.489918 3.489918 6.979835 5.81653 12.796365H651.596705z m-70.961658 51.185459c-3.489918 5.816529-6.979835 11.633059-9.306447 16.286282 8.143141 2.326612 17.449588 4.653224 26.756035 9.306447 5.816529-6.979835 11.633059-15.122976 15.122976-24.429423h-32.572564zM733.028117 839.034365c16.286282 17.449588 36.062482 30.245953 58.165294 40.715706l-6.979835 12.796365c-6.979835-3.489918-12.796365-6.979835-18.612894-10.469753v11.633059h-30.245953v18.612894h37.225788v13.95967h-37.225788v19.7762h48.858847v13.959671h-112.840671v-13.959671h48.858847v-19.7762h-37.225788v-13.95967h37.225788v-18.612894h-30.245953v-11.633059c-5.816529 3.489918-12.796365 6.979835-18.612894 10.469753l-6.979835-12.796365c23.266118-10.469753 43.042318-24.429423 58.165294-40.715706h10.469753z m29.082647 40.715706c-12.796365-8.143141-24.429423-17.449588-34.899176-29.082647-9.306447 10.469753-20.939506 19.7762-34.899177 29.082647h69.798353zM487.570577 469.103096c3.489918 11.633059 11.633059 19.7762 24.429423 19.7762s19.7762-8.143141 24.429423-19.7762l16.286283-219.864811c0-24.429423-19.7762-39.5524-39.5524-39.5524-24.429423 0-39.5524 19.7762-39.5524 44.205623l13.959671 215.211588z m24.429423 60.491905c-24.429423 0-39.5524 16.286282-39.5524 39.5524 0 24.429423 16.286282 39.5524 39.5524 39.5524s39.5524-16.286282 39.5524-39.5524c0-24.429423-15.122976-39.5524-39.5524-39.5524z"  /></svg>