<?xml version="1.0" standalone="no"?><!DOCTYPE svg PUBLIC "-//W3C//DTD SVG 1.1//EN" "http://www.w3.org/Graphics/SVG/1.1/DTD/svg11.dtd"><svg t="1567929786479" class="icon" viewBox="0 0 1024 1024" version="1.1" xmlns="http://www.w3.org/2000/svg" p-id="5549" xmlns:xlink="http://www.w3.org/1999/xlink" width="200" height="200"><defs><style type="text/css"></style></defs><path d="M152.12153779 62h359.76615205a89.94153779 89.94153779 0 0 1 89.94153779 89.94153779v719.53230411a89.94153779 89.94153779 0 0 1-89.94153779 89.94153779H152.12153779a89.94153779 89.94153779 0 0 1-89.94153779-89.94153779V151.94153779a89.94153779 89.94153779 0 0 1 89.94153779-89.94153779z m179.88307646 449.70768984a134.91230713 134.91230713 0 1 0 0-269.82461426 134.91230713 134.91230713 0 0 0 0 269.82461426z m-134.91230712 179.88307647v89.9415378h269.82461425v-89.9415378H197.09230713z m629.23100009-413.7310749l-150.96687187-102.89311964 76.00059932-111.52750693L912.12753448 173.07779961a112.42692246 112.42692246 0 0 1 49.10807899 92.90960859V758.14750391a112.42692246 112.42692246 0 0 1-48.47848857 92.50487226l-160.99535302 111.34762383-76.76510274-110.98785762 151.32663808-104.64697969V277.85969141z" p-id="5550"></path></svg>