<?xml version="1.0" standalone="no"?><!DOCTYPE svg PUBLIC "-//W3C//DTD SVG 1.1//EN" "http://www.w3.org/Graphics/SVG/1.1/DTD/svg11.dtd"><svg t="1567929771719" class="icon" viewBox="0 0 1024 1024" version="1.1" xmlns="http://www.w3.org/2000/svg" p-id="5189" xmlns:xlink="http://www.w3.org/1999/xlink" width="200" height="200"><defs><style type="text/css"></style></defs><path d="M536.55324445 893.15555555H402.11342223v-105.5744L171.98648889 668.33066667a9.28426667 9.28426667 0 0 1-5.13137777-8.20337778V428.50986667l-99.64657778-52.15573334 64.85333333-111.86631111 107.40622222 56.20622223 225.15484445-116.66773334a10.24 10.24 0 0 1 9.4208 0l113.33404445 58.73208889h271.92888888a144.49777778 144.49777778 0 0 0-28.30791111-19.20568889L538.41920001 91.89831111a150.35733333 150.35733333 0 0 0-138.16035556 0L107.61102223 243.55271111C61.23520001 267.58257778 32.42666667 313.68533333 32.42666667 363.88408889v296.23182222c0 50.18737778 28.80853333 96.29013333 75.18435556 120.33137778l292.63644444 151.64302222a150.28906667 150.28906667 0 0 0 136.78364445 0.69404444V787.34222222l-0.47786667 0.25031111z" p-id="5190"></path><path d="M402.11342223 510.00888889h63.35146666l-29.68462222-51.10897778 33.83751112-17.73795556L239.50222223 320.70542222l-67.51573334 34.96391111a9.28426667 9.28426667 0 0 0-5.13137777 8.20337778v64.62577778l235.25831111 123.14168889z" p-id="5191"></path><path d="M171.98648889 355.66933333L239.50222223 320.70542222l-107.40622222-56.20622222-64.85333334 111.86631111 99.64657778 52.15573334v-64.62577778a9.28426667 9.28426667 0 0 1 5.09724444-8.22613334zM527.90613334 410.60124445l-58.27697778 30.54933333 35.11182223 18.37511111-29.27502223 50.4832h61.08728889v41.92711111l147.94524444-77.56231111H527.90613334v-63.77244444z" p-id="5192"></path><path d="M465.46488889 510.00888889h10.00106667l29.27502223-50.4832-35.11182223-18.37511111-33.84888889 17.73795555 29.68462222 51.12035556zM470.47111112 518.62186667l-30.60622223 52.78151111-37.75146666-19.7632v235.94097777l62.50951111 32.39253334a10.24 10.24 0 0 0 9.4208 0l62.50951111-32.39253334V551.936l-35.81724444 18.77333333z" p-id="5193"></path><path d="M464.62293334 819.97368889l-62.50951111-32.39253334V893.15555555h134.43982222v-105.5744l-62.50951111 32.39253334a10.24 10.24 0 0 1-9.4208 0zM402.11342223 510.00888889v41.63128889l37.76284444 19.75182222L470.47111112 518.62186667l-5.00622223-8.61297778h-63.35146666zM475.46595556 510.00888889l-4.99484444 8.61297778 30.26488889 52.09884444 35.81724444-18.78471111v-41.92711111h-61.08728889z" p-id="5194"></path><path d="M470.47111112 518.62186667l4.99484444-8.61297778h-10.00106667l5.00622223 8.61297778zM771.81155556 474.37368889V428.60088889l-87.31306667 45.7728h87.31306667z" p-id="5195"></path><path d="M859.35217779 262.7584h-271.9288889l111.91182223 58.02666667 107.26968889-56.24035556 64.95573333 111.8208-99.74897778 52.23537778v45.7728H906.24000001v-110.4896c0-38.99164445-17.38524445-75.50293333-46.88782222-101.12568889z" p-id="5196"></path><path d="M527.90613334 474.37368889h156.59235555l87.3016889-45.7728v-64.7168a9.28426667 9.28426667 0 0 0-5.13137778-8.20337778l-67.40195556-34.92977778-171.38346666 89.88444445z" p-id="5197"></path><path d="M771.81155556 363.88408889v64.7168l99.69208889-52.26951111-64.95573333-111.8208-107.26968889 56.24035555 67.40195556 34.92977778a9.28426667 9.28426667 0 0 1 5.13137777 8.20337778z" p-id="5198"></path><path d="M877.11288889 625.61848889C825.45777779 611.06631111 797.01333334 584.81777778 797.01333334 584.81777778s-28.44444445 26.24853333-80.09955555 40.80071111c-62.00888889 17.46488889-101.94488889 11.20711111-101.9448889 11.20711111s0.48924445 47.28604445 14.56355556 130.7648C644.55111112 856.74666667 691.42755556 908.11733333 727.83644445 927.77813333 767.28320001 949.07733333 797.01333334 948.90666667 797.01333334 948.90666667s29.73013333 0.17066667 69.17688889-21.12853334c36.40888889-19.6608 83.26257778-71.00871111 98.304-160.17635555 14.07431111-83.49013333 14.56355555-130.77617778 14.56355556-130.77617778s-39.936 6.25777778-101.9448889-11.20711111z" p-id="5199"></path></svg>