<?xml version="1.0" standalone="no"?><!DOCTYPE svg PUBLIC "-//W3C//DTD SVG 1.1//EN" "http://www.w3.org/Graphics/SVG/1.1/DTD/svg11.dtd"><svg t="1567929782626" class="icon" viewBox="0 0 1024 1024" version="1.1" xmlns="http://www.w3.org/2000/svg" p-id="5432" xmlns:xlink="http://www.w3.org/1999/xlink" width="200" height="200"><defs><style type="text/css"></style></defs><path d="M374.87355125 580.58465281a274.27689844 274.27689844 0 0 0 274.2768975-274.27689843 267.41997563 267.41997563 0 0 0-38.39876531-137.13844875A274.27689844 274.27689844 0 1 0 374.87355125 580.58465281zM722.51951938 566.18511594a215.99305781 215.99305781 0 0 0 0-431.3004225h-10.97107594A366.84535125 366.84535125 0 0 1 752.00428625 306.30775438a374.38796625 374.38796625 0 0 1-94.62553031 249.59197781 205.70767406 205.70767406 0 0 0 65.14076344 10.28538375zM536.69692062 666.29618375A199.53644344 199.53644344 0 0 0 512.012 658.06787656 249.59197781 249.59197781 0 0 0 443.44277562 649.15387719H306.30432594a254.39182312 254.39182312 0 0 0-68.56922438 8.91399937 274.27689844 274.27689844 0 0 0-126.16737281 68.56922438A274.27689844 274.27689844 0 0 0 32.02742844 923.43077562a68.56922438 68.56922438 0 0 0 68.56922437 68.56922438h548.55379594a68.56922438 68.56922438 0 0 0 68.56922531-68.56922438 205.70767406 205.70767406 0 0 0 0-35.65599656 274.27689844 274.27689844 0 0 0-181.02275343-221.47859531zM775.3178225 619.66911031H669.72121625a183.07983 183.07983 0 0 0-43.88430375 4.79984625 375.07365844 375.07365844 0 0 1 205.70767406 264.67720688h106.96799063a53.48399531 53.48399531 0 0 0 52.79830218-52.79830313 217.36444219 217.36444219 0 0 0-215.99305687-216.67875z" p-id="5433"></path></svg>