<?xml version="1.0" standalone="no"?><!DOCTYPE svg PUBLIC "-//W3C//DTD SVG 1.1//EN" "http://www.w3.org/Graphics/SVG/1.1/DTD/svg11.dtd"><svg t="1567929790208" class="icon" viewBox="0 0 1024 1024" version="1.1" xmlns="http://www.w3.org/2000/svg" p-id="5666" xmlns:xlink="http://www.w3.org/1999/xlink" width="200" height="200"><defs><style type="text/css"></style></defs><path d="M854.43226334 309.5625151V112.22355573c0-31.31119533-25.03689029-53.21093309-53.2109331-56.34808561H550.61110791c-31.31119533 0-53.21093309 25.03689029-53.21093309 56.34808561v131.51908634a340.68269751 340.68269751 0 0 1 125.24478132-21.89973777 349.91316549 349.91316549 0 0 1 231.72697734 87.7196108zM271.88717265 528.80121225a444.45005003 444.45005003 0 0 1 15.68576258-68.89669571H150.02086329c-31.31119533 0-53.21093309 25.03689029-53.2109331 56.34808563v250.54989246c0 31.31119533 25.03689029 53.21093309 53.2109331 56.3480856h216.10154461a202.6479867 202.6479867 0 0 1-25.03689029-28.1740428A370.1236673 370.1236673 0 0 1 271.88717265 528.80121225z m676.47867666 378.93182628l-97.0707385-125.24478131a28.23437266 28.23437266 0 0 0 3.13715253-15.68576259v-12.54861008a291.51386477 291.51386477 0 0 0-3.13715253-357.03208852l-3.13715251-6.03298561c-87.71961081-106.48219606-234.86412988-137.79339139-353.894936-81.44530575a258.81508274 258.81508274 0 0 0-40.72265288 21.89973778 43.25650685 43.25650685 0 0 0-12.54861008 9.41145755 286.68747628 286.68747628 0 0 0-72.03384819 78.42881294c-6.03298562 12.54861008-15.68576258 25.03689029-21.89973777 40.72265288-40.72265287 93.63193669-28.11371296 209.5255903 37.58550035 297.2452011 15.68576258 18.76258526 31.31119533 37.58550035 50.13411044 50.13411043 93.93358597 75.17100073 228.6501547 84.46179857 335.13235074 21.89973778l103.34504353 134.65623885a53.27126295 53.27126295 0 0 0 31.31119533 18.76258527 63.10502949 63.10502949 0 0 0 34.44834784-9.41145754 53.27126295 53.27126295 0 0 0 18.76258525-31.31119534 63.10502949 63.10502949 0 0 0-9.41145755-34.44834784z m-191.06465432-153.47915398c-78.42881296 59.48523813-184.79034929 62.62239065-263.09850255 9.41145756a215.61890577 215.61890577 0 0 1-40.72265289-34.44834785 54.96049892 54.96049892 0 0 1-12.54861005-15.68576258 228.83114426 228.83114426 0 0 1-18.76258527-250.54989248 211.15449641 211.15449641 0 0 1 59.66622771-68.83636582 226.77992915 226.77992915 0 0 1 275.58678275 360.16924103zM150.02086329 419.18186366h153.17750468A393.83330075 393.83330075 0 0 1 403.40625899 293.87675251a270.45874498 270.45874498 0 0 1 50.13411043-31.13020577V112.22355573a51.88367627 51.88367627 0 0 0-15.68576259-37.58550035 57.79600215 57.79600215 0 0 0-37.58550037-15.68576261H150.02086329c-31.31119533 0-53.21093309 25.03689029-53.2109331 56.34808562v250.61022233c-3.43880179 28.23437266 21.65841834 53.27126295 53.2109331 53.27126294z" p-id="5667"></path></svg>