<?xml version="1.0" standalone="no"?><!DOCTYPE svg PUBLIC "-//W3C//DTD SVG 1.1//EN" "http://www.w3.org/Graphics/SVG/1.1/DTD/svg11.dtd"><svg t="1567929778337" class="icon" viewBox="0 0 1024 1024" version="1.1" xmlns="http://www.w3.org/2000/svg" p-id="5315" xmlns:xlink="http://www.w3.org/1999/xlink" width="200" height="200"><defs><style type="text/css"></style></defs><path d="M512 1020.13155555c80.78222222 0 146.20444445-65.42222222 146.20444445-146.20444444h-292.4088889c0 80.78222222 65.42222222 146.20444445 146.20444445 146.20444444zM870.28622222 672.54044445H836.26666667c-17.86311111 0-32.31288889-14.44977778-32.31288889-32.3128889V398.336c0-125.26933333-79.07555555-231.87911111-189.89511111-273.29422222 1.13777778-6.03022222 1.82044445-12.288 1.82044444-18.65955556 0-57.344-46.53511111-103.87911111-103.87911111-103.87911111s-103.87911111 46.53511111-103.87911111 103.87911111c0 6.37155555 0.68266667 12.62933333 1.82044444 18.65955556-110.81955555 41.41511111-189.89511111 148.02488889-189.89511111 273.29422222v241.89155555c0 17.86311111-14.44977778 32.31288889-32.31288889 32.3128889h-33.90577778c-28.21688889 0-51.2 22.86933333-51.2 51.2V770.27555555c0 28.21688889 22.86933333 51.2 51.2 51.2h716.45866667c28.21688889 0 51.2-22.86933333 51.2-51.2v-46.64888888c-0.11377778-28.21688889-22.98311111-51.08622222-51.2-51.08622222zM375.46666667 571.05066667l136.53333333-236.43022222 136.53333333 236.43022222H375.46666667z" p-id="5316"></path></svg>