<?xml version="1.0" standalone="no"?><!DOCTYPE svg PUBLIC "-//W3C//DTD SVG 1.1//EN" "http://www.w3.org/Graphics/SVG/1.1/DTD/svg11.dtd"><svg t="1567929753927" class="icon" viewBox="0 0 1024 1024" version="1.1" xmlns="http://www.w3.org/2000/svg" p-id="4822" xmlns:xlink="http://www.w3.org/1999/xlink" width="200" height="200"><defs><style type="text/css"></style></defs><path d="M849.5 737l0-64.18125 0.3375-0.16875L849.5 671.8625 849.5 408.725 849.5 408.33125 849.5 394.1 849.5 392.13125 849.5 337.9625 849.5 285.875 849.5 285.48125 849.5 254.2625 849.5 230.75l-9.45 0-4.95 0-26.04375 0-153.3375 0L594.29375 230.75 532.86875 230.75 471.44375 230.75 348.5375 230.75 287.1125 230.75 174.5 230.75l0 290.19375 0 61.425 0 61.425 0 29.86875L174.5 737l335.025 0L849.5 737zM793.25 545.80625l-41.5125-94.5L793.25 433.08125 793.25 545.80625zM707.01875 287l-22.275 9.7875L680.46875 287 707.01875 287zM496.1375 287l34.0875 77.68125L427.23125 409.90625 373.2875 287 496.1375 287zM230.75 382.175l42.01875 95.625L230.75 496.19375 230.75 382.175zM423.35 680.75L369.51875 558.125 317.99375 580.79375 361.925 680.75 230.75 680.75l0-0.225 109.85625-48.2625L317.99375 580.79375 230.75 619.1 230.75 557.675l116.1-51.01875L250.38125 287l61.425 0L398.375 484.04375l51.525-22.6125 154.51875-67.89375L581.75 342.0125 557.5625 287l61.425 0 36.45 83.925L793.25 310.175l0 61.425-115.2 50.79375L791.95625 680.75l-61.425 0-103.55625-235.6875L472.5125 512.9 420.9875 535.5125 484.775 680.75 423.35 680.75zM598.11875 519.14375L669.10625 680.75 546.2 680.75 495.125 564.425 598.11875 519.14375zM62 118.25l0 731.25 900 0L962 118.25 62 118.25zM905.75 793.25L118.25 793.25 118.25 174.5l787.5 0L905.75 793.25z" p-id="4823"></path></svg>